<?xml version="1.0" encoding="UTF-8"?>
<svg id="Layer_1" xmlns="http://www.w3.org/2000/svg" version="1.1" viewBox="0 0 258.63 142.52">
  <!-- Generator: Adobe Illustrator 30.2.1, SVG Export Plug-In . SVG Version: 2.1.1 Build 1)  -->
  <defs>
    <style>
      .st0, .st1 {
        fill: #d0922a;
      }

      .st1 {
        stroke-width: 2.95px;
      }

      .st1, .st2 {
        stroke: #fff;
      }

      .st1, .st3 {
        stroke-miterlimit: 10;
      }

      .st2 {
        stroke-linecap: round;
        stroke-linejoin: round;
        stroke-width: 2px;
      }

      .st2, .st3 {
        fill: none;
      }

      .st3 {
        stroke: #c89641;
        stroke-width: 2.95px;
      }
    </style>
  </defs>
  <rect x="-3.22" y="-6.89" width="267.95" height="157.66"/>
  <circle class="st3" cx="73.96" cy="71.67" r="50.04"/>
  <circle class="st1" cx="73.85" cy="72" r="50.04"/>
  <rect class="st2" x="51.23" y="50.63" width="8.1" height="5.41"/>
  <rect class="st2" x="51.23" y="61.46" width="8.1" height="5.41"/>
  <rect class="st2" x="51.23" y="72.13" width="8.1" height="5.41"/>
  <rect class="st2" x="51.23" y="82.88" width="8.1" height="5.41"/>
  <circle class="st2" cx="80.6" cy="66.15" r="3.82"/>
  <path class="st2" d="M82.48,69.55s5.21,2.58,5.21,6.67c-3.14,0-4.95,0-4.95,0h-2.98s-3.39,0-6.53,0c0-4.09,5.21-6.67,5.21-6.67"/>
  <path class="st2" d="M55.28,88.74v5.18h38.45c2.54,0,2.54-2.54,2.54-2.54v-43.55c0-2.54-2.87-2.65-2.87-2.65h-38.12v4.85"/>
  <line class="st2" x1="64.07" y1="49.26" x2="64.07" y2="89.95"/>
  <line class="st2" x1="55.28" y1="56.04" x2="55.28" y2="61.46"/>
  <line class="st2" x1="55.28" y1="67.26" x2="55.28" y2="71.31"/>
  <line class="st2" x1="55.28" y1="78.66" x2="55.28" y2="82.71"/>
  <g>
    <path class="st0" d="M140.34,61.86c1.16-.19,2.66-.29,4.25-.29,2.64,0,4.36.47,5.7,1.49,1.45,1.07,2.35,2.79,2.35,5.24,0,2.66-.97,4.5-2.31,5.64-1.47,1.22-3.7,1.8-6.42,1.8-1.63,0-2.79-.1-3.57-.21v-13.67ZM143.5,73.21c.27.06.7.06,1.09.06,2.85.02,4.71-1.55,4.71-4.87.02-2.89-1.67-4.42-4.38-4.42-.7,0-1.16.06-1.42.12v9.1Z"/>
    <path class="st0" d="M157.87,61.67v13.92h-3.16v-13.92h3.16Z"/>
    <path class="st0" d="M160.6,61.86c1.01-.17,2.52-.29,4.19-.29,2.06,0,3.51.31,4.5,1.09.83.66,1.28,1.63,1.28,2.91,0,1.78-1.26,2.99-2.46,3.43v.06c.97.39,1.51,1.32,1.86,2.6.43,1.57.87,3.39,1.14,3.92h-3.22c-.23-.39-.56-1.53-.97-3.24-.37-1.73-.97-2.21-2.25-2.23h-.95v5.47h-3.12v-13.73ZM163.71,67.84h1.24c1.57,0,2.5-.78,2.5-2,0-1.28-.87-1.92-2.31-1.94-.76,0-1.2.06-1.42.1v3.84Z"/>
    <path class="st0" d="M181.12,69.7h-5.12v3.3h5.72v2.58h-8.88v-13.92h8.59v2.58h-5.43v2.89h5.12v2.56Z"/>
    <path class="st0" d="M194.08,75.19c-.58.29-1.88.6-3.57.6-4.81,0-7.29-2.99-7.29-6.96,0-4.75,3.39-7.39,7.6-7.39,1.63,0,2.87.33,3.43.62l-.64,2.5c-.64-.27-1.53-.52-2.64-.52-2.5,0-4.44,1.51-4.44,4.6,0,2.79,1.65,4.54,4.46,4.54.95,0,2-.21,2.62-.45l.47,2.46Z"/>
    <path class="st0" d="M199.12,64.31h-3.74v-2.64h10.69v2.64h-3.8v11.27h-3.16v-11.27Z"/>
    <path class="st0" d="M219.89,68.48c0,4.56-2.77,7.33-6.83,7.33s-6.54-3.12-6.54-7.08c0-4.17,2.66-7.29,6.77-7.29s6.61,3.2,6.61,7.04ZM209.83,68.67c0,2.73,1.28,4.65,3.39,4.65s3.34-2.02,3.34-4.73c0-2.5-1.2-4.65-3.37-4.65s-3.36,2.02-3.36,4.73Z"/>
    <path class="st0" d="M221.95,61.86c1.01-.17,2.52-.29,4.19-.29,2.06,0,3.51.31,4.5,1.09.83.66,1.28,1.63,1.28,2.91,0,1.78-1.26,2.99-2.46,3.43v.06c.97.39,1.51,1.32,1.86,2.6.43,1.57.87,3.39,1.14,3.92h-3.22c-.23-.39-.56-1.53-.97-3.24-.37-1.73-.97-2.21-2.25-2.23h-.95v5.47h-3.12v-13.73ZM225.07,67.84h1.24c1.57,0,2.5-.78,2.5-2,0-1.28-.87-1.92-2.31-1.94-.76,0-1.2.06-1.42.1v3.84Z"/>
    <path class="st0" d="M237.02,75.59v-5.7l-4.4-8.22h3.59l1.42,3.34c.43,1.01.72,1.75,1.07,2.66h.04c.31-.87.64-1.67,1.05-2.66l1.4-3.34h3.53l-4.58,8.11v5.8h-3.14Z"/>
  </g>
</svg>