<?xml version="1.0" encoding="UTF-8"?>
<svg id="Layer_1" xmlns="http://www.w3.org/2000/svg" version="1.1" viewBox="0 0 258.63 142.52">
  <!-- Generator: Adobe Illustrator 30.2.1, SVG Export Plug-In . SVG Version: 2.1.1 Build 1)  -->
  <defs>
    <style>
      .st0 {
        stroke: #fff;
        stroke-linecap: round;
        stroke-linejoin: round;
        stroke-width: 2px;
      }

      .st0, .st1 {
        fill: none;
      }

      .st2 {
        fill: #fff;
      }

      .st1 {
        stroke: #c89641;
        stroke-miterlimit: 10;
        stroke-width: 2.95px;
      }
    </style>
  </defs>
  <rect x="-3.22" y="-6.89" width="267.95" height="157.66"/>
  <circle class="st1" cx="73.96" cy="71.67" r="50.04"/>
  <path class="st0" d="M49.9,87.54l4.34-8.68s-7.49-6.21-6.3-14.09c1.19-7.88,10.73-14.86,22.99-14.86s24.18,6.81,24.18,16.01-9.71,21.12-33.38,16.52c-5.45,2.21-11.83,5.11-11.83,5.11Z"/>
  <path class="st0" d="M75.35,83.96c3.93,2.21,10.41,2.89,14.55.9,5.45,2.21,11.83,5.11,11.83,5.11l-4.34-8.68s5.73-2.05,4.54-9.92c0,0-1.02-5.92-6.81-7.39"/>
  <circle class="st2" cx="62.56" cy="66.35" r="2.37"/>
  <circle class="st2" cx="72.97" cy="66.35" r="2.37"/>
  <circle class="st2" cx="83.39" cy="66.35" r="2.37"/>
  <g>
    <path class="st2" d="M152.24,75.42c-.58.29-1.88.6-3.57.6-4.81,0-7.29-2.99-7.29-6.96,0-4.75,3.39-7.39,7.6-7.39,1.63,0,2.87.33,3.43.62l-.64,2.5c-.64-.27-1.53-.52-2.64-.52-2.5,0-4.44,1.51-4.44,4.6,0,2.79,1.65,4.54,4.46,4.54.95,0,2-.21,2.62-.45l.47,2.46Z"/>
    <path class="st2" d="M154.31,62.08c.83-.17,2.5-.29,4.07-.29,1.92,0,3.1.19,4.11.78.97.52,1.67,1.47,1.67,2.73s-.72,2.39-2.29,2.97v.04c1.59.43,2.77,1.63,2.77,3.43,0,1.26-.58,2.25-1.45,2.95-1.01.81-2.71,1.26-5.47,1.26-1.55,0-2.7-.1-3.41-.21v-13.67ZM157.43,67.41h1.03c1.65,0,2.54-.68,2.54-1.71s-.81-1.61-2.23-1.61c-.68,0-1.07.04-1.34.08v3.24ZM157.43,73.58c.31.04.68.04,1.22.04,1.42,0,2.68-.54,2.68-2s-1.26-1.96-2.83-1.96h-1.07v3.92Z"/>
    <path class="st2" d="M166.78,61.9h3.16v11.27h5.53v2.64h-8.69v-13.92Z"/>
    <path class="st2" d="M181.5,62.08c.83-.17,2.5-.29,4.07-.29,1.92,0,3.1.19,4.11.78.97.52,1.67,1.47,1.67,2.73s-.72,2.39-2.29,2.97v.04c1.59.43,2.77,1.63,2.77,3.43,0,1.26-.58,2.25-1.45,2.95-1.01.81-2.71,1.26-5.47,1.26-1.55,0-2.7-.1-3.41-.21v-13.67ZM184.61,67.41h1.03c1.65,0,2.54-.68,2.54-1.71s-.81-1.61-2.23-1.61c-.68,0-1.07.04-1.34.08v3.24ZM184.61,73.58c.31.04.68.04,1.22.04,1.42,0,2.68-.54,2.68-2s-1.26-1.96-2.83-1.96h-1.07v3.92Z"/>
    <path class="st2" d="M193.96,61.9h3.16v11.27h5.53v2.64h-8.69v-13.92Z"/>
    <path class="st2" d="M216.47,68.71c0,4.56-2.77,7.33-6.83,7.33s-6.54-3.12-6.54-7.08c0-4.17,2.66-7.29,6.77-7.29s6.61,3.2,6.61,7.04ZM206.41,68.9c0,2.73,1.28,4.65,3.39,4.65s3.34-2.02,3.34-4.73c0-2.5-1.2-4.65-3.37-4.65s-3.36,2.02-3.36,4.73Z"/>
    <path class="st2" d="M230.15,75.17c-.97.33-2.81.79-4.64.79-2.54,0-4.38-.64-5.66-1.88-1.28-1.2-1.98-3.01-1.96-5.06.02-4.62,3.39-7.27,7.95-7.27,1.8,0,3.18.35,3.86.68l-.66,2.52c-.76-.33-1.71-.6-3.24-.6-2.62,0-4.6,1.49-4.6,4.5s1.8,4.56,4.38,4.56c.72,0,1.3-.08,1.55-.21v-2.91h-2.15v-2.46h5.18v7.33Z"/>
  </g>
</svg>