<?xml version="1.0" encoding="UTF-8"?>
<svg id="Layer_1" xmlns="http://www.w3.org/2000/svg" version="1.1" viewBox="0 0 1280 166.67">
  <!-- Generator: Adobe Illustrator 30.2.1, SVG Export Plug-In . SVG Version: 2.1.1 Build 1)  -->
  <defs>
    <style>
      .st0 {
        stroke-width: 1.62px;
      }

      .st0, .st1, .st2, .st3 {
        stroke-linecap: round;
        stroke-linejoin: round;
      }

      .st0, .st1, .st2, .st3, .st4, .st5 {
        fill: none;
        stroke: #fff;
      }

      .st1 {
        stroke-width: 1.58px;
      }

      .st2 {
        stroke-width: 1.71px;
      }

      .st3 {
        stroke-width: 1.78px;
      }

      .st6 {
        fill: #fff;
      }

      .st4 {
        stroke-width: 1.04px;
      }

      .st4, .st5, .st7 {
        stroke-miterlimit: 10;
      }

      .st5 {
        stroke-width: 1.04px;
      }

      .st7 {
        stroke: #d0922a;
        stroke-width: 1.96px;
      }
    </style>
  </defs>
  <rect width="1280" height="166.67"/>
  <g>
    <g>
      <rect x="172.5" y="58.92" width="150.36" height="54.98" rx="15.34" ry="15.34"/>
      <rect class="st4" x="172.5" y="58.92" width="150.36" height="54.98" rx="15.34" ry="15.34"/>
    </g>
    <g>
      <path class="st6" d="M211.53,80.85h-3.98v-3.03h11.39v3.03h-4.05v12.93h-3.36v-12.93Z"/>
      <path class="st6" d="M220.72,78.03c1.08-.19,2.68-.33,4.46-.33,2.2,0,3.74.36,4.79,1.26.88.76,1.36,1.87,1.36,3.34,0,2.04-1.34,3.43-2.62,3.93v.07c1.03.45,1.61,1.52,1.98,2.98.46,1.8.92,3.88,1.21,4.5h-3.43c-.24-.45-.59-1.75-1.03-3.72-.4-1.99-1.03-2.53-2.4-2.56h-1.01v6.28h-3.32v-15.75ZM224.04,84.9h1.32c1.67,0,2.66-.9,2.66-2.3,0-1.47-.92-2.2-2.46-2.23-.81,0-1.28.07-1.52.12v4.4Z"/>
      <path class="st6" d="M237.41,89.68l-1.06,4.1h-3.47l4.53-15.96h4.4l4.6,15.96h-3.61l-1.14-4.1h-4.24ZM241.17,86.98l-.92-3.39c-.26-.95-.53-2.13-.75-3.08h-.04c-.22.95-.44,2.16-.68,3.08l-.88,3.39h3.28Z"/>
      <path class="st6" d="M250.59,93.78l-4.75-15.96h3.67l1.8,6.75c.51,1.89.97,3.72,1.32,5.71h.07c.37-1.92.84-3.81,1.34-5.64l1.89-6.82h3.56l-4.99,15.96h-3.91Z"/>
      <path class="st6" d="M269.9,87.03h-5.45v3.79h6.09v2.96h-9.45v-15.96h9.15v2.96h-5.78v3.32h5.45v2.94Z"/>
      <path class="st6" d="M272.82,77.82h3.36v12.93h5.89v3.03h-9.26v-15.96Z"/>
      <path class="st6" d="M284.17,90.06c.9.5,2.29.99,3.72.99,1.54,0,2.35-.69,2.35-1.73s-.7-1.56-2.48-2.25c-2.46-.92-4.07-2.39-4.07-4.71,0-2.72,2.11-4.81,5.61-4.81,1.67,0,2.9.38,3.78.8l-.75,2.91c-.59-.31-1.65-.76-3.1-.76s-2.15.71-2.15,1.54c0,1.02.84,1.47,2.75,2.25,2.62,1.04,3.85,2.51,3.85,4.76,0,2.68-1.91,4.95-5.98,4.95-1.69,0-3.36-.47-4.2-.97l.68-2.98Z"/>
    </g>
    <circle class="st7" cx="155.07" cy="86.18" r="33.3"/>
    <g>
      <rect x="946.33" y="60.19" width="212.36" height="54.98" rx="15.23" ry="15.23"/>
      <rect class="st5" x="946.33" y="60.19" width="212.36" height="54.98" rx="15.23" ry="15.23"/>
    </g>
    <g>
      <path class="st6" d="M989.85,90.95l-1.14,4.1h-3.74l4.88-15.96h4.74l4.95,15.96h-3.88l-1.23-4.1h-4.57ZM993.9,88.25l-1-3.39c-.28-.95-.57-2.13-.81-3.08h-.05c-.24.95-.47,2.15-.73,3.08l-.95,3.39h3.53Z"/>
      <path class="st6" d="M1002.79,82.11h-4.29v-3.03h12.27v3.03h-4.36v12.93h-3.62v-12.93Z"/>
      <path class="st6" d="M1016.29,82.11h-4.29v-3.03h12.27v3.03h-4.36v12.93h-3.62v-12.93Z"/>
      <path class="st6" d="M1026.19,79.3c1.16-.19,2.89-.33,4.81-.33,2.37,0,4.03.35,5.16,1.25.95.76,1.47,1.87,1.47,3.34,0,2.04-1.44,3.43-2.82,3.93v.07c1.11.45,1.73,1.52,2.13,2.98.5,1.8.99,3.88,1.3,4.5h-3.69c-.26-.45-.64-1.75-1.11-3.72-.43-1.99-1.11-2.53-2.58-2.56h-1.09v6.28h-3.58v-15.75ZM1029.77,86.16h1.42c1.8,0,2.87-.9,2.87-2.3,0-1.47-1-2.2-2.65-2.23-.88,0-1.37.07-1.63.12v4.41Z"/>
      <path class="st6" d="M1044.17,90.95l-1.14,4.1h-3.74l4.88-15.96h4.74l4.95,15.96h-3.88l-1.23-4.1h-4.57ZM1048.22,88.25l-.99-3.39c-.28-.95-.57-2.13-.8-3.08h-.05c-.24.95-.47,2.15-.73,3.08l-.95,3.39h3.53Z"/>
      <path class="st6" d="M1067.12,94.59c-.66.33-2.15.69-4.1.69-5.52,0-8.36-3.43-8.36-7.98,0-5.45,3.88-8.48,8.71-8.48,1.87,0,3.29.38,3.93.71l-.73,2.87c-.73-.31-1.75-.59-3.03-.59-2.87,0-5.09,1.73-5.09,5.28,0,3.2,1.89,5.21,5.12,5.21,1.09,0,2.3-.24,3.01-.52l.54,2.82Z"/>
      <path class="st6" d="M1072.9,82.11h-4.29v-3.03h12.27v3.03h-4.36v12.93h-3.62v-12.93Z"/>
      <path class="st6" d="M1086.43,79.08v15.96h-3.62v-15.96h3.62Z"/>
      <path class="st6" d="M1104.17,86.9c0,5.23-3.17,8.41-7.84,8.41s-7.51-3.58-7.51-8.12c0-4.78,3.05-8.36,7.77-8.36s7.58,3.67,7.58,8.08ZM1092.63,87.11c0,3.13,1.47,5.33,3.88,5.33s3.84-2.32,3.84-5.42c0-2.87-1.37-5.33-3.86-5.33s-3.86,2.32-3.86,5.42Z"/>
      <path class="st6" d="M1106.54,95.04v-15.96h4.22l3.32,5.85c.95,1.68,1.89,3.67,2.61,5.47h.07c-.24-2.11-.31-4.26-.31-6.66v-4.67h3.32v15.96h-3.79l-3.41-6.16c-.95-1.71-1.99-3.77-2.77-5.64l-.07.02c.09,2.11.14,4.36.14,6.96v4.81h-3.32Z"/>
      <path class="st6" d="M1123,91.33c.97.5,2.46,1,4,1,1.66,0,2.53-.69,2.53-1.73s-.76-1.56-2.68-2.25c-2.65-.92-4.38-2.39-4.38-4.71,0-2.72,2.27-4.81,6.04-4.81,1.8,0,3.13.38,4.07.81l-.8,2.91c-.64-.31-1.78-.76-3.34-.76s-2.32.71-2.32,1.54c0,1.02.9,1.47,2.96,2.25,2.82,1.04,4.14,2.51,4.14,4.76,0,2.68-2.06,4.95-6.44,4.95-1.82,0-3.62-.47-4.52-.97l.73-2.98Z"/>
    </g>
    <circle class="st7" cx="930.94" cy="83.73" r="33.3"/>
    <circle class="st3" cx="937.26" cy="70.09" r="3.21"/>
    <circle class="st3" cx="924.32" cy="76.27" r="3.21"/>
    <path class="st3" d="M937.26,63.3s-7.16.45-7.16,7.46,7.16,11.74,7.16,11.74c0,0,6.95-4.37,6.95-12.2,0-7.03-6.95-7-6.95-7Z"/>
    <path class="st3" d="M913.5,86.82c-.27-1.22-.3-1.96-.3-3.26,0-8.81,6.42-16.12,14.84-17.5"/>
    <path class="st3" d="M946.34,74.75c1.49,2.6,2.34,5.6,2.34,8.81,0,1.6-.21,3.15-.61,4.63"/>
    <path class="st3" d="M932.77,90.34s4.64-4.96,5.88-4.92c1.78.06,8.17,6.05,8.17,6.05-2.78,6.15-8.69,9.83-15.88,9.83-7.62,0-14.12-4.8-16.63-11.55,0,0,6.73-7.26,8.44-7.25,1.07,0,1.55.13,4.78,3.33,3.22,3.2,12.59,12.16,12.59,12.16"/>
    <g>
      <rect x="667.08" y="59.16" width="212.36" height="54.98" rx="15.23" ry="15.23"/>
      <rect class="st5" x="667.08" y="59.16" width="212.36" height="54.98" rx="15.23" ry="15.23"/>
    </g>
    <g>
      <path class="st6" d="M707.54,87.27h-5.87v3.79h6.56v2.96h-10.18v-15.96h9.85v2.96h-6.23v3.32h5.87v2.94Z"/>
      <path class="st6" d="M714.42,89.92l-1.14,4.1h-3.74l4.88-15.96h4.74l4.95,15.96h-3.88l-1.23-4.1h-4.57ZM718.47,87.22l-1-3.39c-.28-.95-.57-2.13-.81-3.08h-.05c-.24.95-.47,2.15-.73,3.08l-.95,3.39h3.53Z"/>
      <path class="st6" d="M727.35,81.09h-4.29v-3.03h12.27v3.03h-4.36v12.93h-3.62v-12.93Z"/>
      <path class="st6" d="M737.16,90.3c.97.5,2.46,1,4,1,1.66,0,2.53-.69,2.53-1.73s-.76-1.56-2.68-2.25c-2.65-.92-4.38-2.39-4.38-4.71,0-2.72,2.27-4.81,6.04-4.81,1.8,0,3.13.38,4.07.81l-.8,2.91c-.64-.31-1.78-.76-3.34-.76s-2.32.71-2.32,1.54c0,1.02.9,1.47,2.96,2.25,2.82,1.04,4.14,2.51,4.14,4.76,0,2.68-2.06,4.95-6.44,4.95-1.82,0-3.62-.47-4.52-.97l.73-2.98Z"/>
      <path class="st6" d="M764.78,94.02c-.33-.36-.66-.71-1.04-1.14-1.04.8-2.49,1.4-4.38,1.4-3.86,0-5.57-2.3-5.57-4.52,0-2.11,1.21-3.62,3.03-4.57v-.09c-.69-.76-1.21-1.94-1.21-3.08,0-2.01,1.59-4.22,4.78-4.22,2.46,0,4.33,1.44,4.33,3.74,0,1.61-.95,2.98-3.15,4.1l-.02.09c.92,1.02,1.89,2.18,2.68,2.98.64-1,1.14-2.46,1.35-3.88h3.22c-.43,2.42-1.23,4.48-2.65,6.06.9,1.02,1.82,2.06,2.82,3.13h-4.19ZM762.05,90.87c-.99-.99-2.3-2.44-3.6-3.91-.66.47-1.25,1.16-1.25,2.2,0,1.35,1.02,2.51,2.65,2.51.95,0,1.73-.36,2.2-.81ZM758.83,81.68c0,.81.38,1.52,1.09,2.3,1.16-.81,1.75-1.42,1.75-2.34,0-.76-.45-1.59-1.4-1.59s-1.44.81-1.44,1.63Z"/>
      <path class="st6" d="M775.46,78.27c1.33-.21,3.05-.33,4.88-.33,3.03,0,5,.54,6.54,1.71,1.66,1.23,2.7,3.2,2.7,6.01,0,3.06-1.11,5.16-2.65,6.47-1.68,1.4-4.24,2.06-7.36,2.06-1.87,0-3.2-.12-4.1-.24v-15.68ZM779.08,91.29c.31.07.8.07,1.25.07,3.27.02,5.4-1.78,5.4-5.59.02-3.32-1.92-5.07-5.02-5.07-.81,0-1.33.07-1.63.14v10.44Z"/>
      <path class="st6" d="M791.95,78.27c1.16-.19,2.89-.33,4.81-.33,2.37,0,4.03.35,5.16,1.25.95.76,1.47,1.87,1.47,3.34,0,2.04-1.44,3.43-2.82,3.93v.07c1.11.45,1.73,1.52,2.13,2.98.5,1.8.99,3.88,1.3,4.5h-3.69c-.26-.45-.64-1.75-1.11-3.72-.43-1.99-1.11-2.53-2.58-2.56h-1.09v6.28h-3.58v-15.75ZM795.52,85.14h1.42c1.8,0,2.87-.9,2.87-2.3,0-1.47-1-2.2-2.65-2.23-.88,0-1.37.07-1.63.12v4.41Z"/>
      <path class="st6" d="M809.62,78.05v15.96h-3.62v-15.96h3.62Z"/>
      <path class="st6" d="M812.75,94.02v-15.96h4.22l3.32,5.85c.95,1.68,1.89,3.67,2.61,5.47h.07c-.24-2.11-.31-4.26-.31-6.66v-4.67h3.32v15.96h-3.79l-3.41-6.16c-.95-1.71-1.99-3.77-2.77-5.64l-.07.02c.09,2.11.14,4.36.14,6.96v4.81h-3.32Z"/>
      <path class="st6" d="M829.09,78.05h3.58v7.06h.07c.36-.62.73-1.18,1.09-1.75l3.62-5.3h4.43l-5.28,6.8,5.57,9.17h-4.22l-3.91-6.89-1.37,1.68v5.21h-3.58v-15.96Z"/>
      <path class="st6" d="M843.75,90.3c.97.5,2.46,1,4,1,1.66,0,2.53-.69,2.53-1.73s-.76-1.56-2.68-2.25c-2.65-.92-4.38-2.39-4.38-4.71,0-2.72,2.27-4.81,6.04-4.81,1.8,0,3.13.38,4.07.81l-.8,2.91c-.64-.31-1.78-.76-3.34-.76s-2.32.71-2.32,1.54c0,1.02.9,1.47,2.96,2.25,2.82,1.04,4.14,2.51,4.14,4.76,0,2.68-2.06,4.95-6.44,4.95-1.82,0-3.62-.47-4.52-.97l.73-2.98Z"/>
    </g>
    <g>
      <g>
        <rect x="389.81" y="58.89" width="212.36" height="54.98" rx="15.23" ry="15.23"/>
        <rect class="st5" x="389.81" y="58.89" width="212.36" height="54.98" rx="15.23" ry="15.23"/>
      </g>
      <g>
        <path class="st6" d="M418.57,80.82h-3.82v-3.03h10.92v3.03h-3.88v12.93h-3.23v-12.93Z"/>
        <path class="st6" d="M427.38,78c1.03-.19,2.57-.33,4.28-.33,2.11,0,3.58.35,4.6,1.25.84.76,1.31,1.87,1.31,3.34,0,2.04-1.29,3.43-2.51,3.93v.07c.99.45,1.54,1.52,1.9,2.98.44,1.8.89,3.88,1.16,4.5h-3.29c-.23-.45-.57-1.75-.99-3.72-.38-1.99-.99-2.53-2.3-2.56h-.97v6.28h-3.18v-15.75ZM430.56,84.87h1.27c1.6,0,2.55-.9,2.55-2.3,0-1.47-.89-2.2-2.36-2.23-.78,0-1.22.07-1.46.12v4.41Z"/>
        <path class="st6" d="M443.38,89.65l-1.01,4.1h-3.33l4.34-15.96h4.22l4.41,15.96h-3.46l-1.1-4.1h-4.07ZM446.99,86.95l-.89-3.39c-.25-.95-.51-2.13-.72-3.08h-.04c-.21.95-.42,2.15-.65,3.08l-.84,3.39h3.14Z"/>
        <path class="st6" d="M453.9,93.75v-15.96h3.75l2.95,5.85c.84,1.68,1.69,3.67,2.32,5.47h.06c-.21-2.11-.27-4.26-.27-6.66v-4.67h2.95v15.96h-3.37l-3.04-6.16c-.84-1.71-1.77-3.77-2.47-5.64l-.06.02c.08,2.11.13,4.36.13,6.96v4.81h-2.95Z"/>
        <path class="st6" d="M468.55,90.03c.86.5,2.19,1,3.56,1,1.48,0,2.26-.69,2.26-1.73s-.67-1.56-2.38-2.25c-2.36-.92-3.9-2.39-3.9-4.71,0-2.72,2.02-4.81,5.38-4.81,1.6,0,2.78.38,3.63.81l-.72,2.91c-.57-.31-1.58-.76-2.97-.76s-2.07.71-2.07,1.54c0,1.02.8,1.47,2.64,2.25,2.51,1.04,3.69,2.51,3.69,4.76,0,2.68-1.83,4.95-5.74,4.95-1.62,0-3.23-.47-4.03-.97l.65-2.98Z"/>
        <path class="st6" d="M479.83,78c.99-.19,2.38-.33,4.34-.33s3.4.43,4.34,1.28c.91.81,1.52,2.13,1.52,3.69s-.46,2.89-1.31,3.79c-1.1,1.16-2.72,1.68-4.62,1.68-.42,0-.8-.02-1.1-.07v5.71h-3.18v-15.75ZM483.02,85.25c.27.07.61.09,1.08.09,1.71,0,2.76-.97,2.76-2.61,0-1.47-.91-2.34-2.51-2.34-.65,0-1.1.07-1.33.14v4.71Z"/>
        <path class="st6" d="M505.09,85.6c0,5.23-2.83,8.41-6.98,8.41s-6.68-3.58-6.68-8.12c0-4.78,2.72-8.36,6.92-8.36s6.75,3.67,6.75,8.08ZM494.82,85.81c0,3.13,1.31,5.33,3.46,5.33s3.42-2.32,3.42-5.42c0-2.87-1.22-5.33-3.44-5.33s-3.44,2.32-3.44,5.42Z"/>
        <path class="st6" d="M507.2,78c1.03-.19,2.57-.33,4.28-.33,2.11,0,3.58.35,4.6,1.25.84.76,1.31,1.87,1.31,3.34,0,2.04-1.29,3.43-2.51,3.93v.07c.99.45,1.54,1.52,1.9,2.98.44,1.8.89,3.88,1.16,4.5h-3.29c-.23-.45-.57-1.75-.99-3.72-.38-1.99-.99-2.53-2.3-2.56h-.97v6.28h-3.18v-15.75ZM510.38,84.87h1.27c1.6,0,2.55-.9,2.55-2.3,0-1.47-.89-2.2-2.36-2.23-.78,0-1.22.07-1.46.12v4.41Z"/>
        <path class="st6" d="M522.44,80.82h-3.82v-3.03h10.92v3.03h-3.88v12.93h-3.23v-12.93Z"/>
        <path class="st6" d="M533.05,89.65l-1.01,4.1h-3.33l4.34-15.96h4.22l4.41,15.96h-3.46l-1.1-4.1h-4.07ZM536.65,86.95l-.89-3.39c-.25-.95-.51-2.13-.72-3.08h-.04c-.21.95-.42,2.15-.65,3.08l-.84,3.39h3.14Z"/>
        <path class="st6" d="M544.56,80.82h-3.82v-3.03h10.92v3.03h-3.88v12.93h-3.23v-12.93Z"/>
        <path class="st6" d="M556.6,77.79v15.96h-3.23v-15.96h3.23Z"/>
        <path class="st6" d="M572.39,85.6c0,5.23-2.83,8.41-6.98,8.41s-6.68-3.58-6.68-8.12c0-4.78,2.72-8.36,6.92-8.36s6.75,3.67,6.75,8.08ZM562.12,85.81c0,3.13,1.31,5.33,3.46,5.33s3.42-2.32,3.42-5.42c0-2.87-1.22-5.33-3.44-5.33s-3.44,2.32-3.44,5.42Z"/>
        <path class="st6" d="M574.5,93.75v-15.96h3.75l2.95,5.85c.84,1.68,1.69,3.67,2.32,5.47h.06c-.21-2.11-.27-4.26-.27-6.66v-4.67h2.95v15.96h-3.37l-3.04-6.16c-.84-1.71-1.77-3.77-2.47-5.64l-.06.02c.08,2.11.13,4.36.13,6.96v4.81h-2.95Z"/>
      </g>
      <circle class="st7" cx="372.38" cy="86.15" r="33.3"/>
      <path class="st0" d="M358.22,80.37l-2.38,3.89c-.46.75-.66,1.61-.56,2.47l.95,8.15h16.14"/>
      <path class="st0" d="M358.22,80.37s-1.01-.87-2.55-1.09c-1.54-.22-2.6-.06-2.79.53-.23.72-1.26,2.3,1.33,2.38"/>
      <path class="st0" d="M372.72,74.31s-8.93-.12-10.73.74c-1.58.75-3.35,4.42-3.77,5.32"/>
      <path class="st0" d="M366.43,88.28s-2.2-.12-5.19-.23c-2.99-.12-2.42-2.03-2.42-2.03"/>
      <path class="st0" d="M366.43,91.52h12.58"/>
      <path class="st0" d="M358.13,80.52s.56.89,2.58.89h11.9"/>
      <path class="st0" d="M360.84,94.88h0c1.56,0,2.82,1.27,2.82,2.82v.3h-5.65v-.3c0-1.56,1.27-2.82,2.82-2.82Z" transform="translate(721.69 192.88) rotate(180)"/>
      <path class="st0" d="M386.54,80.37l2.38,3.89c.46.75.66,1.61.56,2.47l-.95,8.15h-16.14"/>
      <path class="st0" d="M386.54,80.37s1.01-.87,2.55-1.09c1.54-.22,2.6-.06,2.79.53.23.72,1.26,2.3-1.33,2.38"/>
      <path class="st0" d="M372.04,74.31s8.93-.12,10.73.74c1.58.75,3.35,4.42,3.77,5.32"/>
      <path class="st0" d="M378.33,88.28s2.2-.12,5.19-.23c2.99-.12,2.42-2.03,2.42-2.03"/>
      <path class="st0" d="M378.33,91.52h-12.58"/>
      <path class="st0" d="M386.63,80.52s-.56.89-2.58.89h-11.9"/>
      <path class="st0" d="M381.09,94.88h5.65v.3c0,1.56-1.27,2.82-2.82,2.82h0c-1.56,0-2.82-1.27-2.82-2.82v-.3h0Z"/>
    </g>
    <circle class="st7" cx="651.69" cy="82.71" r="33.3"/>
    <path class="st1" d="M170.53,69.41c1.35.94-.05,4-1.36,5.82s-7.37,6.76-7.37,6.76l4.29,19.04-1.82,1.85-8.28-15.65-8.33,7.92,1.46,6.91-1.06.81-3.99-6.46"/>
    <path class="st1" d="M170.87,69.76c-.94-1.35-4,.05-5.82,1.36s-6.76,7.37-6.76,7.37l-19.04-4.29-1.85,1.82,15.65,8.28-7.92,8.33-6.91-1.46-.81,1.06,6.46,3.99"/>
    <path class="st2" d="M649.18,85.45l-2.49-2.49-.96.96c-.66.66-1.74.64-2.42-.04l-7.75-7.75c-2.78-2.78-2.85-7.23-.15-9.93h0s14.02,14.02,14.02,14.02l2.9,2.9"/>
    <path class="st2" d="M655.18,85.98l9.64,9.64c.78.78.8,2.02.04,2.78s-2,.74-2.78-.04l-9.75-9.75"/>
    <path class="st2" d="M672.1,72.94l-9.67,9.67c-1.13,1.13-2.97,1.13-4.1,0l-16.91,16.91c-.73.73-1.91.73-2.64,0h0c-.73-.73-.73-1.91,0-2.64l16.91-16.91c-1.13-1.13-1.13-2.97,0-4.1l9.67-9.67"/>
    <line class="st2" x1="667.56" y1="68.39" x2="659.53" y2="76.42"/>
    <line class="st2" x1="669.82" y1="70.66" x2="661.79" y2="78.68"/>
  </g>
</svg>