<?xml version="1.0" encoding="UTF-8"?>
<svg id="Layer_1" xmlns="http://www.w3.org/2000/svg" version="1.1" viewBox="0 0 258.63 118.59">
  <!-- Generator: Adobe Illustrator 30.2.1, SVG Export Plug-In . SVG Version: 2.1.1 Build 1)  -->
  <defs>
    <style>
      .st0 {
        stroke-linecap: round;
        stroke-linejoin: round;
        stroke-width: 1.58px;
      }

      .st0, .st1 {
        fill: none;
        stroke: #fff;
      }

      .st2 {
        fill: #fff;
      }

      .st1 {
        stroke-width: 1.5px;
      }

      .st1, .st3 {
        stroke-miterlimit: 10;
      }

      .st3 {
        stroke: #d0922a;
        stroke-width: 1.96px;
      }
    </style>
  </defs>
  <rect x="-9.32" y="-7.69" width="280.86" height="134.04"/>
  <g>
    <rect x="83.05" y="34.06" width="150.36" height="54.98" rx="15.34" ry="15.34"/>
    <rect class="st1" x="83.05" y="34.06" width="150.36" height="54.98" rx="15.34" ry="15.34"/>
  </g>
  <g>
    <path class="st2" d="M122.08,55.99h-3.98v-3.03h11.39v3.03h-4.05v12.93h-3.36v-12.93Z"/>
    <path class="st2" d="M131.27,53.17c1.08-.19,2.68-.33,4.46-.33,2.2,0,3.74.36,4.79,1.26.88.76,1.36,1.87,1.36,3.34,0,2.04-1.34,3.43-2.62,3.93v.07c1.03.45,1.61,1.52,1.98,2.98.46,1.8.92,3.88,1.21,4.5h-3.43c-.24-.45-.59-1.75-1.03-3.72-.4-1.99-1.03-2.53-2.4-2.56h-1.01v6.28h-3.32v-15.75ZM134.59,60.04h1.32c1.67,0,2.66-.9,2.66-2.3,0-1.47-.92-2.2-2.46-2.23-.81,0-1.28.07-1.52.12v4.4Z"/>
    <path class="st2" d="M147.96,64.82l-1.06,4.1h-3.47l4.53-15.96h4.4l4.6,15.96h-3.61l-1.14-4.1h-4.24ZM151.72,62.12l-.92-3.39c-.26-.95-.53-2.13-.75-3.08h-.04c-.22.95-.44,2.16-.68,3.08l-.88,3.39h3.28Z"/>
    <path class="st2" d="M161.13,68.92l-4.75-15.96h3.67l1.8,6.75c.51,1.89.97,3.72,1.32,5.71h.07c.37-1.92.84-3.81,1.34-5.64l1.89-6.82h3.56l-4.99,15.96h-3.91Z"/>
    <path class="st2" d="M180.44,62.17h-5.45v3.79h6.09v2.96h-9.45v-15.96h9.15v2.96h-5.78v3.32h5.45v2.94Z"/>
    <path class="st2" d="M183.37,52.96h3.36v12.93h5.89v3.03h-9.26v-15.96Z"/>
    <path class="st2" d="M194.71,65.2c.9.5,2.29.99,3.72.99,1.54,0,2.35-.69,2.35-1.73s-.7-1.56-2.48-2.25c-2.46-.92-4.07-2.39-4.07-4.71,0-2.72,2.11-4.81,5.61-4.81,1.67,0,2.9.38,3.78.8l-.75,2.91c-.59-.31-1.65-.76-3.1-.76s-2.15.71-2.15,1.54c0,1.02.84,1.47,2.75,2.25,2.62,1.04,3.85,2.51,3.85,4.76,0,2.68-1.91,4.95-5.98,4.95-1.69,0-3.36-.47-4.2-.97l.68-2.98Z"/>
  </g>
  <circle class="st3" cx="65.61" cy="61.32" r="33.3"/>
  <path class="st0" d="M81.07,44.55c1.35.94-.05,4-1.36,5.82s-7.37,6.76-7.37,6.76l4.29,19.04-1.82,1.85-8.28-15.65-8.33,7.92,1.46,6.91-1.06.81-3.99-6.46"/>
  <path class="st0" d="M81.41,44.9c-.94-1.35-4,.05-5.82,1.36s-6.76,7.37-6.76,7.37l-19.04-4.29-1.85,1.82,15.65,8.28-7.92,8.33-6.91-1.46-.81,1.06,6.46,3.99"/>
</svg>