<?xml version='1.0' encoding='utf-8'?>
<svg xmlns="http://www.w3.org/2000/svg" viewBox="5227.98 137.51 510.59 437.04" width="80" height="80" fill="none"><g><path style=" stroke:none;fill-rule:nonzero;fill:rgb(100%,100%,100%);fill-opacity:1;" d="M 5543.347656 317.210938 L 5527.976562 274.628906 C 5528.503906 285.1875 5528.730469 320.589844 5543.347656 317.210938 M 5602.6875 322.296875 L 5603.128906 252.503906 L 5583.835938 252.875 L 5585.039062 325.816406 C 5587.558594 329.007812 5602.652344 327.636719 5602.6875 322.296875 M 5688.046875 286.199219 L 5708.820312 237.632812 L 5692.179688 229.851562 L 5668.398438 287.429688 C 5672.707031 288.851562 5683.417969 289.035156 5688.046875 286.199219 M 5635.988281 313.816406 L 5647.535156 232.085938 L 5629.382812 229.914062 L 5617.25 321.488281 C 5622.546875 321.203125 5632.578125 317.902344 5635.988281 313.816406 M 5556.628906 323.128906 C 5562.238281 325.4375 5572.097656 326.136719 5575.5625 324.515625 L 5543.679688 230.640625 L 5525.894531 234.875 Z M 5503.828125 287.710938 L 5480.375 231.777344 C 5475.546875 230.75 5467.527344 234.300781 5463.597656 238.328125 L 5484.085938 287.617188 Z M 5558.300781 237.640625 L 5559.710938 199.882812 C 5557.132812 197.574219 5544.878906 196.585938 5542.335938 199.867188 C 5539.371094 203.6875 5540.222656 215.871094 5542.726562 219.066406 C 5549.824219 223.273438 5554.253906 228.957031 5558.300781 237.640625 M 5626.007812 196.109375 L 5608.515625 195.484375 L 5603.925781 238.453125 C 5611.558594 246.769531 5612.105469 257.304688 5613.679688 270.121094 C 5615.609375 238.304688 5626.105469 221.863281 5626.007812 196.109375 M 5524.464844 304.605469 C 5523.855469 279.8125 5520.769531 261.003906 5518.042969 239.808594 L 5512.691406 193.933594 C 5508.269531 192.460938 5494.859375 195.867188 5495.210938 200.460938 L 5504.808594 260.839844 C 5511.085938 276.683594 5516.136719 290.53125 5524.464844 304.605469 M 5668.472656 250.351562 L 5679.113281 195.984375 L 5663.164062 189.882812 C 5655.546875 206.792969 5657.578125 220.78125 5655.792969 237.484375 L 5648.609375 304.78125 C 5660.160156 288.757812 5664.605469 270.101562 5668.472656 250.351562 M 5575.074219 248.3125 C 5575.191406 245.410156 5585.5 240.1875 5587.019531 239.246094 L 5590.128906 171.722656 C 5584.917969 170.226562 5576.238281 170.085938 5572.472656 171.320312 L 5567.699219 259.296875 C 5567.191406 268.675781 5569.785156 278.492188 5573.605469 284.875 Z M 5666.222656 473.738281 L 5699.800781 299.585938 L 5666.210938 299.878906 C 5636.382812 350.945312 5535.328125 350.234375 5505.070312 300.128906 L 5471.761719 299.484375 L 5480.519531 349.347656 C 5480.832031 351.140625 5479.972656 356.71875 5478.367188 356.457031 L 5470.601562 355.183594 L 5459.152344 291.3125 L 5472.367188 286.378906 L 5452.433594 235.308594 C 5460.703125 225.070312 5475.148438 217.484375 5487.578125 223.066406 L 5484.324219 194.785156 C 5490.144531 187.84375 5507.839844 179.328125 5516.441406 185.113281 C 5525.925781 194.78125 5521.804688 210.964844 5529.371094 223.25 L 5534.371094 189.566406 L 5561.1875 187.425781 C 5561.914062 179.546875 5562.894531 169.734375 5564.511719 163.691406 C 5573.648438 157.507812 5587.640625 158.765625 5597.769531 163.082031 L 5600.003906 188.460938 C 5609.703125 183.558594 5623.464844 183.375 5634.5 189.425781 L 5636.480469 214.160156 C 5636.617188 215.863281 5637.835938 219.46875 5638.4375 220.820312 C 5639.039062 222.167969 5644.253906 219.589844 5644.679688 218.171875 L 5655.757812 181.351562 C 5668.097656 178.222656 5681.625 183.875 5688.507812 193.6875 L 5684.585938 221.097656 C 5694.929688 219.519531 5713.511719 222.777344 5718.5625 235.964844 C 5714.183594 251.710938 5705.992188 269.785156 5699.53125 286.097656 L 5708.347656 289.949219 C 5710.804688 291.023438 5711.554688 298.230469 5710.917969 301.550781 L 5678.316406 471.074219 C 5672.609375 500.738281 5647.519531 496.40625 5625.617188 496.039062 C 5622.835938 495.992188 5623.046875 485.832031 5625.769531 485.601562 C 5642.617188 484.179688 5663.300781 488.894531 5666.222656 473.738281 "></path><path style=" stroke:none;fill-rule:nonzero;fill:rgb(0%,0%,0%);fill-opacity:1;" d="M 5575.074219 248.3125 L 5573.605469 284.875 C 5569.785156 278.492188 5567.191406 268.679688 5567.699219 259.296875 L 5572.472656 171.320312 C 5576.238281 170.085938 5584.917969 170.226562 5590.128906 171.722656 L 5587.019531 239.246094 C 5585.5 240.1875 5575.191406 245.410156 5575.074219 248.3125 "></path><path style=" stroke:none;fill-rule:nonzero;fill:rgb(0%,0%,0%);fill-opacity:1;" d="M 5668.472656 250.351562 C 5664.605469 270.105469 5660.15625 288.757812 5648.613281 304.78125 L 5655.796875 237.484375 C 5657.578125 220.78125 5655.546875 206.792969 5663.164062 189.882812 L 5679.113281 195.984375 Z M 5668.472656 250.351562 "></path><path style=" stroke:none;fill-rule:nonzero;fill:rgb(0%,0%,0%);fill-opacity:1;" d="M 5524.464844 304.605469 C 5516.136719 290.53125 5511.085938 276.683594 5504.808594 260.839844 L 5495.210938 200.460938 C 5494.859375 195.867188 5508.269531 192.460938 5512.6875 193.933594 L 5518.042969 239.808594 C 5520.769531 261.003906 5523.851562 279.8125 5524.464844 304.605469 "></path><path style=" stroke:none;fill-rule:nonzero;fill:rgb(0%,0%,0%);fill-opacity:1;" d="M 5626.007812 196.109375 C 5626.105469 221.867188 5615.609375 238.304688 5613.679688 270.121094 C 5612.105469 257.304688 5611.558594 246.769531 5603.925781 238.457031 L 5608.515625 195.484375 Z M 5626.007812 196.109375 "></path><path style=" stroke:none;fill-rule:nonzero;fill:rgb(0%,0%,0%);fill-opacity:1;" d="M 5558.300781 237.640625 C 5554.253906 228.957031 5549.824219 223.273438 5542.726562 219.066406 C 5540.222656 215.871094 5539.371094 203.6875 5542.335938 199.867188 C 5544.878906 196.585938 5557.132812 197.574219 5559.710938 199.886719 Z M 5558.300781 237.640625 "></path><path style=" stroke:none;fill-rule:nonzero;fill:rgb(0%,0%,0%);fill-opacity:1;" d="M 5688.046875 286.199219 C 5683.417969 289.035156 5672.710938 288.851562 5668.402344 287.429688 L 5692.183594 229.851562 L 5708.820312 237.632812 Z M 5688.046875 286.199219 "></path><path style=" stroke:none;fill-rule:nonzero;fill:rgb(0%,0%,0%);fill-opacity:1;" d="M 5635.988281 313.820312 C 5632.578125 317.902344 5622.546875 321.203125 5617.25 321.492188 L 5629.382812 229.914062 L 5647.535156 232.085938 Z M 5635.988281 313.820312 "></path><path style=" stroke:none;fill-rule:nonzero;fill:rgb(0%,0%,0%);fill-opacity:1;" d="M 5556.628906 323.128906 L 5525.894531 234.875 L 5543.679688 230.640625 L 5575.5625 324.515625 C 5572.097656 326.136719 5562.238281 325.4375 5556.628906 323.128906 "></path><path style=" stroke:none;fill-rule:nonzero;fill:rgb(0%,0%,0%);fill-opacity:1;" d="M 5503.828125 287.710938 L 5484.085938 287.617188 L 5463.597656 238.328125 C 5467.523438 234.300781 5475.546875 230.75 5480.375 231.777344 Z M 5503.828125 287.710938 "></path><path style=" stroke:none;fill-rule:nonzero;fill:rgb(0%,0%,0%);fill-opacity:1;" d="M 5602.6875 322.296875 C 5602.652344 327.636719 5587.558594 329.007812 5585.039062 325.816406 L 5583.835938 252.875 L 5603.128906 252.503906 Z M 5602.6875 322.296875 "></path><path style=" stroke:none;fill-rule:nonzero;fill:rgb(0%,0%,0%);fill-opacity:1;" d="M 5543.347656 317.210938 C 5528.730469 320.589844 5528.503906 285.1875 5527.976562 274.628906 Z M 5543.347656 317.210938 "></path><path style=" stroke:none;fill-rule:nonzero;fill:rgb(100%,100%,100%);fill-opacity:1;" d="M 5600.59375 493.171875 C 5607.128906 477.785156 5603.816406 462.351562 5594.820312 452.925781 C 5585.765625 443.4375 5571.203125 439.640625 5557.335938 443.554688 C 5484.667969 464.066406 5410.269531 464.714844 5337.609375 444.042969 C 5321.636719 439.5 5304.640625 443.558594 5294.714844 457.046875 C 5287.414062 466.96875 5286.28125 483.234375 5292.34375 495.003906 C 5296.332031 502.746094 5305.816406 512.988281 5317.851562 516.738281 C 5397.492188 541.546875 5483.746094 542.21875 5564.347656 520.410156 C 5579.65625 516.269531 5594.574219 507.347656 5600.59375 493.171875 M 5607.503906 449.226562 C 5626 440.773438 5632.375 424.40625 5627.121094 407.953125 C 5622.472656 393.390625 5606.382812 383.984375 5589.417969 387.613281 L 5532.542969 399.773438 C 5479.871094 411.039062 5426.628906 413.222656 5373.851562 402.246094 L 5301.675781 387.230469 C 5283.570312 383.464844 5267.164062 395.675781 5263.234375 412.640625 C 5259.902344 427.015625 5271.222656 446.542969 5286.609375 449.058594 C 5301.546875 433.742188 5320.859375 428.53125 5341.703125 434.160156 C 5410.355469 452.695312 5480.34375 453.25 5549.210938 434.570312 C 5570.519531 428.789062 5591.367188 431.828125 5607.503906 449.226562 M 5579.707031 377.074219 C 5568.050781 365.15625 5553.371094 363.101562 5538.882812 366.527344 C 5476.550781 381.273438 5413.808594 381.890625 5351.710938 366.140625 C 5338.273438 362.730469 5323.90625 365.117188 5313.535156 377.511719 C 5411.632812 404.558594 5484.648438 404.25 5579.707031 377.074219 M 5579.980469 526.355469 C 5505.308594 554.542969 5384.554688 553.820312 5311.96875 526.191406 C 5283.816406 515.476562 5270.351562 487.066406 5280.894531 459.335938 C 5258.386719 449.847656 5247.976562 428.546875 5253.066406 408.28125 C 5258.546875 386.480469 5277.839844 373.242188 5301.066406 374.789062 C 5312.597656 359.699219 5332.449219 350.453125 5352.417969 355.398438 C 5413.628906 370.566406 5475.046875 370.992188 5536.566406 356.316406 C 5557.789062 351.253906 5579.738281 357.324219 5592.550781 374.867188 C 5615.644531 373.796875 5633.765625 386.726562 5639.464844 408.183594 C 5645.050781 429.21875 5632.941406 449.421875 5612.363281 459.828125 C 5621.882812 487.496094 5608.238281 515.6875 5579.980469 526.355469 "></path><path style=" stroke:none;fill-rule:nonzero;fill:rgb(0%,0%,0%);fill-opacity:1;" d="M 5579.707031 377.074219 C 5484.648438 404.25 5411.632812 404.558594 5313.535156 377.511719 C 5323.90625 365.117188 5338.273438 362.730469 5351.710938 366.140625 C 5413.808594 381.890625 5476.550781 381.273438 5538.882812 366.527344 C 5553.371094 363.101562 5568.050781 365.15625 5579.707031 377.074219 "></path><path style=" stroke:none;fill-rule:nonzero;fill:rgb(0%,0%,0%);fill-opacity:1;" d="M 5401.089844 429.4375 C 5410.203125 422.578125 5421.835938 422.414062 5429.875 431.300781 C 5440.980469 443.582031 5459.765625 443.90625 5471.171875 431.238281 C 5494.679688 405.117188 5515.484375 457.683594 5542.683594 420.527344 C 5560.972656 395.546875 5578.457031 429.550781 5594.589844 415.519531 C 5592.898438 409.476562 5582.621094 408.417969 5577.578125 405.878906 C 5532.804688 383.355469 5537.457031 439.28125 5506.488281 419 C 5468.667969 394.230469 5461.316406 448.59375 5437.332031 423.9375 C 5425.324219 411.59375 5408.222656 410.027344 5394.578125 421.242188 C 5368.828125 442.40625 5368.519531 385.507812 5325.519531 410.324219 L 5305.742188 417.136719 C 5315.722656 433.421875 5332.503906 413.667969 5347.347656 414.355469 C 5360.460938 414.964844 5371.535156 451.695312 5401.089844 429.4375 M 5607.503906 449.226562 C 5591.367188 431.828125 5570.519531 428.789062 5549.210938 434.570312 C 5480.34375 453.25 5410.359375 452.695312 5341.703125 434.160156 C 5320.859375 428.53125 5301.546875 433.742188 5286.605469 449.058594 C 5271.222656 446.542969 5259.898438 427.015625 5263.234375 412.640625 C 5267.164062 395.675781 5283.570312 383.464844 5301.671875 387.230469 L 5373.851562 402.246094 C 5426.628906 413.222656 5479.871094 411.039062 5532.542969 399.773438 L 5589.417969 387.613281 C 5606.382812 383.984375 5622.472656 393.390625 5627.121094 407.953125 C 5632.375 424.40625 5626 440.773438 5607.503906 449.226562 "></path><path style=" stroke:none;fill-rule:nonzero;fill:rgb(100%,100%,100%);fill-opacity:1;" d="M 5401.089844 429.4375 C 5371.535156 451.695312 5360.460938 414.964844 5347.347656 414.355469 C 5332.503906 413.667969 5315.722656 433.421875 5305.742188 417.136719 L 5325.519531 410.324219 C 5368.519531 385.507812 5368.828125 442.40625 5394.578125 421.242188 C 5408.222656 410.027344 5425.324219 411.59375 5437.332031 423.9375 C 5461.316406 448.59375 5468.667969 394.230469 5506.488281 419 C 5537.457031 439.28125 5532.804688 383.355469 5577.578125 405.878906 C 5582.621094 408.417969 5592.898438 409.476562 5594.589844 415.519531 C 5578.457031 429.550781 5560.972656 395.546875 5542.683594 420.527344 C 5515.484375 457.683594 5494.679688 405.117188 5471.171875 431.238281 C 5459.765625 443.90625 5440.980469 443.582031 5429.875 431.300781 C 5421.835938 422.414062 5410.203125 422.578125 5401.089844 429.4375 "></path><path style=" stroke:none;fill-rule:nonzero;fill:rgb(0%,0%,0%);fill-opacity:1;" d="M 5600.59375 493.171875 C 5594.574219 507.347656 5579.65625 516.269531 5564.347656 520.410156 C 5483.746094 542.21875 5397.492188 541.546875 5317.851562 516.738281 C 5305.816406 512.988281 5296.332031 502.746094 5292.34375 495.003906 C 5286.28125 483.234375 5287.414062 466.96875 5294.714844 457.046875 C 5304.640625 443.558594 5321.636719 439.5 5337.609375 444.042969 C 5410.269531 464.714844 5484.667969 464.066406 5557.335938 443.554688 C 5571.203125 439.640625 5585.765625 443.4375 5594.820312 452.925781 C 5603.816406 462.351562 5607.128906 477.785156 5600.59375 493.171875 "></path></g></svg>