<?xml version='1.0' encoding='utf-8'?>
<svg xmlns="http://www.w3.org/2000/svg" viewBox="2256.51 1499.66 500.45 378.27" width="80" height="80" fill="none"><g><path style=" stroke:none;fill-rule:nonzero;fill:rgb(100%,100%,100%);fill-opacity:1;" d="M 2686.855469 1754.84375 C 2677.25 1746.78125 2708.175781 1751.378906 2708.183594 1732.746094 L 2708.25 1605.761719 L 2723.359375 1591.441406 C 2728.367188 1576.449219 2718.121094 1565.367188 2705.039062 1559.636719 C 2667.019531 1542.980469 2624.957031 1540.765625 2583.464844 1547.652344 C 2569.816406 1549.917969 2556.933594 1552.980469 2542.351562 1551.328125 C 2583.125 1519.660156 2736.960938 1527.269531 2736.15625 1582.109375 C 2735.988281 1593.554688 2730.726562 1602.613281 2719.492188 1609.660156 L 2719.238281 1732.679688 C 2719.210938 1747.609375 2707.421875 1757.902344 2695.207031 1757.957031 C 2692.425781 1757.96875 2688.347656 1756.097656 2686.855469 1754.84375 "></path><path style=" stroke:none;fill-rule:nonzero;fill:rgb(100%,100%,100%);fill-opacity:1;" d="M 2666.945312 1760.183594 L 2667.265625 1629.941406 C 2675.320312 1624.316406 2682.359375 1617.832031 2683.191406 1611.179688 C 2684.3125 1602.179688 2678.941406 1593.449219 2670.589844 1588.941406 C 2607.554688 1554.9375 2494.449219 1571.078125 2490.796875 1606.609375 C 2489.933594 1615.023438 2496.855469 1621.449219 2502.984375 1627.378906 C 2509.539062 1633.722656 2506.847656 1657.730469 2504.914062 1657.761719 L 2497.351562 1657.878906 C 2491.496094 1657.972656 2504.300781 1645.339844 2486.175781 1625.480469 C 2471.542969 1609.449219 2482.21875 1586.8125 2500.074219 1577.148438 C 2564.027344 1542.539062 2692.789062 1558.316406 2694.773438 1606.347656 C 2695.273438 1618.488281 2689.835938 1627.8125 2677.953125 1635.175781 L 2677.894531 1761.785156 C 2677.886719 1772.667969 2669.246094 1784.25 2657.75 1784.167969 L 2586.714844 1783.679688 C 2590.300781 1775.964844 2597.011719 1772.96875 2604.050781 1773.007812 L 2655.535156 1773.296875 C 2661.3125 1773.328125 2666.925781 1767.597656 2666.945312 1760.183594 "></path><path style=" stroke:none;fill-rule:nonzero;fill:rgb(100%,100%,100%);fill-opacity:1;" d="M 2448.164062 1598.773438 C 2460.667969 1615.535156 2465.097656 1641.765625 2442.042969 1651.449219 L 2447.183594 1631.160156 C 2447.25 1620.753906 2440.761719 1609.367188 2435.25 1599.953125 C 2425.980469 1584.117188 2426.175781 1561.480469 2446.277344 1553.292969 C 2438.648438 1570.726562 2437.308594 1584.21875 2448.164062 1598.773438 "></path><path style=" stroke:none;fill-rule:nonzero;fill:rgb(100%,100%,100%);fill-opacity:1;" d="M 2413.304688 1609.402344 C 2421.835938 1621.171875 2420.351562 1643.464844 2404.699219 1644.492188 C 2408.253906 1630.113281 2408.238281 1619.71875 2400.992188 1609.511719 C 2391.445312 1596.074219 2389.800781 1575.136719 2409.285156 1569.191406 C 2402.753906 1585.617188 2403.855469 1596.371094 2413.304688 1609.402344 "></path><path style=" stroke:none;fill-rule:nonzero;fill:rgb(100%,100%,100%);fill-opacity:1;" d="M 2515.578125 1846.960938 C 2537.957031 1846.972656 2559.066406 1840.582031 2576.554688 1827.1875 L 2304.472656 1827.21875 C 2324.042969 1841.089844 2346.097656 1846.871094 2368.386719 1846.882812 Z M 2567.03125 1768.933594 C 2584.703125 1763.234375 2596.113281 1747.472656 2598.273438 1729.550781 C 2599.574219 1718.765625 2596.195312 1707.136719 2589.691406 1700.730469 C 2573.789062 1685.070312 2549.34375 1697.136719 2549.238281 1691.039062 L 2549.019531 1678.378906 L 2332.402344 1678.175781 C 2332.300781 1714.824219 2339.964844 1750.289062 2360.417969 1780.894531 C 2369.066406 1793.832031 2383.25 1812.503906 2399.75 1814.402344 C 2426.363281 1817.457031 2453.285156 1816.503906 2479.449219 1814.984375 C 2498.878906 1813.855469 2507.621094 1792.101562 2522.066406 1783.429688 Z M 2589.425781 1833.414062 C 2567.730469 1848.355469 2543.460938 1857.933594 2516.773438 1857.917969 L 2362.925781 1857.839844 C 2345.503906 1857.832031 2276.507812 1841.691406 2287.503906 1816.371094 L 2376.832031 1815.558594 C 2334.941406 1783.390625 2317.1875 1717.691406 2321.859375 1667.804688 L 2556.007812 1667.601562 L 2561.226562 1681.550781 C 2586.125 1678.796875 2609.308594 1695.089844 2609.871094 1722.003906 C 2610.777344 1765.269531 2568.132812 1786.285156 2529.867188 1791.441406 L 2505.265625 1815.601562 L 2592.996094 1816.601562 C 2597.558594 1816.65625 2593.800781 1830.398438 2589.425781 1833.414062 "></path><path style=" stroke:none;fill-rule:nonzero;fill:rgb(0%,0%,0%);fill-opacity:1;" d="M 2531.15625 1767.183594 C 2550.910156 1766.988281 2567.78125 1758.277344 2579.707031 1745.253906 C 2587.875 1734.40625 2590.839844 1719.65625 2579.683594 1709.148438 C 2572.691406 1702.5625 2550.792969 1701.246094 2547.621094 1711.894531 Z M 2567.03125 1768.933594 L 2522.066406 1783.429688 C 2507.621094 1792.101562 2498.878906 1813.855469 2479.449219 1814.984375 C 2453.285156 1816.503906 2426.363281 1817.457031 2399.75 1814.402344 C 2383.25 1812.503906 2369.066406 1793.832031 2360.417969 1780.894531 C 2339.964844 1750.289062 2332.300781 1714.824219 2332.402344 1678.175781 L 2549.023438 1678.378906 L 2549.238281 1691.039062 C 2549.34375 1697.136719 2573.789062 1685.070312 2589.691406 1700.730469 C 2596.195312 1707.136719 2599.574219 1718.765625 2598.273438 1729.550781 C 2596.113281 1747.472656 2584.703125 1763.234375 2567.03125 1768.933594 "></path><path style=" stroke:none;fill-rule:nonzero;fill:rgb(100%,100%,100%);fill-opacity:1;" d="M 2575.648438 1729.636719 C 2577.164062 1725.734375 2573.625 1717.058594 2570.238281 1715.707031 C 2566.660156 1714.277344 2557.964844 1715.476562 2557.058594 1719.003906 L 2548.390625 1752.75 C 2558.972656 1749.523438 2570.648438 1742.53125 2575.648438 1729.636719 M 2531.15625 1767.183594 L 2547.621094 1711.894531 C 2550.792969 1701.246094 2572.691406 1702.5625 2579.683594 1709.148438 C 2590.839844 1719.65625 2587.875 1734.40625 2579.707031 1745.25 C 2567.78125 1758.277344 2550.910156 1766.988281 2531.15625 1767.183594 "></path><path style=" stroke:none;fill-rule:nonzero;fill:rgb(0%,0%,0%);fill-opacity:1;" d="M 2575.648438 1729.636719 C 2570.648438 1742.53125 2558.972656 1749.523438 2548.390625 1752.75 L 2557.058594 1719.003906 C 2557.964844 1715.476562 2566.660156 1714.277344 2570.238281 1715.707031 C 2573.625 1717.058594 2577.164062 1725.734375 2575.648438 1729.636719 "></path></g></svg>