<?xml version="1.0" encoding="UTF-8"?>
<svg id="Layer_1" xmlns="http://www.w3.org/2000/svg" version="1.1" viewBox="0 0 80 80">
  
  <defs>
    
  </defs>
  <path d="M18.02,72.29l47.73.08c2.37,0,4.76-1.99,4.76-4.45l.04-27.64c.01-8.39-15.3-14.61-21.75-17.34-.21-4.17-3-7.43-7.24-8.17.05-.89.38-1.69.79-2.51,2.64-5.33,7.04-4.03,6.39-5.52-.11-.26-.49-.52-.85-.72-4.5.93-7.19,4.59-8.21,8.64-4.55.43-7.87,3.85-8.06,8.27l-19.58,11.37c-1.23.72-2,1.71-2.03,2.99-.03,1.28.66,2.34,1.83,3.07-1.72,1.31-3.64,2.6-2.6,4.75.97,2,3.4.99,3.74,1.91.16.42.18,1.24-.15,1.4-1.93.95-2.85,2.63-2.81,4.62.03,1.83,1.09,3.37,2.9,4.28l-.06,2.54c-1.4.44-2.64,1.06-2.81,2.8-.41,4.3,3.01,9.63,7.98,9.63"></path>
  <path class="st0" d="M44.07,43.8c3.04-2.04,6.42-1.59,9.22.4,1.59,1.13,3.79.55,5.31-.41,1.9-1.2,4.03-1.72,6.17-.94.23.08.72.07.92-.04-.21-1.26-1.41-2.28-2.82-2.28h-13.67s-2.03,0-2.03,0l-32-.02c-1.09.39-5.26,2.65-4.38,3.87.6.84,2.46.52,3.48-.16,3.14-2.09,5.97-2.45,9.21-.34,1.89,1.23,4.03,1.24,5.89-.04,2.77-1.92,6.11-1.77,8.85.14,1.78,1.25,4.03,1.05,5.85-.17M15.53,56.17h51.06c.43.01.83.73.75,1.02-.07.25-.57.55-.86.56l-3.14.15-40.92-.04-6.71-.12c-.57-.01-1.09.48-1.13.97-.03.38.33,1.09.7,1.09l4.39-.07c2.24-.04,4.46.3,6.42,1.44,2.19,1.27,4.19,2.77,6.15,4.32,1.02.81,1.97.73,3.03-.02,2.61-1.85,5.31-3.46,8.29-4.61,2.02-.77,3.93-1.01,6.06-1.01l16.79.02c.45,0,.96.66.89.99-.06.28-.53.78-.89.78l-18.78.04c-3.36,0-8.88,3.5-11.69,5.36-1.31.87-2.78,1.13-4.14.16l-5.47-3.91c-1.52-1.08-3.32-1.76-5.19-1.77l-7.61-.04c-.6,0-1.59.28-1.72,1.22-.42,3.13,2.12,7.81,5.89,7.82l48.2.11c2.38,0,2.88-2.58,2.88-4.41v-25.44c0-2.09-.88-3.82-2.08-5.37-4.31-4.66-11.99-8.06-18.05-10.65-1.08,3.46-3.62,6.01-7.11,6.5-4.48.63-8.51-2.05-9.74-6.4l-10.25,5.89-9.09,5.35c-.46.43-.77,1.06-.68,1.62.07.43.73,1.02,1.39,1.02l50.08.05c1.79,0,3.27,1.36,3.83,2.76.33.84.9,3.57-.18,3.87-.99.27-3.82-2.63-7.17-.27-2.56,1.8-5.7,1.82-8.27.06-2.1-1.44-4.68-1.16-6.73.19-2.39,1.58-5.28,1.46-7.6-.08-2.29-1.52-4.82-1.44-7.04.07-2.21,1.5-4.93,1.51-7.16.15-.98-.6-2.07-1.21-3.25-1.32-1.81-.17-3.8.67-4.93,2-.55.65.37,1.62,1.1,1.62l20.43.13c3.13.02,6.02,1.45,8.71,2.8l4.88,2.45c2.7-1.38,3.23-2.17,6.1-3.6,4.03-2.02,6.12-1.8,10.64-1.71.35,0,.8.67.75.96-.35,2.14-5.26-1.21-11.97,3.03l-4.18,2.65c-.77.49-1.75.41-2.55.01l-6.29-3.11c-2.1-1.04-4.35-1.76-6.75-1.76H14.64c-1.94-.01-3.05,1.94-2.88,3.56.2,1.88,1.61,2.92,3.77,2.92M40.1,29.63c3.9.04,6.9-2.9,6.95-6.52.05-3.61-2.85-6.6-6.6-6.71-3.82-.11-7,2.76-7.06,6.48-.05,3.58,2.85,6.71,6.71,6.75M18.02,72.29c-4.97,0-8.39-5.33-7.98-9.63.16-1.74,1.41-2.36,2.81-2.8l.06-2.54c-1.81-.92-2.86-2.45-2.9-4.28-.04-1.99.89-3.66,2.81-4.62.33-.16.31-.98.15-1.4-.34-.92-2.77.09-3.74-1.91-1.04-2.15.88-3.44,2.6-4.75-1.16-.73-1.86-1.79-1.83-3.07.03-1.28.79-2.28,2.03-2.99l19.58-11.37c.19-4.42,3.51-7.84,8.06-8.27,1.02-4.05,3.71-7.71,8.21-8.64.36.2.74.47.85.72.65,1.49-3.75.19-6.39,5.52-.41.82-.74,1.62-.79,2.51,4.25.73,7.04,3.99,7.24,8.17,6.45,2.73,21.76,8.95,21.75,17.34l-.04,27.64c0,2.46-2.39,4.45-4.76,4.45l-47.73-.08Z"></path>
  <path d="M61.67,36.96c.6,0,.91-.66.86-.95-.05-.33-.45-.78-.93-.78H17.32c-.43,0-.94.62-.87.92.06.26.54.81.88.81h44.34ZM15.53,56.17c-2.16,0-3.57-1.05-3.77-2.92-.17-1.62.94-3.57,2.88-3.57h20.98c2.4.01,4.65.73,6.75,1.77l6.29,3.11c.8.4,1.78.47,2.55-.02l4.18-2.65c6.7-4.24,11.62-.89,11.97-3.03.05-.29-.4-.96-.75-.96-4.53-.08-6.62-.3-10.64,1.71-2.87,1.44-3.4,2.23-6.1,3.6l-4.88-2.45c-2.7-1.35-5.59-2.78-8.71-2.8l-20.43-.13c-.73,0-1.65-.97-1.1-1.62,1.14-1.34,3.12-2.18,4.93-2,1.19.11,2.27.72,3.25,1.32,2.23,1.36,4.95,1.35,7.16-.15,2.22-1.51,4.76-1.59,7.04-.07,2.32,1.54,5.21,1.66,7.6.08,2.05-1.36,4.63-1.63,6.73-.19,2.57,1.76,5.72,1.74,8.27-.06,3.35-2.36,6.18.54,7.17.27,1.08-.29.51-3.03.18-3.87-.56-1.4-2.03-2.76-3.83-2.76l-50.08-.05c-.66,0-1.32-.59-1.39-1.02-.09-.55.23-1.19.68-1.62l9.09-5.35,10.25-5.89c1.23,4.35,5.26,7.03,9.74,6.4,3.49-.49,6.03-3.04,7.11-6.5,6.06,2.59,13.74,5.99,18.05,10.65,1.21,1.55,2.08,3.28,2.08,5.37v25.44c0,1.83-.5,4.41-2.88,4.41l-48.2-.11c-3.77,0-6.31-4.69-5.89-7.82.13-.94,1.11-1.22,1.72-1.22l7.61.04c1.87,0,3.67.69,5.19,1.77l5.47,3.91c1.36.97,2.83.71,4.14-.16,2.81-1.87,8.33-5.35,11.69-5.36l18.78-.04c.36,0,.83-.5.89-.78.07-.32-.44-.99-.89-.99l-16.79-.02c-2.14,0-4.04.23-6.06,1.01-2.99,1.14-5.69,2.76-8.29,4.61-1.06.75-2.01.83-3.03.02-1.96-1.55-3.96-3.05-6.15-4.32-1.96-1.14-4.18-1.47-6.42-1.44l-4.39.07c-.38,0-.73-.71-.7-1.09.04-.48.56-.98,1.13-.97l6.71.12,40.92.04,3.14-.15c.28-.01.79-.31.86-.56.08-.29-.32-1.01-.75-1.01H15.53Z"></path>
  <path d="M44.07,43.8c-1.82,1.22-4.07,1.42-5.85.17-2.73-1.92-6.08-2.06-8.85-.14-1.86,1.29-4,1.27-5.89.04-3.24-2.11-6.07-1.75-9.21.34-1.02.68-2.88,1-3.48.16-.88-1.23,3.29-3.48,4.38-3.87l32,.02h2.03s13.67,0,13.67,0c1.41,0,2.61,1.02,2.82,2.28-.2.11-.69.12-.92.04-2.14-.78-4.27-.26-6.17.94-1.52.96-3.72,1.54-5.31.41-2.8-1.99-6.18-2.44-9.22-.4"></path>
  <path d="M36.49,23.63l.11-1.47c.02-.27-.07-.73-.23-.91-.15-.19-.86-.24-1.03-.02-.54.7-.91,2.13-.28,2.97.15.21.8.38,1.02.25.18-.11.39-.59.41-.82M38.27,19.99c.44-.39.43-1.09.08-1.4-.29-.27-.97-.18-1.31.1-.45.37-.64,1.05-.34,1.38.38.43,1.06.39,1.58-.07M40.1,29.63c-3.86-.04-6.76-3.17-6.71-6.75.05-3.72,3.23-6.6,7.06-6.48,3.75.11,6.65,3.1,6.6,6.71-.05,3.62-3.05,6.56-6.95,6.52"></path>
  <path class="st0" d="M61.67,36.96H17.33c-.34,0-.82-.54-.88-.81-.07-.3.44-.93.87-.93h44.29c.48,0,.87.45.93.78.05.29-.26.95-.86.95"></path>
  <path class="st0" d="M36.49,23.63c-.02.23-.23.71-.41.82-.22.13-.87-.05-1.02-.25-.62-.84-.25-2.27.28-2.97.17-.22.87-.17,1.03.02.15.19.25.64.23.91l-.11,1.47Z"></path>
  <path class="st0" d="M38.27,19.99c-.51.46-1.2.5-1.58.07-.29-.33-.11-1.01.34-1.38.34-.28,1.02-.36,1.32-.1.34.31.36,1.01-.08,1.4"></path>
  <path class="st0" d="M56.76,32.76c-2.44-1.92-5.55-2.19-8.42-1.22-.38.13-.84-.09-.99-.39-.2-.39.03-.91.49-1.07,2.98-1.29,6.82-.91,10.05,1.64.24.21.17.79-.01.96-.27.26-.73.37-1.11.07"></path>
</svg>