<?xml version='1.0' encoding='utf-8'?>
<svg xmlns="http://www.w3.org/2000/svg" viewBox="1653.00 818.66 435.28 381.40" width="80" height="80" fill="none"><g><path style=" stroke:none;fill-rule:nonzero;fill:rgb(100%,100%,100%);fill-opacity:1;" d="M 1913.308594 1114.21875 C 1888.992188 1114.304688 1855.480469 1137.429688 1835.570312 1149.476562 C 1829.355469 1153.238281 1821.820312 1153.386719 1815.902344 1149.167969 L 1785.769531 1127.695312 C 1777.460938 1121.777344 1765.980469 1115.097656 1755.585938 1114.433594 C 1736.84375 1113.238281 1719.699219 1113.871094 1700.71875 1113.882812 C 1698.300781 1113.886719 1694.054688 1116.175781 1692.835938 1118.019531 C 1687.113281 1126.675781 1697.980469 1169.425781 1736.992188 1169.414062 L 2005.277344 1169.308594 C 2042.171875 1169.292969 2054.5 1127.8125 2048.757812 1118.242188 C 2047.519531 1116.183594 2042.503906 1113.765625 2039.660156 1113.773438 Z M 1832.625 1139.394531 L 1856.796875 1123.941406 C 1874.800781 1112.429688 1894.292969 1105.421875 1915.753906 1102.773438 L 2027.148438 1102.753906 C 2029.78125 1102.753906 2032.933594 1098.191406 2032.832031 1095.949219 C 2032.746094 1094.011719 2029.660156 1090.667969 2026.839844 1090.667969 L 1715.234375 1090.652344 C 1711.246094 1090.652344 1708.414062 1094.359375 1708.597656 1097.207031 C 1708.746094 1099.546875 1712.273438 1102.6875 1714.753906 1102.710938 L 1754.445312 1103.117188 C 1774.257812 1103.320312 1802.765625 1126.535156 1818.710938 1138.609375 C 1823.179688 1141.992188 1827.550781 1142.640625 1832.625 1139.394531 M 1960.320312 1053.722656 L 1935.617188 1069.230469 C 1929.542969 1073.046875 1923.457031 1073.683594 1916.867188 1070.464844 L 1881.019531 1052.945312 C 1865.078125 1045.15625 1847.566406 1040.765625 1829.519531 1040.78125 L 1709.367188 1040.886719 C 1698.75 1040.894531 1691.035156 1052.3125 1691.570312 1061.042969 C 1692.148438 1070.523438 1699.582031 1079.703125 1710.441406 1079.703125 L 2031.78125 1079.628906 C 2043.242188 1079.625 2049.960938 1068.96875 2049.828125 1059.75 C 2049.691406 1050.433594 2042.359375 1040.917969 2031.554688 1040.859375 L 2005.125 1040.710938 C 1989.429688 1040.625 1974.214844 1045 1960.320312 1053.722656 M 2032.203125 1021.242188 C 2019.386719 1004.882812 1997.082031 1004.597656 1980.933594 1015.789062 C 1966.824219 1025.570312 1948.261719 1022.398438 1934.734375 1013.792969 C 1922.367188 1005.925781 1908.148438 1005.855469 1895.984375 1013.933594 C 1880.546875 1024.179688 1861.71875 1024.164062 1846.175781 1014.125 C 1833.488281 1005.933594 1817.90625 1005.707031 1805.40625 1014.464844 C 1791.109375 1024.480469 1772.679688 1023.8125 1758.015625 1014.394531 C 1732.96875 998.300781 1708.90625 1017.226562 1708.800781 1021.523438 C 1708.746094 1023.820312 1712.738281 1029.71875 1715.058594 1029.730469 L 1832.644531 1030.226562 C 1854.148438 1030.316406 1874.421875 1037.257812 1893.125 1046.613281 L 1925.488281 1062.792969 L 1953.832031 1045.105469 C 1996.882812 1018.246094 2030.660156 1040.226562 2032.203125 1021.242188 M 1889.695312 1005.066406 C 1905.863281 993.585938 1926.457031 994.699219 1942.023438 1005.503906 C 1953.632812 1013.5625 1967.898438 1012.355469 1979.105469 1004.8125 C 1996.203125 993.304688 2017.355469 994.964844 2033.410156 1007.1875 C 2042.390625 1014.019531 2056.558594 1012.226562 2056.429688 1006.183594 C 2056.269531 999.050781 2037.417969 989.015625 2029.847656 985.066406 L 1710.699219 985.0625 C 1703.171875 990.128906 1682.632812 999.5 1685.230469 1007.425781 C 1687.660156 1014.851562 1702.769531 1010.847656 1709.214844 1006.148438 C 1726.0625 993.878906 1746.761719 994.082031 1763.910156 1005.632812 C 1772.980469 1011.742188 1786.910156 1013.589844 1796.320312 1007.03125 C 1812.710938 995.605469 1833.863281 992.78125 1850.957031 1004.535156 C 1862.601562 1012.542969 1877.21875 1013.921875 1889.695312 1005.066406 M 2040.023438 974.09375 C 2044.308594 974.09375 2047.945312 971.855469 2048.792969 970.011719 C 2049.648438 968.144531 2050.234375 963.8125 2049.808594 961.1875 C 2041.167969 908.144531 1990.246094 878.285156 1941.8125 866.40625 C 1872.183594 849.324219 1781.839844 855.28125 1725.335938 902.8125 C 1707.058594 918.183594 1695.28125 938.269531 1691.335938 961.625 C 1690.859375 964.433594 1691.871094 969.539062 1693.441406 971.121094 C 1694.789062 972.480469 1698.378906 974.105469 1701.230469 974.105469 Z M 2007.453125 1179.683594 L 1737.246094 1180.023438 C 1706.65625 1180.0625 1684.996094 1157.777344 1680.996094 1128.890625 C 1679.246094 1116.277344 1685.511719 1105.449219 1698.503906 1103.5625 L 1699.355469 1088.351562 C 1688.820312 1083.273438 1681.058594 1072.808594 1680.683594 1061.074219 C 1680.285156 1048.546875 1688.019531 1037.539062 1700 1032.320312 C 1701.15625 1012.121094 1684.285156 1029.796875 1675.796875 1012.4375 C 1673.003906 1006.71875 1674.429688 997.851562 1680.441406 992.953125 L 1692.164062 983.398438 C 1684.105469 978.65625 1679.597656 970.816406 1680.617188 961.628906 C 1685.097656 921.179688 1717.398438 889.230469 1752.574219 872.039062 C 1819.4375 839.359375 1909.152344 838.660156 1977.425781 866.824219 C 2017.8125 883.488281 2053.058594 914.796875 2060.3125 959.796875 C 2061.949219 969.949219 2057.984375 978.75 2048.277344 983.515625 C 2055.53125 988.527344 2062.308594 992.550781 2065.582031 999.625 C 2068.285156 1005.464844 2066.136719 1012.496094 2062.429688 1016.515625 C 2058.164062 1021.140625 2051.703125 1022.042969 2044.015625 1021.546875 L 2039.953125 1031.652344 C 2051.835938 1036.160156 2059.664062 1046.511719 2060.390625 1058.328125 C 2061.175781 1071.144531 2053.929688 1083.050781 2041.976562 1088.113281 C 2042.707031 1093.097656 2043.058594 1098.011719 2043.113281 1103.503906 C 2055.324219 1105.726562 2062.277344 1115.269531 2060.539062 1128.332031 C 2057.046875 1154.589844 2037.480469 1179.644531 2007.453125 1179.683594 "></path><path style=" stroke:none;fill-rule:nonzero;fill:rgb(0%,0%,0%);fill-opacity:1;" d="M 1953 916.886719 C 1953.648438 911.605469 1944.226562 906.828125 1941.160156 912.167969 C 1940.019531 914.15625 1943.226562 918.359375 1945.285156 919.113281 C 1947.152344 919.796875 1952.71875 919.171875 1953 916.886719 M 1806.96875 912.523438 C 1806.640625 908.90625 1802.476562 906.675781 1800.449219 906.691406 C 1798.71875 906.707031 1794.285156 908.320312 1794.339844 910.050781 C 1794.425781 912.53125 1797.488281 915.238281 1799.398438 915.742188 C 1801.332031 916.253906 1807.160156 914.617188 1806.96875 912.523438 M 1902.332031 902.140625 C 1898.105469 901.980469 1894.582031 902.503906 1892.730469 904.796875 C 1891.421875 906.421875 1890.972656 909.648438 1890.6875 912.996094 C 1894 912.679688 1897.09375 912.210938 1899.011719 911.046875 C 1900.636719 910.058594 1901.429688 906.734375 1902.332031 902.140625 M 1852.585938 911.09375 C 1855.546875 904.433594 1848.375 898.050781 1843.699219 900.679688 C 1841.886719 901.941406 1843.132812 907.675781 1844.597656 909.382812 C 1846.027344 911.042969 1851.660156 913.164062 1852.585938 911.09375 M 1770.242188 897.289062 C 1766.09375 897.667969 1762.960938 898.390625 1760.847656 899.890625 C 1759.285156 901 1757.996094 906.425781 1759.550781 907.609375 C 1761.289062 908.933594 1766.816406 907.308594 1767.90625 905.414062 C 1768.949219 903.605469 1769.539062 901.035156 1770.242188 897.289062 M 1967.851562 891.332031 C 1964.476562 885 1954.449219 887.011719 1954.570312 892.3125 C 1954.621094 894.582031 1959.917969 896.519531 1962.175781 896.402344 C 1964.171875 896.296875 1968.746094 893.015625 1967.851562 891.332031 M 1922.660156 884.15625 C 1922.5 881.542969 1919.359375 878.316406 1917.496094 877.5 C 1915.632812 876.679688 1909.710938 877.621094 1909.839844 879.703125 C 1910.011719 882.46875 1913.402344 885.746094 1915.433594 886.453125 C 1917.179688 887.058594 1922.773438 886.035156 1922.660156 884.15625 M 1826.75 876.898438 C 1825.523438 874.902344 1819.953125 876.042969 1818.449219 877.476562 C 1816.945312 878.90625 1814.679688 883.863281 1816.308594 885.203125 C 1818.210938 886.773438 1823.203125 885.511719 1824.898438 884.265625 C 1826.339844 883.207031 1828.050781 879.011719 1826.75 876.898438 M 1874.835938 884.589844 C 1876.867188 881.5 1875 877.40625 1873.503906 875.984375 C 1872.007812 874.558594 1866.488281 873.144531 1865.429688 874.898438 C 1864.0625 877.164062 1866.019531 881.714844 1867.625 883.324219 C 1868.941406 884.644531 1873.804688 886.160156 1874.835938 884.589844 M 2040.023438 974.09375 L 1701.230469 974.105469 C 1698.378906 974.105469 1694.789062 972.480469 1693.441406 971.121094 C 1691.871094 969.539062 1690.859375 964.433594 1691.335938 961.625 C 1695.28125 938.269531 1707.058594 918.183594 1725.335938 902.8125 C 1781.839844 855.28125 1872.183594 849.324219 1941.8125 866.40625 C 1990.246094 878.285156 2041.167969 908.144531 2049.808594 961.1875 C 2050.234375 963.8125 2049.648438 968.144531 2048.792969 970.011719 C 2047.945312 971.855469 2044.308594 974.09375 2040.023438 974.09375 "></path><path style=" stroke:none;fill-rule:nonzero;fill:rgb(100%,100%,100%);fill-opacity:1;" d="M 1874.835938 884.589844 C 1873.804688 886.160156 1868.941406 884.644531 1867.625 883.324219 C 1866.019531 881.714844 1864.0625 877.164062 1865.429688 874.898438 C 1866.488281 873.144531 1872.007812 874.558594 1873.503906 875.980469 C 1875 877.402344 1876.871094 881.5 1874.835938 884.589844 "></path><path style=" stroke:none;fill-rule:nonzero;fill:rgb(100%,100%,100%);fill-opacity:1;" d="M 1826.75 876.898438 C 1828.050781 879.011719 1826.339844 883.207031 1824.898438 884.265625 C 1823.203125 885.511719 1818.210938 886.773438 1816.308594 885.203125 C 1814.679688 883.863281 1816.945312 878.90625 1818.449219 877.476562 C 1819.953125 876.042969 1825.523438 874.902344 1826.75 876.898438 "></path><path style=" stroke:none;fill-rule:nonzero;fill:rgb(100%,100%,100%);fill-opacity:1;" d="M 1922.660156 884.15625 C 1922.773438 886.035156 1917.179688 887.058594 1915.433594 886.453125 C 1913.402344 885.746094 1910.015625 882.46875 1909.839844 879.703125 C 1909.710938 877.621094 1915.632812 876.679688 1917.496094 877.5 C 1919.359375 878.316406 1922.5 881.542969 1922.660156 884.15625 "></path><path style=" stroke:none;fill-rule:nonzero;fill:rgb(100%,100%,100%);fill-opacity:1;" d="M 1967.851562 891.332031 C 1968.75 893.015625 1964.171875 896.296875 1962.175781 896.402344 C 1959.917969 896.519531 1954.621094 894.582031 1954.570312 892.3125 C 1954.449219 887.011719 1964.480469 885 1967.851562 891.332031 "></path><path style=" stroke:none;fill-rule:nonzero;fill:rgb(100%,100%,100%);fill-opacity:1;" d="M 1770.242188 897.289062 C 1769.539062 901.035156 1768.949219 903.605469 1767.90625 905.414062 C 1766.816406 907.308594 1761.289062 908.933594 1759.550781 907.609375 C 1757.996094 906.425781 1759.285156 900.996094 1760.847656 899.890625 C 1762.960938 898.390625 1766.09375 897.667969 1770.242188 897.289062 "></path><path style=" stroke:none;fill-rule:nonzero;fill:rgb(100%,100%,100%);fill-opacity:1;" d="M 1852.582031 911.09375 C 1851.660156 913.164062 1846.027344 911.042969 1844.601562 909.382812 C 1843.128906 907.675781 1841.886719 901.941406 1843.699219 900.679688 C 1848.375 898.050781 1855.546875 904.433594 1852.582031 911.09375 "></path><path style=" stroke:none;fill-rule:nonzero;fill:rgb(100%,100%,100%);fill-opacity:1;" d="M 1902.332031 902.140625 C 1901.429688 906.734375 1900.636719 910.058594 1899.011719 911.046875 C 1897.09375 912.210938 1894 912.679688 1890.6875 912.996094 C 1890.972656 909.648438 1891.421875 906.421875 1892.730469 904.796875 C 1894.582031 902.503906 1898.105469 901.980469 1902.332031 902.140625 "></path><path style=" stroke:none;fill-rule:nonzero;fill:rgb(100%,100%,100%);fill-opacity:1;" d="M 1806.96875 912.523438 C 1807.160156 914.617188 1801.332031 916.253906 1799.398438 915.742188 C 1797.488281 915.238281 1794.425781 912.53125 1794.339844 910.050781 C 1794.285156 908.320312 1798.71875 906.707031 1800.449219 906.691406 C 1802.476562 906.675781 1806.640625 908.90625 1806.96875 912.523438 "></path><path style=" stroke:none;fill-rule:nonzero;fill:rgb(100%,100%,100%);fill-opacity:1;" d="M 1953 916.886719 C 1952.71875 919.171875 1947.152344 919.796875 1945.285156 919.113281 C 1943.226562 918.359375 1940.019531 914.15625 1941.160156 912.167969 C 1944.226562 906.828125 1953.648438 911.605469 1953 916.886719 "></path></g></svg>