<?xml version='1.0' encoding='utf-8'?>
<svg xmlns="http://www.w3.org/2000/svg" viewBox="5263.66 1471.77 450.30 397.50" width="80" height="80" fill="none"><g><path style=" stroke:none;fill-rule:nonzero;fill:rgb(100%,100%,100%);fill-opacity:1;" d="M 5626.355469 1837.039062 C 5651.605469 1836.941406 5662.429688 1801.003906 5651.5625 1784.175781 L 5319.796875 1783.96875 C 5314.472656 1796.96875 5315.058594 1808.648438 5321.535156 1820.332031 C 5325.996094 1828.378906 5337.21875 1838.152344 5349.777344 1838.105469 Z M 5578.8125 1748.207031 L 5553.941406 1764.867188 C 5514.292969 1736.507812 5458.457031 1724.734375 5410.644531 1724.742188 L 5328.527344 1724.765625 C 5314.597656 1724.765625 5304.566406 1737.171875 5305.316406 1749.542969 C 5305.945312 1759.972656 5315.144531 1771.757812 5328.636719 1771.753906 L 5643.429688 1771.617188 C 5658.875 1771.609375 5667.402344 1755.28125 5665.980469 1744.644531 C 5664.003906 1729.898438 5651.339844 1721.945312 5636.035156 1724.25 C 5615.539062 1727.339844 5596.835938 1736.136719 5578.8125 1748.207031 M 5578.804688 1693.90625 C 5557.75 1671.503906 5544.738281 1706.742188 5526.113281 1706.300781 C 5501.09375 1705.703125 5492.472656 1671.941406 5469.585938 1695.28125 C 5440.808594 1724.632812 5421.023438 1685.574219 5406.714844 1686.800781 C 5402.570312 1687.15625 5395.417969 1691.503906 5392.023438 1694.824219 C 5378.109375 1708.4375 5360.242188 1709.242188 5347.433594 1694.765625 C 5340.410156 1686.828125 5326.777344 1685.789062 5319.65625 1694.507812 C 5316.679688 1698.148438 5319.253906 1712.289062 5324.476562 1712.300781 L 5391.800781 1712.476562 C 5447.136719 1712.617188 5506.8125 1718.835938 5554.121094 1750.902344 C 5579.160156 1733.585938 5604.175781 1715.960938 5635.121094 1713.113281 C 5640.421875 1712.625 5647.328125 1710.414062 5649.953125 1707.601562 C 5652.207031 1705.1875 5653.625 1696.359375 5651.285156 1693.554688 C 5644.949219 1685.96875 5630.351562 1687.640625 5623.5 1695.65625 C 5610.796875 1710.511719 5591.535156 1707.453125 5578.804688 1693.90625 M 5540.574219 1686.105469 C 5554.265625 1671.09375 5573.824219 1672.757812 5586.714844 1686.277344 C 5595.824219 1695.835938 5608.234375 1696.320312 5617.109375 1687.042969 C 5639.839844 1663.277344 5658.683594 1692.679688 5674.070312 1683.515625 C 5670.046875 1663.25 5656.359375 1662.324219 5641.257812 1662.328125 L 5324.613281 1662.4375 C 5312.074219 1662.441406 5300.523438 1667.992188 5296.367188 1682.847656 C 5310.324219 1695.515625 5330.972656 1661.757812 5353.449219 1686.132812 C 5362.46875 1695.917969 5375.777344 1695.667969 5384.96875 1685.988281 C 5398.242188 1672.011719 5417.234375 1672.464844 5430.40625 1686.398438 C 5439.417969 1695.925781 5451.582031 1697.304688 5461.417969 1687.574219 C 5499.769531 1649.648438 5512.859375 1716.488281 5540.574219 1686.105469 M 5642.839844 1650.390625 C 5651.378906 1650.390625 5655.722656 1643.785156 5655.304688 1636.71875 C 5648.464844 1521.351562 5479.535156 1491.765625 5378.855469 1543.527344 C 5319.242188 1574.175781 5301.589844 1650.386719 5328.570312 1650.386719 Z M 5626.402344 1849.03125 L 5347.003906 1849.25 C 5330.132812 1849.261719 5316.574219 1835.722656 5310.515625 1825.222656 C 5301.527344 1809.640625 5303.835938 1793.398438 5308.433594 1778 C 5301.722656 1770.179688 5293.253906 1759.5625 5293.355469 1750.125 C 5293.492188 1736.929688 5298.386719 1726.859375 5310.511719 1717.902344 L 5305.613281 1697.855469 C 5298.949219 1695.449219 5292.757812 1693.15625 5288.953125 1690.507812 C 5285.375 1688.019531 5283.660156 1675.859375 5286.546875 1672.5625 C 5292.246094 1666.042969 5299.867188 1659.800781 5306.457031 1654.609375 C 5295.09375 1599.15625 5335.195312 1548.527344 5386.109375 1526.796875 C 5450.050781 1499.503906 5524.167969 1500.460938 5588.109375 1528.078125 C 5637.195312 1549.28125 5674.796875 1599.617188 5665.230469 1654.859375 C 5675.566406 1661.859375 5693.957031 1680.933594 5682.742188 1690.554688 C 5679.433594 1693.394531 5672.613281 1695.515625 5665.980469 1697.5 L 5661.320312 1717.113281 C 5671.988281 1725.804688 5677.488281 1735.417969 5678.253906 1747.351562 C 5678.96875 1758.535156 5669.890625 1769.011719 5663.246094 1777.671875 C 5668.066406 1792.109375 5670.269531 1808.671875 5662.28125 1823.550781 C 5656.925781 1833.515625 5644.519531 1849.015625 5626.402344 1849.03125 "></path><path style=" stroke:none;fill-rule:nonzero;fill:rgb(0%,0%,0%);fill-opacity:1;" d="M 5527.796875 1594.75 C 5529.585938 1582.425781 5522.546875 1578.199219 5514.3125 1579.507812 C 5514.480469 1581.988281 5515.574219 1588.230469 5516.640625 1590.675781 C 5517.695312 1593.082031 5523.636719 1594.078125 5527.796875 1594.75 M 5457.722656 1586.335938 C 5458.339844 1584.832031 5458.269531 1578.832031 5456.679688 1579.183594 L 5449.058594 1580.886719 C 5445.648438 1581.648438 5442.011719 1592.386719 5445.933594 1593.945312 C 5449.023438 1595.167969 5456.457031 1589.421875 5457.722656 1586.335938 M 5598.472656 1585.574219 C 5599.835938 1578.277344 5588.335938 1570.398438 5584.171875 1574.671875 C 5582.214844 1576.777344 5584.804688 1583.519531 5587.816406 1585.921875 C 5590.0625 1587.710938 5596.324219 1587.96875 5598.472656 1585.574219 M 5387.691406 1575.835938 C 5386.335938 1573.546875 5379.3125 1574.59375 5377.203125 1576.03125 C 5375.066406 1577.484375 5372.574219 1584.085938 5374.273438 1586.410156 C 5377.511719 1590.832031 5391.410156 1582.113281 5387.691406 1575.835938 M 5551.921875 1554.808594 C 5553.367188 1552.199219 5549.105469 1545.726562 5546.382812 1544.777344 C 5544.074219 1543.972656 5537.550781 1544.992188 5536.71875 1547.425781 C 5535.0625 1552.28125 5548.328125 1561.304688 5551.921875 1554.808594 M 5430.605469 1554.324219 C 5432.242188 1553.554688 5435.175781 1549.394531 5434.898438 1547.785156 C 5434.617188 1546.179688 5431.796875 1542.800781 5430.277344 1543.425781 L 5422.800781 1546.496094 C 5420.996094 1547.234375 5418.78125 1551.507812 5418.75 1553.453125 C 5418.730469 1554.910156 5422.125 1558.324219 5423.460938 1557.695312 Z M 5492.5 1553.746094 C 5496.664062 1549.023438 5490.445312 1538.214844 5484.617188 1539.128906 C 5481.828125 1539.5625 5480.25 1546.40625 5481.425781 1549.007812 C 5482.738281 1551.90625 5490.378906 1556.144531 5492.5 1553.746094 M 5642.839844 1650.390625 L 5328.570312 1650.386719 C 5301.589844 1650.386719 5319.242188 1574.175781 5378.855469 1543.527344 C 5479.535156 1491.765625 5648.464844 1521.351562 5655.300781 1636.71875 C 5655.722656 1643.785156 5651.378906 1650.390625 5642.839844 1650.390625 "></path><path style=" stroke:none;fill-rule:nonzero;fill:rgb(100%,100%,100%);fill-opacity:1;" d="M 5492.5 1553.742188 C 5490.378906 1556.144531 5482.734375 1551.90625 5481.425781 1549.007812 C 5480.246094 1546.402344 5481.828125 1539.5625 5484.617188 1539.128906 C 5490.449219 1538.214844 5496.664062 1549.023438 5492.5 1553.742188 "></path><path style=" stroke:none;fill-rule:nonzero;fill:rgb(100%,100%,100%);fill-opacity:1;" d="M 5430.605469 1554.324219 L 5423.460938 1557.695312 C 5422.125 1558.324219 5418.730469 1554.910156 5418.75 1553.449219 C 5418.78125 1551.507812 5420.996094 1547.234375 5422.800781 1546.496094 L 5430.277344 1543.425781 C 5431.796875 1542.800781 5434.617188 1546.179688 5434.898438 1547.785156 C 5435.175781 1549.394531 5432.242188 1553.554688 5430.605469 1554.324219 "></path><path style=" stroke:none;fill-rule:nonzero;fill:rgb(100%,100%,100%);fill-opacity:1;" d="M 5551.921875 1554.808594 C 5548.324219 1561.300781 5535.0625 1552.28125 5536.71875 1547.425781 C 5537.550781 1544.992188 5544.074219 1543.972656 5546.382812 1544.777344 C 5549.105469 1545.726562 5553.371094 1552.199219 5551.921875 1554.808594 "></path><path style=" stroke:none;fill-rule:nonzero;fill:rgb(100%,100%,100%);fill-opacity:1;" d="M 5598.472656 1585.574219 C 5596.324219 1587.96875 5590.0625 1587.710938 5587.816406 1585.921875 C 5584.804688 1583.519531 5582.214844 1576.777344 5584.171875 1574.671875 C 5588.335938 1570.398438 5599.835938 1578.273438 5598.472656 1585.574219 "></path><path style=" stroke:none;fill-rule:nonzero;fill:rgb(100%,100%,100%);fill-opacity:1;" d="M 5387.691406 1575.835938 C 5391.410156 1582.113281 5377.511719 1590.832031 5374.273438 1586.410156 C 5372.574219 1584.085938 5375.066406 1577.484375 5377.203125 1576.03125 C 5379.3125 1574.59375 5386.335938 1573.546875 5387.691406 1575.835938 "></path><path style=" stroke:none;fill-rule:nonzero;fill:rgb(100%,100%,100%);fill-opacity:1;" d="M 5527.796875 1594.75 C 5523.636719 1594.078125 5517.695312 1593.082031 5516.640625 1590.675781 C 5515.574219 1588.230469 5514.480469 1581.988281 5514.3125 1579.507812 C 5522.546875 1578.199219 5529.585938 1582.425781 5527.796875 1594.75 "></path><path style=" stroke:none;fill-rule:nonzero;fill:rgb(100%,100%,100%);fill-opacity:1;" d="M 5457.722656 1586.335938 C 5456.457031 1589.421875 5449.023438 1595.167969 5445.9375 1593.945312 C 5442.011719 1592.386719 5445.648438 1581.648438 5449.058594 1580.886719 L 5456.679688 1579.183594 C 5458.265625 1578.832031 5458.339844 1584.832031 5457.722656 1586.335938 "></path><path style=" stroke:none;fill-rule:nonzero;fill:rgb(0%,0%,0%);fill-opacity:1;" d="M 5540.574219 1686.101562 C 5512.859375 1716.488281 5499.769531 1649.648438 5461.417969 1687.574219 C 5451.582031 1697.304688 5439.417969 1695.925781 5430.410156 1686.398438 C 5417.238281 1672.464844 5398.242188 1672.011719 5384.96875 1685.988281 C 5375.777344 1695.667969 5362.46875 1695.917969 5353.449219 1686.132812 C 5330.972656 1661.753906 5310.320312 1695.515625 5296.367188 1682.847656 C 5300.523438 1667.996094 5312.074219 1662.441406 5324.613281 1662.4375 L 5641.253906 1662.328125 C 5656.355469 1662.324219 5670.046875 1663.25 5674.070312 1683.515625 C 5658.683594 1692.679688 5639.839844 1663.273438 5617.109375 1687.042969 C 5608.234375 1696.320312 5595.824219 1695.835938 5586.714844 1686.277344 C 5573.824219 1672.757812 5554.265625 1671.09375 5540.574219 1686.101562 "></path><path style=" stroke:none;fill-rule:nonzero;fill:rgb(0%,0%,0%);fill-opacity:1;" d="M 5578.804688 1693.90625 C 5591.53125 1707.453125 5610.796875 1710.511719 5623.5 1695.65625 C 5630.351562 1687.640625 5644.949219 1685.96875 5651.285156 1693.554688 C 5653.625 1696.355469 5652.207031 1705.1875 5649.953125 1707.601562 C 5647.328125 1710.414062 5640.421875 1712.625 5635.121094 1713.113281 C 5604.171875 1715.960938 5579.160156 1733.585938 5554.121094 1750.902344 C 5506.8125 1718.835938 5447.136719 1712.621094 5391.804688 1712.476562 L 5324.476562 1712.300781 C 5319.253906 1712.289062 5316.679688 1698.148438 5319.65625 1694.507812 C 5326.777344 1685.789062 5340.410156 1686.828125 5347.433594 1694.765625 C 5360.242188 1709.242188 5378.109375 1708.441406 5392.023438 1694.824219 C 5395.417969 1691.503906 5402.570312 1687.15625 5406.714844 1686.800781 C 5421.023438 1685.574219 5440.808594 1724.632812 5469.585938 1695.28125 C 5492.472656 1671.941406 5501.09375 1705.703125 5526.113281 1706.300781 C 5544.738281 1706.742188 5557.75 1671.503906 5578.804688 1693.90625 "></path><path style=" stroke:none;fill-rule:nonzero;fill:rgb(0%,0%,0%);fill-opacity:1;" d="M 5578.8125 1748.207031 C 5596.835938 1736.136719 5615.539062 1727.339844 5636.035156 1724.25 C 5651.339844 1721.945312 5664.003906 1729.902344 5665.980469 1744.644531 C 5667.402344 1755.28125 5658.875 1771.609375 5643.429688 1771.617188 L 5328.632812 1771.75 C 5315.144531 1771.757812 5305.945312 1759.972656 5305.316406 1749.542969 C 5304.566406 1737.171875 5314.597656 1724.765625 5328.527344 1724.765625 L 5410.644531 1724.742188 C 5458.457031 1724.734375 5514.292969 1736.507812 5553.941406 1764.867188 Z M 5578.8125 1748.207031 "></path><path style=" stroke:none;fill-rule:nonzero;fill:rgb(0%,0%,0%);fill-opacity:1;" d="M 5626.355469 1837.039062 L 5349.777344 1838.105469 C 5337.21875 1838.152344 5325.996094 1828.378906 5321.535156 1820.332031 C 5315.058594 1808.648438 5314.472656 1796.96875 5319.796875 1783.96875 L 5651.5625 1784.175781 C 5662.429688 1801.003906 5651.605469 1836.941406 5626.355469 1837.039062 "></path></g></svg>