<?xml version="1.0" encoding="utf-8"?>
<svg xmlns="http://www.w3.org/2000/svg" viewBox="0 0 100 100" width="80" height="80" fill="none">
  <g fill="rgb(100%,100%,100%)">
    
    <path d="M50 10 C 47 13, 47 17, 50 20 C 53 17, 53 13, 50 10 Z"></path>
    
    <rect x="49" y="20" width="2" height="10"></rect>
    
    <rect x="38" y="30" width="24" height="14" rx="1"></rect>
    
    <path d="M38 38 Q 41 42, 44 38 Q 47 42, 50 38 Q 53 42, 56 38 Q 59 42, 62 38 L 62 44 L 38 44 Z"></path>
    
    <rect x="28" y="48" width="44" height="18" rx="1"></rect>
    
    <path d="M28 58 Q 32 63, 36 58 Q 40 63, 44 58 Q 48 63, 52 58 Q 56 63, 60 58 Q 64 63, 68 58 Q 71 62, 72 58 L 72 66 L 28 66 Z"></path>
    
    <rect x="18" y="70" width="64" height="18" rx="1"></rect>
    
    <ellipse cx="50" cy="90" rx="38" ry="3"></ellipse>
  </g>
</svg>