<?xml version="1.0" encoding="UTF-8"?>
<svg id="Layer_1" xmlns="http://www.w3.org/2000/svg" version="1.1" viewBox="0 0 80 80">
  
  <defs>
    
  </defs>
  <path fill="rgb(100%,100%,100%)" d="M44.07,43.8c3.04-2.04,6.42-1.59,9.22.4,1.59,1.13,3.79.55,5.31-.41,1.9-1.2,4.03-1.72,6.17-.94.23.08.72.07.92-.04-.21-1.26-1.41-2.28-2.82-2.28h-15.7l-32-.02c-1.09.39-5.26,2.65-4.38,3.87.6.84,2.46.52,3.48-.16,3.14-2.09,5.97-2.45,9.21-.34,1.89,1.23,4.03,1.24,5.89-.04,2.77-1.92,6.11-1.77,8.85.14,1.78,1.25,4.03,1.05,5.85-.17M15.53,56.17h51.06c.43,0,.83.73.75,1.02-.07.25-.57.55-.86.56l-3.14.15-40.92-.04-6.71-.12c-.57,0-1.09.48-1.13.97-.03.38.33,1.09.7,1.09l4.39-.07c2.24-.04,4.46.3,6.42,1.44,2.19,1.27,4.19,2.77,6.15,4.32,1.02.81,1.97.73,3.03-.02,2.61-1.85,5.31-3.46,8.29-4.61,2.02-.77,3.93-1.01,6.06-1.01l16.79.02c.45,0,.96.66.89.99-.06.28-.53.78-.89.78l-18.78.04c-3.36,0-8.88,3.5-11.69,5.36-1.31.87-2.78,1.13-4.14.16l-5.47-3.91c-1.52-1.08-3.32-1.76-5.19-1.77l-7.61-.04c-.6,0-1.59.28-1.72,1.22-.42,3.13,2.12,7.81,5.89,7.82l48.2.11c2.38,0,2.88-2.58,2.88-4.41v-25.44c0-2.09-.88-3.82-2.08-5.37-4.31-4.66-11.99-8.06-18.05-10.65-1.08,3.46-3.62,6.01-7.11,6.5-4.48.63-8.51-2.05-9.74-6.4l-10.25,5.89-9.09,5.35c-.46.43-.77,1.06-.68,1.62.07.43.73,1.02,1.39,1.02l50.08.05c1.79,0,3.27,1.36,3.83,2.76.33.84.9,3.57-.18,3.87-.99.27-3.82-2.63-7.17-.27-2.56,1.8-5.7,1.82-8.27.06-2.1-1.44-4.68-1.16-6.73.19-2.39,1.58-5.28,1.46-7.6-.08-2.29-1.52-4.82-1.44-7.04.07-2.21,1.5-4.93,1.51-7.16.15-.98-.6-2.07-1.21-3.25-1.32-1.81-.17-3.8.67-4.93,2-.55.65.37,1.62,1.1,1.62l20.43.13c3.13.02,6.02,1.45,8.71,2.8l4.88,2.45c2.7-1.38,3.23-2.17,6.1-3.6,4.03-2.02,6.12-1.8,10.64-1.71.35,0,.8.67.75.96-.35,2.14-5.26-1.21-11.97,3.03l-4.18,2.65c-.77.49-1.75.41-2.55,0l-6.29-3.11c-2.1-1.04-4.35-1.76-6.75-1.76H14.64c-1.94,0-3.05,1.94-2.88,3.56.2,1.88,1.61,2.92,3.77,2.92M40.1,29.63c3.9.04,6.9-2.9,6.95-6.52.05-3.61-2.85-6.6-6.6-6.71-3.82-.11-7,2.76-7.06,6.48-.05,3.58,2.85,6.71,6.71,6.75M18.02,72.29c-4.97,0-8.39-5.33-7.98-9.63.16-1.74,1.41-2.36,2.81-2.8l.06-2.54c-1.81-.92-2.86-2.45-2.9-4.28-.04-1.99.89-3.66,2.81-4.62.33-.16.31-.98.15-1.4-.34-.92-2.77.09-3.74-1.91-1.04-2.15.88-3.44,2.6-4.75-1.16-.73-1.86-1.79-1.83-3.07s.79-2.28,2.03-2.99l19.58-11.37c.19-4.42,3.51-7.84,8.06-8.27,1.02-4.05,3.71-7.71,8.21-8.64.36.2.74.47.85.72.65,1.49-3.75.19-6.39,5.52-.41.82-.74,1.62-.79,2.51,4.25.73,7.04,3.99,7.24,8.17,6.45,2.73,21.76,8.95,21.75,17.34l-.04,27.64c0,2.46-2.39,4.45-4.76,4.45l-47.73-.08h.01Z"></path>
  <path fill="rgb(100%,100%,100%)" d="M61.67,36.96H17.33c-.34,0-.82-.54-.88-.81-.07-.3.44-.93.87-.93h44.29c.48,0,.87.45.93.78.05.29-.26.95-.86.95"></path>
  <path fill="rgb(100%,100%,100%)" d="M36.49,23.63c-.02.23-.23.71-.41.82-.22.13-.87-.05-1.02-.25-.62-.84-.25-2.27.28-2.97.17-.22.87-.17,1.03.02.15.19.25.64.23.91,0,0-.11,1.47-.11,1.47Z"></path>
  <path fill="rgb(100%,100%,100%)" d="M38.27,19.99c-.51.46-1.2.5-1.58.07-.29-.33-.11-1.01.34-1.38.34-.28,1.02-.36,1.32-.1.34.31.36,1.01-.08,1.4"></path>
  <path fill="rgb(100%,100%,100%)" d="M56.76,32.76c-2.44-1.92-5.55-2.19-8.42-1.22-.38.13-.84-.09-.99-.39-.2-.39.03-.91.49-1.07,2.98-1.29,6.82-.91,10.05,1.64.24.21.17.79,0,.96-.27.26-.73.37-1.11.07"></path>
</svg>