<?xml version="1.0" encoding="UTF-8"?>
<svg id="Layer_1" xmlns="http://www.w3.org/2000/svg" version="1.1" viewBox="0 0 288 227.01">
  
  <defs>
    
  </defs>
  <circle class="st0" cx="175.91" cy="51.34" r="16.21"></circle>
  <circle class="st0" cx="110.58" cy="82.5" r="16.21"></circle>
  <path class="st0" d="M175.91,17.05s-36.14,2.29-36.14,37.66,36.14,59.27,36.14,59.27c0,0,35.1-22.04,35.1-61.58,0-35.48-35.1-35.35-35.1-35.35Z"></path>
  <path class="st0" d="M55.97,135.76c-1.34-6.16-1.51-9.88-1.51-16.44,0-44.47,32.42-81.37,74.91-88.35"></path>
  <path class="st0" d="M221.73,74.85c7.51,13.1,11.81,28.29,11.81,44.48,0,8.08-1.07,15.91-3.08,23.36"></path>
  <path class="st0" d="M153.24,153.53s23.41-25.05,29.69-24.84c8.98.3,41.25,30.53,41.25,30.53-14.05,31.07-43.87,49.64-80.18,49.64-38.46,0-71.25-24.25-83.93-58.29,0,0,33.97-36.62,42.62-36.59,5.39.02,7.83.64,24.11,16.8,16.28,16.16,63.57,61.36,63.57,61.36"></path>
</svg>