<?xml version="1.0" encoding="UTF-8"?>
<svg id="Layer_1" xmlns="http://www.w3.org/2000/svg" version="1.1" viewBox="0 0 288 227.01">
  
  <defs>
    
  </defs>
  <g>
    <path class="st0" d="M65.43,90.76l-13.2,21.57c-2.58,4.17-3.66,8.95-3.11,13.68l5.26,45.23h89.57"></path>
    <path class="st0" d="M65.43,90.76s-5.61-4.85-14.17-6.07c-8.56-1.23-14.41-.33-15.46,2.94-1.27,3.97-6.98,12.74,7.38,13.23"></path>
    <path class="st0" d="M145.89,57.11s-49.54-.65-59.55,4.11c-8.76,4.17-18.6,24.53-20.91,29.54"></path>
    <path class="st0" d="M110.99,134.64s-12.2-.65-28.8-1.3c-16.6-.65-13.42-11.26-13.42-11.26"></path>
    <path class="st0" d="M110.99,152.62h69.8"></path>
    <path class="st0" d="M64.93,91.59s3.11,4.94,14.34,4.94h66.01"></path>
    <path class="st0" d="M77.35,171.24h5.29c7.19,0,13.02,5.83,13.02,13.02v4.3h-31.33v-4.3c0-7.19,5.83-13.02,13.02-13.02Z" transform="translate(160 359.81) rotate(180)"></path>
  </g>
  <g>
    <path class="st0" d="M222.56,90.76l13.2,21.57c2.58,4.17,3.66,8.95,3.11,13.68l-5.26,45.23h-89.57"></path>
    <path class="st0" d="M222.56,90.76s5.61-4.85,14.17-6.07c8.56-1.23,14.41-.33,15.46,2.94,1.27,3.97,6.98,12.74-7.38,13.23"></path>
    <path class="st0" d="M142.11,57.11s49.54-.65,59.55,4.11c8.76,4.17,18.6,24.53,20.91,29.54"></path>
    <path class="st0" d="M177,134.64s12.2-.65,28.8-1.3c16.6-.65,13.42-11.26,13.42-11.26"></path>
    <path class="st0" d="M177,152.62h-69.8"></path>
    <path class="st0" d="M223.07,91.59s-3.11,4.94-14.34,4.94h-66.01"></path>
    <path class="st0" d="M192.33,171.24h31.33v4.3c0,7.19-5.83,13.02-13.02,13.02h-5.29c-7.19,0-13.02-5.83-13.02-13.02v-4.3h0Z"></path>
  </g>
</svg>