<?xml version='1.0' encoding='utf-8'?>
<svg xmlns="http://www.w3.org/2000/svg" viewBox="4527.37 1412.66 431.91 481.95" width="80" height="80" fill="none"><g><path style=" stroke:none;fill-rule:nonzero;fill:rgb(100%,100%,100%);fill-opacity:1;" d="M 4742.957031 1483.109375 C 4758.039062 1500.738281 4750.65625 1532.59375 4735.71875 1535.210938 C 4725.476562 1537.007812 4752.5 1515.660156 4730.90625 1486.136719 C 4717.960938 1468.4375 4717.730469 1440.671875 4740 1432.664062 C 4731.324219 1452.378906 4729.878906 1467.824219 4742.957031 1483.109375 "></path><path style=" stroke:none;fill-rule:nonzero;fill:rgb(100%,100%,100%);fill-opacity:1;" d="M 4782.191406 1487.363281 C 4791.566406 1499.5625 4792.449219 1520.167969 4774.914062 1526.988281 C 4778.363281 1511.476562 4779.4375 1501.433594 4771.640625 1489.949219 C 4763.109375 1477.386719 4761.035156 1458.011719 4778.109375 1450.207031 C 4775.433594 1465.230469 4773.59375 1476.175781 4782.191406 1487.363281 "></path><path style=" stroke:none;fill-rule:nonzero;fill:rgb(100%,100%,100%);fill-opacity:1;" d="M 4698.792969 1451.601562 C 4685.710938 1485.027344 4730.953125 1503.660156 4696.816406 1526.261719 L 4698.6875 1504.671875 L 4688.722656 1482.867188 C 4683.457031 1471.335938 4684.742188 1455.574219 4698.792969 1451.601562 "></path><path style=" stroke:none;fill-rule:nonzero;fill:rgb(100%,100%,100%);fill-opacity:1;" d="M 4845.585938 1823.925781 L 4810.476562 1770.511719 L 4753.546875 1858.21875 Z M 4806.515625 1745.855469 L 4850.867188 1812.257812 L 4866.78125 1698.441406 L 4827.398438 1712.457031 Z M 4794.421875 1742.210938 C 4802.960938 1732.003906 4805.910156 1727.957031 4810.90625 1719.210938 L 4786.605469 1724.84375 L 4744.34375 1681.808594 L 4744.609375 1851.25 L 4803.484375 1762.605469 Z M 4628.390625 1821.851562 L 4733.132812 1861.324219 L 4733.265625 1682.085938 L 4696.566406 1720.089844 C 4693.160156 1722.875 4686.945312 1724.347656 4682.351562 1723.527344 L 4610.953125 1698.457031 Z M 4914.117188 1670.339844 L 4880.605469 1627.328125 L 4749.082031 1671.222656 L 4789.761719 1714.667969 Z M 4688.609375 1714.78125 L 4727.757812 1671.40625 L 4597.203125 1627.867188 L 4563.992188 1670.089844 Z M 4596.96875 1615.878906 L 4726.144531 1577.777344 L 4682.132812 1550.144531 L 4567.695312 1583.074219 Z M 4925.582031 1506.46875 C 4924.09375 1502.238281 4922.683594 1499.199219 4921.191406 1499.199219 C 4915.65625 1499.207031 4827.867188 1621.242188 4822.195312 1634.269531 C 4861.019531 1593.824219 4889.605469 1548.886719 4925.582031 1506.46875 M 4809.9375 1599.605469 L 4870.285156 1477.117188 C 4871.363281 1474.925781 4869.242188 1468.121094 4867.035156 1468.328125 C 4865.269531 1468.496094 4862.078125 1470.75 4861.320312 1472.453125 L 4788.003906 1637.046875 C 4798.984375 1627.019531 4803.558594 1614.367188 4809.9375 1599.605469 M 4551.335938 1577.625 L 4683.136719 1539.65625 L 4739.246094 1573.3125 L 4784.058594 1546.160156 C 4793.269531 1540.582031 4809.074219 1537.324219 4812.390625 1552.625 L 4792.449219 1552.046875 L 4753.808594 1577.0625 L 4790.542969 1589.167969 C 4791.707031 1589.550781 4793.507812 1595.390625 4792.316406 1595.710938 C 4790.527344 1596.191406 4785.558594 1597.183594 4783.691406 1596.667969 L 4738.898438 1584.277344 L 4613.542969 1621.792969 C 4627.722656 1627.441406 4638.0625 1630.675781 4649.609375 1633.828125 C 4665.015625 1607.863281 4687.691406 1608.398438 4713.246094 1611.660156 C 4743.613281 1590.132812 4786.960938 1609.953125 4778.167969 1618.140625 C 4770.605469 1625.183594 4756.101562 1599.960938 4722.875 1616.847656 C 4732.925781 1627.316406 4745.707031 1637.507812 4742.027344 1654.550781 C 4729.953125 1654.960938 4732.257812 1620.457031 4697.050781 1619.617188 C 4682.453125 1619.269531 4667.066406 1623.007812 4658.992188 1636.535156 L 4732.890625 1661.753906 C 4744.683594 1665.777344 4760.683594 1656.472656 4771.539062 1650.945312 L 4855.6875 1461.730469 C 4858.925781 1458.601562 4869.050781 1459.34375 4872.828125 1460.9375 C 4876.515625 1462.496094 4883.839844 1469.484375 4881.605469 1474.105469 L 4800.429688 1641.941406 L 4914.023438 1490.484375 C 4920.4375 1483.746094 4939.273438 1498.34375 4936.351562 1506.621094 L 4842.289062 1628.136719 L 4862.289062 1622.882812 L 4858.070312 1613.730469 C 4854.210938 1605.371094 4879.238281 1618.535156 4884.21875 1612.78125 L 4909.691406 1583.351562 C 4901.132812 1579.609375 4897.109375 1577.894531 4890.992188 1572.730469 C 4903.667969 1565.613281 4913.921875 1571.835938 4925.761719 1578.621094 L 4889.796875 1621.816406 L 4930.113281 1674.804688 L 4878.003906 1694.511719 L 4862.351562 1805.269531 C 4861.199219 1813.441406 4859.265625 1821.3125 4857.242188 1830.5625 L 4739.191406 1874.609375 L 4619.691406 1829.757812 L 4599.976562 1694.761719 L 4547.367188 1674.582031 L 4588.109375 1622.710938 Z M 4551.335938 1577.625 "></path><path style=" stroke:none;fill-rule:nonzero;fill:rgb(0%,0%,0%);fill-opacity:1;" d="M 4809.9375 1599.605469 C 4803.558594 1614.367188 4798.984375 1627.019531 4788.003906 1637.046875 L 4861.320312 1472.457031 C 4862.078125 1470.75 4865.269531 1468.496094 4867.039062 1468.328125 C 4869.242188 1468.121094 4871.363281 1474.925781 4870.285156 1477.117188 Z M 4809.9375 1599.605469 "></path><path style=" stroke:none;fill-rule:nonzero;fill:rgb(0%,0%,0%);fill-opacity:1;" d="M 4925.582031 1506.46875 C 4889.601562 1548.886719 4861.019531 1593.824219 4822.195312 1634.269531 C 4827.867188 1621.242188 4915.65625 1499.207031 4921.191406 1499.199219 C 4922.679688 1499.199219 4924.097656 1502.242188 4925.582031 1506.46875 "></path><path style=" stroke:none;fill-rule:nonzero;fill:rgb(0%,0%,0%);fill-opacity:1;" d="M 4596.96875 1615.878906 L 4567.695312 1583.070312 L 4682.132812 1550.144531 L 4726.144531 1577.78125 Z M 4596.96875 1615.878906 "></path><path style=" stroke:none;fill-rule:nonzero;fill:rgb(100%,100%,100%);fill-opacity:1;" d="M 4845.664062 1558.742188 L 4853.546875 1556.835938 C 4855.09375 1556.460938 4856.277344 1561.65625 4854.925781 1562.480469 L 4849.984375 1565.496094 C 4848.1875 1566.59375 4843.621094 1559.238281 4845.664062 1558.742188 "></path><path style=" stroke:none;fill-rule:nonzero;fill:rgb(100%,100%,100%);fill-opacity:1;" d="M 4766.617188 1635.523438 C 4755.265625 1639.1875 4745.269531 1632.65625 4745.167969 1622.636719 C 4754.867188 1624.484375 4761.289062 1628.554688 4766.617188 1635.523438 "></path><path style=" stroke:none;fill-rule:nonzero;fill:rgb(100%,100%,100%);fill-opacity:1;" d="M 4710.914062 1640.445312 L 4681.636719 1635.59375 C 4691.183594 1625.796875 4704 1626.492188 4710.914062 1640.445312 "></path><path style=" stroke:none;fill-rule:nonzero;fill:rgb(0%,0%,0%);fill-opacity:1;" d="M 4914.117188 1670.339844 L 4789.761719 1714.667969 L 4749.082031 1671.222656 L 4880.605469 1627.328125 Z M 4914.117188 1670.339844 "></path><path style=" stroke:none;fill-rule:nonzero;fill:rgb(0%,0%,0%);fill-opacity:1;" d="M 4688.609375 1714.78125 L 4563.992188 1670.089844 L 4597.203125 1627.867188 L 4727.757812 1671.40625 Z M 4688.609375 1714.78125 "></path><path style=" stroke:none;fill-rule:nonzero;fill:rgb(0%,0%,0%);fill-opacity:1;" d="M 4794.421875 1742.207031 L 4803.484375 1762.605469 L 4744.609375 1851.25 L 4744.34375 1681.808594 L 4786.605469 1724.84375 L 4810.90625 1719.210938 C 4805.90625 1727.957031 4802.960938 1732.007812 4794.421875 1742.207031 "></path><path style=" stroke:none;fill-rule:nonzero;fill:rgb(0%,0%,0%);fill-opacity:1;" d="M 4628.390625 1821.851562 L 4610.953125 1698.457031 L 4682.351562 1723.53125 C 4686.945312 1724.347656 4693.160156 1722.871094 4696.566406 1720.085938 L 4733.265625 1682.085938 L 4733.132812 1861.324219 Z M 4628.390625 1821.851562 "></path><path style=" stroke:none;fill-rule:nonzero;fill:rgb(0%,0%,0%);fill-opacity:1;" d="M 4806.515625 1745.855469 L 4827.398438 1712.457031 L 4866.78125 1698.445312 L 4850.867188 1812.257812 Z M 4806.515625 1745.855469 "></path><path style=" stroke:none;fill-rule:nonzero;fill:rgb(0%,0%,0%);fill-opacity:1;" d="M 4845.585938 1823.925781 L 4753.546875 1858.21875 L 4810.476562 1770.511719 Z M 4845.585938 1823.925781 "></path></g></svg>