<?xml version='1.0' encoding='utf-8'?>
<svg xmlns="http://www.w3.org/2000/svg" viewBox="140.42 205.36 519.06 393.38" width="80" height="80" fill="none"><g><path style=" stroke:none;fill-rule:nonzero;fill:rgb(100%,100%,100%);fill-opacity:1;" d="M 402.167969 567.898438 C 424.097656 567.882812 444.304688 559.9375 461.726562 547.039062 L 180.902344 546.949219 C 198.871094 559.972656 219.460938 568.058594 241.417969 568.039062 Z M 486.980469 446.398438 C 491.457031 432.964844 488.851562 417.515625 477.457031 408.476562 C 457.351562 392.527344 435.566406 412.109375 435.808594 401.78125 L 436.246094 383.210938 L 206.46875 383.214844 C 203.988281 436.699219 222.628906 505.714844 270.613281 536.132812 L 372.214844 536.027344 C 389.71875 524.695312 401.878906 509.800781 412.089844 492.804688 C 439.746094 487.5 477.585938 474.605469 486.980469 446.398438 M 473.460938 536.144531 C 497.34375 536.1875 451.753906 578.738281 401.253906 578.667969 L 238.230469 578.429688 C 220.375 578.402344 204.230469 571.816406 188.527344 564.460938 C 181.835938 561.328125 160.417969 546.636719 162.960938 539.089844 C 163.359375 537.902344 166.070312 536.253906 167.585938 536.25 L 251.203125 535.890625 C 209.417969 495.511719 194.359375 439.355469 195.589844 384.304688 C 195.152344 378.746094 198.792969 372.859375 205.460938 372.859375 L 435.679688 372.800781 C 443.890625 372.800781 446.875 378.960938 446.734375 385.832031 C 446.707031 387.199219 446.886719 390.210938 447.019531 391.246094 C 447.476562 394.734375 469.230469 385.902344 487.0625 402.722656 C 495.550781 410.730469 500.382812 423.175781 499.660156 436.207031 C 497.425781 476.523438 452.828125 495.039062 418.792969 502.148438 C 410.769531 514.851562 401.660156 525.515625 390.878906 535.996094 Z M 473.460938 536.144531 "></path><path style=" stroke:none;fill-rule:nonzero;fill:rgb(100%,100%,100%);fill-opacity:1;" d="M 575.445312 357.941406 L 575.25 495.820312 C 575.238281 505.0625 568.039062 517.054688 558 517.066406 L 434.765625 517.238281 C 432.820312 517.242188 429.578125 513.683594 429.378906 511.867188 C 429.121094 509.496094 432.441406 506.460938 435.746094 506.464844 L 553.453125 506.609375 C 560.199219 506.617188 564.484375 502.660156 564.480469 495.679688 L 564.457031 359.304688 C 564.457031 346.859375 578.90625 348.179688 579.839844 333.144531 C 581.214844 310.992188 549.457031 299.695312 530.675781 295.484375 C 496.878906 287.90625 461.621094 288.863281 428.285156 298.0625 C 412 302.558594 387.613281 313.070312 388.40625 331.777344 C 388.652344 337.671875 392.238281 344.664062 397.933594 348.226562 C 403.378906 351.632812 404.640625 360.011719 401.246094 363.289062 C 400.160156 364.335938 395.628906 364.726562 395.035156 363.621094 L 391.980469 357.910156 C 383.578125 350.796875 378.257812 342.121094 377.734375 331.652344 C 376.410156 305.113281 406.792969 293.589844 427.730469 286.914062 C 453.644531 278.652344 479.449219 279.859375 506.445312 279.808594 C 536.703125 279.757812 565.84375 279.238281 594.46875 290 C 606.171875 294.402344 617.414062 299.523438 625.746094 308.820312 C 639.480469 324.148438 636.828125 346.570312 619.382812 358.042969 L 619.300781 495.777344 C 619.296875 505.640625 612.523438 515.074219 602.65625 516.628906 C 597.847656 517.386719 579.058594 519.5625 579.109375 511.996094 C 579.121094 510.097656 582.480469 506.507812 584.386719 506.527344 L 597.628906 506.640625 C 602.632812 506.683594 608.386719 503.179688 608.390625 497.21875 L 608.433594 359.273438 C 608.4375 355.246094 610.660156 350.933594 613.726562 348.933594 C 625.246094 341.417969 627.609375 326.496094 618.054688 316.519531 C 604.679688 302.542969 581.1875 295.390625 561.210938 293.667969 C 569.046875 299.386719 576.867188 303.023438 582.414062 309.875 C 594.75 325.109375 592.984375 346.03125 575.445312 357.941406 "></path><path style=" stroke:none;fill-rule:nonzero;fill:rgb(100%,100%,100%);fill-opacity:1;" d="M 320.785156 309.5625 C 330.746094 332.308594 319.578125 357.609375 311.308594 354.65625 C 309.40625 353.976562 307.796875 348.917969 308.839844 347.144531 C 320.316406 327.613281 311.84375 312.882812 301.183594 295.964844 C 279.960938 262.296875 302.863281 225.355469 311.566406 231.761719 C 313.03125 232.839844 313.710938 237.5 312.308594 239.351562 C 300.714844 254.652344 299.285156 275.320312 310.558594 291.566406 C 314.417969 297.128906 318.125 303.488281 320.785156 309.5625 "></path><path style=" stroke:none;fill-rule:nonzero;fill:rgb(100%,100%,100%);fill-opacity:1;" d="M 353.847656 352.007812 C 352.890625 353.371094 347.675781 353.640625 346.449219 352.59375 C 340.355469 347.386719 359.152344 334.304688 342.71875 315.765625 C 331.367188 302.957031 330.394531 283.976562 341.25 271.15625 C 342.539062 269.628906 346.792969 269.476562 348.171875 270.402344 C 355.878906 275.578125 333.417969 289.09375 350.890625 309.527344 C 361.15625 321.535156 363.597656 338.144531 353.847656 352.007812 "></path><path style=" stroke:none;fill-rule:nonzero;fill:rgb(100%,100%,100%);fill-opacity:1;" d="M 279.40625 310.390625 C 296.710938 331.609375 283.503906 356.839844 275.570312 353.046875 C 266.160156 348.546875 288.09375 336.851562 270.636719 315.625 C 259.972656 302.660156 258.382812 285.265625 268.507812 271.773438 C 269.875 269.953125 274.515625 269.136719 276.035156 270.363281 C 284.003906 276.785156 260.910156 287.707031 279.40625 310.390625 "></path><path style=" stroke:none;fill-rule:nonzero;fill:rgb(0%,0%,0%);fill-opacity:1;" d="M 276.59375 507.296875 L 266.9375 498.21875 C 265.648438 497.003906 260.75 497.4375 259.675781 498.871094 C 258.597656 500.308594 259.203125 504.601562 260.570312 505.859375 L 271.207031 515.636719 C 272.695312 517.003906 278.230469 515.128906 278.460938 513.367188 C 278.65625 511.902344 277.824219 508.453125 276.59375 507.296875 M 474.972656 437.90625 C 476.425781 428.027344 471.644531 418.933594 461.722656 416.589844 C 453.5 414.644531 439.75 416.539062 435.070312 423.960938 L 421.191406 475.800781 C 443.523438 472.960938 471.550781 461.136719 474.972656 437.90625 M 256.539062 482.960938 C 242.925781 460.171875 236.460938 436.835938 233.539062 411.035156 C 233.210938 408.125 230.558594 405.289062 228.144531 405.300781 C 226.339844 405.308594 223.058594 408.679688 223.253906 410.769531 C 225.894531 438.726562 233.144531 464.210938 247.726562 487.75 C 248.984375 489.785156 252.457031 491.261719 254.128906 490.601562 C 255.980469 489.871094 257.957031 485.335938 256.539062 482.960938 M 486.980469 446.398438 C 477.585938 474.605469 439.746094 487.5 412.089844 492.804688 C 401.878906 509.800781 389.722656 524.695312 372.214844 536.027344 L 270.613281 536.132812 C 222.628906 505.714844 203.988281 436.699219 206.46875 383.214844 L 436.246094 383.210938 L 435.808594 401.78125 C 435.566406 412.109375 457.351562 392.527344 477.457031 408.476562 C 488.851562 417.515625 491.457031 432.964844 486.980469 446.398438 "></path><path style=" stroke:none;fill-rule:nonzero;fill:rgb(0%,0%,0%);fill-opacity:1;" d="M 402.167969 567.898438 L 241.417969 568.039062 C 219.460938 568.058594 198.871094 559.972656 180.902344 546.949219 L 461.726562 547.039062 C 444.304688 559.9375 424.097656 567.882812 402.167969 567.898438 "></path><path style=" stroke:none;fill-rule:nonzero;fill:rgb(100%,100%,100%);fill-opacity:1;" d="M 462.144531 428.449219 C 458.773438 425.066406 448.125 425.75 444.757812 429.296875 L 437.253906 461.070312 C 450.160156 458.113281 473.6875 440.03125 462.144531 428.449219 M 474.972656 437.90625 C 471.550781 461.136719 443.523438 472.960938 421.191406 475.800781 L 435.070312 423.960938 C 439.75 416.539062 453.5 414.644531 461.726562 416.585938 C 471.644531 418.933594 476.425781 428.027344 474.972656 437.90625 "></path><path style=" stroke:none;fill-rule:nonzero;fill:rgb(100%,100%,100%);fill-opacity:1;" d="M 256.539062 482.960938 C 257.957031 485.335938 255.980469 489.871094 254.128906 490.601562 C 252.457031 491.261719 248.984375 489.789062 247.722656 487.75 C 233.144531 464.210938 225.894531 438.726562 223.253906 410.769531 C 223.058594 408.679688 226.335938 405.308594 228.144531 405.300781 C 230.558594 405.289062 233.210938 408.125 233.539062 411.039062 C 236.460938 436.835938 242.925781 460.171875 256.539062 482.960938 "></path><path style=" stroke:none;fill-rule:nonzero;fill:rgb(100%,100%,100%);fill-opacity:1;" d="M 276.59375 507.296875 C 277.824219 508.453125 278.65625 511.902344 278.460938 513.367188 C 278.230469 515.128906 272.695312 517.003906 271.207031 515.636719 L 260.570312 505.859375 C 259.203125 504.601562 258.597656 500.308594 259.675781 498.871094 C 260.75 497.4375 265.648438 497.003906 266.9375 498.21875 Z M 276.59375 507.296875 "></path><path style=" stroke:none;fill-rule:nonzero;fill:rgb(0%,0%,0%);fill-opacity:1;" d="M 462.144531 428.449219 C 473.6875 440.03125 450.160156 458.113281 437.253906 461.070312 L 444.757812 429.296875 C 448.125 425.75 458.773438 425.066406 462.144531 428.449219 "></path></g></svg>