<?xml version="1.0" encoding="UTF-8"?>
<svg xmlns="http://www.w3.org/2000/svg" version="1.1" viewBox="0 0 288 227.01">
  <g fill="none" stroke="#fff" stroke-width="9" stroke-linecap="round" stroke-linejoin="round">
    <path d="M125.23,129.43l-13-13-5.03,5.02c-3.43,3.43-9.09,3.35-12.63-.2l-40.55-40.55c-14.56-14.56-14.92-37.8-.81-51.91h0s73.32,73.32,73.32,73.32l15.17,15.17"/>
    <path d="M156.6,132.18l50.43,50.43c4.08,4.08,4.18,10.58.23,14.53-3.95,3.95-10.46,3.85-14.53-.23l-51.01-51.01"/>
    <path d="M245.13,63.97l-50.59,50.59c-5.93,5.93-15.54,5.93-21.46,0l-88.44,88.44c-3.81,3.81-9.99,3.81-13.8,0h0c-3.81-3.81-3.81-9.99,0-13.8l88.44-88.44c-5.93-5.93-5.93-15.54,0-21.46l50.59-50.59"/>
    <line x1="221.36" y1="40.21" x2="179.37" y2="82.2"/>
    <line x1="233.2" y1="52.04" x2="191.21" y2="94.03"/>
  </g>
</svg>
