<?xml version="1.0" encoding="UTF-8"?>
<svg xmlns="http://www.w3.org/2000/svg" version="1.1" viewBox="1980 330 720 660" width="80" height="80">
  
  <defs>
    
  </defs>
  <g id="BLACK_LAYER">
    
  </g>
  <g id="Layer_1" fill="none" stroke="#fff" stroke-width="8" stroke-linecap="round" stroke-linejoin="round">
    <polyline points="3702.02 3457.96 3838.43 3594.38 3974.85 3457.96"></polyline>
    <polygon points="2998.84 3262.41 2891.48 3155.05 2998.84 3047.69 2998.84 3262.41"></polygon>
    <polygon points="3069.72 3262.41 3177.08 3155.05 3069.72 3047.69 3069.72 3262.41"></polygon>
    <path d="M2366.97,2689.6h-37.88c-9.69,0-17.63-7.93-17.63-17.63v-157.24c0-9.69,7.93-17.63,17.63-17.63h346.58c9.69,0,17.63,7.93,17.63,17.63v157.24c0,9.69-7.93,17.63-17.63,17.63h-35.82"></path>
    <path d="M2612.29,2497.11v-57.04c0-9.69-5.84-23-12.97-29.57l-30.06-27.67c-7.13-6.57-20.9-11.94-30.6-11.94h-132.74c-9.69,0-17.63,7.93-17.63,17.63v108.59"></path>
    <line x1="2634.26" y1="2553.1" x2="2602.99" y2="2553.1"></line>
    <polyline points="2556.29 2382.45 2556.29 2428.86 2602.99 2428.86"></polyline>
    <line x1="2590.07" y1="2656.21" x2="2419.88" y2="2656.21"></line>
    <line x1="2590.07" y1="2711.2" x2="2419.88" y2="2711.2"></line>
    <path d="M2498.67,2759.32h-83.71c-35.55,0-42.66-30.22-42.66-30.22v-125.33h126.37"></path>
    <path d="M2466.52,2759.32s90.66,0,126.22,0c35.55,0,42.66-30.22,42.66-30.22v-125.33h-162.66"></path>
    <path d="M4582.78,2356.23h45.15c19.18,0,23.01,30.22,23.01,30.22v335.66"></path>
    <path d="M4600.12,2356.23s-48.9,0-68.08,0c-19.18,0-23.01,30.22-23.01,30.22v335.66"></path>
    <path d="M3703.92,2668.63h42.2c8.61,0,15.66-7.05,15.66-15.66v-161.16c0-8.61-7.05-15.66-15.66-15.66h-270.16c-8.61,0-15.66,7.05-15.66,15.66v161.16c0,8.61,7.05,15.66,15.66,15.66h227.96Z"></path>
    <path d="M3471.74,2480.7l100.51,100.51c6.09,6.09,16.06,16.06,22.15,22.15l7.69,7.69c6.09,6.09,16.06,6.09,22.15,0l125.04-125.04"></path>
    <line x1="3561.58" y1="2575.69" x2="3469.19" y2="2659.68"></line>
    <line x1="3662.04" y1="2575.69" x2="3754.43" y2="2659.68"></line>
    <path d="M4698.32,2689.6h54.07c11.4,0,20.73-9.33,20.73-20.73v-221.65c0-11.4-9.33-20.73-20.73-20.73h-344.8c-11.4,0-20.73,9.33-20.73,20.73v221.65c0,11.4,9.33,20.73,20.73,20.73h290.73Z"></path>
    <g>
      <path d="M2264.6,561.86l-29.75-29.75-11.5,11.5c-7.86,7.86-20.8,7.66-28.9-.45l-92.77-92.77c-33.31-33.31-34.13-86.48-1.85-118.77h0s167.75,167.75,167.75,167.75l34.71,34.71"></path>
      <path d="M2336.38,568.16l115.39,115.39c9.33,9.33,9.56,24.21.52,33.25-9.04,9.04-23.93,8.81-33.25-.52l-116.7-116.7"></path>
      <g>
        <path d="M2538.92,412.1l-115.75,115.75c-13.56,13.56-35.55,13.56-49.11,0l-202.34,202.34c-8.72,8.72-22.85,8.72-31.57,0h0c-8.72-8.72-8.72-22.85,0-31.57l202.34-202.34c-13.56-13.56-13.56-35.55,0-49.11l115.75-115.75"></path>
        <line x1="2484.54" y1="357.72" x2="2388.47" y2="453.79"></line>
        <line x1="2511.62" y1="384.8" x2="2415.55" y2="480.87"></line>
      </g>
    </g>
    <g>
      <g>
        <path d="M1252.61,473.38l-30.21,49.35c-5.9,9.55-8.38,20.47-7.12,31.3l12.03,103.49h204.93"></path>
        <path d="M1252.61,473.38s-12.83-11.09-32.42-13.9c-19.58-2.8-32.98-.75-35.37,6.73-2.91,9.08-15.96,29.15,16.89,30.27"></path>
        <path d="M1436.7,396.39s-113.35-1.49-136.25,9.41c-20.04,9.54-42.54,56.12-47.84,67.58"></path>
        <path d="M1356.85,573.79s-27.92-1.49-65.89-2.97c-37.97-1.49-30.71-25.77-30.71-25.77"></path>
        <path d="M1356.85,614.92h159.7"></path>
        <path d="M1251.45,475.28s7.13,11.3,32.81,11.3h151.02"></path>
        <path d="M1263.11,657.53h45.64c7.19,0,13.02,5.83,13.02,13.02v26.62h-71.69v-26.62c0-7.19,5.83-13.02,13.02-13.02Z" transform="translate(2571.86 1354.7) rotate(180)"></path>
      </g>
      <g>
        <path d="M1612.12,473.38l30.21,49.35c5.9,9.55,8.38,20.47,7.12,31.3l-12.03,103.49h-204.93"></path>
        <path d="M1612.12,473.38s12.83-11.09,32.42-13.9c19.58-2.8,32.98-.75,35.37,6.73,2.91,9.08,15.96,29.15-16.89,30.27"></path>
        <path d="M1428.03,396.39s113.35-1.49,136.25,9.41c20.04,9.54,42.55,56.12,47.84,67.58"></path>
        <path d="M1507.88,573.79s27.92-1.49,65.89-2.97c37.97-1.49,30.71-25.77,30.71-25.77"></path>
        <path d="M1507.88,614.92h-159.7"></path>
        <path d="M1613.28,475.28s-7.13,11.3-32.81,11.3h-151.02"></path>
        <path d="M1542.95,657.53h71.69v26.62c0,7.19-5.83,13.02-13.02,13.02h-45.64c-7.19,0-13.02-5.83-13.02-13.02v-26.62h0Z"></path>
      </g>
    </g>
    <path d="M4670.83,344.32v44.84c27.74.92,46.69,8.32,60.09,16.18l-11.56,30.51c-9.71-5.55-28.66-15.72-58.24-15.72-35.59,0-49,21.26-49,39.75,0,24.04,17.1,36.06,57.32,52.7,47.61,19.42,71.65,43.45,71.65,84.59,0,36.52-25.42,70.73-73.04,78.58v48.07h-29.12v-46.69c-26.81-.46-54.55-8.78-70.73-20.34l11.09-30.97c16.64,11.09,40.68,19.88,66.56,19.88,32.82,0,55.01-18.95,55.01-45.3s-18.03-41.14-52.24-55.01c-47.15-18.49-76.27-39.75-76.27-79.97s27.27-67.49,69.8-74.42v-46.69h28.66M4670.83,323.82h-28.66c-11.32,0-20.5,9.18-20.5,20.5v30.47c-17.97,5.56-33.42,14.94-45.3,27.62-16.03,17.1-24.5,38.89-24.5,63.02s9,45.87,26.76,62.92c14.12,13.56,33.37,24.69,62.43,36.1,36.28,14.73,39.32,26.29,39.32,35.96,0,11.44-9.04,24.8-34.51,24.8-19.12,0-39.76-6.14-55.19-16.43-3.41-2.27-7.37-3.44-11.38-3.44-2.16,0-4.33.34-6.44,1.04-5.99,1.98-10.74,6.61-12.86,12.55l-11.09,30.97c-3.09,8.63-.08,18.27,7.38,23.6,15.71,11.22,38.37,19.32,62.14,22.59v27.75c0,11.32,9.18,20.5,20.5,20.5h29.12c11.32,0,20.5-9.18,20.5-20.5v-31.86c19.79-6.1,36.62-16.73,49.32-31.27,15.3-17.52,23.72-40.08,23.72-63.52,0-25.43-7.55-46.36-23.09-64-13.66-15.51-33.13-28.08-61.27-39.56-41.5-17.18-44.61-24.51-44.61-33.73,0-5.79,2.78-19.25,28.5-19.25s40.68,8.79,48.07,13.01c3.13,1.79,6.65,2.7,10.17,2.7,2.34,0,4.68-.4,6.93-1.21,5.65-2.03,10.12-6.42,12.24-12.03l11.56-30.51c3.54-9.35-.18-19.89-8.81-24.95-15.07-8.83-31.54-14.53-49.96-17.24v-26.09c0-11.32-9.18-20.5-20.5-20.5h0Z"></path>
    <g>
      <rect x="2910.36" y="531.12" width="441.92" height="169.34"></rect>
      <line x1="2910.36" y1="653.56" x2="3352.28" y2="653.56"></line>
      <path d="M2935.45,524.17v-104.34c0-39.82,62.62-58.92,195.87-58.92"></path>
      <path d="M3327.2,524.17s0-64.52,0-104.34c0-39.82-62.62-58.92-195.87-58.92"></path>
      <line x1="2935.45" y1="700.45" x2="2935.45" y2="732.59"></line>
      <line x1="3327.2" y1="700.45" x2="3327.2" y2="732.59"></line>
      <path d="M2992.76,531.12v-67.81c0-9.02,7.38-16.4,16.4-16.4h100.93c9.02,0,16.4,7.38,16.4,16.4v67.81"></path>
      <path d="M3127.37,531.12v-67.23c0-9.34,7.64-16.98,16.98-16.98h109.33c9.34,0,16.98,7.64,16.98,16.98v67.23"></path>
    </g>
    <path d="M884,319.01c16.33,11.43-.61,48.57-16.53,70.61-15.92,22.04-89.39,82.04-89.39,82.04l52.04,231.02-22.04,22.45-100.41-189.79-101.02,96.12,17.75,83.88-12.86,9.8-48.37-78.37"></path>
    <path d="M888.15,323.17c-11.43-16.33-48.57.61-70.61,16.53-22.04,15.92-82.04,89.39-82.04,89.39l-231.02-52.04-22.45,22.04,189.79,100.41-96.12,101.02-83.88-17.75-9.8,12.86,78.37,48.37"></path>
    <g>
      <polyline points="2376.5 3076.96 2401.11 3101.57 2440.48 3059.73"></polyline>
      <polyline points="2376.5 3173.53 2401.11 3198.13 2440.48 3156.3"></polyline>
      <circle cx="2405.59" cy="3281.21" r="31.99"></circle>
      <line x1="2479.86" y1="3085.13" x2="2611.52" y2="3085.13"></line>
      <line x1="2479.86" y1="3179.72" x2="2611.52" y2="3179.72"></line>
      <line x1="2479.86" y1="3283" x2="2611.52" y2="3283"></line>
      <rect x="2408.49" y="2934.23" width="174.72" height="57.83"></rect>
      <polyline points="2583.22 2973.28 2668.08 2973.28 2668.08 3371.03 2329.26 3371.03 2329.26 2973.28 2408.49 2973.28"></polyline>
    </g>
    <circle cx="4059.17" cy="2484.71" r="53.8"></circle>
    <path d="M4059.17,2370.89s-119.95,7.59-119.95,124.99,119.95,196.74,119.95,196.74c0,0,116.49-73.16,116.49-204.4,0-117.76-116.49-117.33-116.49-117.33Z"></path>
    <g>
      <circle cx="4000.55" cy="383.19" r="37.09"></circle>
      <circle cx="3851.07" cy="454.48" r="37.09"></circle>
      <path d="M4000.55,304.74s-82.68,5.23-82.68,86.16,82.68,135.62,82.68,135.62c0,0,80.3-50.43,80.3-140.9,0-81.18-80.3-80.88-80.3-80.88Z"></path>
      <path d="M3726.12,576.35c-3.07-14.1-3.45-22.6-3.45-37.62,0-101.74,74.17-186.16,171.39-202.14"></path>
      <path d="M4105.39,436.98c17.19,29.98,27.02,64.72,27.02,101.76,0,18.49-2.45,36.4-7.04,53.44"></path>
      <path d="M3948.68,617.01s53.55-57.32,67.93-56.84c20.54.68,94.38,69.85,94.38,69.85-32.15,71.08-100.37,113.57-183.45,113.57-87.99,0-163.03-55.48-192.04-133.36,0,0,77.72-83.8,97.51-83.72,12.34.05,17.92,1.47,55.15,38.45,37.24,36.98,145.44,140.39,145.44,140.39"></path>
    </g>
    <circle cx="1120.38" cy="2512.04" r="151.55"></circle>
    <path d="M978.35,2651.83s-10.41-10.41-18.09-18.09c-7.68-7.68-2.69-15.75-2.69-15.75l27.08-27.08"></path>
    <path d="M971.4,2644.88s21.96,21.96,30.57,30.57c8.61,8.61,16.86,3.8,16.86,3.8l27.08-27.08"></path>
    <path d="M846.27,2783.72s-7.82-7.82-13.6-13.6c-5.77-5.77-2.02-11.84-2.02-11.84l125.32-124.61"></path>
    <path d="M841.04,2778.5s16.5,16.5,22.97,22.97c6.47,6.47,12.67,2.86,12.67,2.86l125.32-124.61"></path>
    <path d="M3241.84,2700.54l-1.81-18.1h0l-5.44-9.1-8.6-30.82h0l-4.54-1.86v-9h-3.62c-3.63-2.78-7.26-8.17-12.24-8.17l-62.09-20.89h-14.96v-31.75l17.23-44.37c14.05,0,18.58-22.65,18.58-36.29,0-9.93-4.53-16.34-9.97-16.34v-18.1c0-47.15-38.08-77.97-80.68-77.97s-77.05,30.82-77.05,77.97v18.1c-8.6,0-14.04,6.4-14.04,16.34,0,13.64,5.44,36.29,22.66,36.29l18.58,44.37v31.75h-18.58l-63.91,20.89c-3.17,0-8.6,5.38-9.51,8.17h-2.26v3.62c-3.17,0-3.17,5.38-3.17,5.38l-4.07,1.86h0l-19.95,58.01h339.47Z"></path>
    <path d="M1676.14,3191.89s56.62,54.85,70.78,51.31c14.16-3.54,26.54-26.54,46-26.54s90.24,23,95.55,44.23c5.31,21.23,0,67.24-19.46,93.78-125.63,8.85-193.39-54.89-245.94-115.01-52.56-60.13-83.16-109.7-86.7-176.94-3.54-67.24,35.39-58.39,56.62-58.39s53.08-1.77,61.93,15.92,23,76.08,19.46,84.93c-3.54,8.85-30.08,38.93-26.54,49.54,3.54,10.62,28.31,37.16,28.31,37.16Z"></path>
    <polyline points="3480.41 3096.68 3480.41 2977.63 3599.46 2977.63"></polyline>
    <line x1="3480.41" y1="2977.63" x2="3587.4" y2="3084.62"></line>
    <polyline points="3615.61 3228.79 3734.66 3228.79 3734.66 3109.74"></polyline>
    <line x1="3734.66" y1="3228.79" x2="3624.87" y2="3119.01"></line>
    <path d="M923.35,1612.29l44.42-88.93s-76.73-63.59-64.52-144.27c12.21-80.68,109.86-152.17,235.41-152.17s247.61,69.75,247.61,163.91-99.39,216.23-341.78,169.15c-55.8,22.67-121.15,52.31-121.15,52.31Z"></path>
    <path d="M1183.89,1575.67c40.21,22.67,106.61,29.64,148.96,9.2,55.8,22.67,121.15,52.31,121.15,52.31l-44.42-88.93s58.65-20.95,46.44-101.62c0,0-10.46-60.62-69.75-75.65"></path>
    <circle cx="1052.97" cy="1395.3" r="24.31"></circle>
    <circle cx="1159.58" cy="1395.3" r="24.31"></circle>
    <circle cx="1266.2" cy="1395.3" r="24.31"></circle>
    <g>
      <rect x="2866.42" y="1250.97" width="83.01" height="55.46"></rect>
      <rect x="2866.42" y="1361.93" width="83.01" height="55.46"></rect>
      <rect x="2866.42" y="1471.2" width="83.01" height="55.46"></rect>
      <rect x="2866.42" y="1581.32" width="83.01" height="55.46"></rect>
      <circle cx="3167.27" cy="1409.94" r="39.11"></circle>
      <path d="M3186.47,1444.79s53.36,26.41,53.36,68.32c-32.19,0-50.69,0-50.69,0h-30.49s-34.73,0-66.92,0c0-41.91,53.36-68.32,53.36-68.32"></path>
      <path d="M2907.92,1641.3v53.08h393.88c25.98,0,25.98-25.98,25.98-25.98v-446.12c0-25.98-29.36-27.11-29.36-27.11h-390.49v49.69"></path>
      <line x1="2997.99" y1="1236.97" x2="2997.99" y2="1653.72"></line>
      <line x1="2907.92" y1="1306.43" x2="2907.92" y2="1361.93"></line>
      <line x1="2907.92" y1="1421.3" x2="2907.92" y2="1462.85"></line>
      <line x1="2907.92" y1="1538.07" x2="2907.92" y2="1579.63"></line>
    </g>
    
    
    
    
    
    
    
    
    <path d="M935.29,2130.76l-22.2-39.65-26.88,20.8c10.12,15.87,11.06,31.94,2.48,48.22-6.8,12.91-22.37,20.96-40.07,21.61-.08,14.49-4.31,28.63-15.09,38.03-11.43,9.96-27.32,11.08-41.84,9.3-2.31,13.55-8.48,27.3-18.07,33.89-13.56,9.32-27.78,9.86-43.42,6.14-3.13,11.83-9.1,24.04-21.91,29.57-12.49,5.4-28.77,7.17-40.68-.89l-32.26-21.84-12.07,13.22c-10.59,11.6-24.71,17.06-39.92,13-13.59-3.63-24.29-14.46-28.72-29.68-13.14,3.16-25.79,3.66-37.75-4.6-9.03-6.24-15.54-18.56-18.2-30.48-13.44,1.94-27.3.56-37.38-9.01-9.25-8.78-13.03-22.58-12.29-35.96-12.63-2.12-27.01-6.84-33.3-17.89-8.03-14.12-8.47-28.68.49-42.93l-46.45-39.82-19.92,36.23c-3.28,5.96-9.27,9.96-16.51,6.11l-90.8-48.4c-3.02-1.61-6.88-8.33-4.76-12.25l139.97-259.48c1.97-3.65,4.29-7.52,6.7-8.47s8.68-.02,11.12,1.35l89.37,50.25c5.24,2.95,6.52,10.13,4.14,15.03l-6.55,13.52c18.66,5.18,35.02.74,51.15-7.63,42.01-21.8,56.21-15.02,100.33-5.06,22.08-8.51,42.03-16.76,66.74-9.21l66.69,20.38c11.25,3.44,21.69,3.65,33.67,2.12l-6.54-14.17c-2.36-5.1-1.28-11.92,4.17-14.99l90.91-51.2c7.01-3.95,12.2.65,15.42,6.61l139.66,258.87c2.66,4.93.79,11.33-3.74,13.79l-90.38,49.01c-4.71,2.56-12.75,1.07-15.27-3.45ZM335.19,2111.51l131.48-240.37-73.74-42.03-130.98,242.89,73.25,39.52ZM948.23,2111.93l73.24-39.94-131.21-242.67-73.29,42.1,131.27,240.5ZM680.29,1953.07l190.02,144.89,33.2-25.04-91.57-167.75c-16.94,2.79-32.78,3.72-48.91-1l-71.83-21c-10.98-3.21-21.99-3.23-32.56,1.97-19.52,9.61-41.41,17.44-59.94,28.71l-60.08,70.18c-4.35,5.08-.93,13.28,4.9,15.41,14.2,5.19,29.71,3.54,42.45-5.26l53.88-37.17c8.63-5.95,30.23-11.71,40.43-3.94ZM715.27,2177.35c-4.84-3.55-3-12.93.28-15.25,4.11-2.9,8.95-2.77,13.49.45,21.81,15.48,42.59,30.72,64.87,44.71,10.37,6.51,24.63.81,30.05-8,5.65-9.19,4.89-22.44-5.04-29.67l-59.47-43.28c-4.5-3.28-5.61-10.76-3.16-14.68,2.83-4.54,10.1-5.76,14.87-2.33l66.29,47.54c10.18,7.3,23.71,5.36,31.55-4.42,5.95-7.42,7.72-23.17-2.35-30.89l-194.84-149.32c-5.36-4.1-17.61-.6-22.21,2.6l-53.64,37.27c-29.07,20.2-73.7,11.66-79.12-15.68-2.04-10.32.96-19.59,7.17-26.98l55.96-66.55c5.93-7.05,15.31-10.09,24.57-15.1-50.41-17.27-64.39,32.24-132.53,16.64l-92.09,169.09,52.33,44.05c21.81-8.95,46.14-.81,54.46,23.36l20.56-21.77c10.29-10.9,26.71-12.11,40.03-6.84,12.56,4.98,21.87,16.23,24.85,31.23,17.89-5.83,35.22-1.14,45.97,12.95,9.69,12.7,11.2,30.3.65,44.61,14.38,2.22,24.94,9.93,30.47,20.1,6.82,12.56,6.07,25.71-1.19,38.25,15.19,10.12,39.33,36.02,56.17,16.75,4.81-5.5,7.5-18.13.62-23.35l-32.99-25.04c-3.52-2.67-3.12-11.82-.34-14.96,2.73-3.08,9.28-3.66,13.43-.64,17.55,12.76,34.05,25.36,52.29,36.3,10.39,6.23,24.22.52,29.65-8.22,5.05-8.15,5.09-21.36-4.07-28.08l-47.53-34.85ZM502.81,2212.13l42.51-49.42c7.28-8.46,7.93-19.7-.58-27.5-7.39-6.77-19.63-6.18-26.88,2.14l-42.23,48.46c-7.35,8.43-8.23,20.16.52,27.82,6.02,5.27,19.31,7.05,26.65-1.49ZM434.74,2165.39c8.79,8.31,22.08,7.4,28.65-1.83,5.49-7.73,4.92-20.57-4.79-26.43-8.5-5.13-18.37-1.89-23.44,3.93-6.14,7.05-7.51,17.62-.41,24.33ZM555,2246.9l45.95-55.42c6.72-8.1,4.13-19.8-2.37-25.26-8.06-6.78-19.45-5.66-26.31,2.28l-47.65,55.17c-7.02,8.13-4.33,19.99,2.48,26.02,7.8,6.91,20.54,6.09,27.89-2.78ZM607.76,2275.59c7.93-9.44,15.81-18.82,22.94-28.82,5.52-7.75.57-18.4-6.66-22.64-5.17-3.03-16.17-4.33-21.58,1.86l-23.42,26.8c-6.9,7.9-4.26,20.11,2.54,25.81,8.03,6.73,19.29,5.2,26.18-3.01Z"></path>
    <g>
      <path d="M2097.29,2346.96c.02,22.03-18.71,36.96-39.65,36.95l-519.11-.14c-23.7,0-39.21-21.37-37.34-42.89l19.93-229.51,19.46-153.23c.78-3.32,5.33-9.2,8.55-9.21l91.83-.17.05-47.32c.03-43.82,32.35-85.3,77.92-87.99,33.13-1.96,65.47-1.88,98.64-.08,44.19,2.39,77.45,41.17,77.69,84.26l.44,51.12,91.78.11c4.29,0,8.62,6.55,9.11,10.97l20.85,152.13,43.13.3c16.94.12,36.53,15.1,36.55,33.99l.19,200.72ZM1801.31,1849.03c32.05,1.63,58.71,29.07,59.14,59.94l.91,39.11,13.08-.05-.64-54.21c-.26-32.13-27.61-59.46-59.46-59.49l-90.44-.09c-34.28-.03-61.25,29.47-61.3,63.52l-.1,50.23,12.87.2.15-32.67c.09-33.54,26.11-64.42,60.63-66.39,21.65-1.24,42.02-1.27,65.15-.09ZM1839.49,1948.78c-2.31-42.79,13.61-68.27-39.09-78.91l-62.58.04c-21.49,2.25-40.71,19.86-40.67,42.45l.11,36.41h142.23ZM1895.57,1969.73l.29,35.82c22.45,7.01,35,27.14,31.28,48.82-3.4,19.8-21.68,35.27-42.07,35.2-21.35-.08-39.85-15.94-42.33-36.88-2.5-21.05,9.35-40.41,31.53-47.19l.02-35.98-211.95.1.22,35.62c19.79,5.68,32.26,21.91,32.66,40.07.43,19.74-12.35,36-29.47,41.89-18.87,6.49-38.24-.81-49.71-17.58-8.02-11.72-9.2-26.32-2.45-40.59,4.45-9.4,13.8-18.39,27.26-23.4l.14-36.11-80.26.11-14.97,102.67-23.54,273.51c-.87,10.11,9.18,17.42,18.55,17.43l277.23.1c-.44-3.83-2.62-9.83-2.62-13.41l-.07-197.74c-.31-22.34,16.39-40,38.78-40.05l141.75-.3-19.8-142.16-80.47.05ZM1661.23,2050.61c-.49,3.66-10.27,5.7-13.38,4.31-3.24-1.44-6.59-6.77-6.85-10.92l-.88-14.22c-9.98,5.63-11.42,16.58-8.03,25.34,3.62,9.37,13.33,14.35,24.1,12.6,9.51-1.54,16.22-9.01,17.5-17.43,1.27-8.39-2.69-17.34-10.76-20.72-.43,7.28-.6,12.73-1.7,21.02ZM1894.87,2049.46c-.26,3.42-8.4,6.55-11.6,5.87-3.28-.7-8.48-5.56-8.63-9.07l-.74-17.07c-9.86,4.7-11.52,13.88-9.78,23.4,1.33,7.29,8.64,14.39,17.68,15.36,11.11,1.19,20.69-4.85,23.7-13.63,3.23-9.43-.24-19.95-9.12-24.8l-1.51,19.95ZM2059.64,2363.16c12.09-.02,17.66-11.7,16.77-21.15l-.31-193.84c-.02-9.46-9.43-15.54-18.47-15.52l-203.14.43c-9.86.02-18.04,7.11-18.05,17.2l-.04,193.66c0,11.41,8.2,19.54,19.77,19.52l203.48-.3Z"></path>
      <path d="M1909.63,2325.67c-6.4-1.64-11.69-5.89-16.65-11.94l110.83-143.94c6.45,3.69,10.93,6.96,16.2,11.92l-110.38,143.96Z"></path>
      <path d="M1997.95,2251.04c22.13-2.3,39.07,13.2,41.35,32.67,2.53,21.58-12.43,39.15-33.02,41.6-20.6,2.45-38.64-11.06-41.39-31.25-2.86-20.91,10.15-40.64,33.06-43.02ZM1995.82,2273.36c-9.95,3.83-12.8,14.29-9.16,22.6,3.47,7.9,13.11,11.35,20.87,8.51,9.15-3.34,12.99-12.26,10.19-21.29-2.51-8.09-11.95-13.65-21.9-9.82Z"></path>
      <path d="M1900.11,2171.33c20.97-6,41.13,6.27,46.49,25.08,5.79,20.32-4.9,41.4-24.6,46.78-20.19,5.52-40.28-4.29-46.65-23.63-6.53-19.83,2.71-41.93,24.76-48.23ZM1905.92,2191.03c-10.5,3.03-13.94,13.82-10.61,23.01,2.71,7.48,11.38,11.84,20.91,9.25,7.91-2.15,12.54-11.7,10.23-20.49-2.18-8.28-10.24-14.73-20.52-11.77Z"></path>
    </g>
    <g>
      <path d="M434.22,3393.92l-130.21-.02c-3.37,0-6.39-6.06-6.17-8.97l2.49-32.78-22.96-1.84-68.28,84.45-38.5.5c-3.48-.73-6.72-3.74-8.04-7.59l.08-155.16,79.74-106.18c-8.71-76.86-7.35-151.73,5.48-227.25,16.69-92.02,54.64-177.49,115.98-248.28,2.84-3.28,8.25-3.34,11.34.14,36.81,41.45,64.18,88.63,85.28,140.15,16.36,42.95,27.67,85.52,34.53,131.27,9.13,68.67,9.41,136.24,1.8,204.7l79.55,105.53.15,153.84c.11,5.29-3.9,8.42-8.8,8.38l-37.41-.02-68.33-84.4-22.55,1.16,2.42,34.96c.23,3.39-3.18,7.39-7.6,7.39ZM449.04,2841.78c-19.55-50.66-45.59-95.47-79.52-136.64-33.95,41.33-59.71,85.85-79.59,136.09,52.24,16.28,107.27,16.18,159.11.55ZM450.67,3337.72c26.99-98.46,39.56-196.64,37.27-297.13-2.84-63.81-12.28-124.82-34.04-185.68-54.95,16.26-112.7,17.23-168.72-.5-13.98,37.91-22.32,76.21-27.68,116.11-5.54,40.81-7.64,79.59-6.46,121.17,2.31,83.95,15.45,165.43,37.47,246.04l162.17-.02ZM203.43,3420.01l69.52-85.34c-12.81-49.15-22.39-96.48-29.14-147.19l-67.03,89.88.09,143.69c10.14.02,18.06-.07,26.55-1.04ZM562.43,3420.6l-.19-143.84-67.4-89.2c-6.44,50.61-15.58,97.82-28.64,146.72l70.79,86.65,25.44-.33ZM427.55,3380.13l-2.63-28.49-111.09.15-1.25,28.56,114.97-.23Z"></path>
      <path d="M376.75,3596.52c0,4.35-4.11,7.85-6.44,7.94-3.27.11-7.63-3.2-7.63-7.12l-.07-172.71c0-3.76,3.29-7.85,5.88-8.02,4.54-.3,8.18,3.15,8.18,8.08l.08,171.83Z"></path>
      <path d="M428.81,3539.88c0,4.12-4.65,7.64-7.65,7.41-2.89-.23-6.51-4.19-6.5-7.91l.21-114.89c0-3.9,3.07-7.52,6.23-7.89,2.55-.29,7.75,3.24,7.75,6.27l-.05,117.01Z"></path>
      <path d="M324.43,3538.51c0,4.33-2.91,8.28-5.68,9.05-2.6.72-8.18-2.94-8.19-6.39l-.06-116.68c0-3.96,3.47-7.66,6.97-7.7,2.65-.03,6.92,4.18,6.92,7.66l.04,114.06Z"></path>
      <path d="M342.74,3035.21c-21.44-11.17-33.39-32.35-32.38-54.77,1.03-22.99,15.74-43.52,37.93-52.08,25.68-9.9,54.19-.7,69.67,20.99,15.52,21.74,14.07,51.75-3.4,71.76-17.67,20.25-46.56,27.27-71.82,14.11ZM353.69,3024.62c18.59,7.07,37.84,1.11,49.93-12.61,11.99-13.61,14.42-33.72,5.47-50.19-8.47-15.57-26.06-25.09-45.02-22.88-20.84,2.42-36.69,18.36-39.22,37.98-2.61,20.22,8.54,39.99,28.85,47.71Z"></path>
    </g>
  </g>
</svg>