<?xml version='1.0' encoding='utf-8'?>
<svg xmlns="http://www.w3.org/2000/svg" viewBox="533.76 680.05 426.52 485.01" width="80" height="80" fill="none"><g><path style=" stroke:none;fill-rule:nonzero;fill:rgb(100%,100%,100%);fill-opacity:1;" d="M 862.15625 1087.730469 L 834.734375 1045.40625 L 771.089844 1124.828125 Z M 866.8125 1074.746094 L 882.488281 945.796875 L 860.996094 950.671875 L 824.496094 1009.34375 Z M 812.34375 1009.199219 L 846.273438 954.175781 L 807.542969 962.300781 L 756.195312 902.492188 L 756.78125 1124.089844 L 828.703125 1035.9375 Z M 630.4375 1086.941406 L 745.492188 1131.113281 L 745.070312 901.550781 L 695.957031 958.332031 C 693.714844 960.59375 690.300781 961.765625 686.832031 961.714844 L 612.429688 945.289062 Z M 926.292969 924.566406 L 893.300781 866.839844 L 760.3125 889.625 L 811.628906 950.945312 Z M 688.382812 950.964844 L 740.253906 889.527344 L 600.910156 866.796875 L 568.09375 924.382812 Z M 859.324219 861.765625 C 853.667969 859.867188 845.816406 858.125 840.613281 857.996094 C 838.539062 857.960938 836.085938 864.320312 836.503906 865.679688 Z M 804.632812 869.277344 L 810.84375 853.214844 C 808.664062 852.648438 804.367188 852.078125 802.347656 852.394531 L 797.945312 871.054688 C 797.527344 872.832031 803.972656 870.980469 804.632812 869.277344 M 770.398438 876.316406 L 775.582031 847.867188 C 767.359375 847.117188 757.863281 843.144531 749.753906 844.328125 L 635.535156 861 L 749.691406 879.878906 C 755.84375 880.894531 764.730469 877.5625 770.398438 876.316406 M 823.839844 863.847656 L 892.625 732.800781 C 889.261719 729.628906 885.78125 727.800781 881.53125 727.890625 L 816.226562 868.402344 C 819.363281 869.546875 821.796875 867.738281 823.839844 863.847656 M 825.746094 717.925781 C 819.199219 716.21875 817.675781 715.894531 812.871094 715.222656 C 805.21875 769.371094 788.386719 820.652344 783.144531 876.109375 C 802.050781 822.507812 809.933594 769.925781 825.746094 717.925781 M 893.332031 943.605469 L 877.058594 1081.125 C 876.515625 1085.710938 875.53125 1089.527344 874.023438 1094.40625 L 751.15625 1145.0625 L 620.308594 1094.257812 L 601.203125 943.089844 L 558.15625 933.34375 C 555.988281 932.882812 553.761719 928.039062 555.089844 925.71875 L 594.789062 856.210938 L 750.984375 833.25 L 777.8125 837.167969 L 803.570312 711.660156 C 805.953125 700.050781 828.746094 705.292969 833.214844 710.761719 C 835.675781 713.777344 835.953125 719.421875 834.859375 723.746094 L 805.558594 839.539062 C 806.1875 842.535156 813.746094 843.457031 816.898438 841.917969 L 870.460938 726.382812 C 872.269531 722.484375 875.195312 717.9375 878.222656 717.195312 C 886.855469 715.074219 904.09375 723.054688 903.40625 734.148438 L 844.5 847.277344 L 899.945312 856.625 L 939.261719 926.21875 C 940.28125 928.023438 938.222656 932.730469 936.375 933.179688 Z M 893.332031 943.605469 "></path><path style=" stroke:none;fill-rule:nonzero;fill:rgb(0%,0%,0%);fill-opacity:1;" d="M 630.4375 1086.941406 L 612.429688 945.289062 L 686.832031 961.714844 C 690.300781 961.761719 693.714844 960.59375 695.957031 958.332031 L 745.070312 901.550781 L 745.492188 1131.113281 Z M 630.4375 1086.941406 "></path><path style=" stroke:none;fill-rule:nonzero;fill:rgb(0%,0%,0%);fill-opacity:1;" d="M 688.382812 950.960938 L 568.09375 924.382812 L 600.910156 866.796875 L 740.25 889.527344 Z M 688.382812 950.960938 "></path><path style=" stroke:none;fill-rule:nonzero;fill:rgb(0%,0%,0%);fill-opacity:1;" d="M 770.398438 876.3125 C 764.730469 877.5625 755.84375 880.894531 749.691406 879.878906 L 635.535156 861 L 749.753906 844.328125 C 757.863281 843.144531 767.359375 847.117188 775.582031 847.867188 Z M 770.398438 876.3125 "></path></g></svg>