<?xml version='1.0' encoding='utf-8'?>
<svg xmlns="http://www.w3.org/2000/svg" viewBox="262.48 1442.02 576.89 455.68" width="80" height="80" fill="none"><g><path style=" stroke:none;fill-rule:nonzero;fill:rgb(100%,100%,100%);fill-opacity:1;" d="M 560.074219 1819.027344 C 535.5625 1839.335938 501.539062 1845.9375 471.804688 1846.375 C 438.078125 1846.871094 397.941406 1841.703125 371.132812 1818.132812 L 369.710938 1850.601562 C 369.296875 1860.039062 375.910156 1867.957031 385.464844 1869.085938 L 544.023438 1869.089844 C 553.859375 1869.09375 561.835938 1861.898438 561.421875 1851.816406 Z M 334.070312 1762.246094 L 364.332031 1771.8125 L 369.78125 1627.320312 L 332.746094 1627.429688 C 324.894531 1627.449219 319.988281 1633.945312 319.449219 1641.429688 L 319.503906 1743.765625 C 319.507812 1752.898438 325.734375 1759.613281 334.070312 1762.246094 M 540.121094 1822.09375 C 547.992188 1818.011719 554.539062 1812.839844 559.664062 1805.585938 L 552.238281 1621.585938 C 516.796875 1635.339844 485.09375 1626.71875 450.835938 1617.914062 C 428.527344 1612.152344 401.355469 1607.710938 378.839844 1613.15625 L 374.125 1741.890625 L 371.640625 1806.265625 C 382.269531 1819.664062 402.597656 1828.535156 418.929688 1832.328125 C 456.792969 1841.125 505.097656 1840.269531 540.121094 1822.09375 M 327.308594 1768.585938 C 318.03125 1765.46875 311.222656 1754.820312 311.226562 1744.914062 L 311.25 1640.386719 C 311.25 1629.011719 320.480469 1619.324219 331.695312 1619.160156 L 370.199219 1618.589844 L 370.738281 1598.394531 L 332.417969 1598.476562 C 309.695312 1598.523438 290.609375 1617.113281 290.652344 1640.289062 L 290.863281 1746.945312 C 290.902344 1766.542969 304.675781 1782.703125 322.304688 1788.402344 L 363.035156 1801.5625 L 363.972656 1780.898438 Z M 379.089844 1604.074219 C 408.464844 1599.277344 434.75 1604.703125 463.234375 1612.207031 C 493.050781 1619.980469 521.667969 1625.472656 551.773438 1612.730469 L 549.484375 1552.238281 L 526.339844 1552.503906 L 525.730469 1580.8125 C 525.5 1591.460938 515.453125 1598.472656 505.902344 1597.382812 C 496.078125 1596.265625 489.515625 1588.132812 489.949219 1577.5625 C 490.089844 1574.050781 490.125 1569.445312 488.699219 1566.09375 C 485.519531 1558.628906 477.253906 1552.613281 468.511719 1552.601562 L 381.1875 1552.484375 Z M 517.710938 1547.746094 C 517.769531 1540.519531 537.21875 1545.6875 549.058594 1543.140625 C 561.023438 1540.570312 565.160156 1525.542969 561.265625 1515.871094 C 556.578125 1504.246094 544.3125 1500.28125 532.386719 1504.59375 C 531 1505.09375 527.542969 1505.09375 526.320312 1504.324219 C 523.089844 1502.285156 523.582031 1483.050781 504.199219 1482.875 C 488.578125 1482.730469 486.324219 1494.824219 481.054688 1494.417969 C 479.851562 1494.324219 477.777344 1492.636719 477.058594 1491.390625 C 469.371094 1478.039062 455.015625 1470.894531 440.148438 1473.886719 C 426.152344 1476.699219 414.441406 1487.867188 412.230469 1502.972656 C 411.925781 1505.050781 410.121094 1508.402344 408.4375 1508.585938 C 406.964844 1508.746094 403.828125 1507.683594 402.53125 1506.875 C 390.863281 1499.597656 377.277344 1501.988281 370.261719 1513.769531 C 365.128906 1522.390625 368.359375 1541.828125 381.203125 1542.875 C 409.371094 1545.167969 437.113281 1542.957031 465.253906 1543.773438 C 485.390625 1544.363281 500.339844 1557.140625 498.519531 1577.648438 C 497.960938 1583.933594 502.246094 1589.191406 507.921875 1589.222656 C 513.589844 1589.25 517.410156 1584.804688 517.460938 1578.796875 Z M 361.289062 1851.453125 L 362.644531 1810.667969 L 314.851562 1794.5625 C 296.136719 1788.253906 282.570312 1768.3125 282.558594 1747.84375 L 282.5 1638.398438 C 282.484375 1611.246094 305.871094 1589.988281 332.363281 1589.886719 L 371.207031 1589.738281 L 372.714844 1548.625 C 358.65625 1539.320312 355.742188 1521.339844 364.332031 1507.691406 C 372.71875 1494.367188 389.964844 1489.851562 404.609375 1498.226562 C 408.828125 1480.878906 422.167969 1469.164062 437.617188 1465.765625 C 454.59375 1462.023438 471.226562 1468.644531 482.066406 1483.140625 C 492.679688 1473.429688 507.617188 1471.078125 519.757812 1478.871094 C 525.722656 1482.699219 529.476562 1488.421875 531.523438 1495.78125 C 546.167969 1491.402344 561.308594 1496.816406 567.914062 1510.253906 C 574.371094 1523.394531 570.773438 1539.660156 557.820312 1548.554688 L 567.847656 1792.308594 L 569.917969 1853.046875 C 570.347656 1865.703125 558.988281 1877.503906 546.324219 1877.515625 L 387.644531 1877.6875 C 373.117188 1877.703125 360.796875 1866.292969 361.289062 1851.453125 "></path><path style=" stroke:none;fill-rule:nonzero;fill:rgb(0%,0%,0%);fill-opacity:1;" d="M 517.710938 1547.746094 L 517.460938 1578.796875 C 517.410156 1584.804688 513.589844 1589.25 507.921875 1589.222656 C 502.246094 1589.191406 497.960938 1583.933594 498.519531 1577.648438 C 500.339844 1557.140625 485.386719 1544.363281 465.253906 1543.773438 C 437.113281 1542.957031 409.371094 1545.167969 381.203125 1542.875 C 368.359375 1541.828125 365.128906 1522.390625 370.261719 1513.769531 C 377.277344 1501.984375 390.863281 1499.597656 402.53125 1506.875 C 403.828125 1507.683594 406.964844 1508.746094 408.4375 1508.585938 C 410.121094 1508.402344 411.925781 1505.050781 412.230469 1502.972656 C 414.445312 1487.867188 426.152344 1476.699219 440.148438 1473.886719 C 455.015625 1470.894531 469.371094 1478.039062 477.058594 1491.390625 C 477.777344 1492.636719 479.851562 1494.324219 481.054688 1494.417969 C 486.324219 1494.824219 488.582031 1482.730469 504.199219 1482.875 C 523.582031 1483.050781 523.089844 1502.285156 526.320312 1504.324219 C 527.542969 1505.09375 531 1505.09375 532.386719 1504.59375 C 544.3125 1500.28125 556.578125 1504.246094 561.265625 1515.871094 C 565.160156 1525.542969 561.023438 1540.570312 549.058594 1543.140625 C 537.21875 1545.6875 517.769531 1540.519531 517.710938 1547.746094 "></path><path style=" stroke:none;fill-rule:nonzero;fill:rgb(0%,0%,0%);fill-opacity:1;" d="M 623.804688 1691.367188 C 621.929688 1693.410156 622.597656 1697.886719 624.441406 1698.769531 C 626.488281 1699.753906 629.945312 1699.859375 630.992188 1698.371094 C 632.347656 1696.445312 632.832031 1693.308594 631.605469 1692.003906 C 629.890625 1690.175781 625.289062 1689.746094 623.804688 1691.367188 M 625.777344 1668.332031 L 622.578125 1658.46875 C 622.011719 1656.726562 617.589844 1655.449219 615.976562 1656.183594 C 614.625 1656.792969 612.945312 1660.28125 613.441406 1661.683594 L 616.210938 1669.511719 C 616.734375 1670.992188 619.667969 1672.902344 621.195312 1673.175781 C 622.722656 1673.453125 626.316406 1669.988281 625.777344 1668.332031 M 611.414062 1626.796875 C 609.503906 1627.621094 609.074219 1633.035156 610.527344 1634.390625 C 611.976562 1635.746094 616.214844 1636.164062 617.839844 1635.027344 C 619.464844 1633.886719 619.769531 1629.136719 618.503906 1627.605469 C 617.421875 1626.292969 613.507812 1625.890625 611.414062 1626.796875 M 787.957031 1625.460938 C 785.796875 1626.976562 786.222656 1632.039062 788.140625 1633.179688 C 789.699219 1634.109375 793.679688 1634.183594 794.898438 1632.855469 C 796.320312 1631.300781 796.730469 1628.230469 795.667969 1626.769531 C 794.214844 1624.777344 789.988281 1624.03125 787.957031 1625.460938 M 784.207031 1596.035156 C 780.878906 1599.492188 786.726562 1609.761719 792.121094 1610.339844 C 793.691406 1610.507812 796.769531 1608.101562 796.71875 1606.523438 C 796.601562 1602.953125 790.089844 1589.921875 784.207031 1596.035156 M 624.722656 1598.761719 L 627.648438 1590.421875 C 628.222656 1588.792969 626.738281 1584.828125 625.195312 1584.117188 C 623.652344 1583.40625 619.0625 1584.0625 618.527344 1585.699219 L 615.429688 1595.164062 C 614.871094 1596.882812 617.40625 1600.433594 619.003906 1600.964844 C 620.375 1601.417969 624.214844 1600.21875 624.722656 1598.761719 M 760.523438 1571.046875 C 758.699219 1571.703125 758.089844 1576.976562 759.378906 1578.417969 C 760.671875 1579.859375 765.023438 1580.214844 766.808594 1579.089844 C 768.453125 1578.054688 768.519531 1573.683594 767.335938 1572.140625 C 766.324219 1570.824219 762.664062 1570.28125 760.523438 1571.046875 M 649.835938 1553 C 647.042969 1553.324219 645.039062 1557.070312 645.753906 1559.339844 C 646.328125 1561.15625 649.773438 1563.234375 651.675781 1562.683594 C 653.683594 1562.101562 656.042969 1558.476562 655.449219 1556.554688 C 654.953125 1554.964844 651.632812 1552.792969 649.835938 1553 M 720.691406 1557.898438 C 725.234375 1555.507812 734.199219 1550.953125 730.210938 1545.804688 C 729.257812 1544.574219 725.242188 1543.742188 723.882812 1544.507812 L 716.375 1548.730469 C 714.78125 1549.628906 713.714844 1553.570312 714.339844 1555.277344 C 714.875 1556.742188 719.167969 1558.699219 720.691406 1557.898438 M 666.050781 1539.042969 C 663.773438 1539.394531 662.296875 1543.984375 663.222656 1546.15625 C 663.984375 1547.9375 667.753906 1549.015625 670.121094 1548.308594 C 671.960938 1547.761719 672.898438 1543.554688 672.191406 1541.566406 C 671.628906 1539.984375 668.390625 1538.683594 666.050781 1539.042969 M 699.09375 1532.667969 C 696.492188 1533.320312 694.667969 1536.980469 695.222656 1538.945312 C 695.90625 1541.375 699.476562 1543.054688 701.746094 1542.371094 C 703.589844 1541.8125 705.351562 1538 704.933594 1535.996094 C 704.589844 1534.339844 700.917969 1532.214844 699.09375 1532.667969 M 642.179688 1599.445312 C 627.628906 1633.214844 639.984375 1678.621094 659.550781 1707.871094 C 649.773438 1711.007812 643.007812 1716.679688 639.808594 1723.253906 C 635.332031 1732.457031 637.414062 1740.417969 640.691406 1750.40625 C 601.144531 1711.839844 583.324219 1642.109375 601.652344 1589.582031 C 613.695312 1555.058594 642.472656 1531.09375 679.140625 1525.867188 C 721.121094 1519.886719 763.882812 1536.789062 790.800781 1569.375 C 814.640625 1598.238281 819.378906 1636.421875 803.40625 1670.140625 C 767.082031 1646.234375 780.628906 1632.640625 770.605469 1611.75 C 755.289062 1579.824219 721.523438 1561.355469 686.375 1565.882812 C 666.238281 1568.480469 650.351562 1580.472656 642.179688 1599.445312 "></path><path style=" stroke:none;fill-rule:nonzero;fill:rgb(100%,100%,100%);fill-opacity:1;" d="M 699.09375 1532.667969 C 700.917969 1532.214844 704.589844 1534.335938 704.933594 1535.996094 C 705.351562 1538 703.589844 1541.8125 701.746094 1542.371094 C 699.476562 1543.054688 695.90625 1541.371094 695.222656 1538.945312 C 694.667969 1536.980469 696.492188 1533.320312 699.09375 1532.667969 "></path><path style=" stroke:none;fill-rule:nonzero;fill:rgb(100%,100%,100%);fill-opacity:1;" d="M 666.050781 1539.042969 C 668.390625 1538.683594 671.628906 1539.984375 672.191406 1541.566406 C 672.898438 1543.554688 671.960938 1547.761719 670.121094 1548.308594 C 667.753906 1549.015625 663.984375 1547.9375 663.222656 1546.15625 C 662.296875 1543.984375 663.773438 1539.394531 666.050781 1539.042969 "></path><path style=" stroke:none;fill-rule:nonzero;fill:rgb(100%,100%,100%);fill-opacity:1;" d="M 720.691406 1557.898438 C 719.167969 1558.699219 714.875 1556.742188 714.339844 1555.277344 C 713.714844 1553.570312 714.78125 1549.628906 716.375 1548.730469 L 723.882812 1544.507812 C 725.242188 1543.742188 729.257812 1544.574219 730.210938 1545.800781 C 734.199219 1550.953125 725.234375 1555.507812 720.691406 1557.898438 "></path><path style=" stroke:none;fill-rule:nonzero;fill:rgb(0%,0%,0%);fill-opacity:1;" d="M 379.089844 1604.074219 L 381.1875 1552.484375 L 468.511719 1552.601562 C 477.253906 1552.613281 485.519531 1558.628906 488.699219 1566.09375 C 490.125 1569.445312 490.089844 1574.050781 489.949219 1577.566406 C 489.515625 1588.128906 496.078125 1596.265625 505.902344 1597.382812 C 515.453125 1598.46875 525.5 1591.460938 525.730469 1580.8125 L 526.339844 1552.503906 L 549.484375 1552.238281 L 551.773438 1612.730469 C 521.667969 1625.472656 493.050781 1619.980469 463.234375 1612.207031 C 434.75 1604.703125 408.464844 1599.277344 379.089844 1604.074219 "></path><path style=" stroke:none;fill-rule:nonzero;fill:rgb(100%,100%,100%);fill-opacity:1;" d="M 649.835938 1553 C 651.632812 1552.792969 654.953125 1554.960938 655.449219 1556.554688 C 656.042969 1558.472656 653.683594 1562.101562 651.675781 1562.683594 C 649.773438 1563.230469 646.328125 1561.15625 645.753906 1559.339844 C 645.039062 1557.066406 647.042969 1553.324219 649.835938 1553 "></path><path style=" stroke:none;fill-rule:nonzero;fill:rgb(0%,0%,0%);fill-opacity:1;" d="M 671.226562 1705 C 657.429688 1686.5 649.5 1665.269531 646.867188 1642.679688 C 645.90625 1629.636719 646.640625 1617.082031 651.25 1605.078125 C 663.570312 1573 701.117188 1570.273438 727.441406 1583.09375 C 711.445312 1614.980469 711.890625 1650.929688 729.972656 1680.8125 C 711.75 1691.644531 693.191406 1698.796875 671.226562 1705 "></path><path style=" stroke:none;fill-rule:nonzero;fill:rgb(100%,100%,100%);fill-opacity:1;" d="M 624.726562 1598.761719 C 624.214844 1600.214844 620.375 1601.417969 619.003906 1600.964844 C 617.40625 1600.433594 614.871094 1596.878906 615.433594 1595.164062 L 618.527344 1585.699219 C 619.0625 1584.0625 623.652344 1583.40625 625.195312 1584.117188 C 626.742188 1584.828125 628.222656 1588.792969 627.648438 1590.421875 Z M 624.726562 1598.761719 "></path><path style=" stroke:none;fill-rule:nonzero;fill:rgb(0%,0%,0%);fill-opacity:1;" d="M 327.308594 1768.585938 L 363.972656 1780.894531 L 363.035156 1801.5625 L 322.304688 1788.402344 C 304.675781 1782.703125 290.902344 1766.542969 290.863281 1746.945312 L 290.652344 1640.289062 C 290.609375 1617.113281 309.695312 1598.523438 332.417969 1598.472656 L 370.738281 1598.394531 L 370.199219 1618.589844 L 331.695312 1619.160156 C 320.480469 1619.324219 311.25 1629.015625 311.25 1640.386719 L 311.226562 1744.917969 C 311.222656 1754.820312 318.03125 1765.46875 327.308594 1768.585938 "></path><path style=" stroke:none;fill-rule:nonzero;fill:rgb(0%,0%,0%);fill-opacity:1;" d="M 405.9375 1784.566406 L 406.773438 1750.1875 C 406.828125 1747.890625 404.316406 1745.300781 402.082031 1745.386719 C 400.347656 1745.449219 398.214844 1748.175781 398.15625 1750.113281 L 397.101562 1785.074219 C 397.027344 1787.558594 399.683594 1789.660156 402.117188 1789.496094 C 403.636719 1789.398438 405.882812 1786.851562 405.9375 1784.566406 M 407.421875 1727.070312 L 409.890625 1639.21875 C 409.957031 1636.90625 408.140625 1634.605469 406.507812 1634.378906 C 404.480469 1634.101562 401.574219 1635.746094 401.5 1638.011719 L 398.707031 1727.535156 C 398.625 1730.128906 401.246094 1732.414062 403.265625 1732.292969 C 405.113281 1732.183594 407.335938 1730.109375 407.421875 1727.070312 M 540.121094 1822.09375 C 505.097656 1840.269531 456.789062 1841.125 418.929688 1832.328125 C 402.597656 1828.535156 382.265625 1819.664062 371.640625 1806.265625 L 374.125 1741.890625 L 378.839844 1613.15625 C 401.355469 1607.710938 428.527344 1612.152344 450.835938 1617.914062 C 485.09375 1626.71875 516.796875 1635.339844 552.238281 1621.585938 L 559.664062 1805.585938 C 554.539062 1812.839844 547.992188 1818.011719 540.121094 1822.09375 "></path><path style=" stroke:none;fill-rule:nonzero;fill:rgb(100%,100%,100%);fill-opacity:1;" d="M 611.414062 1626.796875 C 613.507812 1625.890625 617.421875 1626.292969 618.503906 1627.605469 C 619.769531 1629.136719 619.464844 1633.886719 617.839844 1635.027344 C 616.214844 1636.164062 611.976562 1635.746094 610.527344 1634.390625 C 609.074219 1633.035156 609.503906 1627.621094 611.414062 1626.796875 "></path><path style=" stroke:none;fill-rule:nonzero;fill:rgb(0%,0%,0%);fill-opacity:1;" d="M 334.070312 1762.246094 C 325.734375 1759.613281 319.507812 1752.898438 319.503906 1743.761719 L 319.449219 1641.429688 C 319.988281 1633.945312 324.894531 1627.449219 332.746094 1627.429688 L 369.78125 1627.320312 L 364.328125 1771.8125 Z M 334.070312 1762.246094 "></path><path style=" stroke:none;fill-rule:nonzero;fill:rgb(100%,100%,100%);fill-opacity:1;" d="M 407.421875 1727.070312 C 407.339844 1730.109375 405.113281 1732.183594 403.265625 1732.292969 C 401.246094 1732.414062 398.625 1730.128906 398.707031 1727.535156 L 401.5 1638.011719 C 401.570312 1635.746094 404.480469 1634.101562 406.507812 1634.378906 C 408.144531 1634.605469 409.957031 1636.90625 409.890625 1639.21875 Z M 407.421875 1727.070312 "></path><path style=" stroke:none;fill-rule:nonzero;fill:rgb(100%,100%,100%);fill-opacity:1;" d="M 746.667969 1650.859375 C 745.230469 1648.207031 743.304688 1643.070312 742.421875 1639.894531 C 742.007812 1638.402344 744.921875 1635.195312 746.398438 1635.003906 C 748.125 1634.777344 751.621094 1636.644531 752.175781 1638.296875 L 754.714844 1645.894531 C 755.128906 1647.125 754.082031 1650.398438 753.105469 1651.304688 C 751.929688 1652.394531 747.433594 1652.277344 746.667969 1650.859375 "></path><path style=" stroke:none;fill-rule:nonzero;fill:rgb(100%,100%,100%);fill-opacity:1;" d="M 625.777344 1668.332031 C 626.316406 1669.988281 622.722656 1673.453125 621.195312 1673.175781 C 619.667969 1672.902344 616.734375 1670.992188 616.210938 1669.507812 L 613.441406 1661.683594 C 612.945312 1660.277344 614.625 1656.792969 615.976562 1656.183594 C 617.589844 1655.449219 622.011719 1656.730469 622.578125 1658.46875 Z M 625.777344 1668.332031 "></path><path style=" stroke:none;fill-rule:nonzero;fill:rgb(100%,100%,100%);fill-opacity:1;" d="M 749.644531 1667.808594 C 751.742188 1666.503906 756.160156 1667.460938 757.496094 1669.308594 C 758.582031 1670.8125 758.1875 1674.332031 756.75 1675.597656 C 755.207031 1676.953125 750.917969 1677.1875 749.382812 1676.015625 C 747.425781 1674.523438 747.085938 1669.398438 749.644531 1667.808594 "></path><path style=" stroke:none;fill-rule:nonzero;fill:rgb(100%,100%,100%);fill-opacity:1;" d="M 623.804688 1691.367188 C 625.289062 1689.746094 629.890625 1690.175781 631.605469 1692.003906 C 632.832031 1693.308594 632.347656 1696.445312 630.992188 1698.371094 C 629.945312 1699.859375 626.488281 1699.753906 624.441406 1698.769531 C 622.597656 1697.886719 621.929688 1693.410156 623.804688 1691.367188 "></path><path style=" stroke:none;fill-rule:nonzero;fill:rgb(0%,0%,0%);fill-opacity:1;" d="M 695.089844 1721.4375 C 692.433594 1722.898438 692.453125 1728.023438 694.515625 1729.632812 C 696.050781 1730.832031 699.304688 1731.320312 700.898438 1730.234375 C 702.699219 1729.011719 703.5 1724.511719 702.464844 1722.925781 C 701.398438 1721.289062 697.128906 1720.316406 695.089844 1721.4375 M 728.609375 1723.089844 C 730.367188 1723.941406 734.65625 1721.15625 735.097656 1719.460938 C 735.542969 1717.765625 733.894531 1714.160156 732.300781 1713.355469 L 724.046875 1709.183594 C 722.714844 1708.511719 719.328125 1710.140625 718.695312 1711.457031 C 716.003906 1717.054688 722.949219 1720.347656 728.609375 1723.089844 M 669.300781 1750.835938 C 659.117188 1752.804688 650.546875 1748.039062 648.3125 1739.132812 C 646.132812 1730.4375 651.386719 1721.355469 661.28125 1718.914062 C 687.1875 1712.527344 712.09375 1703.96875 736.054688 1690.351562 C 744.339844 1699.429688 752.929688 1707.105469 762.597656 1714.546875 C 734.261719 1733.691406 702.992188 1744.320312 669.300781 1750.835938 "></path><path style=" stroke:none;fill-rule:nonzero;fill:rgb(100%,100%,100%);fill-opacity:1;" d="M 728.609375 1723.089844 C 722.949219 1720.347656 716.003906 1717.054688 718.695312 1711.457031 C 719.328125 1710.140625 722.714844 1708.511719 724.046875 1709.183594 L 732.300781 1713.355469 C 733.894531 1714.160156 735.542969 1717.765625 735.097656 1719.457031 C 734.65625 1721.15625 730.367188 1723.941406 728.609375 1723.089844 "></path><path style=" stroke:none;fill-rule:nonzero;fill:rgb(100%,100%,100%);fill-opacity:1;" d="M 695.089844 1721.4375 C 697.128906 1720.316406 701.398438 1721.289062 702.464844 1722.925781 C 703.5 1724.511719 702.699219 1729.011719 700.898438 1730.234375 C 699.304688 1731.320312 696.050781 1730.832031 694.515625 1729.632812 C 692.453125 1728.023438 692.433594 1722.898438 695.089844 1721.4375 "></path><path style=" stroke:none;fill-rule:nonzero;fill:rgb(100%,100%,100%);fill-opacity:1;" d="M 405.9375 1784.566406 C 405.882812 1786.851562 403.636719 1789.398438 402.117188 1789.496094 C 399.683594 1789.660156 397.027344 1787.558594 397.101562 1785.074219 L 398.15625 1750.113281 C 398.214844 1748.175781 400.347656 1745.449219 402.082031 1745.386719 C 404.316406 1745.300781 406.828125 1747.890625 406.773438 1750.1875 Z M 405.9375 1784.566406 "></path><path style=" stroke:none;fill-rule:nonzero;fill:rgb(100%,100%,100%);fill-opacity:1;" d="M 704.355469 1762.464844 C 706.59375 1761.804688 710.042969 1762.820312 710.6875 1764.296875 C 711.488281 1766.125 710.519531 1770.34375 708.824219 1771.144531 C 707.105469 1771.960938 702.785156 1770.941406 701.976562 1769.246094 C 701.167969 1767.550781 702.511719 1763.011719 704.355469 1762.464844 "></path><path style=" stroke:none;fill-rule:nonzero;fill:rgb(100%,100%,100%);fill-opacity:1;" d="M 733.183594 1781.585938 C 734.75 1780.335938 739.125 1780.621094 740.464844 1781.9375 C 741.855469 1783.304688 741.375 1787.351562 739.726562 1789.273438 C 738.460938 1790.753906 734.707031 1790.101562 732.84375 1788.808594 C 731.257812 1787.707031 731.53125 1782.90625 733.183594 1781.585938 "></path><path style=" stroke:none;fill-rule:nonzero;fill:rgb(0%,0%,0%);fill-opacity:1;" d="M 560.074219 1819.027344 L 561.421875 1851.816406 C 561.835938 1861.898438 553.859375 1869.09375 544.023438 1869.089844 L 385.464844 1869.085938 C 375.910156 1867.957031 369.296875 1860.039062 369.710938 1850.601562 L 371.132812 1818.132812 C 397.941406 1841.703125 438.078125 1846.871094 471.804688 1846.375 C 501.539062 1845.9375 535.5625 1839.335938 560.074219 1819.027344 "></path></g></svg>