<?xml version='1.0' encoding='utf-8'?>
<svg xmlns="http://www.w3.org/2000/svg" viewBox="557.73 1488.44 1132.14 557.84" width="80" height="80" fill="none"><g><path style=" stroke:none;fill-rule:nonzero;fill:rgb(0%,0%,0%);fill-opacity:1;" d="M 911.761719 1754.625 C 952.296875 1710.445312 967.664062 1648.855469 953.414062 1591.015625 C 940.652344 1545.117188 902.960938 1513.796875 855.492188 1510.558594 C 824.492188 1508.441406 794.414062 1517.488281 768.121094 1534.957031 C 741.667969 1518.691406 712.011719 1511.015625 681.257812 1514.601562 C 634.96875 1519.992188 599.644531 1551.761719 588.046875 1597.222656 C 577.730469 1644.621094 587.1875 1695.597656 614.984375 1735.925781 C 684.238281 1836.394531 832.492188 1841.019531 911.761719 1754.625 "></path><path style=" stroke:none;fill-rule:nonzero;fill:rgb(100%,100%,100%);fill-opacity:1;" d="M 825.835938 1741.796875 C 805.699219 1736.101562 789.113281 1730.03125 772.78125 1720.890625 C 758.503906 1730.546875 744.183594 1738.21875 728.867188 1745.320312 C 761.152344 1755.921875 795.570312 1754.46875 825.835938 1741.796875 M 669.300781 1750.835938 C 702.992188 1744.320312 734.261719 1733.691406 762.597656 1714.546875 C 752.929688 1707.101562 744.339844 1699.429688 736.054688 1690.351562 C 712.09375 1703.96875 687.1875 1712.527344 661.28125 1718.914062 C 651.386719 1721.355469 646.132812 1730.4375 648.3125 1739.132812 C 650.546875 1748.039062 659.117188 1752.804688 669.300781 1750.835938 M 883.742188 1704.621094 C 845.582031 1700.71875 809.238281 1693.207031 781.746094 1666.507812 C 768.695312 1653.835938 761.804688 1637.664062 762.25 1619.695312 C 756.953125 1607.226562 748.902344 1596.28125 736.910156 1588.707031 C 719.367188 1622.511719 724.601562 1663.554688 751.046875 1690.1875 C 769.007812 1708.277344 790.875 1720.058594 815.144531 1727.539062 C 838.324219 1734.683594 861.734375 1738.722656 886.054688 1737.378906 C 895.0625 1736.878906 900.515625 1728.035156 899.789062 1720.25 C 899.070312 1712.535156 893.308594 1705.597656 883.742188 1704.621094 M 671.226562 1705 C 693.191406 1698.796875 711.75 1691.644531 729.972656 1680.808594 C 711.890625 1650.929688 711.445312 1614.980469 727.441406 1583.09375 C 701.117188 1570.273438 663.570312 1573 651.25 1605.078125 C 646.640625 1617.082031 645.90625 1629.636719 646.867188 1642.679688 C 649.5 1665.269531 657.429688 1686.5 671.226562 1705 M 878.472656 1692.6875 C 890.378906 1671.890625 896.128906 1650.652344 895.65625 1627.679688 C 895.007812 1616.390625 892.898438 1605.585938 887.808594 1595.773438 C 872.785156 1566.820312 836.800781 1567.191406 810.378906 1579.382812 C 827.410156 1609.597656 827.1875 1644.6875 812.660156 1675.644531 C 832.867188 1686.8125 855.539062 1691 878.472656 1692.6875 M 642.179688 1599.441406 C 650.351562 1580.472656 666.238281 1568.476562 686.378906 1565.882812 C 721.523438 1561.355469 755.292969 1579.824219 770.605469 1611.746094 C 780.628906 1632.640625 767.078125 1646.230469 803.40625 1670.140625 C 819.375 1636.421875 814.640625 1598.242188 790.800781 1569.375 C 763.882812 1536.789062 721.121094 1519.886719 679.140625 1525.867188 C 642.472656 1531.09375 613.695312 1555.0625 601.652344 1589.582031 C 583.324219 1642.109375 601.144531 1711.839844 640.691406 1750.40625 C 637.410156 1740.417969 635.332031 1732.457031 639.808594 1723.253906 C 643.007812 1716.679688 649.773438 1711.007812 659.550781 1707.871094 C 639.984375 1678.617188 627.628906 1633.214844 642.179688 1599.441406 M 841.917969 1745.523438 C 804.476562 1768.1875 750.496094 1767.890625 712.632812 1750.667969 C 697.886719 1755.335938 684.488281 1758.820312 669.78125 1761.621094 C 662.199219 1763.070312 655.183594 1760.71875 648.011719 1757.9375 C 702.730469 1809.792969 786.902344 1818.464844 853.511719 1785.453125 C 915.570312 1754.703125 951.875 1691.234375 947.753906 1622.15625 C 944.027344 1559.75 902.511719 1518.808594 839.507812 1521.210938 C 817.339844 1522.859375 796.773438 1529.578125 777.269531 1541.660156 C 788 1550.386719 796.65625 1559.460938 804.523438 1569.855469 C 819.449219 1563.402344 834.609375 1559.871094 850.472656 1560.894531 C 872.234375 1562.355469 890.238281 1574.714844 899.152344 1594.472656 C 912.964844 1625.089844 905.546875 1665.125 889.644531 1694.636719 C 902.75 1698.742188 910.539062 1709.140625 910.457031 1721.550781 C 910.382812 1733.03125 903.742188 1745.109375 890.90625 1747.359375 C 874.949219 1750.15625 858.800781 1747.359375 841.917969 1745.523438 M 911.761719 1754.625 C 832.492188 1841.019531 684.238281 1836.394531 614.984375 1735.929688 C 587.1875 1695.597656 577.730469 1644.621094 588.046875 1597.222656 C 599.644531 1551.761719 634.96875 1519.992188 681.257812 1514.601562 C 712.011719 1511.015625 741.667969 1518.691406 768.121094 1534.957031 C 794.414062 1517.488281 824.492188 1508.441406 855.492188 1510.558594 C 902.964844 1513.796875 940.652344 1545.117188 953.414062 1591.015625 C 967.664062 1648.855469 952.296875 1710.445312 911.761719 1754.625 "></path><path style=" stroke:none;fill-rule:nonzero;fill:rgb(0%,0%,0%);fill-opacity:1;" d="M 733.183594 1781.585938 C 731.53125 1782.90625 731.257812 1787.707031 732.84375 1788.808594 C 734.707031 1790.101562 738.460938 1790.753906 739.726562 1789.273438 C 741.375 1787.351562 741.855469 1783.304688 740.464844 1781.9375 C 739.125 1780.621094 734.75 1780.335938 733.183594 1781.585938 M 791.195312 1792.949219 C 793.359375 1790.710938 795.148438 1788.722656 795.519531 1787.257812 C 795.894531 1785.800781 793.671875 1782.5 792.25 1782.03125 L 784.316406 1779.417969 C 782.773438 1778.910156 779.191406 1780.808594 778.367188 1782.199219 C 777.542969 1783.582031 778.578125 1787.652344 780.023438 1788.441406 C 782.472656 1789.78125 786.613281 1791.144531 791.195312 1792.949219 M 805.769531 1766.5625 C 803.03125 1766.996094 801.171875 1770.710938 801.941406 1772.9375 C 802.570312 1774.753906 806.226562 1776.863281 808.179688 1776.289062 C 810.203125 1775.699219 812.027344 1771.984375 811.507812 1769.910156 C 811.097656 1768.289062 807.792969 1766.242188 805.769531 1766.5625 M 852.136719 1770.433594 C 853.503906 1769.417969 853.585938 1764.6875 852.4375 1763.5 C 851.289062 1762.3125 847.53125 1761.5625 846.144531 1762.464844 L 838.316406 1767.570312 C 836.992188 1768.433594 836.453125 1772.496094 837.042969 1773.953125 C 839.476562 1779.949219 849.246094 1772.582031 852.136719 1770.433594 M 704.355469 1762.464844 C 702.511719 1763.011719 701.167969 1767.550781 701.976562 1769.246094 C 702.785156 1770.941406 707.105469 1771.960938 708.824219 1771.144531 C 710.519531 1770.34375 711.488281 1766.125 710.691406 1764.296875 C 710.042969 1762.820312 706.59375 1761.804688 704.355469 1762.464844 M 923.101562 1683.800781 L 922.695312 1673.226562 C 922.65625 1672.164062 919.347656 1670.824219 918.214844 1670.914062 C 917.082031 1671.003906 914.339844 1672.488281 914.199219 1673.625 L 912.894531 1684.160156 C 912.664062 1686 916.179688 1689.101562 917.945312 1689.003906 C 919.714844 1688.90625 923.175781 1685.804688 923.101562 1683.800781 M 925.730469 1631.351562 C 923.34375 1632.101562 922.183594 1637.015625 923.386719 1638.527344 C 924.496094 1639.921875 927.527344 1640.976562 929.554688 1640.492188 C 931.300781 1640.074219 932.746094 1636.210938 932.265625 1634.242188 C 931.839844 1632.507812 928.300781 1630.539062 925.730469 1631.351562 M 922.789062 1596.363281 L 920.355469 1588.984375 C 919.800781 1587.292969 916.136719 1585.40625 914.378906 1585.734375 C 912.617188 1586.0625 910.03125 1590.027344 910.679688 1591.890625 L 913.605469 1600.335938 C 914.257812 1602.210938 918.714844 1603.9375 920.617188 1603.0625 C 922.160156 1602.355469 923.382812 1598.164062 922.789062 1596.363281 M 808.480469 1547.707031 C 806.453125 1549.65625 806.925781 1554.355469 808.757812 1555.425781 C 810.589844 1556.496094 814.84375 1556.605469 815.90625 1555.058594 C 817.1875 1553.1875 817.4375 1549.835938 816.359375 1548.289062 C 815.1875 1546.605469 810.117188 1546.132812 808.480469 1547.707031 M 883.261719 1545.113281 C 876.238281 1550.039062 886.871094 1560.003906 890.664062 1560.222656 C 892.363281 1560.324219 895.675781 1557.460938 895.300781 1555.796875 C 894.40625 1551.882812 887.5625 1542.097656 883.261719 1545.113281 M 859.328125 1541.945312 C 856.222656 1542.457031 854.335938 1546.042969 854.832031 1548.695312 C 855.191406 1550.609375 858.859375 1552.414062 861.332031 1551.898438 C 863.28125 1551.488281 865.207031 1548.050781 864.808594 1546.03125 C 864.476562 1544.351562 861.054688 1541.660156 859.328125 1541.945312 M 838.15625 1542.945312 C 839.777344 1543.085938 842.398438 1539.585938 842.347656 1538 C 842.296875 1536.410156 839.847656 1533.515625 838.300781 1533.257812 L 829.652344 1531.820312 C 827.902344 1531.53125 824.683594 1534.757812 824.699219 1536.527344 C 824.757812 1542.558594 833.539062 1542.550781 838.15625 1542.945312 M 841.917969 1745.523438 C 858.800781 1747.359375 874.949219 1750.15625 890.90625 1747.359375 C 903.742188 1745.109375 910.382812 1733.03125 910.457031 1721.550781 C 910.539062 1709.136719 902.75 1698.742188 889.644531 1694.636719 C 905.546875 1665.125 912.964844 1625.085938 899.152344 1594.472656 C 890.238281 1574.714844 872.234375 1562.355469 850.472656 1560.894531 C 834.609375 1559.871094 819.449219 1563.402344 804.527344 1569.855469 C 796.65625 1559.460938 787.996094 1550.386719 777.269531 1541.660156 C 796.773438 1529.578125 817.339844 1522.859375 839.507812 1521.210938 C 902.511719 1518.8125 944.027344 1559.75 947.753906 1622.15625 C 951.875 1691.238281 915.570312 1754.703125 853.511719 1785.453125 C 786.902344 1818.464844 702.730469 1809.792969 648.011719 1757.9375 C 655.183594 1760.71875 662.199219 1763.070312 669.78125 1761.625 C 684.488281 1758.820312 697.886719 1755.335938 712.632812 1750.667969 C 750.496094 1767.886719 804.472656 1768.1875 841.917969 1745.523438 "></path><path style=" stroke:none;fill-rule:nonzero;fill:rgb(100%,100%,100%);fill-opacity:1;" d="M 838.15625 1542.945312 C 833.539062 1542.550781 824.757812 1542.558594 824.699219 1536.527344 C 824.683594 1534.753906 827.902344 1531.53125 829.652344 1531.820312 L 838.300781 1533.257812 C 839.847656 1533.515625 842.296875 1536.410156 842.347656 1537.996094 C 842.398438 1539.585938 839.777344 1543.085938 838.15625 1542.945312 "></path><path style=" stroke:none;fill-rule:nonzero;fill:rgb(100%,100%,100%);fill-opacity:1;" d="M 859.328125 1541.945312 C 861.054688 1541.660156 864.476562 1544.351562 864.808594 1546.03125 C 865.207031 1548.050781 863.28125 1551.488281 861.332031 1551.898438 C 858.863281 1552.414062 855.191406 1550.609375 854.832031 1548.699219 C 854.335938 1546.042969 856.222656 1542.457031 859.328125 1541.945312 "></path><path style=" stroke:none;fill-rule:nonzero;fill:rgb(100%,100%,100%);fill-opacity:1;" d="M 883.261719 1545.113281 C 887.5625 1542.097656 894.40625 1551.882812 895.296875 1555.796875 C 895.675781 1557.460938 892.363281 1560.324219 890.664062 1560.222656 C 886.871094 1560.003906 876.238281 1550.039062 883.261719 1545.113281 "></path><path style=" stroke:none;fill-rule:nonzero;fill:rgb(100%,100%,100%);fill-opacity:1;" d="M 808.480469 1547.707031 C 810.117188 1546.132812 815.1875 1546.605469 816.359375 1548.289062 C 817.4375 1549.835938 817.1875 1553.1875 815.90625 1555.058594 C 814.84375 1556.605469 810.589844 1556.496094 808.757812 1555.425781 C 806.925781 1554.355469 806.453125 1549.65625 808.480469 1547.707031 "></path><path style=" stroke:none;fill-rule:nonzero;fill:rgb(0%,0%,0%);fill-opacity:1;" d="M 1421.113281 2023.023438 L 1421.003906 1984.019531 C 1418.484375 1983.390625 1415.109375 1983.457031 1413.375 1984.570312 L 1413.285156 2023.4375 C 1416.066406 2024.097656 1419.136719 2024.105469 1421.113281 2023.023438 M 1482.46875 1998.160156 C 1482.535156 1993.128906 1487.171875 1990.289062 1490.394531 1989.882812 C 1506.273438 1987.886719 1499.054688 2011.644531 1500.753906 2023.753906 L 1508.546875 2023.753906 L 1508.296875 1994.472656 C 1508.242188 1988.011719 1502.175781 1984.011719 1497.308594 1983.113281 C 1490.96875 1981.945312 1486.476562 1984.289062 1482.253906 1988.90625 L 1481.300781 1983.660156 L 1474.476562 1984.441406 L 1474.488281 2023.222656 C 1476.566406 2024.078125 1480.273438 2024.097656 1482.136719 2023.269531 Z M 1437.554688 2023.554688 C 1444.742188 2026.277344 1450.488281 2024.1875 1456.0625 2018.757812 L 1456.542969 2023.746094 L 1463.644531 2023.769531 L 1463.722656 1997.867188 C 1463.75 1988.992188 1457.976562 1982.941406 1448.757812 1982.882812 C 1441.71875 1982.835938 1434.046875 1985.480469 1431.929688 1993.371094 C 1440.742188 1998.453125 1437.847656 1988.984375 1447.9375 1989.492188 C 1450.441406 1989.617188 1453.585938 1990.859375 1454.734375 1992.570312 C 1455.824219 1994.195312 1456.136719 1998.410156 1455.21875 1999.5 C 1445.082031 2000.507812 1430.863281 2000.480469 1430.101562 2012.386719 C 1429.804688 2017.085938 1432.480469 2021.628906 1437.554688 2023.554688 M 1330.015625 1998.351562 C 1330.078125 1992.09375 1336.058594 1989.503906 1340.367188 1989.789062 C 1345.691406 1990.144531 1348.167969 1994.46875 1348.175781 1999.914062 L 1348.210938 2023.808594 L 1355.953125 2023.753906 L 1355.640625 1994.101562 C 1355.574219 1987.828125 1349.375 1983.8125 1344.363281 1983.050781 C 1338.617188 1982.179688 1333.898438 1984.246094 1329.953125 1988.804688 C 1329.386719 1986.949219 1329.328125 1983.910156 1328.21875 1983.921875 L 1322.207031 1983.980469 L 1322.171875 2023.890625 L 1329.773438 2023.753906 Z M 1310.238281 2023.066406 L 1310.164062 1970.949219 L 1302.324219 1971.273438 L 1302.3125 2023.6875 C 1304.992188 2023.984375 1308.132812 2023.894531 1310.238281 2023.066406 M 1393.527344 2018.03125 L 1394.179688 2023.929688 L 1401.53125 2023.769531 L 1401.730469 1968.476562 L 1394.085938 1968.582031 L 1393.984375 1989.214844 C 1389.800781 1985.28125 1386.195312 1982.648438 1381.339844 1982.886719 C 1377.125 1983.089844 1372.394531 1984.8125 1369.464844 1988.621094 C 1362.894531 1997.164062 1362.789062 2009.816406 1369.027344 2018.613281 C 1372.109375 2022.960938 1377.449219 2024.984375 1382.273438 2024.859375 C 1386.890625 2024.738281 1390.914062 2021.941406 1393.527344 2018.03125 M 1416.226562 1967.207031 C 1413.527344 1967.757812 1411.75 1971 1412.335938 1973.222656 C 1412.960938 1975.597656 1416.050781 1977.253906 1418.171875 1976.648438 C 1420.800781 1975.902344 1422.441406 1973.152344 1421.820312 1970.644531 C 1421.335938 1968.699219 1418.5625 1966.734375 1416.226562 1967.207031 M 1274.210938 1890.347656 C 1287.410156 1887.347656 1298.6875 1881.59375 1307.945312 1872.0625 C 1321.214844 1858.402344 1325.164062 1837.167969 1313.902344 1820.683594 L 1241.839844 1715.226562 L 1189.253906 1637.773438 C 1182.394531 1627.671875 1171.558594 1622.546875 1159.46875 1625.566406 C 1148.707031 1628.253906 1141.472656 1636.929688 1139.304688 1648.679688 L 1118.484375 1761.472656 C 1115.03125 1780.175781 1113.652344 1798.179688 1114.519531 1816.984375 C 1116.125 1851.816406 1130.773438 1884.449219 1166.328125 1894.613281 C 1194.488281 1902.667969 1245.554688 1896.859375 1274.210938 1890.347656 M 1433.332031 1840.855469 C 1391.835938 1839.3125 1353.507812 1827.40625 1319.488281 1805 C 1330.496094 1824.097656 1324.761719 1820.734375 1343.0625 1830 L 1343.664062 1847.070312 C 1344.351562 1866.554688 1375.242188 1876.40625 1391.132812 1879.769531 C 1429.171875 1887.8125 1468.507812 1887.503906 1506.328125 1878.535156 C 1521.304688 1874.988281 1547.550781 1865.253906 1548.171875 1847.25 L 1548.765625 1830.03125 C 1623.667969 1796.097656 1669.875 1717.804688 1667.269531 1636.480469 C 1666.09375 1599.726562 1599.949219 1576.503906 1570.300781 1569.496094 C 1495.621094 1551.847656 1418.265625 1550.449219 1342.957031 1565.019531 C 1319.023438 1569.648438 1296.542969 1576.367188 1274.691406 1586.515625 C 1256.414062 1595 1229.332031 1612.695312 1227.75 1634.617188 C 1226.839844 1647.285156 1226.796875 1660.726562 1230.226562 1672.902344 C 1232.277344 1680.179688 1239.140625 1685.625 1242.734375 1692.128906 L 1238.886719 1667.046875 C 1283.828125 1712.261719 1382.652344 1723.230469 1442.8125 1723.433594 C 1493.523438 1723.609375 1546.945312 1718.390625 1594.859375 1702.058594 C 1616.5 1694.683594 1639.203125 1683.570312 1655.824219 1666.949219 C 1649.828125 1712.953125 1628.925781 1755.128906 1595.492188 1786.59375 C 1571.878906 1808.816406 1543.5625 1823.570312 1512.5 1832.492188 C 1486.578125 1839.941406 1461.09375 1841.886719 1433.332031 1840.855469 "></path><path style=" stroke:none;fill-rule:nonzero;fill:rgb(100%,100%,100%);fill-opacity:1;" d="M 1537.429688 1849.648438 C 1539.035156 1844.808594 1538.515625 1839.558594 1538.105469 1834.683594 C 1482.785156 1856.929688 1408.722656 1856.945312 1353.964844 1834.714844 C 1353.394531 1839.992188 1352.796875 1845.671875 1354.886719 1850.382812 C 1360.261719 1862.523438 1388.972656 1869.234375 1401.503906 1871.40625 C 1433.074219 1876.867188 1464.949219 1876.507812 1496.402344 1870.453125 C 1507.660156 1868.289062 1533.589844 1861.214844 1537.429688 1849.648438 M 1621.957031 1679.3125 C 1626.863281 1673.574219 1630.949219 1666.878906 1630.628906 1659 C 1629.328125 1626.867188 1555.722656 1609.714844 1530.300781 1605.445312 C 1475.441406 1596.234375 1419.964844 1596.261719 1365.066406 1605.183594 C 1336.957031 1609.753906 1297.160156 1620.191406 1275.726562 1638.789062 C 1270.511719 1643.3125 1266.09375 1649.140625 1265.003906 1656.007812 C 1263.519531 1665.367188 1267.878906 1674.09375 1274.5 1680.257812 C 1312.132812 1699.675781 1360.511719 1708.242188 1402.492188 1711.433594 C 1470.839844 1716.632812 1559.929688 1711.304688 1621.957031 1679.3125 M 1546.910156 1598.246094 C 1577.269531 1604.457031 1649.65625 1625.050781 1639.734375 1667.386719 C 1652.6875 1658.613281 1662.394531 1642.277344 1654.273438 1627.453125 C 1637.414062 1596.664062 1577.285156 1580.328125 1544.476562 1574.335938 C 1483.476562 1563.191406 1421.515625 1562.464844 1360.257812 1572.304688 C 1325.785156 1577.84375 1257.429688 1594.183594 1240.351562 1627.1875 C 1231.71875 1643.871094 1241.777344 1658.515625 1255.914062 1668.335938 C 1244.621094 1626.804688 1313.921875 1605.246094 1343 1599.0625 C 1410.039062 1584.804688 1479.179688 1584.394531 1546.910156 1598.246094 M 1433.332031 1840.855469 C 1461.09375 1841.886719 1486.578125 1839.941406 1512.5 1832.496094 C 1543.5625 1823.570312 1571.878906 1808.820312 1595.492188 1786.59375 C 1628.929688 1755.128906 1649.828125 1712.953125 1655.824219 1666.949219 C 1639.199219 1683.570312 1616.5 1694.683594 1594.859375 1702.0625 C 1546.945312 1718.394531 1493.523438 1723.609375 1442.8125 1723.433594 C 1382.65625 1723.230469 1283.832031 1712.261719 1238.886719 1667.046875 L 1242.734375 1692.128906 C 1239.140625 1685.621094 1232.277344 1680.179688 1230.226562 1672.902344 C 1226.796875 1660.726562 1226.839844 1647.289062 1227.75 1634.621094 C 1229.332031 1612.695312 1256.414062 1595.003906 1274.691406 1586.515625 C 1296.542969 1576.367188 1319.027344 1569.648438 1342.957031 1565.015625 C 1418.265625 1550.449219 1495.621094 1551.847656 1570.304688 1569.496094 C 1599.949219 1576.5 1666.09375 1599.726562 1667.269531 1636.480469 C 1669.875 1717.804688 1623.667969 1796.097656 1548.765625 1830.03125 L 1548.171875 1847.25 C 1547.550781 1865.253906 1521.304688 1874.988281 1506.328125 1878.539062 C 1468.507812 1887.503906 1429.171875 1887.808594 1391.132812 1879.769531 C 1375.246094 1876.40625 1344.351562 1866.554688 1343.664062 1847.070312 L 1343.0625 1830 C 1324.761719 1820.734375 1330.496094 1824.097656 1319.488281 1805 C 1353.507812 1827.40625 1391.835938 1839.3125 1433.332031 1840.855469 "></path><path style=" stroke:none;fill-rule:nonzero;fill:rgb(0%,0%,0%);fill-opacity:1;" d="M 1546.910156 1598.246094 C 1479.179688 1584.394531 1410.039062 1584.804688 1343 1599.0625 C 1313.921875 1605.246094 1244.621094 1626.804688 1255.914062 1668.335938 C 1241.777344 1658.515625 1231.71875 1643.871094 1240.351562 1627.1875 C 1257.429688 1594.183594 1325.785156 1577.84375 1360.257812 1572.304688 C 1421.511719 1562.464844 1483.480469 1563.191406 1544.472656 1574.335938 C 1577.285156 1580.328125 1637.414062 1596.664062 1654.273438 1627.453125 C 1662.394531 1642.277344 1652.6875 1658.613281 1639.734375 1667.386719 C 1649.65625 1625.050781 1577.269531 1604.457031 1546.910156 1598.246094 "></path><path style=" stroke:none;fill-rule:nonzero;fill:rgb(0%,0%,0%);fill-opacity:1;" d="M 878.472656 1692.6875 C 855.539062 1691 832.867188 1686.8125 812.660156 1675.644531 C 827.1875 1644.691406 827.410156 1609.597656 810.378906 1579.382812 C 836.800781 1567.191406 872.785156 1566.824219 887.808594 1595.773438 C 892.898438 1605.585938 895.007812 1616.386719 895.65625 1627.679688 C 896.128906 1650.652344 890.378906 1671.890625 878.472656 1692.6875 "></path><path style=" stroke:none;fill-rule:nonzero;fill:rgb(100%,100%,100%);fill-opacity:1;" d="M 760.523438 1571.046875 C 762.664062 1570.28125 766.324219 1570.824219 767.332031 1572.140625 C 768.515625 1573.683594 768.457031 1578.054688 766.808594 1579.089844 C 765.023438 1580.214844 760.671875 1579.859375 759.378906 1578.417969 C 758.085938 1576.976562 758.699219 1571.703125 760.523438 1571.046875 "></path><path style=" stroke:none;fill-rule:nonzero;fill:rgb(100%,100%,100%);fill-opacity:1;" d="M 922.789062 1596.363281 C 923.382812 1598.164062 922.160156 1602.351562 920.617188 1603.0625 C 918.714844 1603.9375 914.257812 1602.214844 913.605469 1600.335938 L 910.679688 1591.890625 C 910.03125 1590.027344 912.617188 1586.0625 914.378906 1585.734375 C 916.136719 1585.40625 919.800781 1587.292969 920.355469 1588.984375 Z M 922.789062 1596.363281 "></path><path style=" stroke:none;fill-rule:nonzero;fill:rgb(0%,0%,0%);fill-opacity:1;" d="M 853.539062 1711.707031 C 850.800781 1712.679688 849.910156 1717.480469 851.464844 1719.25 C 852.667969 1720.617188 856.914062 1721.292969 858.539062 1720.355469 C 860.125 1719.445312 861.257812 1715.914062 860.542969 1714.230469 C 859.71875 1712.285156 855.914062 1710.863281 853.539062 1711.707031 M 827.597656 1719.136719 C 831.015625 1717.347656 832.726562 1716.472656 833.792969 1715.523438 C 834.808594 1714.617188 834.019531 1710.675781 832.917969 1709.765625 L 825.382812 1703.519531 C 824.148438 1702.496094 819.875 1703.464844 818.90625 1704.71875 C 815.144531 1709.585938 823.375 1714.914062 827.597656 1719.136719 M 772.65625 1697.683594 C 773.710938 1698.867188 777.804688 1698.847656 779.0625 1697.839844 C 780.316406 1696.832031 781.347656 1692.507812 780.347656 1691.203125 C 777.992188 1688.125 771.15625 1679.027344 766.914062 1684.449219 C 765.964844 1685.660156 765.585938 1689.730469 766.628906 1690.90625 Z M 749.644531 1667.808594 C 747.085938 1669.398438 747.425781 1674.519531 749.386719 1676.015625 C 750.917969 1677.183594 755.207031 1676.953125 756.746094 1675.597656 C 758.1875 1674.332031 758.582031 1670.8125 757.496094 1669.308594 C 756.160156 1667.460938 751.742188 1666.503906 749.644531 1667.808594 M 746.667969 1650.859375 C 747.433594 1652.273438 751.929688 1652.394531 753.105469 1651.304688 C 754.082031 1650.398438 755.128906 1647.125 754.714844 1645.894531 L 752.171875 1638.296875 C 751.621094 1636.644531 748.125 1634.777344 746.398438 1635.003906 C 744.921875 1635.195312 742.007812 1638.402344 742.421875 1639.894531 C 743.304688 1643.070312 745.230469 1648.207031 746.667969 1650.859375 M 883.742188 1704.621094 C 893.308594 1705.597656 899.070312 1712.535156 899.789062 1720.25 C 900.515625 1728.035156 895.0625 1736.878906 886.054688 1737.378906 C 861.734375 1738.722656 838.324219 1734.683594 815.144531 1727.539062 C 790.875 1720.058594 769.007812 1708.277344 751.046875 1690.1875 C 724.601562 1663.554688 719.367188 1622.511719 736.910156 1588.707031 C 748.902344 1596.28125 756.953125 1607.226562 762.25 1619.695312 C 761.804688 1637.664062 768.695312 1653.835938 781.746094 1666.507812 C 809.238281 1693.207031 845.582031 1700.71875 883.742188 1704.621094 "></path><path style=" stroke:none;fill-rule:nonzero;fill:rgb(100%,100%,100%);fill-opacity:1;" d="M 784.207031 1596.035156 C 790.089844 1589.921875 796.601562 1602.953125 796.714844 1606.523438 C 796.769531 1608.101562 793.691406 1610.507812 792.121094 1610.339844 C 786.730469 1609.761719 780.878906 1599.492188 784.207031 1596.035156 "></path><path style=" stroke:none;fill-rule:nonzero;fill:rgb(0%,0%,0%);fill-opacity:1;" d="M 1513.96875 1697.769531 C 1516.863281 1699.023438 1520.320312 1697.242188 1520.835938 1694.457031 C 1521.246094 1692.238281 1519.957031 1689.570312 1517.496094 1688.433594 C 1495.742188 1678.402344 1471.054688 1679.96875 1451.769531 1694.085938 C 1449.128906 1696.019531 1448.171875 1699.027344 1449.851562 1701.644531 C 1450.976562 1703.402344 1454.753906 1704.472656 1456.726562 1703.074219 C 1474.296875 1690.601562 1494.472656 1689.3125 1513.96875 1697.769531 M 1445.796875 1683.449219 C 1449.535156 1681.902344 1450.65625 1679.007812 1449.265625 1675.855469 C 1448.464844 1674.046875 1444.949219 1672.546875 1442.570312 1673.664062 C 1431.082031 1679.050781 1417.089844 1679.347656 1407.21875 1670.652344 C 1392.253906 1657.464844 1371.472656 1653.75 1353.570312 1663.816406 C 1352.046875 1664.671875 1352.5625 1669.390625 1353.773438 1670.542969 C 1359.8125 1676.285156 1376.496094 1657.53125 1400.445312 1678.488281 C 1412.878906 1689.367188 1430.65625 1689.710938 1445.796875 1683.449219 M 1552.398438 1678.609375 C 1554.960938 1680.351562 1558.972656 1676.859375 1559.308594 1675.039062 C 1559.644531 1673.222656 1558.652344 1670.675781 1556.59375 1669.304688 C 1532.554688 1653.289062 1502.324219 1651.089844 1476.121094 1663.378906 C 1473.652344 1664.539062 1472.691406 1667.996094 1473.554688 1669.757812 C 1474.859375 1672.417969 1477.726562 1673.636719 1480.4375 1672.410156 C 1504.0625 1661.710938 1530.761719 1663.917969 1552.398438 1678.609375 M 1336.65625 1654.816406 C 1339.007812 1654.101562 1340.730469 1650.886719 1340.3125 1648.871094 C 1339.785156 1646.308594 1336.757812 1644.214844 1334.046875 1645.007812 C 1319.113281 1649.367188 1307.515625 1660.25 1302.984375 1675.246094 C 1302.226562 1677.757812 1305.496094 1680.917969 1307.421875 1681.0625 C 1316.683594 1681.746094 1311.460938 1662.4375 1336.65625 1654.816406 M 1580.128906 1652.265625 C 1582.613281 1654.222656 1585.6875 1653.484375 1587.433594 1651.808594 C 1588.628906 1650.660156 1589.054688 1646.84375 1587.507812 1645.496094 C 1569.234375 1629.527344 1544.1875 1627.125 1521.613281 1634.734375 C 1518.613281 1635.746094 1517.113281 1639.140625 1518.417969 1641.722656 C 1519.402344 1643.671875 1522.421875 1645.140625 1524.925781 1644.289062 C 1543.753906 1637.894531 1564.136719 1639.664062 1580.128906 1652.265625 M 1443.121094 1646.972656 C 1445.203125 1645.632812 1444.9375 1641.398438 1443.464844 1639.867188 C 1441.734375 1638.066406 1438.433594 1637.789062 1436.203125 1639.140625 C 1422.378906 1647.507812 1406.066406 1645.285156 1395.011719 1633.890625 C 1377.710938 1616.066406 1351.714844 1617.640625 1330.769531 1629.132812 C 1328.238281 1630.519531 1327.597656 1634.242188 1328.949219 1636.398438 C 1330.496094 1638.867188 1333.863281 1639.125 1336.527344 1637.609375 C 1353.289062 1628.09375 1374.1875 1627.636719 1388.777344 1641.96875 C 1403.953125 1656.878906 1425.992188 1657.960938 1443.121094 1646.972656 M 1492.570312 1629.679688 C 1494.820312 1631.179688 1498.570312 1629.414062 1499.429688 1627.9375 C 1500.183594 1626.648438 1500.265625 1622.953125 1498.882812 1621.945312 C 1477.496094 1606.351562 1449.425781 1604.714844 1426.609375 1617.851562 C 1424.269531 1619.199219 1423.539062 1622.3125 1424.199219 1624.386719 C 1424.855469 1626.449219 1428.546875 1628.230469 1430.78125 1626.957031 C 1450.324219 1615.824219 1473.582031 1617.007812 1492.570312 1629.679688 M 1621.957031 1679.3125 C 1559.929688 1711.304688 1470.839844 1716.632812 1402.492188 1711.433594 C 1360.511719 1708.242188 1312.132812 1699.675781 1274.5 1680.257812 C 1267.878906 1674.09375 1263.519531 1665.367188 1265.003906 1656.007812 C 1266.09375 1649.136719 1270.511719 1643.3125 1275.726562 1638.789062 C 1297.160156 1620.191406 1336.957031 1609.753906 1365.066406 1605.183594 C 1419.964844 1596.257812 1475.441406 1596.234375 1530.300781 1605.445312 C 1555.722656 1609.714844 1629.328125 1626.867188 1630.628906 1659 C 1630.949219 1666.878906 1626.863281 1673.574219 1621.957031 1679.3125 "></path><path style=" stroke:none;fill-rule:nonzero;fill:rgb(100%,100%,100%);fill-opacity:1;" d="M 1492.570312 1629.679688 C 1473.582031 1617.007812 1450.324219 1615.824219 1430.78125 1626.957031 C 1428.546875 1628.230469 1424.855469 1626.449219 1424.199219 1624.386719 C 1423.539062 1622.3125 1424.269531 1619.199219 1426.609375 1617.851562 C 1449.425781 1604.714844 1477.496094 1606.347656 1498.882812 1621.945312 C 1500.265625 1622.953125 1500.183594 1626.648438 1499.429688 1627.9375 C 1498.570312 1629.414062 1494.820312 1631.183594 1492.570312 1629.679688 "></path><path style=" stroke:none;fill-rule:nonzero;fill:rgb(100%,100%,100%);fill-opacity:1;" d="M 1443.121094 1646.972656 C 1425.992188 1657.960938 1403.953125 1656.878906 1388.777344 1641.96875 C 1374.1875 1627.636719 1353.289062 1628.09375 1336.527344 1637.609375 C 1333.859375 1639.125 1330.496094 1638.867188 1328.949219 1636.398438 C 1327.597656 1634.242188 1328.238281 1630.519531 1330.769531 1629.132812 C 1351.714844 1617.640625 1377.710938 1616.066406 1395.011719 1633.894531 C 1406.066406 1645.285156 1422.375 1647.507812 1436.203125 1639.140625 C 1438.433594 1637.789062 1441.734375 1638.066406 1443.464844 1639.867188 C 1444.9375 1641.398438 1445.203125 1645.636719 1443.121094 1646.972656 "></path><path style=" stroke:none;fill-rule:nonzero;fill:rgb(100%,100%,100%);fill-opacity:1;" d="M 1190.515625 1888.253906 C 1217.890625 1889.046875 1243.984375 1886.601562 1269.972656 1881.117188 C 1281.226562 1878.738281 1291.164062 1874.207031 1299.449219 1866.519531 C 1310.40625 1856.347656 1314.5 1839.449219 1305.445312 1826.167969 L 1197 1667.023438 L 1180.3125 1642.695312 C 1176.367188 1636.941406 1169.800781 1633.925781 1162.839844 1635.300781 C 1157.070312 1636.441406 1151.183594 1641.117188 1149.847656 1648.050781 L 1134.054688 1730.070312 C 1130.054688 1750.855469 1126.910156 1770.816406 1124.964844 1791.917969 C 1122.203125 1821.914062 1125.652344 1858.253906 1152.179688 1876.789062 C 1163.3125 1884.5625 1176.144531 1887.835938 1190.515625 1888.253906 M 1274.210938 1890.347656 C 1245.554688 1896.859375 1194.488281 1902.667969 1166.328125 1894.613281 C 1130.777344 1884.449219 1116.125 1851.816406 1114.519531 1816.984375 C 1113.652344 1798.179688 1115.035156 1780.175781 1118.484375 1761.472656 L 1139.304688 1648.679688 C 1141.472656 1636.929688 1148.707031 1628.253906 1159.46875 1625.566406 C 1171.5625 1622.546875 1182.394531 1627.671875 1189.253906 1637.773438 L 1241.839844 1715.226562 L 1313.902344 1820.683594 C 1325.164062 1837.167969 1321.214844 1858.402344 1307.945312 1872.0625 C 1298.6875 1881.59375 1287.410156 1887.347656 1274.210938 1890.347656 "></path><path style=" stroke:none;fill-rule:nonzero;fill:rgb(100%,100%,100%);fill-opacity:1;" d="M 787.957031 1625.460938 C 789.988281 1624.03125 794.214844 1624.777344 795.667969 1626.769531 C 796.730469 1628.230469 796.320312 1631.300781 794.898438 1632.851562 C 793.679688 1634.183594 789.699219 1634.109375 788.140625 1633.179688 C 786.226562 1632.039062 785.796875 1626.976562 787.957031 1625.460938 "></path><path style=" stroke:none;fill-rule:nonzero;fill:rgb(100%,100%,100%);fill-opacity:1;" d="M 925.730469 1631.351562 C 928.300781 1630.539062 931.839844 1632.507812 932.265625 1634.242188 C 932.746094 1636.210938 931.300781 1640.070312 929.554688 1640.492188 C 927.527344 1640.976562 924.496094 1639.921875 923.386719 1638.523438 C 922.183594 1637.015625 923.34375 1632.101562 925.730469 1631.351562 "></path><path style=" stroke:none;fill-rule:nonzero;fill:rgb(0%,0%,0%);fill-opacity:1;" d="M 1264.089844 1835.535156 C 1259.441406 1835.726562 1255.980469 1840.210938 1256.425781 1844.363281 C 1256.914062 1848.878906 1260.945312 1851.796875 1265.398438 1851.269531 C 1269.308594 1850.800781 1272.757812 1847.304688 1272.5 1842.769531 C 1272.273438 1838.761719 1268.804688 1835.339844 1264.089844 1835.535156 M 1177.507812 1860.921875 C 1161.859375 1858.808594 1151.597656 1846.617188 1149.179688 1831.78125 C 1148.648438 1828.523438 1145.492188 1826.292969 1142.632812 1827.097656 C 1140.019531 1827.828125 1138.488281 1830.816406 1139.003906 1833.707031 C 1142.554688 1853.617188 1156.808594 1868.679688 1177.011719 1871.0625 C 1180.019531 1871.417969 1182.65625 1869.1875 1182.777344 1866.445312 C 1182.894531 1863.789062 1181.011719 1861.394531 1177.507812 1860.921875 M 1181.984375 1821.6875 C 1177.582031 1824 1176.828125 1829.601562 1179.179688 1833.0625 C 1181.421875 1836.359375 1185.925781 1837.304688 1189.179688 1835.632812 C 1193.316406 1833.507812 1194.589844 1828.664062 1192.933594 1825.246094 C 1190.988281 1821.238281 1186.285156 1819.429688 1181.984375 1821.6875 M 1219.289062 1760.382812 C 1214.769531 1761.441406 1212.292969 1766.191406 1213.414062 1770.007812 C 1214.65625 1774.234375 1219.320312 1776.363281 1222.96875 1775.441406 C 1227.679688 1774.25 1229.941406 1770.109375 1228.617188 1765.617188 C 1227.582031 1762.105469 1223.421875 1759.414062 1219.289062 1760.382812 M 1160.910156 1754.710938 C 1156.339844 1756.285156 1154.523438 1761.148438 1156.164062 1765.175781 C 1157.53125 1768.527344 1161.742188 1770.992188 1165.910156 1769.390625 C 1169.4375 1768.039062 1171.96875 1764.203125 1170.621094 1759.828125 C 1169.597656 1756.507812 1165.621094 1753.082031 1160.910156 1754.710938 M 1173.949219 1687.648438 C 1169.125 1688.726562 1166.855469 1693.074219 1167.988281 1697.386719 C 1168.941406 1701.011719 1173.117188 1703.664062 1177.121094 1702.691406 C 1181.152344 1701.714844 1183.984375 1698.101562 1183.1875 1693.542969 C 1182.558594 1689.9375 1178.808594 1686.566406 1173.949219 1687.648438 M 1190.515625 1888.253906 C 1176.144531 1887.835938 1163.3125 1884.5625 1152.179688 1876.785156 C 1125.652344 1858.253906 1122.203125 1821.914062 1124.964844 1791.917969 C 1126.910156 1770.816406 1130.054688 1750.855469 1134.054688 1730.070312 L 1149.847656 1648.050781 C 1151.183594 1641.117188 1157.074219 1636.441406 1162.839844 1635.300781 C 1169.800781 1633.925781 1176.367188 1636.941406 1180.3125 1642.695312 L 1197 1667.023438 L 1305.445312 1826.167969 C 1314.5 1839.449219 1310.40625 1856.347656 1299.449219 1866.515625 C 1291.164062 1874.207031 1281.226562 1878.738281 1269.96875 1881.117188 C 1243.984375 1886.601562 1217.890625 1889.050781 1190.515625 1888.253906 "></path><path style=" stroke:none;fill-rule:nonzero;fill:rgb(100%,100%,100%);fill-opacity:1;" d="M 1336.65625 1654.816406 C 1311.460938 1662.4375 1316.683594 1681.75 1307.421875 1681.0625 C 1305.496094 1680.917969 1302.226562 1677.757812 1302.984375 1675.25 C 1307.515625 1660.25 1319.113281 1649.367188 1334.046875 1645.007812 C 1336.757812 1644.214844 1339.785156 1646.3125 1340.3125 1648.871094 C 1340.730469 1650.886719 1339.007812 1654.101562 1336.65625 1654.816406 "></path><path style=" stroke:none;fill-rule:nonzero;fill:rgb(100%,100%,100%);fill-opacity:1;" d="M 1445.796875 1683.449219 C 1430.65625 1689.710938 1412.882812 1689.367188 1400.445312 1678.488281 C 1376.496094 1657.53125 1359.8125 1676.285156 1353.773438 1670.542969 C 1352.5625 1669.390625 1352.046875 1664.671875 1353.570312 1663.816406 C 1371.472656 1653.753906 1392.253906 1657.464844 1407.21875 1670.652344 C 1417.089844 1679.351562 1431.082031 1679.050781 1442.566406 1673.664062 C 1444.949219 1672.546875 1448.464844 1674.046875 1449.265625 1675.855469 C 1450.65625 1679.007812 1449.535156 1681.902344 1445.796875 1683.449219 "></path><path style=" stroke:none;fill-rule:nonzero;fill:rgb(100%,100%,100%);fill-opacity:1;" d="M 923.101562 1683.800781 C 923.175781 1685.804688 919.714844 1688.90625 917.949219 1689.003906 C 916.179688 1689.101562 912.664062 1686 912.894531 1684.160156 L 914.199219 1673.625 C 914.339844 1672.488281 917.082031 1671.003906 918.214844 1670.914062 C 919.347656 1670.824219 922.65625 1672.164062 922.695312 1673.226562 Z M 923.101562 1683.800781 "></path><path style=" stroke:none;fill-rule:nonzero;fill:rgb(100%,100%,100%);fill-opacity:1;" d="M 1513.96875 1697.769531 C 1494.472656 1689.3125 1474.296875 1690.601562 1456.726562 1703.074219 C 1454.753906 1704.472656 1450.976562 1703.402344 1449.851562 1701.644531 C 1448.171875 1699.027344 1449.128906 1696.019531 1451.769531 1694.085938 C 1471.054688 1679.96875 1495.742188 1678.402344 1517.496094 1688.433594 C 1519.957031 1689.570312 1521.246094 1692.238281 1520.835938 1694.457031 C 1520.320312 1697.242188 1516.863281 1699.023438 1513.96875 1697.769531 "></path><path style=" stroke:none;fill-rule:nonzero;fill:rgb(100%,100%,100%);fill-opacity:1;" d="M 772.65625 1697.683594 L 766.628906 1690.90625 C 765.585938 1689.730469 765.964844 1685.660156 766.914062 1684.449219 C 771.15625 1679.027344 777.992188 1688.125 780.347656 1691.203125 C 781.351562 1692.507812 780.316406 1696.832031 779.0625 1697.839844 C 777.804688 1698.847656 773.710938 1698.867188 772.65625 1697.683594 "></path><path style=" stroke:none;fill-rule:nonzero;fill:rgb(100%,100%,100%);fill-opacity:1;" d="M 1173.949219 1687.648438 C 1178.808594 1686.566406 1182.558594 1689.9375 1183.1875 1693.542969 C 1183.984375 1698.101562 1181.152344 1701.714844 1177.121094 1702.691406 C 1173.117188 1703.660156 1168.941406 1701.011719 1167.988281 1697.386719 C 1166.851562 1693.070312 1169.125 1688.722656 1173.949219 1687.648438 "></path><path style=" stroke:none;fill-rule:nonzero;fill:rgb(100%,100%,100%);fill-opacity:1;" d="M 827.597656 1719.136719 C 823.375 1714.914062 815.144531 1709.585938 818.90625 1704.71875 C 819.875 1703.464844 824.148438 1702.496094 825.382812 1703.519531 L 832.917969 1709.765625 C 834.019531 1710.675781 834.8125 1714.617188 833.792969 1715.523438 C 832.726562 1716.472656 831.015625 1717.347656 827.597656 1719.136719 "></path><path style=" stroke:none;fill-rule:nonzero;fill:rgb(100%,100%,100%);fill-opacity:1;" d="M 853.539062 1711.707031 C 855.914062 1710.863281 859.71875 1712.285156 860.542969 1714.230469 C 861.257812 1715.914062 860.125 1719.445312 858.539062 1720.355469 C 856.914062 1721.292969 852.667969 1720.617188 851.464844 1719.25 C 849.910156 1717.480469 850.800781 1712.679688 853.539062 1711.707031 "></path><path style=" stroke:none;fill-rule:nonzero;fill:rgb(0%,0%,0%);fill-opacity:1;" d="M 825.835938 1741.796875 C 795.570312 1754.46875 761.152344 1755.921875 728.867188 1745.320312 C 744.183594 1738.21875 758.503906 1730.546875 772.78125 1720.890625 C 789.113281 1730.03125 805.699219 1736.101562 825.835938 1741.796875 "></path><path style=" stroke:none;fill-rule:nonzero;fill:rgb(100%,100%,100%);fill-opacity:1;" d="M 1160.910156 1754.710938 C 1165.621094 1753.085938 1169.59375 1756.507812 1170.621094 1759.824219 C 1171.96875 1764.203125 1169.4375 1768.039062 1165.914062 1769.390625 C 1161.742188 1770.992188 1157.53125 1768.527344 1156.164062 1765.175781 C 1154.523438 1761.148438 1156.339844 1756.285156 1160.910156 1754.710938 "></path><path style=" stroke:none;fill-rule:nonzero;fill:rgb(100%,100%,100%);fill-opacity:1;" d="M 1219.289062 1760.382812 C 1223.421875 1759.414062 1227.582031 1762.105469 1228.617188 1765.621094 C 1229.941406 1770.109375 1227.679688 1774.25 1222.96875 1775.441406 C 1219.320312 1776.363281 1214.65625 1774.234375 1213.414062 1770.007812 C 1212.292969 1766.191406 1214.769531 1761.441406 1219.289062 1760.382812 "></path><path style=" stroke:none;fill-rule:nonzero;fill:rgb(100%,100%,100%);fill-opacity:1;" d="M 852.136719 1770.433594 C 849.246094 1772.582031 839.476562 1779.949219 837.042969 1773.953125 C 836.453125 1772.496094 836.996094 1768.433594 838.316406 1767.570312 L 846.144531 1762.46875 C 847.53125 1761.5625 851.289062 1762.3125 852.4375 1763.5 C 853.585938 1764.683594 853.503906 1769.414062 852.136719 1770.433594 "></path><path style=" stroke:none;fill-rule:nonzero;fill:rgb(100%,100%,100%);fill-opacity:1;" d="M 805.769531 1766.5625 C 807.792969 1766.242188 811.097656 1768.289062 811.507812 1769.910156 C 812.027344 1771.984375 810.203125 1775.699219 808.179688 1776.289062 C 806.226562 1776.863281 802.570312 1774.753906 801.941406 1772.9375 C 801.171875 1770.710938 803.03125 1766.996094 805.769531 1766.5625 "></path><path style=" stroke:none;fill-rule:nonzero;fill:rgb(100%,100%,100%);fill-opacity:1;" d="M 791.195312 1792.949219 C 786.613281 1791.144531 782.472656 1789.785156 780.023438 1788.441406 C 778.578125 1787.652344 777.542969 1783.582031 778.367188 1782.199219 C 779.195312 1780.808594 782.773438 1778.910156 784.316406 1779.417969 L 792.25 1782.03125 C 793.671875 1782.5 795.894531 1785.800781 795.519531 1787.257812 C 795.148438 1788.722656 793.359375 1790.710938 791.195312 1792.949219 "></path><path style=" stroke:none;fill-rule:nonzero;fill:rgb(100%,100%,100%);fill-opacity:1;" d="M 1181.984375 1821.6875 C 1186.285156 1819.429688 1190.988281 1821.238281 1192.929688 1825.246094 C 1194.589844 1828.664062 1193.316406 1833.507812 1189.175781 1835.632812 C 1185.925781 1837.304688 1181.421875 1836.359375 1179.179688 1833.0625 C 1176.828125 1829.601562 1177.585938 1824 1181.984375 1821.6875 "></path><path style=" stroke:none;fill-rule:nonzero;fill:rgb(100%,100%,100%);fill-opacity:1;" d="M 1177.507812 1860.921875 C 1181.011719 1861.394531 1182.894531 1863.792969 1182.777344 1866.445312 C 1182.65625 1869.1875 1180.019531 1871.417969 1177.011719 1871.0625 C 1156.808594 1868.679688 1142.554688 1853.617188 1139.003906 1833.707031 C 1138.488281 1830.816406 1140.019531 1827.828125 1142.632812 1827.097656 C 1145.492188 1826.292969 1148.648438 1828.523438 1149.179688 1831.78125 C 1151.597656 1846.617188 1161.859375 1858.808594 1177.507812 1860.921875 "></path><path style=" stroke:none;fill-rule:nonzero;fill:rgb(0%,0%,0%);fill-opacity:1;" d="M 1537.429688 1849.648438 C 1533.589844 1861.214844 1507.660156 1868.289062 1496.402344 1870.453125 C 1464.949219 1876.507812 1433.074219 1876.867188 1401.503906 1871.40625 C 1388.972656 1869.234375 1360.261719 1862.523438 1354.886719 1850.382812 C 1352.796875 1845.671875 1353.394531 1839.992188 1353.964844 1834.714844 C 1408.722656 1856.945312 1482.785156 1856.929688 1538.105469 1834.683594 C 1538.515625 1839.558594 1539.035156 1844.808594 1537.429688 1849.648438 "></path><path style=" stroke:none;fill-rule:nonzero;fill:rgb(100%,100%,100%);fill-opacity:1;" d="M 1264.089844 1835.535156 C 1268.804688 1835.339844 1272.273438 1838.761719 1272.5 1842.769531 C 1272.757812 1847.304688 1269.308594 1850.800781 1265.398438 1851.269531 C 1260.945312 1851.796875 1256.914062 1848.878906 1256.425781 1844.363281 C 1255.980469 1840.210938 1259.441406 1835.726562 1264.089844 1835.535156 "></path></g></svg>