<?xml version='1.0' encoding='utf-8'?>
<svg xmlns="http://www.w3.org/2000/svg" viewBox="5225.65 839.34 518.76 374.83" width="80" height="80" fill="none"><g><path style=" stroke:none;fill-rule:nonzero;fill:rgb(100%,100%,100%);fill-opacity:1;" d="M 5592.609375 1181.492188 C 5597.027344 1178.386719 5601.59375 1167.457031 5603.199219 1162.65625 C 5646.808594 1147.625 5695.664062 1130.769531 5711.882812 1079.644531 L 5258.871094 1079.601562 C 5276.371094 1130.28125 5324.199219 1148.75 5369.039062 1162.59375 C 5371.078125 1168.613281 5373.328125 1176.144531 5376.382812 1178.890625 C 5379.058594 1181.292969 5387.535156 1181.957031 5391.949219 1181.945312 Z M 5633.640625 1067.84375 C 5628.507812 1050.542969 5615.949219 1045.503906 5603.71875 1046.441406 C 5592.527344 1047.304688 5581.523438 1054.847656 5580.089844 1068.324219 Z M 5399.90625 1067.925781 C 5394.824219 1048.757812 5381.066406 1043.558594 5366.980469 1044.851562 C 5355.171875 1045.933594 5342.140625 1053.027344 5341.171875 1068.378906 Z M 5464.566406 1068.367188 L 5566.546875 1068.1875 C 5573.109375 1048.832031 5586.835938 1035.960938 5605.921875 1035.777344 C 5624.824219 1035.59375 5639.9375 1048.3125 5644.554688 1067.867188 L 5656.480469 1067.179688 C 5656.082031 1046.433594 5638.957031 1030.195312 5622.261719 1025.125 C 5600.53125 1018.527344 5580.808594 1026.035156 5566.820312 1041.953125 C 5535.378906 1077.738281 5500.910156 1065.894531 5460.425781 1053.242188 C 5458.863281 1054.996094 5460.84375 1068.371094 5464.566406 1068.367188 M 5533.222656 1023.476562 C 5521.972656 1016.640625 5508.035156 1016.960938 5499.332031 1028.652344 C 5511.722656 1033.917969 5523.308594 1031.167969 5533.222656 1023.476562 M 5411.75 1068.089844 L 5424.210938 1067.160156 C 5422.398438 1039.273438 5397.273438 1019.328125 5369.824219 1019.675781 C 5342.820312 1020.019531 5318.429688 1039.503906 5315.464844 1068.171875 L 5328.890625 1066.574219 C 5334.21875 1045.023438 5351.457031 1032.914062 5371.992188 1033.84375 C 5391.207031 1034.714844 5406.785156 1046.441406 5411.75 1068.089844 M 5559.507812 1034.347656 C 5576.839844 1015.214844 5600.828125 1006.8125 5626.78125 1015.269531 C 5646.515625 1021.695312 5664.253906 1042.613281 5667.71875 1065.371094 C 5668.226562 1068.710938 5679.882812 1068.878906 5680.015625 1065.808594 C 5678.714844 1037.9375 5657.738281 1011.699219 5633.753906 1003.25 C 5604.945312 993.101562 5574.417969 999.167969 5553.023438 1020.191406 C 5515.984375 1056.597656 5494.511719 1039.546875 5448.125 1023.214844 C 5449.21875 1028.105469 5453.789062 1037.96875 5457.730469 1039.871094 C 5491.339844 1056.089844 5532.015625 1064.691406 5559.507812 1034.347656 M 5540.179688 1016.207031 L 5549.820312 1007.3125 C 5524.558594 987.96875 5490.949219 994.601562 5473.96875 1021.066406 C 5492.765625 1038.328125 5496.117188 991.355469 5540.179688 1016.207031 M 5436.324219 1066.222656 C 5439.382812 1067.914062 5447.582031 1068.296875 5449.75 1066.679688 C 5446.105469 1024.597656 5412.371094 995.050781 5370.734375 995.046875 C 5329.257812 995.039062 5294.359375 1024.195312 5290.789062 1066.613281 C 5293.875 1068.121094 5301.710938 1068.082031 5304.277344 1066.136719 C 5309.777344 1032.203125 5338.707031 1008.0625 5371.925781 1008.632812 C 5404.402344 1009.191406 5431.433594 1033.261719 5436.324219 1066.222656 M 5440.765625 1008.480469 L 5458.710938 984.378906 C 5442.515625 972.035156 5420.035156 973.394531 5404.050781 989.644531 Z M 5558.304688 999.882812 C 5560.277344 1001.460938 5569.425781 996.175781 5570.140625 993.886719 C 5535.429688 960.667969 5476.796875 968.328125 5452.988281 1010.660156 C 5451.421875 1013.464844 5463.675781 1017.859375 5465.535156 1014.867188 C 5485.066406 983.433594 5528.347656 975.921875 5558.304688 999.882812 M 5461.628906 973.421875 C 5468.128906 977.566406 5474.355469 976.84375 5478.285156 969.71875 C 5447.902344 944.941406 5402.699219 950.21875 5380.222656 982.269531 C 5389.0625 990.621094 5394.9375 985.101562 5400.753906 979.25 C 5416.171875 963.722656 5442.335938 961.117188 5461.628906 973.421875 M 5595.375 986.558594 C 5559.820312 943.136719 5554.972656 963.007812 5511.257812 954.183594 C 5520.796875 971.71875 5543.914062 952.773438 5580.066406 987.734375 C 5583.074219 990.640625 5592.839844 990.03125 5595.375 986.558594 M 5608.152344 986.246094 C 5610.140625 988.449219 5620.03125 989.242188 5622.152344 988.589844 C 5621.730469 973.808594 5581.246094 932.984375 5574.308594 951.960938 C 5587.480469 961.210938 5599.542969 973.238281 5608.152344 986.246094 M 5484.039062 960.667969 C 5490.390625 965.882812 5496.910156 967.777344 5504.097656 962.441406 C 5483.214844 937.886719 5451.753906 928.484375 5420.664062 933.289062 C 5392.816406 937.585938 5365.816406 954.722656 5353.828125 984.25 C 5362.746094 987.375 5367.785156 981.617188 5372.792969 974.65625 C 5398.378906 939.089844 5450.332031 932.980469 5484.039062 960.667969 M 5497.648438 907.453125 L 5513.660156 933.507812 C 5523.851562 904.8125 5501.988281 882.042969 5477.378906 876.6875 C 5468.242188 903.855469 5477.796875 931.363281 5504.265625 939.90625 L 5490.898438 909.71875 C 5490.296875 908.359375 5489.898438 902.65625 5491.105469 903.132812 C 5492.3125 903.605469 5496.511719 905.601562 5497.648438 907.453125 M 5536.519531 945.808594 C 5582.285156 951.71875 5601.4375 911.871094 5603.203125 873.597656 C 5590.953125 874.382812 5580.769531 875.4375 5569.699219 877.796875 C 5540.191406 884.085938 5523.429688 911.261719 5527.941406 938.558594 C 5528.941406 930.824219 5583.503906 883.027344 5578.246094 897.488281 C 5573.398438 910.832031 5547.605469 922.085938 5536.519531 945.808594 M 5612.109375 1170.480469 C 5608.269531 1186.066406 5598.074219 1193.6875 5583.054688 1193.71875 L 5389.714844 1194.125 C 5370.019531 1194.167969 5368.914062 1181.078125 5357.523438 1172.824219 C 5336.179688 1159.945312 5308.164062 1155.855469 5288.085938 1138.601562 C 5268.863281 1122.085938 5252.976562 1104.394531 5246.636719 1078.8125 C 5245.652344 1074.84375 5249.625 1068.277344 5253 1068.210938 L 5279.304688 1067.714844 C 5281.578125 1030.644531 5304.90625 1001.90625 5339.996094 989.109375 C 5357.300781 935.121094 5413.085938 909.859375 5470.4375 926.027344 C 5460.429688 905.984375 5461.726562 885.582031 5470.636719 864.304688 C 5492.132812 868.195312 5513.984375 879.84375 5523.292969 901.125 C 5540.015625 869.613281 5578.609375 859.339844 5613.773438 865.039062 C 5613.058594 892.742188 5607.496094 917.699219 5591.382812 938.546875 C 5614.699219 950.742188 5627.847656 969.03125 5635.695312 992.128906 C 5668.152344 1005.667969 5689.777344 1032.75 5691.527344 1067.628906 L 5720.707031 1069.144531 C 5724.136719 1069.472656 5724.414062 1080.570312 5723.074219 1084.371094 C 5706.136719 1132.480469 5661.488281 1157.601562 5612.109375 1170.480469 "></path><path style=" stroke:none;fill-rule:nonzero;fill:rgb(0%,0%,0%);fill-opacity:1;" d="M 5536.519531 945.804688 C 5547.605469 922.085938 5573.398438 910.832031 5578.25 897.488281 C 5583.503906 883.027344 5528.941406 930.824219 5527.941406 938.558594 C 5523.429688 911.261719 5540.191406 884.085938 5569.699219 877.796875 C 5580.769531 875.4375 5590.953125 874.382812 5603.203125 873.601562 C 5601.4375 911.875 5582.285156 951.71875 5536.519531 945.804688 "></path><path style=" stroke:none;fill-rule:nonzero;fill:rgb(0%,0%,0%);fill-opacity:1;" d="M 5497.648438 907.453125 C 5496.511719 905.601562 5492.3125 903.605469 5491.105469 903.132812 C 5489.898438 902.65625 5490.296875 908.359375 5490.898438 909.71875 L 5504.265625 939.90625 C 5477.796875 931.363281 5468.242188 903.855469 5477.375 876.6875 C 5501.988281 882.042969 5523.851562 904.8125 5513.660156 933.507812 Z M 5497.648438 907.453125 "></path><path style=" stroke:none;fill-rule:nonzero;fill:rgb(0%,0%,0%);fill-opacity:1;" d="M 5484.039062 960.667969 C 5450.332031 932.976562 5398.378906 939.089844 5372.792969 974.65625 C 5367.785156 981.617188 5362.746094 987.375 5353.828125 984.25 C 5365.816406 954.722656 5392.816406 937.585938 5420.664062 933.289062 C 5451.753906 928.484375 5483.214844 937.886719 5504.097656 962.441406 C 5496.910156 967.777344 5490.390625 965.882812 5484.039062 960.667969 "></path><path style=" stroke:none;fill-rule:nonzero;fill:rgb(0%,0%,0%);fill-opacity:1;" d="M 5608.148438 986.246094 C 5599.542969 973.234375 5587.480469 961.210938 5574.308594 951.960938 C 5581.246094 932.984375 5621.730469 973.808594 5622.152344 988.589844 C 5620.03125 989.242188 5610.140625 988.453125 5608.148438 986.246094 "></path><path style=" stroke:none;fill-rule:nonzero;fill:rgb(0%,0%,0%);fill-opacity:1;" d="M 5595.375 986.558594 C 5592.839844 990.03125 5583.074219 990.640625 5580.066406 987.734375 C 5543.914062 952.773438 5520.796875 971.71875 5511.257812 954.183594 C 5554.972656 963.007812 5559.820312 943.136719 5595.375 986.558594 "></path><path style=" stroke:none;fill-rule:nonzero;fill:rgb(0%,0%,0%);fill-opacity:1;" d="M 5461.628906 973.421875 C 5442.335938 961.117188 5416.171875 963.722656 5400.75 979.25 C 5394.9375 985.101562 5389.058594 990.621094 5380.222656 982.265625 C 5402.699219 950.21875 5447.902344 944.941406 5478.285156 969.71875 C 5474.355469 976.84375 5468.128906 977.566406 5461.628906 973.421875 "></path><path style=" stroke:none;fill-rule:nonzero;fill:rgb(0%,0%,0%);fill-opacity:1;" d="M 5558.304688 999.882812 C 5528.347656 975.921875 5485.0625 983.433594 5465.535156 1014.867188 C 5463.679688 1017.859375 5451.421875 1013.464844 5452.988281 1010.660156 C 5476.796875 968.328125 5535.429688 960.667969 5570.140625 993.886719 C 5569.425781 996.175781 5560.277344 1001.460938 5558.304688 999.882812 "></path><path style=" stroke:none;fill-rule:nonzero;fill:rgb(0%,0%,0%);fill-opacity:1;" d="M 5440.765625 1008.480469 L 5404.050781 989.644531 C 5420.035156 973.394531 5442.515625 972.035156 5458.710938 984.378906 Z M 5440.765625 1008.480469 "></path><path style=" stroke:none;fill-rule:nonzero;fill:rgb(0%,0%,0%);fill-opacity:1;" d="M 5540.175781 1016.207031 C 5496.117188 991.355469 5492.765625 1038.328125 5473.96875 1021.066406 C 5490.949219 994.601562 5524.558594 987.96875 5549.820312 1007.3125 Z M 5540.175781 1016.207031 "></path><path style=" stroke:none;fill-rule:nonzero;fill:rgb(0%,0%,0%);fill-opacity:1;" d="M 5559.507812 1034.34375 C 5532.015625 1064.6875 5491.339844 1056.089844 5457.734375 1039.871094 C 5453.789062 1037.96875 5449.21875 1028.105469 5448.125 1023.214844 C 5494.511719 1039.546875 5515.984375 1056.597656 5553.027344 1020.191406 C 5574.417969 999.167969 5604.945312 993.101562 5633.753906 1003.25 C 5657.738281 1011.699219 5678.710938 1037.9375 5680.015625 1065.808594 C 5679.886719 1068.878906 5668.226562 1068.710938 5667.71875 1065.371094 C 5664.253906 1042.613281 5646.511719 1021.695312 5626.78125 1015.269531 C 5600.828125 1006.8125 5576.839844 1015.214844 5559.507812 1034.34375 "></path><path style=" stroke:none;fill-rule:nonzero;fill:rgb(0%,0%,0%);fill-opacity:1;" d="M 5436.324219 1066.222656 C 5431.433594 1033.261719 5404.402344 1009.191406 5371.925781 1008.632812 C 5338.707031 1008.066406 5309.773438 1032.203125 5304.273438 1066.136719 C 5301.707031 1068.082031 5293.878906 1068.121094 5290.789062 1066.613281 C 5294.359375 1024.195312 5329.257812 995.039062 5370.738281 995.046875 C 5412.371094 995.050781 5446.105469 1024.597656 5449.75 1066.679688 C 5447.582031 1068.296875 5439.382812 1067.914062 5436.324219 1066.222656 "></path><path style=" stroke:none;fill-rule:nonzero;fill:rgb(0%,0%,0%);fill-opacity:1;" d="M 5533.222656 1023.476562 C 5523.308594 1031.167969 5511.722656 1033.917969 5499.332031 1028.652344 C 5508.035156 1016.960938 5521.972656 1016.640625 5533.222656 1023.476562 "></path><path style=" stroke:none;fill-rule:nonzero;fill:rgb(0%,0%,0%);fill-opacity:1;" d="M 5464.566406 1068.367188 C 5460.84375 1068.371094 5458.859375 1054.996094 5460.425781 1053.242188 C 5500.910156 1065.894531 5535.378906 1077.738281 5566.820312 1041.953125 C 5580.808594 1026.035156 5600.53125 1018.527344 5622.261719 1025.125 C 5638.957031 1030.195312 5656.082031 1046.433594 5656.480469 1067.175781 L 5644.554688 1067.867188 C 5639.9375 1048.3125 5624.824219 1035.59375 5605.917969 1035.777344 C 5586.839844 1035.960938 5573.109375 1048.832031 5566.546875 1068.183594 Z M 5464.566406 1068.367188 "></path><path style=" stroke:none;fill-rule:nonzero;fill:rgb(0%,0%,0%);fill-opacity:1;" d="M 5411.75 1068.089844 C 5406.785156 1046.441406 5391.207031 1034.714844 5371.992188 1033.84375 C 5351.457031 1032.914062 5334.21875 1045.019531 5328.890625 1066.574219 L 5315.464844 1068.171875 C 5318.429688 1039.5 5342.820312 1020.019531 5369.824219 1019.675781 C 5397.273438 1019.328125 5422.398438 1039.273438 5424.210938 1067.160156 Z M 5411.75 1068.089844 "></path><path style=" stroke:none;fill-rule:nonzero;fill:rgb(0%,0%,0%);fill-opacity:1;" d="M 5399.90625 1067.925781 L 5341.171875 1068.378906 C 5342.140625 1053.027344 5355.171875 1045.933594 5366.980469 1044.851562 C 5381.066406 1043.558594 5394.824219 1048.757812 5399.90625 1067.925781 "></path><path style=" stroke:none;fill-rule:nonzero;fill:rgb(0%,0%,0%);fill-opacity:1;" d="M 5633.640625 1067.84375 L 5580.089844 1068.324219 C 5581.523438 1054.847656 5592.527344 1047.304688 5603.71875 1046.441406 C 5615.949219 1045.503906 5628.507812 1050.542969 5633.640625 1067.84375 "></path><path style=" stroke:none;fill-rule:nonzero;fill:rgb(0%,0%,0%);fill-opacity:1;" d="M 5592.609375 1181.492188 L 5391.949219 1181.945312 C 5387.535156 1181.957031 5379.058594 1181.292969 5376.382812 1178.890625 C 5373.328125 1176.144531 5371.078125 1168.613281 5369.039062 1162.59375 C 5324.199219 1148.75 5276.371094 1130.28125 5258.871094 1079.601562 L 5711.882812 1079.644531 C 5695.664062 1130.769531 5646.808594 1147.625 5603.199219 1162.65625 C 5601.59375 1167.457031 5597.027344 1178.386719 5592.609375 1181.492188 "></path></g></svg>