<?xml version='1.0' encoding='utf-8'?>
<svg xmlns="http://www.w3.org/2000/svg" viewBox="2286.45 109.98 447.96 476.38" width="80" height="80" fill="none"><g><path style=" stroke:none;fill-rule:nonzero;fill:rgb(100%,100%,100%);fill-opacity:1;" d="M 2563.695312 541.402344 C 2572.535156 538.371094 2575.683594 530.046875 2571.789062 522.207031 C 2525.550781 538.480469 2476.292969 538.507812 2430.023438 522.3125 C 2425.875 530.207031 2428.964844 538.304688 2437.121094 541.074219 C 2478.144531 555.011719 2521.628906 555.824219 2563.695312 541.402344 M 2328.597656 397.234375 C 2354.464844 480.730469 2430.144531 530.933594 2517.164062 523.785156 C 2589.457031 517.847656 2650.941406 468.457031 2673.203125 397.414062 C 2582.296875 446.304688 2419.550781 445.734375 2328.597656 397.234375 M 2432.464844 386.632812 C 2436.082031 372.738281 2429.433594 362.566406 2417.648438 358.800781 C 2402.796875 354.058594 2382.976562 357.203125 2378.578125 374.691406 Z M 2677.550781 381.644531 L 2680.78125 357.757812 C 2659.011719 372.332031 2637.722656 383.152344 2611.539062 388.878906 C 2526.160156 407.550781 2396.3125 409.738281 2320.519531 358.171875 C 2321.925781 366.734375 2323.769531 374.632812 2326.300781 383.867188 C 2402.339844 435.457031 2602.207031 438.261719 2677.550781 381.644531 M 2415.515625 329.695312 C 2436.285156 332.605469 2451.109375 343.070312 2460.039062 361.011719 L 2472.046875 352.164062 C 2440.363281 310.132812 2378.398438 307.902344 2344.757812 347.050781 C 2342.863281 349.253906 2338.609375 356.015625 2340.835938 357.269531 L 2350.765625 362.859375 C 2361.417969 337.550781 2387.347656 325.746094 2415.515625 329.695312 M 2447.933594 319.25 L 2444.578125 308.246094 L 2423.902344 311.382812 Z M 2600.550781 374.882812 L 2615.835938 359.679688 C 2616.425781 354.105469 2618.714844 346.269531 2621.472656 340.582031 C 2619.777344 336.125 2617.007812 325.058594 2613.984375 320.960938 L 2601.480469 304.011719 L 2580.59375 302.207031 C 2575.476562 301.761719 2563.867188 305.332031 2559.914062 306.78125 C 2557.347656 313.203125 2549.289062 318.925781 2545.449219 322.582031 L 2540.703125 346.046875 C 2548.386719 355.160156 2540.601562 368.160156 2563.269531 375.957031 C 2587.46875 384.28125 2582.871094 378.183594 2600.550781 374.882812 M 2443.375 297.570312 L 2447.238281 275.492188 C 2417.175781 275.296875 2313.222656 299.578125 2319.171875 335.847656 C 2319.980469 340.769531 2326.503906 347.964844 2330.703125 350.707031 C 2350.085938 312.644531 2406.789062 305.128906 2443.375 297.570312 M 2534.351562 386.464844 C 2541.847656 387.441406 2549.941406 390.105469 2555.144531 387.445312 C 2550.972656 377.945312 2545.769531 374.652344 2537.527344 371.757812 L 2536.085938 356.414062 C 2535.132812 354.042969 2528.335938 350.082031 2529.273438 347.617188 L 2533.566406 336.324219 C 2534.867188 332.914062 2533.988281 325.242188 2534.203125 319.992188 C 2534.375 315.75 2545.476562 312.273438 2548.699219 309.382812 C 2551.117188 307.214844 2552.535156 297.921875 2555.710938 297.238281 L 2569.128906 294.34375 C 2572.25 293.671875 2578.355469 289.207031 2581.515625 289.34375 C 2584.675781 289.480469 2590.324219 293.753906 2593.613281 294.160156 C 2602.148438 295.210938 2612.089844 295.074219 2612.804688 306.378906 L 2626.238281 313.980469 C 2624.917969 325.097656 2627.183594 331.859375 2632.652344 339.363281 L 2626.683594 352.671875 C 2625.351562 355.636719 2628.511719 364.128906 2625.765625 366.054688 L 2611.316406 376.179688 C 2615.242188 379.128906 2642.480469 370.195312 2646.328125 364.082031 C 2650.214844 357.898438 2632.976562 361.144531 2637.4375 349.324219 C 2638.125 347.5 2643.9375 346.789062 2645.316406 348.105469 L 2657.3125 359.566406 L 2661.769531 356.367188 C 2662.367188 355.941406 2661.359375 351.695312 2660.816406 350.949219 C 2645.441406 329.890625 2629.449219 331.347656 2637.847656 321.226562 C 2652.578125 326.648438 2663.46875 337.28125 2672.949219 350.289062 C 2677.96875 345.101562 2682.671875 337.609375 2682.082031 332.535156 C 2677.070312 289.488281 2562.324219 272.574219 2525.015625 273.191406 L 2520.839844 295.863281 L 2543.480469 299.933594 C 2535.621094 305.421875 2532.152344 305.714844 2523.9375 308.132812 C 2522.351562 311.472656 2524.84375 321.890625 2527.554688 328.96875 C 2510.542969 340.027344 2489.300781 342.273438 2469.074219 336.71875 L 2483.375 351.453125 L 2519.074219 343.113281 L 2520.203125 350.355469 C 2520.382812 351.488281 2516.9375 353.640625 2515.585938 353.902344 L 2477.464844 361.328125 C 2454.292969 365.839844 2469.933594 378.585938 2453.390625 382.101562 C 2453.832031 365.414062 2448.921875 353.730469 2435.507812 345.78125 C 2391.941406 319.96875 2353.558594 359.179688 2361.292969 367.753906 C 2362.644531 369.257812 2367.984375 372.152344 2369.09375 370.464844 L 2372.972656 364.574219 C 2383.144531 349.113281 2402.800781 344.597656 2420.140625 350.238281 C 2435.085938 355.101562 2443.390625 368.128906 2442.160156 384.636719 C 2444.710938 387.179688 2454.871094 389.621094 2459.125 388.695312 C 2462.578125 387.945312 2465.945312 383.203125 2470.109375 379.320312 C 2481.683594 368.523438 2525.488281 349.074219 2526.023438 366.066406 C 2505.621094 370.101562 2486.714844 373.546875 2472.429688 388.835938 C 2476.90625 389.996094 2484.816406 390.761719 2488.71875 389.652344 C 2496.023438 379.570312 2528.636719 365.980469 2529.148438 379.398438 L 2501.222656 389.054688 C 2512.882812 397.332031 2524.9375 385.238281 2534.351562 386.464844 M 2465.476562 273.785156 C 2473.960938 250.035156 2455.476562 248.375 2464.867188 203.929688 C 2449.421875 212.933594 2452.097656 231.859375 2456.15625 245.453125 C 2459.9375 258.109375 2459.101562 269.191406 2454.765625 282.160156 C 2449.5 297.914062 2455.90625 333.503906 2463.585938 326.742188 C 2470.105469 321.007812 2454.101562 305.625 2465.476562 273.785156 M 2482.578125 272.511719 C 2484.191406 268.074219 2484.851562 257.585938 2483.257812 253.132812 C 2477.015625 235.703125 2480.09375 221.042969 2480.992188 200.652344 C 2464.957031 214.347656 2469.3125 234.601562 2474.511719 251.003906 C 2482.683594 276.777344 2460.308594 275.929688 2474.4375 327.773438 C 2494.953125 336.941406 2469.339844 308.945312 2482.578125 272.511719 M 2497.101562 281.867188 C 2510.71875 240.769531 2487.765625 257.824219 2499.523438 203.035156 C 2499.839844 201.570312 2494.117188 198.761719 2493.425781 200.085938 C 2486.605469 213.125 2485.003906 231.484375 2490.550781 248.652344 C 2494.71875 261.5625 2490.417969 272.820312 2487.273438 286.054688 C 2484.878906 296.125 2490.085938 328.609375 2493.828125 330.621094 C 2508.535156 338.53125 2490.273438 302.46875 2497.101562 281.867188 M 2515.445312 276.8125 C 2524.898438 245.667969 2504.929688 244.4375 2515.792969 204.230469 C 2516.316406 202.289062 2514.050781 195.9375 2512.777344 196.980469 C 2504.542969 203.746094 2502.214844 229.722656 2505.1875 238.570312 C 2519.289062 280.527344 2491.492188 277.667969 2509.992188 328.539062 C 2524.691406 324.480469 2506.707031 305.597656 2515.445312 276.8125 M 2553.085938 214.21875 L 2701.074219 200.6875 C 2702.953125 199.878906 2701.738281 190.398438 2699.554688 190.671875 L 2521.003906 213.121094 C 2529.730469 220.40625 2540.433594 215.375 2553.085938 214.21875 M 2690.496094 150.617188 C 2692.90625 150.136719 2695.277344 143.324219 2693.667969 142.445312 C 2692.460938 141.785156 2688.964844 140.746094 2687.238281 141.160156 L 2427.328125 203.335938 Z M 2436.5 551.5 C 2421.214844 546.023438 2414.453125 534.738281 2418.574219 518 C 2348.214844 482.546875 2310.953125 416.460938 2308.285156 338.160156 C 2306.445312 284.121094 2409.511719 269.242188 2450.929688 264.101562 L 2444.71875 233.566406 L 2428.742188 233.429688 C 2425.789062 233.40625 2421.699219 226.183594 2422.542969 223.378906 C 2426.566406 210.027344 2447.078125 218.511719 2450.058594 210.007812 L 2428.535156 211.929688 C 2425.273438 212.222656 2418.910156 207.976562 2418.230469 204.738281 C 2417.566406 201.578125 2421.636719 195.167969 2425.761719 194.1875 L 2691.992188 131.0625 C 2696.558594 129.980469 2702.296875 138.417969 2703.058594 142.160156 C 2703.820312 145.898438 2702.28125 156.777344 2698.453125 157.570312 L 2524.878906 193.449219 C 2522.242188 193.996094 2525.769531 204.148438 2529.15625 203.726562 L 2702.03125 182.328125 C 2713.507812 180.90625 2714.402344 204.542969 2707.105469 208.378906 L 2520.457031 225.980469 L 2527.746094 263.238281 C 2570.863281 264.515625 2671.503906 277.246094 2690.292969 321.933594 C 2700.359375 402.496094 2656.308594 481.019531 2583.828125 517.046875 C 2586.722656 535.519531 2579.871094 546.902344 2562.929688 552.46875 C 2522.136719 565.875 2477.96875 566.359375 2436.5 551.5 "></path><path style=" stroke:none;fill-rule:nonzero;fill:rgb(0%,0%,0%);fill-opacity:1;" d="M 2690.496094 150.617188 L 2427.328125 203.335938 L 2687.238281 141.160156 C 2688.964844 140.746094 2692.460938 141.785156 2693.667969 142.445312 C 2695.277344 143.324219 2692.90625 150.136719 2690.496094 150.617188 "></path><path style=" stroke:none;fill-rule:nonzero;fill:rgb(0%,0%,0%);fill-opacity:1;" d="M 2553.085938 214.21875 C 2540.433594 215.375 2529.730469 220.410156 2521.003906 213.121094 L 2699.554688 190.671875 C 2701.738281 190.398438 2702.953125 199.878906 2701.074219 200.6875 Z M 2553.085938 214.21875 "></path><path style=" stroke:none;fill-rule:nonzero;fill:rgb(0%,0%,0%);fill-opacity:1;" d="M 2515.445312 276.8125 C 2506.707031 305.597656 2524.691406 324.476562 2509.992188 328.539062 C 2491.492188 277.667969 2519.289062 280.527344 2505.1875 238.570312 C 2502.214844 229.722656 2504.542969 203.746094 2512.777344 196.980469 C 2514.050781 195.9375 2516.316406 202.289062 2515.792969 204.230469 C 2504.929688 244.4375 2524.898438 245.667969 2515.445312 276.8125 "></path><path style=" stroke:none;fill-rule:nonzero;fill:rgb(0%,0%,0%);fill-opacity:1;" d="M 2497.101562 281.863281 C 2490.273438 302.46875 2508.535156 338.53125 2493.832031 330.625 C 2490.085938 328.609375 2484.878906 296.125 2487.269531 286.054688 C 2490.417969 272.820312 2494.722656 261.5625 2490.550781 248.648438 C 2485.003906 231.484375 2486.605469 213.125 2493.425781 200.085938 C 2494.117188 198.761719 2499.839844 201.570312 2499.527344 203.035156 C 2487.765625 257.824219 2510.71875 240.769531 2497.101562 281.863281 "></path><path style=" stroke:none;fill-rule:nonzero;fill:rgb(0%,0%,0%);fill-opacity:1;" d="M 2482.578125 272.511719 C 2469.339844 308.945312 2494.953125 336.941406 2474.4375 327.769531 C 2460.308594 275.929688 2482.683594 276.777344 2474.511719 251.003906 C 2469.3125 234.601562 2464.957031 214.347656 2480.992188 200.652344 C 2480.09375 221.042969 2477.015625 235.703125 2483.257812 253.132812 C 2484.851562 257.585938 2484.191406 268.074219 2482.578125 272.511719 "></path><path style=" stroke:none;fill-rule:nonzero;fill:rgb(0%,0%,0%);fill-opacity:1;" d="M 2465.476562 273.785156 C 2454.101562 305.625 2470.105469 321.007812 2463.585938 326.742188 C 2455.902344 333.503906 2449.5 297.914062 2454.765625 282.160156 C 2459.101562 269.191406 2459.9375 258.109375 2456.15625 245.453125 C 2452.097656 231.859375 2449.421875 212.933594 2464.867188 203.929688 C 2455.476562 248.375 2473.960938 250.035156 2465.476562 273.785156 "></path><path style=" stroke:none;fill-rule:nonzero;fill:rgb(0%,0%,0%);fill-opacity:1;" d="M 2534.351562 386.464844 C 2524.933594 385.238281 2512.882812 397.332031 2501.226562 389.054688 L 2529.148438 379.398438 C 2528.636719 365.980469 2496.023438 379.574219 2488.71875 389.652344 C 2484.816406 390.761719 2476.90625 389.996094 2472.429688 388.835938 C 2486.714844 373.546875 2505.621094 370.101562 2526.019531 366.070312 C 2525.492188 349.078125 2481.683594 368.523438 2470.109375 379.324219 C 2465.945312 383.203125 2462.578125 387.945312 2459.125 388.695312 C 2454.871094 389.625 2444.710938 387.179688 2442.160156 384.636719 C 2443.390625 368.128906 2435.085938 355.101562 2420.140625 350.238281 C 2402.800781 344.597656 2383.144531 349.113281 2372.972656 364.574219 L 2369.09375 370.464844 C 2367.984375 372.152344 2362.644531 369.257812 2361.292969 367.753906 C 2353.558594 359.179688 2391.941406 319.96875 2435.507812 345.785156 C 2448.917969 353.730469 2453.832031 365.414062 2453.390625 382.101562 C 2469.933594 378.582031 2454.292969 365.839844 2477.464844 361.328125 L 2515.585938 353.902344 C 2516.9375 353.640625 2520.382812 351.488281 2520.203125 350.355469 L 2519.074219 343.113281 L 2483.375 351.453125 L 2469.074219 336.71875 C 2489.300781 342.273438 2510.542969 340.03125 2527.554688 328.96875 C 2524.84375 321.890625 2522.351562 311.472656 2523.9375 308.132812 C 2532.152344 305.714844 2535.621094 305.421875 2543.480469 299.933594 L 2520.839844 295.863281 L 2525.015625 273.191406 C 2562.324219 272.574219 2677.070312 289.488281 2682.082031 332.535156 C 2682.671875 337.609375 2677.96875 345.101562 2672.949219 350.289062 C 2663.46875 337.28125 2652.574219 326.648438 2637.847656 321.226562 C 2629.449219 331.347656 2645.441406 329.890625 2660.816406 350.949219 C 2661.359375 351.695312 2662.367188 355.941406 2661.769531 356.367188 L 2657.3125 359.566406 L 2645.3125 348.105469 C 2643.9375 346.789062 2638.125 347.5 2637.433594 349.324219 C 2632.976562 361.144531 2650.214844 357.898438 2646.328125 364.082031 C 2642.480469 370.195312 2615.246094 379.125 2611.320312 376.179688 L 2625.765625 366.054688 C 2628.511719 364.132812 2625.351562 355.636719 2626.683594 352.671875 L 2632.652344 339.363281 C 2627.183594 331.859375 2624.917969 325.101562 2626.238281 313.980469 L 2612.804688 306.378906 C 2612.089844 295.074219 2602.148438 295.210938 2593.613281 294.160156 C 2590.324219 293.753906 2584.675781 289.480469 2581.515625 289.34375 C 2578.355469 289.207031 2572.25 293.671875 2569.128906 294.34375 L 2555.710938 297.238281 C 2552.535156 297.921875 2551.117188 307.214844 2548.699219 309.382812 C 2545.476562 312.273438 2534.375 315.75 2534.203125 319.992188 C 2533.988281 325.242188 2534.867188 332.914062 2533.566406 336.324219 L 2529.269531 347.617188 C 2528.335938 350.082031 2535.132812 354.042969 2536.085938 356.414062 L 2537.527344 371.757812 C 2545.769531 374.652344 2550.972656 377.945312 2555.144531 387.445312 C 2549.941406 390.105469 2541.847656 387.441406 2534.351562 386.464844 "></path><path style=" stroke:none;fill-rule:nonzero;fill:rgb(0%,0%,0%);fill-opacity:1;" d="M 2443.375 297.570312 C 2406.789062 305.128906 2350.085938 312.644531 2330.703125 350.707031 C 2326.503906 347.964844 2319.980469 340.769531 2319.171875 335.847656 C 2313.222656 299.578125 2417.175781 275.296875 2447.238281 275.492188 Z M 2443.375 297.570312 "></path><path style=" stroke:none;fill-rule:nonzero;fill:rgb(0%,0%,0%);fill-opacity:1;" d="M 2583.941406 354.011719 C 2575.570312 360.023438 2565.582031 352.492188 2563.035156 346.535156 C 2559.53125 338.359375 2564.285156 329.660156 2573.066406 325.285156 C 2578.648438 322.503906 2589.273438 323.523438 2594.621094 328.300781 C 2598.644531 331.898438 2602.328125 340.648438 2606.707031 348.117188 C 2615.542969 332.136719 2600.359375 320.746094 2587.8125 316.886719 C 2575.46875 313.089844 2559.046875 320.03125 2555.136719 333.515625 C 2552.246094 343.488281 2555.476562 354.15625 2563.484375 359.726562 C 2569.171875 363.679688 2578.589844 365.726562 2586.703125 361.691406 C 2593.726562 358.195312 2596.964844 349.902344 2595.421875 343.429688 C 2593.90625 337.09375 2585.792969 331.421875 2578.445312 333.414062 C 2576.871094 333.839844 2573.707031 336.378906 2572.777344 337.664062 C 2571.847656 338.949219 2573.191406 344.605469 2574.550781 344.238281 L 2584.171875 341.5 C 2585.992188 340.984375 2587.789062 345.839844 2587.644531 347.726562 C 2587.535156 349.140625 2585.324219 353.015625 2583.941406 354.011719 M 2600.546875 374.882812 C 2582.871094 378.183594 2587.464844 384.28125 2563.269531 375.957031 C 2540.601562 368.15625 2548.386719 355.15625 2540.703125 346.046875 L 2545.449219 322.582031 C 2549.289062 318.925781 2557.34375 313.203125 2559.914062 306.78125 C 2563.867188 305.332031 2575.476562 301.765625 2580.59375 302.207031 L 2601.480469 304.011719 L 2613.984375 320.960938 C 2617.007812 325.058594 2619.777344 336.125 2621.472656 340.582031 C 2618.714844 346.265625 2616.425781 354.105469 2615.835938 359.679688 Z M 2600.546875 374.882812 "></path><path style=" stroke:none;fill-rule:nonzero;fill:rgb(0%,0%,0%);fill-opacity:1;" d="M 2415.515625 329.695312 C 2387.347656 325.746094 2361.417969 337.550781 2350.765625 362.859375 L 2340.835938 357.269531 C 2338.609375 356.015625 2342.863281 349.253906 2344.757812 347.050781 C 2378.398438 307.902344 2440.363281 310.132812 2472.046875 352.164062 L 2460.039062 361.011719 C 2451.109375 343.070312 2436.285156 332.605469 2415.515625 329.695312 "></path><path style=" stroke:none;fill-rule:nonzero;fill:rgb(0%,0%,0%);fill-opacity:1;" d="M 2447.933594 319.25 L 2423.902344 311.382812 L 2444.578125 308.246094 Z M 2447.933594 319.25 "></path><path style=" stroke:none;fill-rule:nonzero;fill:rgb(100%,100%,100%);fill-opacity:1;" d="M 2583.941406 354.011719 C 2585.324219 353.015625 2587.535156 349.140625 2587.644531 347.726562 C 2587.789062 345.839844 2585.992188 340.984375 2584.171875 341.5 L 2574.550781 344.238281 C 2573.191406 344.605469 2571.847656 338.949219 2572.777344 337.664062 C 2573.707031 336.378906 2576.871094 333.839844 2578.445312 333.414062 C 2585.792969 331.421875 2593.90625 337.09375 2595.421875 343.429688 C 2596.964844 349.902344 2593.726562 358.195312 2586.703125 361.691406 C 2578.589844 365.726562 2569.171875 363.679688 2563.484375 359.726562 C 2555.476562 354.15625 2552.246094 343.488281 2555.136719 333.515625 C 2559.046875 320.03125 2575.46875 313.089844 2587.8125 316.886719 C 2600.359375 320.746094 2615.542969 332.136719 2606.707031 348.117188 C 2602.328125 340.648438 2598.644531 331.898438 2594.621094 328.300781 C 2589.273438 323.523438 2578.648438 322.503906 2573.066406 325.285156 C 2564.285156 329.660156 2559.53125 338.359375 2563.035156 346.535156 C 2565.582031 352.492188 2575.570312 360.023438 2583.941406 354.011719 "></path><path style=" stroke:none;fill-rule:nonzero;fill:rgb(0%,0%,0%);fill-opacity:1;" d="M 2419.125 378.8125 C 2413.296875 364.613281 2403.503906 364.472656 2395.234375 371.460938 C 2404.121094 374.648438 2412.3125 377.242188 2419.125 378.8125 M 2432.460938 386.632812 L 2378.578125 374.691406 C 2382.976562 357.203125 2402.796875 354.058594 2417.648438 358.804688 C 2429.433594 362.566406 2436.082031 372.738281 2432.460938 386.632812 "></path><path style=" stroke:none;fill-rule:nonzero;fill:rgb(0%,0%,0%);fill-opacity:1;" d="M 2677.550781 381.644531 C 2602.207031 438.261719 2402.339844 435.457031 2326.300781 383.867188 C 2323.769531 374.632812 2321.925781 366.734375 2320.519531 358.171875 C 2396.3125 409.738281 2526.160156 407.550781 2611.539062 388.878906 C 2637.722656 383.152344 2659.011719 372.332031 2680.78125 357.757812 Z M 2677.550781 381.644531 "></path><path style=" stroke:none;fill-rule:nonzero;fill:rgb(100%,100%,100%);fill-opacity:1;" d="M 2419.125 378.8125 C 2412.3125 377.242188 2404.121094 374.648438 2395.234375 371.460938 C 2403.503906 364.472656 2413.296875 364.613281 2419.125 378.8125 "></path><path style=" stroke:none;fill-rule:nonzero;fill:rgb(0%,0%,0%);fill-opacity:1;" d="M 2328.597656 397.234375 C 2419.550781 445.734375 2582.296875 446.304688 2673.203125 397.414062 C 2650.941406 468.457031 2589.457031 517.847656 2517.164062 523.785156 C 2430.144531 530.933594 2354.46875 480.730469 2328.597656 397.234375 "></path></g></svg>