<?xml version='1.0' encoding='utf-8'?>
<svg xmlns="http://www.w3.org/2000/svg" viewBox="4503.43 802.03 455.75 451.15" width="80" height="80" fill="none"><g><path style=" stroke:none;fill-rule:nonzero;fill:rgb(100%,100%,100%);fill-opacity:1;" d="M 4800.894531 950.433594 C 4781.921875 950.605469 4777.332031 980.613281 4747.050781 965.3125 C 4719.355469 951.316406 4713.222656 980.5625 4676.171875 964.152344 C 4666.699219 959.957031 4656.160156 961.527344 4647.171875 965.789062 C 4614.957031 981.070312 4611.0625 946.003906 4590.242188 950.5 C 4585.910156 951.4375 4579.542969 957.203125 4576.578125 962.078125 C 4537.203125 1026.839844 4572.550781 1125.242188 4603.199219 1188.328125 C 4608.320312 1198.867188 4616.746094 1207.902344 4628.328125 1210.890625 C 4673.425781 1222.53125 4719.601562 1222.683594 4764.484375 1211.710938 C 4778.847656 1208.199219 4786.492188 1199.371094 4792.703125 1186.734375 C 4815.648438 1140.042969 4832.191406 1091.519531 4835.882812 1039.253906 C 4837.964844 1009.859375 4825.816406 950.207031 4800.894531 950.433594 M 4731.347656 926.722656 L 4745.789062 951.011719 C 4750.316406 958.621094 4764.710938 962.628906 4772.066406 956.558594 L 4786.539062 944.625 L 4774.183594 922.511719 C 4787.976562 909.945312 4787.726562 958.738281 4827.59375 937.175781 L 4799.246094 905.808594 C 4750.566406 928.964844 4644.851562 929.179688 4596.25 905.414062 L 4567.234375 936.574219 C 4583.957031 948.191406 4603.0625 941.785156 4611.582031 925.285156 C 4612.246094 924 4614.734375 921.441406 4615.851562 920.550781 C 4616.972656 919.664062 4620.945312 921.542969 4621.402344 922.894531 C 4621.859375 924.246094 4621.078125 928.484375 4620.089844 929.734375 L 4608.3125 944.585938 L 4624.886719 957.652344 C 4628.847656 960.777344 4640.335938 958.851562 4644.953125 956.503906 C 4675.277344 941.078125 4679.886719 967.730469 4714.007812 956.335938 L 4732.890625 950.03125 C 4730.265625 941.015625 4726.199219 935.980469 4731.347656 926.722656 M 4796.761719 870.574219 C 4742.566406 892.039062 4651.070312 891.589844 4599.066406 870.890625 C 4598.210938 877.625 4598.320312 888.277344 4600.613281 896.835938 C 4651.003906 918.273438 4747.121094 919.238281 4796.097656 896.222656 Z M 4796.429688 855.167969 C 4768.015625 829.800781 4622.792969 829.445312 4598.792969 856.230469 C 4625.113281 882.765625 4774.433594 883.195312 4796.429688 855.167969 M 4767.25 1221.171875 C 4719.910156 1233.175781 4671.195312 1232.289062 4625.277344 1220.542969 C 4609.421875 1216.484375 4600.117188 1206.441406 4593.25 1192.660156 C 4560.464844 1126.84375 4523.425781 1018.917969 4570.089844 952.324219 L 4551.992188 936.527344 L 4587.117188 898.101562 C 4588.070312 884.097656 4587.523438 869.074219 4589.464844 854.066406 C 4590.578125 845.457031 4605.65625 838.019531 4614.691406 835.773438 C 4669.464844 822.152344 4726.054688 822.027344 4780.796875 835.734375 C 4789.390625 837.882812 4804.972656 844.976562 4805.40625 852.535156 L 4808.050781 898.667969 L 4839.933594 934.882812 C 4841.835938 940.257812 4831.792969 948.058594 4824.503906 951.695312 C 4871.695312 1018.675781 4834.324219 1127.699219 4801.023438 1194.511719 C 4794.238281 1208.121094 4783.660156 1217.011719 4767.25 1221.171875 "></path><path style=" stroke:none;fill-rule:nonzero;fill:rgb(100%,100%,100%);fill-opacity:1;" d="M 4897.15625 996.628906 C 4905.039062 943.628906 4922.707031 897.503906 4925.824219 845.085938 C 4906.800781 883.050781 4910.261719 924.09375 4898.238281 962.902344 C 4894.804688 973.992188 4894.8125 987.175781 4897.15625 996.628906 M 4872.921875 841.308594 C 4872.785156 839.558594 4865.792969 835.839844 4865.433594 837.476562 C 4865.191406 838.578125 4864.253906 842.238281 4864.628906 845.132812 L 4887 1018.003906 Z M 4912.59375 1216.414062 C 4912.765625 1218.527344 4910.992188 1221.722656 4910.136719 1222.945312 C 4909.296875 1224.144531 4903.402344 1221.195312 4903.097656 1218.882812 L 4885.648438 1087.042969 L 4857.226562 1214.664062 C 4856.746094 1216.828125 4853.308594 1219.554688 4851.515625 1219.515625 C 4849.730469 1219.476562 4846.738281 1213.898438 4847.132812 1211.714844 L 4878.644531 1037.90625 L 4855.117188 845.976562 C 4854.210938 838.585938 4857.8125 830.589844 4862.761719 828.695312 C 4867.828125 826.757812 4880.53125 829.414062 4881.136719 835.789062 L 4891.738281 947.378906 L 4909.851562 852.089844 C 4911.671875 842.527344 4916.199219 837.078125 4925.953125 838.332031 C 4933.4375 839.292969 4939.175781 846.304688 4937.152344 855.503906 L 4897.78125 1034.632812 Z M 4912.59375 1216.414062 "></path><path style=" stroke:none;fill-rule:nonzero;fill:rgb(0%,0%,0%);fill-opacity:1;" d="M 4796.433594 855.167969 C 4774.433594 883.195312 4625.113281 882.765625 4598.792969 856.230469 C 4622.792969 829.445312 4768.015625 829.800781 4796.433594 855.167969 "></path><path style=" stroke:none;fill-rule:nonzero;fill:rgb(0%,0%,0%);fill-opacity:1;" d="M 4872.921875 841.308594 L 4887 1018.003906 L 4864.628906 845.136719 C 4864.253906 842.238281 4865.191406 838.578125 4865.433594 837.476562 C 4865.796875 835.839844 4872.785156 839.558594 4872.921875 841.308594 "></path><path style=" stroke:none;fill-rule:nonzero;fill:rgb(0%,0%,0%);fill-opacity:1;" d="M 4897.15625 996.628906 C 4894.8125 987.175781 4894.804688 973.992188 4898.238281 962.902344 C 4910.261719 924.09375 4906.800781 883.050781 4925.824219 845.085938 C 4922.707031 897.503906 4905.039062 943.628906 4897.15625 996.628906 "></path><path style=" stroke:none;fill-rule:nonzero;fill:rgb(0%,0%,0%);fill-opacity:1;" d="M 4796.761719 870.574219 L 4796.097656 896.21875 C 4747.121094 919.238281 4651.003906 918.273438 4600.613281 896.835938 C 4598.320312 888.277344 4598.210938 877.625 4599.066406 870.890625 C 4651.070312 891.589844 4742.566406 892.039062 4796.761719 870.574219 "></path><path style=" stroke:none;fill-rule:nonzero;fill:rgb(0%,0%,0%);fill-opacity:1;" d="M 4731.347656 926.722656 C 4726.199219 935.980469 4730.265625 941.015625 4732.890625 950.03125 L 4714.007812 956.335938 C 4679.886719 967.730469 4675.277344 941.078125 4644.953125 956.503906 C 4640.335938 958.851562 4628.851562 960.777344 4624.886719 957.652344 L 4608.308594 944.585938 L 4620.089844 929.734375 C 4621.078125 928.484375 4621.859375 924.246094 4621.402344 922.894531 C 4620.945312 921.539062 4616.972656 919.664062 4615.855469 920.550781 C 4614.734375 921.441406 4612.246094 924 4611.582031 925.285156 C 4603.0625 941.785156 4583.957031 948.191406 4567.234375 936.574219 L 4596.25 905.414062 C 4644.851562 929.179688 4750.566406 928.964844 4799.246094 905.808594 L 4827.59375 937.175781 C 4787.726562 958.738281 4787.976562 909.945312 4774.183594 922.511719 L 4786.539062 944.621094 L 4772.066406 956.5625 C 4764.710938 962.628906 4750.3125 958.621094 4745.789062 951.011719 Z M 4731.347656 926.722656 "></path><path style=" stroke:none;fill-rule:nonzero;fill:rgb(0%,0%,0%);fill-opacity:1;" d="M 4768.835938 1198.398438 C 4770.578125 1197.933594 4773.445312 1194.230469 4773.738281 1192.871094 C 4774.039062 1191.484375 4768.726562 1188.742188 4766.347656 1189.484375 C 4727.105469 1201.667969 4667.605469 1200.875 4626.71875 1189.28125 C 4624.128906 1188.546875 4620.777344 1194.207031 4621.96875 1194.96875 C 4623.121094 1195.703125 4626.609375 1198.226562 4628.734375 1198.769531 C 4671.554688 1209.6875 4722.753906 1210.621094 4768.835938 1198.398438 M 4774.507812 1098.910156 C 4794.285156 1082.921875 4790.601562 1049.96875 4778.667969 1029.875 C 4774.335938 1022.578125 4776.695312 1009.363281 4767.152344 1003.5 C 4760.917969 999.667969 4746.988281 1000.140625 4740.765625 997.757812 C 4706.4375 979.539062 4703.523438 996.804688 4666.566406 1016.121094 C 4659.53125 1019.792969 4659.480469 1034.488281 4655.441406 1041.496094 C 4648.3125 1053.878906 4637.289062 1064.246094 4628.316406 1074.425781 C 4607.992188 1097.488281 4610.511719 1126.78125 4631.382812 1146.972656 C 4658.917969 1173.609375 4697.214844 1171.050781 4721.84375 1141.507812 C 4749.378906 1108.480469 4761.789062 1132.074219 4774.507812 1098.910156 M 4800.894531 950.433594 C 4825.816406 950.207031 4837.964844 1009.859375 4835.886719 1039.253906 C 4832.191406 1091.519531 4815.648438 1140.042969 4792.703125 1186.734375 C 4786.492188 1199.371094 4778.847656 1208.199219 4764.484375 1211.710938 C 4719.601562 1222.683594 4673.425781 1222.53125 4628.328125 1210.890625 C 4616.746094 1207.902344 4608.320312 1198.867188 4603.199219 1188.328125 C 4572.550781 1125.242188 4537.203125 1026.839844 4576.578125 962.078125 C 4579.542969 957.203125 4585.910156 951.4375 4590.242188 950.5 C 4611.0625 946.003906 4614.957031 981.070312 4647.171875 965.789062 C 4656.160156 961.527344 4666.699219 959.957031 4676.171875 964.152344 C 4713.222656 980.5625 4719.351562 951.316406 4747.050781 965.3125 C 4777.332031 980.613281 4781.917969 950.605469 4800.894531 950.433594 "></path><path style=" stroke:none;fill-rule:nonzero;fill:rgb(100%,100%,100%);fill-opacity:1;" d="M 4759.585938 1107.039062 L 4777.21875 1080.554688 C 4780.636719 1069.789062 4777.960938 1053.136719 4776.414062 1040.007812 L 4763.058594 1050.46875 L 4767.648438 1021.015625 C 4770.082031 1005.417969 4740.664062 1009.359375 4734.046875 1005.175781 C 4705.9375 987.40625 4698.960938 1014.496094 4670.613281 1024.695312 C 4663.519531 1067.835938 4620.773438 1076.4375 4623.355469 1111.042969 C 4625.523438 1140.128906 4656.15625 1162.273438 4684.816406 1155.59375 C 4710.644531 1149.570312 4719.632812 1120.242188 4759.585938 1107.039062 M 4774.507812 1098.910156 C 4761.789062 1132.074219 4749.378906 1108.480469 4721.84375 1141.507812 C 4697.214844 1171.054688 4658.917969 1173.609375 4631.382812 1146.972656 C 4610.511719 1126.78125 4607.992188 1097.488281 4628.316406 1074.425781 C 4637.289062 1064.246094 4648.3125 1053.875 4655.441406 1041.496094 C 4659.480469 1034.488281 4659.53125 1019.792969 4666.566406 1016.121094 C 4703.523438 996.804688 4706.4375 979.539062 4740.765625 997.757812 C 4746.988281 1000.140625 4760.917969 999.667969 4767.152344 1003.5 C 4776.695312 1009.363281 4774.335938 1022.578125 4778.667969 1029.875 C 4790.601562 1049.96875 4794.285156 1082.921875 4774.507812 1098.910156 "></path><path style=" stroke:none;fill-rule:nonzero;fill:rgb(0%,0%,0%);fill-opacity:1;" d="M 4709.023438 1097.035156 C 4721.890625 1098.996094 4773.988281 1065.71875 4764.269531 1061.996094 L 4760.582031 1060.585938 C 4745.542969 1071.632812 4732.492188 1080.292969 4714.09375 1087.902344 C 4721.394531 1069.378906 4730.316406 1057.335938 4740.878906 1041.375 C 4733.449219 1040.871094 4725.960938 1045.898438 4722.519531 1052.183594 L 4692.351562 1107.28125 C 4684.707031 1121.246094 4667.605469 1137.59375 4650.726562 1129.570312 C 4636.621094 1122.863281 4640.441406 1099.355469 4650.671875 1090.019531 C 4672.09375 1070.476562 4717.339844 1049.761719 4741.152344 1028.566406 C 4725.859375 1021.925781 4721.691406 1037.375 4710.03125 1039.855469 L 4710.625 1019.878906 C 4695.136719 1021.046875 4710.003906 1051.46875 4684.359375 1055.851562 C 4686.15625 1046.554688 4687.617188 1039.769531 4687.363281 1030.246094 C 4675.363281 1039.617188 4677.957031 1052.128906 4672.007812 1063.109375 L 4646.5 1082.695312 C 4638.042969 1089.191406 4633.058594 1101.121094 4632.453125 1110.148438 C 4631.691406 1121.476562 4636.992188 1131.261719 4645.691406 1138.480469 C 4659.191406 1149.679688 4675.535156 1153.113281 4691.277344 1143.28125 C 4724.367188 1122.621094 4711.050781 1109.519531 4753.664062 1097.359375 C 4718.734375 1076.207031 4701.429688 1151.914062 4656.527344 1142.480469 C 4689.507812 1136.925781 4692.417969 1124.878906 4709.023438 1097.035156 M 4759.585938 1107.039062 C 4719.632812 1120.242188 4710.644531 1149.574219 4684.816406 1155.59375 C 4656.15625 1162.273438 4625.523438 1140.128906 4623.355469 1111.042969 C 4620.773438 1076.4375 4663.519531 1067.835938 4670.613281 1024.695312 C 4698.960938 1014.496094 4705.9375 987.40625 4734.046875 1005.179688 C 4740.664062 1009.359375 4770.082031 1005.417969 4767.648438 1021.011719 L 4763.058594 1050.46875 L 4776.414062 1040.003906 C 4777.960938 1053.136719 4780.636719 1069.789062 4777.21875 1080.554688 Z M 4759.585938 1107.039062 "></path><path style=" stroke:none;fill-rule:nonzero;fill:rgb(100%,100%,100%);fill-opacity:1;" d="M 4709.023438 1097.035156 C 4692.417969 1124.878906 4689.507812 1136.925781 4656.527344 1142.480469 C 4701.429688 1151.914062 4718.734375 1076.207031 4753.664062 1097.359375 C 4711.050781 1109.519531 4724.367188 1122.621094 4691.277344 1143.28125 C 4675.535156 1153.113281 4659.191406 1149.679688 4645.691406 1138.480469 C 4636.992188 1131.261719 4631.691406 1121.476562 4632.453125 1110.148438 C 4633.058594 1101.121094 4638.042969 1089.191406 4646.5 1082.695312 L 4672.007812 1063.109375 C 4677.957031 1052.128906 4675.363281 1039.617188 4687.363281 1030.246094 C 4687.617188 1039.769531 4686.15625 1046.554688 4684.359375 1055.851562 C 4710.003906 1051.46875 4695.136719 1021.046875 4710.625 1019.878906 L 4710.03125 1039.855469 C 4721.691406 1037.375 4725.859375 1021.925781 4741.152344 1028.566406 C 4717.339844 1049.761719 4672.09375 1070.476562 4650.671875 1090.019531 C 4640.441406 1099.355469 4636.621094 1122.863281 4650.726562 1129.570312 C 4667.605469 1137.59375 4684.707031 1121.246094 4692.351562 1107.28125 L 4722.519531 1052.183594 C 4725.960938 1045.898438 4733.449219 1040.871094 4740.878906 1041.375 C 4730.316406 1057.335938 4721.394531 1069.378906 4714.09375 1087.902344 C 4732.492188 1080.292969 4745.542969 1071.632812 4760.582031 1060.585938 L 4764.269531 1061.996094 C 4773.988281 1065.71875 4721.890625 1098.996094 4709.023438 1097.035156 "></path></g></svg>