<?xml version='1.0' encoding='utf-8'?>
<svg xmlns="http://www.w3.org/2000/svg" viewBox="3743.57 1481.53 512.30 418.12" width="80" height="80" fill="none"><g><path style=" stroke:none;fill-rule:nonzero;fill:rgb(100%,100%,100%);fill-opacity:1;" d="M 3838.714844 1707.054688 C 3838.953125 1705.078125 3837.871094 1699.824219 3836.78125 1698.171875 L 3826.203125 1682.140625 L 3806.976562 1690.636719 L 3807.046875 1717.679688 C 3823.527344 1708.5 3837.382812 1718 3838.714844 1707.054688 M 3847.65625 1695.800781 C 3848.933594 1697.867188 3853.363281 1700.3125 3855.585938 1699.410156 C 3857.367188 1698.691406 3857.882812 1692.859375 3856.9375 1690.964844 L 3848.015625 1673.082031 C 3846.304688 1669.648438 3847.539062 1660.648438 3849.199219 1657.253906 C 3850.871094 1653.84375 3858.265625 1648.882812 3862.746094 1650.777344 C 3868.019531 1653.015625 3860.980469 1661.007812 3857.125 1664.9375 C 3859.664062 1673.449219 3864.25 1683.195312 3869.613281 1693.414062 C 3897.265625 1625.101562 3943.507812 1567.566406 4019.835938 1549.453125 C 3981.199219 1521.566406 3992.304688 1573.890625 3949.582031 1546.753906 L 3929.125 1589.339844 C 3916.863281 1581.097656 3924.917969 1575.117188 3928.109375 1566.507812 C 3925.722656 1562.976562 3916.960938 1558.898438 3912.09375 1559.050781 C 3892.183594 1559.683594 3900.414062 1583.550781 3891.21875 1589.496094 C 3878.53125 1597.703125 3862.898438 1591.417969 3855.070312 1601.605469 C 3847.011719 1612.09375 3864.464844 1631.335938 3852.65625 1642.511719 L 3827.367188 1646.699219 C 3809.335938 1649.683594 3831.019531 1668.941406 3847.65625 1695.800781 M 4094.171875 1543.261719 C 4090.554688 1527.789062 4072.691406 1543.859375 4065.972656 1536.800781 C 4055.523438 1525.820312 4056.871094 1520.382812 4048.941406 1516.144531 C 4046.535156 1514.859375 4041.25 1518.175781 4038.164062 1520.335938 C 4018.984375 1533.746094 4004.046875 1513.667969 4004.382812 1530.050781 C 4015.539062 1532.246094 4026.9375 1539.40625 4035.261719 1546.46875 C 4070.148438 1545.882812 4101.890625 1553.046875 4130.371094 1573.105469 C 4132.085938 1541.53125 4100.09375 1568.578125 4094.171875 1543.261719 M 3794.332031 1767.019531 L 3800.921875 1774.972656 C 3802.449219 1776.816406 3799.761719 1781.335938 3797.964844 1785.710938 C 3795.539062 1791.617188 3804.484375 1797.785156 3810.1875 1799.6875 L 3811.074219 1812.582031 C 3811.285156 1815.625 3819.359375 1817.519531 3822.542969 1817.992188 L 3829.546875 1819.03125 C 3830.929688 1819.238281 3828.789062 1825.222656 3827.640625 1826.019531 C 3823.789062 1828.6875 3813.472656 1828.90625 3808.375 1826.058594 C 3803.835938 1823.523438 3800.742188 1813.972656 3796.945312 1809.230469 C 3788.457031 1798.625 3788.238281 1790.96875 3785.835938 1779.125 C 3782.238281 1761.363281 3780.332031 1735.574219 3795.511719 1720.742188 C 3796.144531 1712.015625 3795.199219 1697.671875 3796.953125 1687.441406 C 3798.269531 1679.757812 3811.503906 1676.851562 3818.425781 1674.664062 C 3813.605469 1664.855469 3804.414062 1653.734375 3811.664062 1643.84375 C 3816.746094 1636.910156 3829.660156 1635.488281 3838.179688 1633.367188 L 3844.75 1631.730469 C 3848.449219 1630.8125 3835.90625 1612.023438 3846.414062 1595.773438 C 3859.304688 1575.839844 3883.011719 1592.859375 3885.800781 1572.234375 C 3887.183594 1562 3894.40625 1553.058594 3903 1549.875 C 3911.773438 1546.625 3923.683594 1551.503906 3932.707031 1554.125 C 3937.828125 1544.398438 3945.1875 1531.628906 3957.394531 1538.027344 L 3968.261719 1543.722656 C 3974.421875 1546.953125 3989.429688 1531.394531 3995.082031 1522.273438 C 4007.9375 1501.53125 4016.59375 1522.257812 4035.054688 1509.375 C 4039.519531 1506.261719 4048.746094 1503.703125 4053.792969 1505.574219 C 4067.515625 1510.652344 4065.484375 1532.097656 4080.972656 1525.542969 C 4089.5 1521.933594 4097.617188 1526.34375 4101.3125 1534.765625 C 4110.230469 1555.09375 4125.394531 1537.015625 4137.378906 1555.609375 C 4140.996094 1561.21875 4140.574219 1572.3125 4139.910156 1580.96875 C 4153.210938 1591.058594 4193.300781 1656.710938 4177.441406 1662.820312 C 4167.546875 1666.636719 4167.566406 1620.535156 4127.832031 1587.074219 C 4094.550781 1559.046875 4049.761719 1551.453125 4007.785156 1564.730469 C 3965.917969 1577.96875 3932.941406 1606.601562 3908.371094 1643.136719 C 3881.804688 1682.652344 3868.703125 1727.558594 3859.746094 1774.363281 C 3856.128906 1793.265625 3852.660156 1810.984375 3843.097656 1828.316406 C 3833.3125 1822.097656 3839.015625 1815.65625 3840.59375 1808.703125 L 3863.003906 1709.800781 C 3851.902344 1706.992188 3842.078125 1718.660156 3839 1730.53125 L 3820.839844 1723.292969 C 3815.003906 1731.265625 3808.894531 1733.199219 3799.214844 1733.378906 C 3796.109375 1735.714844 3797.75 1745.925781 3798.140625 1750.839844 C 3798.433594 1754.53125 3791.742188 1763.894531 3794.332031 1767.019531 "></path><path style=" stroke:none;fill-rule:nonzero;fill:rgb(100%,100%,100%);fill-opacity:1;" d="M 3837.9375 1838.160156 L 4108.761719 1720.574219 C 4109.90625 1729.1875 4104.902344 1734.785156 4097.996094 1737.792969 L 3845.640625 1847.539062 C 3818.71875 1859.246094 3791.824219 1851.1875 3778.242188 1825.339844 C 3768.257812 1806.335938 3764.132812 1784.402344 3764.046875 1761.542969 C 3763.566406 1635.589844 3845.558594 1514.570312 3979.578125 1512.496094 C 3981.796875 1512.460938 3985.945312 1514.875 3987.15625 1516.277344 C 3988.632812 1517.988281 3982.042969 1523.617188 3978.75 1523.703125 C 3850.191406 1527.042969 3771.605469 1649.429688 3775.742188 1769.75 C 3776.40625 1788.972656 3781.316406 1807.628906 3790.722656 1823.320312 C 3800.183594 1839.109375 3818.449219 1846.625 3837.9375 1838.160156 "></path><path style=" stroke:none;fill-rule:nonzero;fill:rgb(0%,0%,0%);fill-opacity:1;" d="M 4094.171875 1543.261719 C 4100.09375 1568.578125 4132.085938 1541.53125 4130.371094 1573.109375 C 4101.890625 1553.046875 4070.148438 1545.882812 4035.261719 1546.464844 C 4026.9375 1539.40625 4015.539062 1532.242188 4004.382812 1530.050781 C 4004.046875 1513.667969 4018.984375 1533.746094 4038.164062 1520.335938 C 4041.25 1518.175781 4046.535156 1514.855469 4048.941406 1516.144531 C 4056.871094 1520.382812 4055.523438 1525.820312 4065.972656 1536.800781 C 4072.691406 1543.859375 4090.554688 1527.789062 4094.171875 1543.261719 "></path><path style=" stroke:none;fill-rule:nonzero;fill:rgb(0%,0%,0%);fill-opacity:1;" d="M 3918.421875 1599.273438 C 3904.832031 1590.460938 3889.589844 1598.34375 3880.621094 1606.207031 C 3869.5 1615.953125 3869.425781 1633.734375 3874.785156 1645.347656 C 3875.898438 1647.765625 3883.035156 1650.734375 3883.835938 1648.707031 C 3887.988281 1638.207031 3876.539062 1633.152344 3884.972656 1618.347656 C 3894.222656 1602.113281 3915.21875 1610.324219 3918.421875 1599.273438 M 3847.65625 1695.804688 C 3831.019531 1668.941406 3809.335938 1649.683594 3827.367188 1646.699219 L 3852.65625 1642.511719 C 3864.464844 1631.335938 3847.011719 1612.09375 3855.070312 1601.605469 C 3862.898438 1591.417969 3878.53125 1597.699219 3891.21875 1589.5 C 3900.414062 1583.550781 3892.183594 1559.683594 3912.09375 1559.050781 C 3916.960938 1558.898438 3925.722656 1562.976562 3928.109375 1566.507812 C 3924.917969 1575.117188 3916.863281 1581.097656 3929.125 1589.339844 L 3949.578125 1546.753906 C 3992.304688 1573.890625 3981.199219 1521.566406 4019.835938 1549.453125 C 3943.507812 1567.566406 3897.265625 1625.101562 3869.613281 1693.414062 C 3864.25 1683.195312 3859.664062 1673.449219 3857.125 1664.9375 C 3860.980469 1661.007812 3868.019531 1653.015625 3862.742188 1650.777344 C 3858.265625 1648.882812 3850.871094 1653.847656 3849.199219 1657.253906 C 3847.539062 1660.652344 3846.304688 1669.648438 3848.015625 1673.082031 L 3856.9375 1690.964844 C 3857.882812 1692.855469 3857.367188 1698.691406 3855.585938 1699.410156 C 3853.363281 1700.3125 3848.933594 1697.867188 3847.65625 1695.804688 "></path><path style=" stroke:none;fill-rule:nonzero;fill:rgb(100%,100%,100%);fill-opacity:1;" d="M 4045.792969 1592.058594 C 4046.457031 1590.691406 4053.625 1589.023438 4053.949219 1590.507812 L 4055.425781 1597.273438 C 4055.75 1598.765625 4051.117188 1600.019531 4049.660156 1599.578125 C 4047.71875 1598.992188 4044.90625 1593.878906 4045.792969 1592.058594 "></path><path style=" stroke:none;fill-rule:nonzero;fill:rgb(100%,100%,100%);fill-opacity:1;" d="M 3918.421875 1599.273438 C 3915.21875 1610.324219 3894.222656 1602.113281 3884.972656 1618.347656 C 3876.539062 1633.152344 3887.988281 1638.207031 3883.835938 1648.707031 C 3883.035156 1650.734375 3875.898438 1647.765625 3874.785156 1645.347656 C 3869.425781 1633.734375 3869.5 1615.953125 3880.621094 1606.207031 C 3889.589844 1598.34375 3904.832031 1590.460938 3918.421875 1599.273438 "></path><path style=" stroke:none;fill-rule:nonzero;fill:rgb(100%,100%,100%);fill-opacity:1;" d="M 3998.878906 1609.757812 C 3998.152344 1611.109375 3993.589844 1613.863281 3992.074219 1614.148438 C 3990.5625 1614.433594 3987.652344 1610.863281 3988.496094 1609.570312 L 3992.101562 1604.03125 C 3992.871094 1602.847656 3997.53125 1602.859375 3999.039062 1602.695312 C 4000.429688 1602.546875 3999.648438 1608.332031 3998.878906 1609.757812 "></path><path style=" stroke:none;fill-rule:nonzero;fill:rgb(100%,100%,100%);fill-opacity:1;" d="M 4106.128906 1624.453125 C 4105.15625 1626.230469 4098.738281 1624.621094 4097.707031 1622.910156 C 4096.679688 1621.199219 4095.683594 1615.878906 4096.996094 1614.367188 C 4098.117188 1613.078125 4103.164062 1613.617188 4104.671875 1614.429688 C 4106.683594 1615.515625 4107.574219 1621.820312 4106.128906 1624.453125 "></path><path style=" stroke:none;fill-rule:nonzero;fill:rgb(100%,100%,100%);fill-opacity:1;" d="M 4212.675781 1742.421875 C 4214.757812 1736.679688 4214.796875 1728.09375 4212.382812 1724.488281 C 4209.5625 1720.28125 4202.871094 1715.726562 4199.113281 1716.695312 C 4193.191406 1718.222656 4186.976562 1719.585938 4183.992188 1718.460938 C 4181.007812 1717.335938 4180.109375 1710.597656 4179.34375 1704.789062 C 4178.8125 1700.785156 4170.800781 1696.589844 4165.734375 1696.105469 C 4150.152344 1694.617188 4133.964844 1721.457031 4128.796875 1735.542969 C 4108.851562 1789.90625 4053.175781 1822.378906 4000.113281 1817.878906 C 3996.617188 1817.582031 3988.695312 1822.042969 3989.855469 1824.113281 C 3990.785156 1825.777344 3994.03125 1829.773438 3995.988281 1830.65625 C 4079.246094 1868.195312 4184.414062 1820.394531 4212.675781 1742.421875 M 4205.511719 1703.152344 L 4220.753906 1715.765625 C 4220.507812 1702.78125 4212.625 1694.628906 4208.203125 1684.945312 C 4215.4375 1667.960938 4226.511719 1653.527344 4214.742188 1636.683594 C 4203.898438 1621.164062 4223.972656 1671.082031 4196.90625 1681.441406 L 4170.5625 1685.085938 L 4186.996094 1694.105469 C 4190.058594 1695.789062 4189.550781 1705.417969 4190.605469 1709.09375 Z M 3992.089844 1840.875 C 3983.921875 1837.199219 3978.808594 1828.089844 3979.484375 1821.277344 C 3980.105469 1814.972656 3990.628906 1807.09375 3998.515625 1807.660156 C 4053.925781 1811.660156 4101.042969 1780.753906 4120.082031 1728.878906 C 4133.207031 1693.113281 4150.351562 1695.195312 4157.558594 1681.757812 C 4164.269531 1669.242188 4180.789062 1674.816406 4191.285156 1671.941406 C 4203.757812 1668.527344 4202.492188 1652.199219 4199.828125 1641.769531 C 4197.304688 1631.871094 4206.527344 1628.113281 4214.832031 1627.335938 C 4222.09375 1626.652344 4227.417969 1633.878906 4229.175781 1642.496094 C 4232.261719 1657.632812 4223.648438 1670.949219 4221.28125 1684.527344 C 4221.671875 1694.988281 4235.863281 1707.1875 4229.734375 1720.589844 C 4226.199219 1728.320312 4224.980469 1738.515625 4221.84375 1747.242188 C 4191.558594 1831.496094 4078.296875 1879.652344 3992.089844 1840.875 "></path><path style=" stroke:none;fill-rule:nonzero;fill:rgb(0%,0%,0%);fill-opacity:1;" d="M 4205.511719 1703.152344 L 4190.605469 1709.09375 C 4189.550781 1705.417969 4190.058594 1695.789062 4186.996094 1694.105469 L 4170.5625 1685.085938 L 4196.90625 1681.441406 C 4223.972656 1671.082031 4203.898438 1621.164062 4214.742188 1636.6875 C 4226.511719 1653.527344 4215.4375 1667.960938 4208.203125 1684.945312 C 4212.625 1694.628906 4220.507812 1702.78125 4220.753906 1715.765625 Z M 4205.511719 1703.152344 "></path><path style=" stroke:none;fill-rule:nonzero;fill:rgb(100%,100%,100%);fill-opacity:1;" d="M 4030.824219 1649.902344 C 4032.25 1648.28125 4037.128906 1646.84375 4038.625 1647.421875 C 4040.621094 1648.195312 4043.046875 1655.003906 4040.996094 1655.617188 L 4035.171875 1657.355469 C 4033.089844 1657.972656 4029.421875 1651.496094 4030.824219 1649.902344 "></path><path style=" stroke:none;fill-rule:nonzero;fill:rgb(100%,100%,100%);fill-opacity:1;" d="M 4137.785156 1667.898438 L 4132.746094 1657.109375 C 4131.804688 1655.09375 4136.753906 1650.503906 4138.945312 1650.140625 C 4140.851562 1649.824219 4144.804688 1655.4375 4143.835938 1657.152344 Z M 4137.785156 1667.898438 "></path><path style=" stroke:none;fill-rule:nonzero;fill:rgb(100%,100%,100%);fill-opacity:1;" d="M 3940.058594 1652.9375 C 3940.554688 1651.558594 3947.066406 1653.902344 3946.671875 1655.296875 L 3944.703125 1662.28125 C 3944.171875 1664.164062 3936.257812 1663.488281 3936.933594 1661.609375 Z M 3940.058594 1652.9375 "></path><path style=" stroke:none;fill-rule:nonzero;fill:rgb(100%,100%,100%);fill-opacity:1;" d="M 4080.519531 1681.988281 C 4078.097656 1682.121094 4077.710938 1673.460938 4079.566406 1671.871094 C 4081.429688 1670.28125 4086.375 1669.652344 4088.164062 1671.351562 C 4090.71875 1673.785156 4086.777344 1681.640625 4080.519531 1681.988281 "></path><path style=" stroke:none;fill-rule:nonzero;fill:rgb(100%,100%,100%);fill-opacity:1;" d="M 3990.734375 1687.289062 C 3990.910156 1689.53125 3983.082031 1692.269531 3981.636719 1690.542969 C 3980.1875 1688.808594 3977.988281 1684.960938 3977.527344 1683.027344 C 3980.277344 1678.816406 3990.386719 1682.863281 3990.734375 1687.289062 "></path><path style=" stroke:none;fill-rule:nonzero;fill:rgb(0%,0%,0%);fill-opacity:1;" d="M 3838.714844 1707.054688 C 3837.382812 1718 3823.527344 1708.5 3807.046875 1717.679688 L 3806.976562 1690.636719 L 3826.203125 1682.140625 L 3836.78125 1698.171875 C 3837.871094 1699.824219 3838.953125 1705.078125 3838.714844 1707.054688 "></path><path style=" stroke:none;fill-rule:nonzero;fill:rgb(0%,0%,0%);fill-opacity:1;" d="M 4147.976562 1741.707031 C 4155.382812 1719.59375 4171.4375 1713.308594 4164.984375 1710.996094 C 4152.433594 1706.496094 4140.992188 1728.027344 4138.519531 1737.667969 C 4134.957031 1751.542969 4124.445312 1767.816406 4115.875 1776.769531 C 4105.921875 1787.167969 4130.859375 1792.8125 4147.976562 1741.707031 M 4212.675781 1742.421875 C 4184.414062 1820.394531 4079.246094 1868.195312 3995.988281 1830.65625 C 3994.03125 1829.773438 3990.785156 1825.777344 3989.855469 1824.113281 C 3988.699219 1822.042969 3996.617188 1817.585938 4000.113281 1817.878906 C 4053.175781 1822.378906 4108.847656 1789.90625 4128.796875 1735.542969 C 4133.964844 1721.457031 4150.152344 1694.617188 4165.734375 1696.105469 C 4170.800781 1696.589844 4178.8125 1700.785156 4179.34375 1704.789062 C 4180.113281 1710.597656 4181.007812 1717.335938 4183.992188 1718.460938 C 4186.972656 1719.585938 4193.191406 1718.222656 4199.113281 1716.695312 C 4202.871094 1715.726562 4209.5625 1720.28125 4212.382812 1724.492188 C 4214.796875 1728.09375 4214.757812 1736.679688 4212.675781 1742.421875 "></path><path style=" stroke:none;fill-rule:nonzero;fill:rgb(100%,100%,100%);fill-opacity:1;" d="M 4147.976562 1741.707031 C 4130.859375 1792.8125 4105.921875 1787.167969 4115.875 1776.769531 C 4124.445312 1767.816406 4134.957031 1751.542969 4138.519531 1737.667969 C 4140.992188 1728.027344 4152.433594 1706.496094 4164.984375 1710.996094 C 4171.4375 1713.308594 4155.382812 1719.59375 4147.976562 1741.707031 "></path><path style=" stroke:none;fill-rule:nonzero;fill:rgb(100%,100%,100%);fill-opacity:1;" d="M 3915.617188 1724.429688 C 3913.242188 1725.214844 3909.371094 1717.910156 3910.585938 1715.820312 C 3911.800781 1713.738281 3915.492188 1710.292969 3917.871094 1709.894531 C 3919.996094 1709.542969 3922.558594 1715.878906 3922.238281 1718.003906 C 3921.917969 1720.128906 3918.222656 1723.570312 3915.617188 1724.429688 "></path><path style=" stroke:none;fill-rule:nonzero;fill:rgb(100%,100%,100%);fill-opacity:1;" d="M 4028.125 1713.816406 C 4028.347656 1712.257812 4035.902344 1709.761719 4036.121094 1711.335938 L 4036.878906 1716.730469 C 4037.105469 1718.347656 4032.691406 1719.3125 4031.082031 1719.839844 C 4029.566406 1720.335938 4027.871094 1715.589844 4028.125 1713.816406 "></path><path style=" stroke:none;fill-rule:nonzero;fill:rgb(100%,100%,100%);fill-opacity:1;" d="M 3964.304688 1741.222656 C 3965.992188 1740.109375 3971.667969 1745.46875 3970.511719 1747.125 L 3965.769531 1753.90625 C 3964.65625 1755.5 3959.984375 1751.695312 3959.238281 1749.816406 C 3958.300781 1747.460938 3961.503906 1743.078125 3964.304688 1741.222656 "></path><path style=" stroke:none;fill-rule:nonzero;fill:rgb(100%,100%,100%);fill-opacity:1;" d="M 3837.796875 1745.199219 L 3828.585938 1767.21875 C 3828.699219 1768.324219 3822.113281 1764.46875 3821.285156 1762.015625 C 3819.007812 1755.261719 3823.378906 1747.085938 3830.175781 1743.019531 C 3832.035156 1741.910156 3839.378906 1744.886719 3837.796875 1745.199219 "></path><path style=" stroke:none;fill-rule:nonzero;fill:rgb(100%,100%,100%);fill-opacity:1;" d="M 3895.113281 1774.085938 C 3895.453125 1772.480469 3901.453125 1773.757812 3901.484375 1775.289062 L 3901.613281 1781.492188 C 3901.648438 1783.027344 3897.605469 1782.980469 3896.113281 1782.617188 C 3894.617188 1782.25 3894.648438 1776.304688 3895.113281 1774.085938 "></path><path style=" stroke:none;fill-rule:nonzero;fill:rgb(100%,100%,100%);fill-opacity:1;" d="M 3832.617188 1780.089844 L 3825.746094 1800.902344 C 3820.578125 1797.90625 3818.714844 1792.625 3820.15625 1787.679688 C 3821.542969 1782.921875 3824.179688 1780.679688 3832.617188 1780.089844 "></path></g></svg>