<?xml version='1.0' encoding='utf-8'?>
<svg xmlns="http://www.w3.org/2000/svg" viewBox="3007.39 1462.16 494.41 431.21" width="80" height="80" fill="none"><g><path style=" stroke:none;fill-rule:nonzero;fill:rgb(100%,100%,100%);fill-opacity:1;" d="M 3244.652344 1735.105469 C 3237.242188 1721.648438 3223.59375 1718.820312 3213.246094 1721.609375 C 3200.566406 1725.023438 3190.441406 1734.269531 3193.503906 1749.507812 Z M 3141.335938 1718.707031 C 3149.035156 1711.300781 3149.679688 1699.980469 3143.535156 1692.136719 C 3137.417969 1684.328125 3125.113281 1678.40625 3114.523438 1679.589844 L 3086.816406 1723.867188 C 3105.167969 1734.546875 3126.160156 1733.289062 3141.335938 1718.707031 M 3213.027344 1612.164062 C 3217.453125 1607.171875 3218.257812 1596.917969 3215.121094 1591.53125 C 3209.5 1581.871094 3190.320312 1569.261719 3179.640625 1577.660156 C 3168.925781 1586.089844 3162.242188 1602.0625 3154.261719 1615.046875 C 3168.929688 1631.742188 3197.164062 1630.074219 3213.027344 1612.164062 M 3181.492188 1752.484375 C 3181.058594 1738.234375 3184.40625 1723.65625 3198.152344 1715.78125 C 3219.355469 1703.632812 3245.289062 1709.566406 3256.199219 1732.039062 C 3271.328125 1727.328125 3285.882812 1725.925781 3300.003906 1733.261719 C 3308.84375 1737.851562 3315.589844 1751.121094 3314.398438 1761.386719 L 3311.207031 1788.839844 C 3310.234375 1797.234375 3314.785156 1803.773438 3322.636719 1803.730469 C 3343.140625 1803.625 3329.777344 1779.003906 3331.148438 1751.105469 C 3332.261719 1728.472656 3346.628906 1708.664062 3368.238281 1702.195312 L 3408.296875 1690.203125 C 3369.113281 1614.425781 3279.605469 1555.046875 3197.546875 1543.433594 L 3187.140625 1562.097656 C 3198.511719 1565.425781 3209.308594 1568.421875 3217.4375 1575.664062 C 3231.320312 1588.03125 3232.902344 1608.082031 3220.238281 1621.421875 C 3200.601562 1642.105469 3169.738281 1643.621094 3146.65625 1626.015625 L 3121.082031 1667.585938 C 3135.890625 1671.523438 3146.5625 1675.953125 3153.027344 1685.15625 C 3159.683594 1694.621094 3162.152344 1708.0625 3155.785156 1718.652344 C 3140.15625 1744.636719 3105.769531 1748.851562 3080.425781 1733.140625 L 3046.480469 1788.84375 C 3062.917969 1785.113281 3074.003906 1782.011719 3087.789062 1777.640625 C 3107.523438 1771.382812 3127.203125 1782.191406 3130.84375 1804.226562 C 3134.878906 1828.621094 3119.199219 1855.074219 3134.53125 1859.996094 C 3138.484375 1861.265625 3147.253906 1860.367188 3149.953125 1857.609375 C 3165.0625 1842.175781 3119.910156 1784.894531 3181.492188 1752.484375 M 3413.222656 1673.785156 C 3421.613281 1657.839844 3436.613281 1652.332031 3454.296875 1652.308594 C 3404.152344 1568.164062 3322.972656 1513.152344 3228.453125 1496.210938 C 3218.179688 1494.367188 3208.660156 1500.222656 3204.460938 1506.382812 C 3200.625 1512.007812 3198.714844 1527.496094 3204.058594 1531.152344 L 3245.917969 1542.898438 C 3259.789062 1546.789062 3272.265625 1552.871094 3285.296875 1559.355469 C 3338.0625 1585.617188 3381.648438 1622.894531 3413.222656 1673.785156 M 3277.558594 1739.683594 L 3191.375 1762.296875 C 3169.949219 1767.917969 3156.660156 1787.167969 3159.785156 1809.785156 L 3164.484375 1843.765625 C 3166.835938 1860.761719 3153.601562 1873.367188 3139.597656 1872.714844 C 3123.40625 1871.960938 3113.675781 1858.042969 3116.476562 1841.128906 C 3118.320312 1829.992188 3119.996094 1818.34375 3119.738281 1807.191406 C 3119.460938 1795.175781 3107.578125 1785.652344 3096.121094 1788.761719 L 3040.429688 1803.882812 C 3040.765625 1813.109375 3049.113281 1819.070312 3058.503906 1816.457031 L 3102.617188 1804.179688 C 3104.152344 1803.75 3108.847656 1805.765625 3110.039062 1806.433594 C 3122.996094 1813.691406 3065.75 1828.25 3048.167969 1828.441406 C 3038.164062 1828.550781 3031.605469 1817.78125 3029.710938 1811.558594 C 3027.386719 1803.945312 3029.261719 1792.121094 3034.054688 1784.398438 L 3189.449219 1534.066406 C 3187.324219 1517.851562 3188.277344 1503.421875 3199.546875 1493.066406 C 3210.925781 1482.613281 3223.730469 1482.15625 3239.761719 1485.546875 C 3343.050781 1507.394531 3430.222656 1572.800781 3476.644531 1668.070312 C 3481.800781 1678.652344 3481.261719 1692.277344 3476.546875 1702.574219 C 3472.742188 1710.882812 3461.179688 1719.957031 3449.730469 1722.957031 L 3363.421875 1745.589844 C 3361.085938 1746.203125 3354.871094 1744.726562 3354.488281 1742.480469 C 3354.105469 1740.242188 3357.632812 1734.851562 3360.371094 1734.117188 L 3449.746094 1710.101562 C 3457.300781 1708.070312 3464.359375 1700.375 3466.246094 1695.003906 C 3468.5625 1688.429688 3467.5 1676.375 3463 1672 C 3453.652344 1662.914062 3442.679688 1663.492188 3433.84375 1669.03125 C 3424.410156 1674.941406 3421.953125 1684.644531 3422.460938 1698.519531 L 3375.277344 1712.136719 C 3334.554688 1723.890625 3342.542969 1760.6875 3346.277344 1786.199219 C 3348.660156 1802.488281 3338.121094 1814.464844 3325.03125 1815.074219 C 3307.265625 1815.898438 3297.0625 1802.828125 3299.496094 1785.457031 L 3302.902344 1761.171875 C 3303.515625 1756.789062 3299.824219 1748.171875 3296.71875 1745.203125 C 3293.609375 1742.234375 3283.253906 1738.191406 3277.558594 1739.683594 "></path><path style=" stroke:none;fill-rule:nonzero;fill:rgb(0%,0%,0%);fill-opacity:1;" d="M 3413.222656 1673.785156 C 3381.648438 1622.894531 3338.0625 1585.613281 3285.296875 1559.355469 C 3272.265625 1552.871094 3259.789062 1546.789062 3245.917969 1542.898438 L 3204.058594 1531.152344 C 3198.714844 1527.496094 3200.625 1512.007812 3204.460938 1506.378906 C 3208.660156 1500.222656 3218.179688 1494.367188 3228.457031 1496.210938 C 3322.972656 1513.152344 3404.152344 1568.160156 3454.296875 1652.308594 C 3436.613281 1652.332031 3421.613281 1657.839844 3413.222656 1673.785156 "></path><path style=" stroke:none;fill-rule:nonzero;fill:rgb(0%,0%,0%);fill-opacity:1;" d="M 3220.136719 1660.796875 C 3208.613281 1654.925781 3191.6875 1661.953125 3185.621094 1672.910156 C 3184.515625 1674.90625 3184.378906 1679.972656 3185.339844 1681.6875 C 3186.304688 1683.394531 3191.789062 1684.488281 3193.011719 1683.785156 C 3201.007812 1661.378906 3227.523438 1676.75 3220.136719 1660.796875 M 3331.277344 1690.71875 C 3340.90625 1683.585938 3346.28125 1672.34375 3345.726562 1662.300781 C 3345.191406 1652.640625 3339.355469 1641.65625 3329.929688 1635.703125 C 3311.035156 1623.769531 3284.496094 1624.335938 3266.425781 1637.445312 C 3257.09375 1644.214844 3251.347656 1655.03125 3251.25 1664.878906 C 3251.144531 1675.328125 3257.15625 1685.558594 3266.59375 1691.898438 C 3285.929688 1704.886719 3311.496094 1705.382812 3331.277344 1690.71875 M 3282.144531 1600.273438 C 3278.304688 1586.515625 3263.535156 1581.40625 3253.972656 1588.738281 C 3267.484375 1595.316406 3278.578125 1613.773438 3281.328125 1606.945312 C 3281.855469 1605.632812 3282.546875 1601.707031 3282.144531 1600.273438 M 3181.492188 1752.484375 C 3119.910156 1784.894531 3165.0625 1842.175781 3149.953125 1857.609375 C 3147.253906 1860.367188 3138.484375 1861.265625 3134.53125 1859.996094 C 3119.199219 1855.074219 3134.878906 1828.621094 3130.84375 1804.226562 C 3127.203125 1782.191406 3107.523438 1771.382812 3087.789062 1777.640625 C 3074.003906 1782.011719 3062.917969 1785.113281 3046.480469 1788.84375 L 3080.425781 1733.140625 C 3105.769531 1748.851562 3140.152344 1744.636719 3155.785156 1718.648438 C 3162.152344 1708.0625 3159.683594 1694.621094 3153.027344 1685.15625 C 3146.5625 1675.953125 3135.890625 1671.523438 3121.082031 1667.585938 L 3146.65625 1626.015625 C 3169.738281 1643.621094 3200.601562 1642.105469 3220.238281 1621.421875 C 3232.902344 1608.082031 3231.320312 1588.03125 3217.4375 1575.664062 C 3209.308594 1568.421875 3198.511719 1565.425781 3187.140625 1562.097656 L 3197.546875 1543.433594 C 3279.605469 1555.046875 3369.113281 1614.425781 3408.296875 1690.203125 L 3368.238281 1702.195312 C 3346.628906 1708.664062 3332.261719 1728.472656 3331.148438 1751.105469 C 3329.777344 1779.003906 3343.140625 1803.625 3322.636719 1803.734375 C 3314.785156 1803.773438 3310.234375 1797.234375 3311.207031 1788.839844 L 3314.398438 1761.386719 C 3315.589844 1751.121094 3308.84375 1737.851562 3300.003906 1733.261719 C 3285.882812 1725.925781 3271.328125 1727.328125 3256.199219 1732.039062 C 3245.289062 1709.566406 3219.355469 1703.632812 3198.152344 1715.78125 C 3184.40625 1723.65625 3181.058594 1738.234375 3181.492188 1752.484375 "></path><path style=" stroke:none;fill-rule:nonzero;fill:rgb(0%,0%,0%);fill-opacity:1;" d="M 3213.027344 1612.164062 C 3197.164062 1630.074219 3168.929688 1631.742188 3154.265625 1615.046875 C 3162.242188 1602.0625 3168.921875 1586.085938 3179.640625 1577.660156 C 3190.320312 1569.261719 3209.5 1581.871094 3215.121094 1591.53125 C 3218.257812 1596.917969 3217.453125 1607.171875 3213.027344 1612.164062 "></path><path style=" stroke:none;fill-rule:nonzero;fill:rgb(100%,100%,100%);fill-opacity:1;" d="M 3282.144531 1600.273438 C 3282.546875 1601.707031 3281.855469 1605.632812 3281.328125 1606.945312 C 3278.582031 1613.773438 3267.484375 1595.3125 3253.972656 1588.734375 C 3263.53125 1581.40625 3278.304688 1586.519531 3282.144531 1600.273438 "></path><path style=" stroke:none;fill-rule:nonzero;fill:rgb(100%,100%,100%);fill-opacity:1;" d="M 3328.789062 1677.335938 C 3333.976562 1672.273438 3335.265625 1661.464844 3333.042969 1655.851562 C 3325.882812 1637.796875 3292.535156 1631.359375 3269.890625 1649.742188 C 3265.714844 1653.132812 3262.273438 1662.261719 3262.578125 1667.242188 C 3262.863281 1671.882812 3267.792969 1679.652344 3272.679688 1682.648438 C 3290.058594 1693.3125 3312.980469 1692.757812 3328.789062 1677.335938 M 3331.277344 1690.71875 C 3311.496094 1705.382812 3285.929688 1704.886719 3266.59375 1691.898438 C 3257.15625 1685.558594 3251.144531 1675.328125 3251.25 1664.878906 C 3251.347656 1655.03125 3257.09375 1644.214844 3266.425781 1637.445312 C 3284.496094 1624.335938 3311.035156 1623.769531 3329.929688 1635.703125 C 3339.355469 1641.65625 3345.191406 1652.640625 3345.726562 1662.300781 C 3346.28125 1672.34375 3340.90625 1683.585938 3331.277344 1690.71875 "></path><path style=" stroke:none;fill-rule:nonzero;fill:rgb(0%,0%,0%);fill-opacity:1;" d="M 3328.789062 1677.335938 C 3312.980469 1692.757812 3290.058594 1693.3125 3272.679688 1682.648438 C 3267.792969 1679.652344 3262.863281 1671.882812 3262.578125 1667.242188 C 3262.273438 1662.261719 3265.714844 1653.132812 3269.890625 1649.742188 C 3292.535156 1631.359375 3325.882812 1637.796875 3333.042969 1655.851562 C 3335.265625 1661.464844 3333.976562 1672.273438 3328.789062 1677.335938 "></path><path style=" stroke:none;fill-rule:nonzero;fill:rgb(100%,100%,100%);fill-opacity:1;" d="M 3220.136719 1660.796875 C 3227.523438 1676.75 3201.007812 1661.378906 3193.011719 1683.785156 C 3191.789062 1684.488281 3186.304688 1683.394531 3185.339844 1681.6875 C 3184.378906 1679.972656 3184.515625 1674.90625 3185.621094 1672.910156 C 3191.6875 1661.953125 3208.613281 1654.925781 3220.136719 1660.796875 "></path><path style=" stroke:none;fill-rule:nonzero;fill:rgb(0%,0%,0%);fill-opacity:1;" d="M 3141.335938 1718.707031 C 3126.160156 1733.289062 3105.167969 1734.546875 3086.816406 1723.863281 L 3114.523438 1679.585938 C 3125.113281 1678.402344 3137.417969 1684.328125 3143.535156 1692.136719 C 3149.675781 1699.980469 3149.035156 1711.300781 3141.335938 1718.707031 "></path><path style=" stroke:none;fill-rule:nonzero;fill:rgb(0%,0%,0%);fill-opacity:1;" d="M 3244.652344 1735.105469 L 3193.503906 1749.507812 C 3190.441406 1734.269531 3200.566406 1725.023438 3213.246094 1721.609375 C 3223.59375 1718.820312 3237.242188 1721.648438 3244.652344 1735.105469 "></path><path style=" stroke:none;fill-rule:nonzero;fill:rgb(100%,100%,100%);fill-opacity:1;" d="M 3179.300781 1795.925781 C 3176.347656 1796.730469 3168.976562 1794.058594 3169.484375 1792.019531 C 3169.992188 1789.984375 3172.910156 1785.3125 3175.707031 1784.542969 L 3284.648438 1754.511719 C 3287.132812 1753.824219 3292.335938 1756.226562 3293.71875 1757.988281 C 3295.089844 1759.730469 3290.679688 1765.558594 3287.84375 1766.335938 Z M 3179.300781 1795.925781 "></path></g></svg>