<?xml version='1.0' encoding='utf-8'?>
<svg xmlns="http://www.w3.org/2000/svg" viewBox="864.81 216.88 476.61 377.35" width="80" height="80" fill="none"><g><path style=" stroke:none;fill-rule:nonzero;fill:rgb(100%,100%,100%);fill-opacity:1;" d="M 919.710938 561.511719 L 993.503906 535.792969 C 991.195312 527.636719 984.183594 525.90625 977.8125 528.082031 L 901.109375 554.304688 C 904.652344 562.925781 911.917969 564.226562 919.710938 561.511719 M 1035.589844 495.859375 L 1098.597656 473.875 C 1084.324219 456.511719 1059.296875 455.628906 1043.164062 469.210938 C 1035.34375 475.792969 1032.519531 485.734375 1035.589844 495.859375 M 997.015625 453.847656 C 1002.953125 447.035156 1004.253906 437.84375 1000.273438 429.660156 C 997.894531 424.765625 991.152344 419.5625 984.042969 417.710938 L 953.921875 464.984375 C 969.191406 470.152344 986.363281 466.074219 997.015625 453.847656 M 1035.355469 520.886719 L 1287.910156 433.652344 C 1296.011719 430.855469 1301.597656 426.257812 1304.191406 420.25 C 1307.613281 412.332031 1307.945312 403.726562 1302.980469 397.445312 C 1296.949219 389.808594 1287.949219 389.382812 1279.460938 392.757812 C 1272.84375 395.390625 1267.289062 402.460938 1266.832031 410.992188 L 1265.96875 427.128906 L 1049.578125 502.253906 C 1040.871094 505.273438 1034.125 511.101562 1035.355469 520.886719 M 1072.523438 358.699219 C 1082.960938 348.402344 1081.859375 334.21875 1071.648438 325.316406 C 1064.539062 320.324219 1055.859375 317.503906 1047.132812 317.851562 L 1018.304688 363.617188 C 1035.523438 374.644531 1058.023438 373.003906 1072.523438 358.699219 M 1027.425781 505.191406 C 1019.59375 488.601562 1023.6875 470.742188 1038.070312 459.511719 C 1058.542969 443.527344 1093.65625 446.089844 1108.394531 470.742188 L 1253.597656 420.308594 C 1226.882812 396.394531 1243.210938 385.636719 1217.257812 372.996094 C 1205.863281 367.445312 1194.582031 360.230469 1188.472656 348.792969 C 1171.546875 317.113281 1152.210938 336.636719 1119.578125 307.527344 C 1103.714844 293.375 1088.800781 305.050781 1063.8125 292.121094 L 1054.09375 306.957031 C 1065.722656 309.414062 1075.902344 313.046875 1083.183594 322.015625 C 1093.261719 334.421875 1093.351562 351.132812 1082.660156 363.410156 C 1065.265625 383.382812 1036.074219 386.875 1012.410156 372.742188 L 990.082031 408.246094 C 1002.824219 413.707031 1009.933594 421.832031 1012.34375 431.867188 C 1015.132812 443.480469 1011.320312 454.285156 1003.484375 462.648438 C 988.625 477.3125 967.453125 481.21875 947.425781 474.699219 L 906.730469 540.371094 L 975.671875 517.78125 C 989.269531 513.648438 1002.085938 521.808594 1004.4375 535.898438 L 1005.125 549.308594 C 1005.414062 554.894531 1010.382812 558.410156 1015.234375 557.832031 C 1030.605469 555.988281 1017.308594 525.324219 1027.425781 505.191406 M 1245.101562 389.582031 C 1247.175781 396.5625 1251.027344 402.984375 1256.144531 407.398438 C 1260.742188 387.980469 1275.769531 378.636719 1294.398438 379.15625 C 1269.566406 339.011719 1236.050781 309.632812 1197.082031 286.65625 C 1163.464844 267.953125 1127.976562 255.703125 1090.011719 249.390625 C 1081.261719 247.9375 1072.464844 251.203125 1068.070312 258.121094 C 1064.878906 263.144531 1061.015625 273.875 1066.472656 280.253906 C 1071.597656 286.238281 1084.402344 288.570312 1092.640625 288.53125 C 1130.191406 288.363281 1122.894531 308.882812 1160.957031 316.691406 C 1173.535156 319.273438 1186.480469 324.953125 1192.804688 336.425781 C 1212.277344 371.742188 1235.589844 357.566406 1245.101562 389.582031 M 1034.359375 532.648438 L 1033.734375 549.101562 C 1033.28125 561.015625 1023.617188 568.855469 1012.355469 568.359375 C 1001.605469 567.890625 994.332031 558.917969 993.339844 547.179688 L 923.695312 571.34375 C 915.386719 574.226562 906.023438 574.222656 899.546875 569.269531 C 894.457031 565.375 884.808594 554.144531 889.867188 546.140625 L 1055.382812 284.246094 C 1051.410156 271.484375 1053.238281 259.5625 1061.1875 249.808594 C 1068.757812 240.519531 1081.160156 236.875 1094.203125 239.089844 C 1184.117188 254.363281 1269.878906 307.0625 1312.414062 389.484375 C 1321.417969 406.933594 1318.433594 433.785156 1297.304688 441.140625 Z M 1034.359375 532.648438 "></path><path style=" stroke:none;fill-rule:nonzero;fill:rgb(0%,0%,0%);fill-opacity:1;" d="M 975.667969 499.753906 C 975.453125 497.746094 972.769531 494.292969 970.878906 493.9375 C 958.699219 491.660156 946.847656 495.910156 943.308594 507.917969 C 942.417969 510.9375 944.308594 515.703125 946.628906 516.082031 C 949.429688 516.539062 952.8125 513.859375 953.398438 511.480469 C 956.792969 497.707031 976.609375 508.570312 975.667969 499.753906 M 1074.792969 415.585938 C 1077.171875 418.371094 1079.898438 420.726562 1082.53125 420.476562 C 1084.613281 420.28125 1087.144531 415.449219 1086.292969 413.28125 C 1084.773438 409.421875 1081.71875 405.445312 1078.375 403.675781 C 1064.699219 396.4375 1047.789062 398.550781 1037.75 410.441406 C 1036.371094 412.074219 1036.503906 417.296875 1038.101562 418.46875 C 1039.707031 419.644531 1044.277344 418.972656 1045.855469 417.191406 C 1052.992188 409.128906 1067.308594 406.824219 1074.792969 415.585938 M 1194.800781 427.871094 C 1207.808594 413.765625 1205.136719 393.324219 1189.53125 383.199219 C 1169.230469 370.03125 1140.4375 372.527344 1122.160156 387.976562 C 1113.601562 395.207031 1109.367188 404.226562 1110.265625 414.796875 C 1110.980469 423.230469 1116.402344 432.097656 1125.386719 437.453125 C 1146.851562 450.25 1177.273438 446.875 1194.800781 427.871094 M 1135.660156 358.332031 C 1136.003906 360.375 1141.808594 360.984375 1142.816406 359.503906 C 1143.652344 358.277344 1144.960938 354.605469 1144.734375 353.070312 C 1142.910156 340.644531 1130.144531 333.757812 1118.296875 335.648438 C 1116.027344 336.011719 1113.707031 340.839844 1114.84375 342.4375 C 1119.105469 348.433594 1132.742188 340.933594 1135.660156 358.332031 M 1027.425781 505.195312 C 1017.308594 525.324219 1030.605469 555.988281 1015.234375 557.828125 C 1010.382812 558.410156 1005.414062 554.894531 1005.125 549.308594 L 1004.4375 535.898438 C 1002.085938 521.808594 989.269531 513.648438 975.671875 517.78125 L 906.730469 540.367188 L 947.425781 474.699219 C 967.453125 481.21875 988.625 477.3125 1003.484375 462.648438 C 1011.320312 454.28125 1015.132812 443.480469 1012.34375 431.867188 C 1009.933594 421.832031 1002.824219 413.707031 990.082031 408.246094 L 1012.410156 372.742188 C 1036.074219 386.875 1065.265625 383.382812 1082.660156 363.410156 C 1093.351562 351.132812 1093.261719 334.421875 1083.183594 322.015625 C 1075.902344 313.046875 1065.722656 309.414062 1054.09375 306.957031 L 1063.8125 292.121094 C 1088.800781 305.050781 1103.714844 293.375 1119.578125 307.527344 C 1152.210938 336.636719 1171.546875 317.117188 1188.472656 348.792969 C 1194.582031 360.230469 1205.863281 367.445312 1217.257812 372.996094 C 1243.210938 385.636719 1226.882812 396.394531 1253.597656 420.308594 L 1108.398438 470.742188 C 1093.65625 446.089844 1058.542969 443.527344 1038.070312 459.511719 C 1023.6875 470.742188 1019.59375 488.601562 1027.425781 505.195312 "></path><path style=" stroke:none;fill-rule:nonzero;fill:rgb(0%,0%,0%);fill-opacity:1;" d="M 1245.101562 389.582031 C 1235.585938 357.566406 1212.277344 371.742188 1192.804688 336.425781 C 1186.480469 324.953125 1173.535156 319.273438 1160.957031 316.691406 C 1122.894531 308.882812 1130.191406 288.363281 1092.640625 288.53125 C 1084.402344 288.570312 1071.597656 286.238281 1066.472656 280.253906 C 1061.015625 273.875 1064.878906 263.144531 1068.070312 258.121094 C 1072.464844 251.203125 1081.265625 247.9375 1090.011719 249.390625 C 1127.976562 255.703125 1163.464844 267.953125 1197.082031 286.65625 C 1236.050781 309.632812 1269.566406 339.011719 1294.398438 379.15625 C 1275.769531 378.636719 1260.742188 387.980469 1256.144531 407.398438 C 1251.027344 402.984375 1247.175781 396.5625 1245.101562 389.582031 "></path><path style=" stroke:none;fill-rule:nonzero;fill:rgb(0%,0%,0%);fill-opacity:1;" d="M 1035.355469 520.886719 C 1034.125 511.101562 1040.871094 505.273438 1049.578125 502.253906 L 1265.96875 427.128906 L 1266.832031 410.992188 C 1267.289062 402.460938 1272.84375 395.390625 1279.460938 392.757812 C 1287.949219 389.382812 1296.949219 389.808594 1302.980469 397.445312 C 1307.945312 403.726562 1307.613281 412.328125 1304.191406 420.25 C 1301.597656 426.261719 1296.011719 430.855469 1287.910156 433.652344 Z M 1035.355469 520.886719 "></path><path style=" stroke:none;fill-rule:nonzero;fill:rgb(0%,0%,0%);fill-opacity:1;" d="M 1037.242188 352.332031 C 1034.773438 353.253906 1032.847656 358.125 1034.25 359.683594 C 1035.980469 361.605469 1039.667969 362.886719 1041.605469 362.128906 C 1044.0625 361.171875 1045.734375 356.109375 1044.210938 354.335938 C 1043.035156 352.964844 1039.078125 351.648438 1037.242188 352.332031 M 1054.132812 327.320312 C 1052.09375 327.671875 1050.230469 333.082031 1051.265625 334.871094 C 1052.300781 336.660156 1056.765625 337.324219 1058.75 336.589844 C 1060.6875 335.871094 1062.484375 331.007812 1061.386719 329.1875 C 1060.472656 327.671875 1056.757812 326.863281 1054.132812 327.320312 M 1072.523438 358.695312 C 1058.023438 373.003906 1035.519531 374.644531 1018.304688 363.617188 L 1047.132812 317.851562 C 1055.859375 317.503906 1064.539062 320.324219 1071.648438 325.316406 C 1081.859375 334.21875 1082.960938 348.402344 1072.523438 358.695312 "></path><path style=" stroke:none;fill-rule:nonzero;fill:rgb(0%,0%,0%);fill-opacity:1;" d="M 971.03125 451.042969 C 968.523438 452.109375 968.515625 458.007812 970.558594 458.988281 C 972.210938 459.78125 976.238281 459.691406 977.855469 458.660156 C 979.40625 457.671875 979.683594 453.769531 978.6875 452.222656 C 977.691406 450.671875 973.222656 450.109375 971.03125 451.042969 M 985.269531 430.710938 C 982.867188 431.773438 982.253906 437.464844 984.242188 438.917969 C 985.714844 439.996094 988.925781 440.191406 990.457031 439.230469 C 992.117188 438.191406 993.5625 433.925781 992.675781 432.328125 C 991.789062 430.730469 987.339844 429.796875 985.269531 430.710938 M 997.015625 453.847656 C 986.363281 466.074219 969.191406 470.152344 953.921875 464.984375 L 984.042969 417.710938 C 991.152344 419.5625 997.894531 424.765625 1000.273438 429.660156 C 1004.253906 437.84375 1002.953125 447.035156 997.015625 453.847656 "></path><path style=" stroke:none;fill-rule:nonzero;fill:rgb(0%,0%,0%);fill-opacity:1;" d="M 1059.328125 481.394531 C 1061.703125 480.359375 1063.539062 476.210938 1062.40625 474.816406 C 1061.070312 473.171875 1057.417969 471.601562 1055.761719 472.3125 C 1054.0625 473.039062 1052.136719 476.246094 1051.960938 478.046875 C 1051.753906 480.132812 1056.0625 482.820312 1059.328125 481.394531 M 1035.589844 495.859375 C 1032.519531 485.734375 1035.34375 475.792969 1043.160156 469.210938 C 1059.296875 455.628906 1084.324219 456.511719 1098.597656 473.875 Z M 1035.589844 495.859375 "></path><path style=" stroke:none;fill-rule:nonzero;fill:rgb(0%,0%,0%);fill-opacity:1;" d="M 919.710938 561.511719 C 911.917969 564.226562 904.652344 562.925781 901.109375 554.304688 L 977.8125 528.082031 C 984.183594 525.90625 991.195312 527.636719 993.503906 535.792969 Z M 919.710938 561.511719 "></path><path style=" stroke:none;fill-rule:nonzero;fill:rgb(100%,100%,100%);fill-opacity:1;" d="M 1185.164062 422.769531 C 1191.25 417.332031 1193.117188 410.195312 1191.566406 402.976562 C 1187.855469 385.699219 1151.113281 376.9375 1127.910156 397.179688 C 1123.160156 401.324219 1120.699219 407.410156 1120.894531 413.417969 C 1121.042969 418.039062 1124.757812 424.621094 1129.875 427.699219 C 1147.070312 438.046875 1169.847656 436.453125 1185.164062 422.769531 M 1194.800781 427.871094 C 1177.273438 446.875 1146.851562 450.25 1125.386719 437.457031 C 1116.402344 432.097656 1110.980469 423.230469 1110.265625 414.800781 C 1109.367188 404.226562 1113.601562 395.210938 1122.160156 387.976562 C 1140.4375 372.527344 1169.230469 370.03125 1189.53125 383.199219 C 1205.136719 393.324219 1207.808594 413.765625 1194.800781 427.871094 "></path><path style=" stroke:none;fill-rule:nonzero;fill:rgb(100%,100%,100%);fill-opacity:1;" d="M 1074.792969 415.585938 C 1067.308594 406.824219 1052.992188 409.128906 1045.855469 417.191406 C 1044.277344 418.972656 1039.703125 419.644531 1038.101562 418.46875 C 1036.507812 417.296875 1036.371094 412.074219 1037.75 410.441406 C 1047.789062 398.550781 1064.699219 396.4375 1078.375 403.675781 C 1081.71875 405.445312 1084.773438 409.421875 1086.292969 413.28125 C 1087.144531 415.449219 1084.613281 420.28125 1082.53125 420.476562 C 1079.898438 420.726562 1077.171875 418.371094 1074.792969 415.585938 "></path><path style=" stroke:none;fill-rule:nonzero;fill:rgb(100%,100%,100%);fill-opacity:1;" d="M 975.667969 499.753906 C 976.609375 508.570312 956.792969 497.707031 953.398438 511.480469 C 952.8125 513.859375 949.429688 516.539062 946.628906 516.082031 C 944.308594 515.703125 942.417969 510.9375 943.308594 507.917969 C 946.847656 495.910156 958.699219 491.660156 970.878906 493.9375 C 972.769531 494.292969 975.453125 497.746094 975.667969 499.753906 "></path><path style=" stroke:none;fill-rule:nonzero;fill:rgb(100%,100%,100%);fill-opacity:1;" d="M 1135.660156 358.332031 C 1132.742188 340.933594 1119.105469 348.433594 1114.84375 342.4375 C 1113.707031 340.839844 1116.027344 336.011719 1118.296875 335.648438 C 1130.144531 333.757812 1142.910156 340.644531 1144.734375 353.070312 C 1144.960938 354.605469 1143.652344 358.277344 1142.816406 359.503906 C 1141.808594 360.984375 1136.003906 360.375 1135.660156 358.332031 "></path><path style=" stroke:none;fill-rule:nonzero;fill:rgb(100%,100%,100%);fill-opacity:1;" d="M 1054.132812 327.316406 C 1056.757812 326.863281 1060.472656 327.671875 1061.386719 329.191406 C 1062.484375 331.007812 1060.6875 335.871094 1058.75 336.589844 C 1056.765625 337.324219 1052.300781 336.660156 1051.265625 334.871094 C 1050.226562 333.082031 1052.09375 327.671875 1054.132812 327.316406 "></path><path style=" stroke:none;fill-rule:nonzero;fill:rgb(100%,100%,100%);fill-opacity:1;" d="M 1037.242188 352.332031 C 1039.078125 351.648438 1043.035156 352.964844 1044.210938 354.335938 C 1045.734375 356.109375 1044.0625 361.171875 1041.605469 362.128906 C 1039.667969 362.886719 1035.980469 361.605469 1034.25 359.683594 C 1032.847656 358.125 1034.773438 353.253906 1037.242188 352.332031 "></path><path style=" stroke:none;fill-rule:nonzero;fill:rgb(100%,100%,100%);fill-opacity:1;" d="M 985.269531 430.710938 C 987.339844 429.796875 991.789062 430.734375 992.675781 432.328125 C 993.5625 433.925781 992.117188 438.1875 990.457031 439.230469 C 988.925781 440.191406 985.714844 439.996094 984.242188 438.917969 C 982.253906 437.464844 982.867188 431.773438 985.269531 430.710938 "></path><path style=" stroke:none;fill-rule:nonzero;fill:rgb(100%,100%,100%);fill-opacity:1;" d="M 971.03125 451.042969 C 973.222656 450.109375 977.691406 450.671875 978.6875 452.222656 C 979.683594 453.769531 979.40625 457.671875 977.855469 458.660156 C 976.238281 459.691406 972.210938 459.78125 970.558594 458.988281 C 968.515625 458.007812 968.523438 452.109375 971.03125 451.042969 "></path><path style=" stroke:none;fill-rule:nonzero;fill:rgb(100%,100%,100%);fill-opacity:1;" d="M 1059.328125 481.394531 C 1056.0625 482.820312 1051.753906 480.132812 1051.960938 478.046875 C 1052.136719 476.246094 1054.0625 473.039062 1055.761719 472.3125 C 1057.417969 471.601562 1061.070312 473.171875 1062.40625 474.816406 C 1063.539062 476.210938 1061.703125 480.359375 1059.328125 481.394531 "></path><path style=" stroke:none;fill-rule:nonzero;fill:rgb(0%,0%,0%);fill-opacity:1;" d="M 1155.550781 426.953125 C 1158.398438 427.5 1161.652344 423.234375 1161.125 421.171875 C 1160.648438 419.308594 1157.113281 417.277344 1154.183594 417.609375 C 1152.339844 417.820312 1149.628906 421.019531 1149.855469 422.683594 C 1150.042969 424.074219 1152.925781 426.449219 1155.550781 426.953125 M 1173.363281 400.285156 C 1170.785156 401.8125 1170.84375 407.628906 1172.980469 408.546875 C 1174.832031 409.339844 1178.878906 409.261719 1180.394531 408.109375 C 1181.914062 406.957031 1182.789062 402.773438 1181.46875 401.398438 C 1180.085938 399.957031 1175.179688 399.210938 1173.363281 400.285156 M 1140.164062 395.808594 C 1138.113281 395.71875 1135.722656 401.59375 1137.023438 403.539062 C 1138.148438 405.222656 1141.625 405.769531 1144.285156 405.351562 C 1146.285156 405.039062 1148.132812 400.539062 1147.101562 398.550781 C 1146.292969 396.996094 1143.074219 395.941406 1140.164062 395.808594 M 1185.164062 422.769531 C 1169.847656 436.453125 1147.070312 438.046875 1129.875 427.699219 C 1124.757812 424.621094 1121.042969 418.039062 1120.894531 413.417969 C 1120.699219 407.410156 1123.160156 401.324219 1127.910156 397.179688 C 1151.113281 376.9375 1187.855469 385.699219 1191.566406 402.976562 C 1193.117188 410.195312 1191.25 417.332031 1185.164062 422.769531 "></path><path style=" stroke:none;fill-rule:nonzero;fill:rgb(100%,100%,100%);fill-opacity:1;" d="M 1140.164062 395.808594 C 1143.074219 395.941406 1146.292969 396.996094 1147.101562 398.550781 C 1148.132812 400.539062 1146.285156 405.039062 1144.28125 405.351562 C 1141.625 405.769531 1138.148438 405.222656 1137.023438 403.539062 C 1135.722656 401.59375 1138.113281 395.71875 1140.164062 395.808594 "></path><path style=" stroke:none;fill-rule:nonzero;fill:rgb(100%,100%,100%);fill-opacity:1;" d="M 1173.363281 400.285156 C 1175.179688 399.210938 1180.085938 399.957031 1181.46875 401.398438 C 1182.789062 402.773438 1181.914062 406.957031 1180.398438 408.109375 C 1178.878906 409.261719 1174.832031 409.339844 1172.980469 408.546875 C 1170.84375 407.628906 1170.785156 401.8125 1173.363281 400.285156 "></path><path style=" stroke:none;fill-rule:nonzero;fill:rgb(100%,100%,100%);fill-opacity:1;" d="M 1155.550781 426.953125 C 1152.925781 426.449219 1150.042969 424.074219 1149.855469 422.683594 C 1149.628906 421.019531 1152.339844 417.820312 1154.183594 417.609375 C 1157.113281 417.277344 1160.648438 419.308594 1161.125 421.171875 C 1161.652344 423.234375 1158.398438 427.5 1155.550781 426.953125 "></path></g></svg>