<?xml version='1.0' encoding='utf-8'?>
<svg xmlns="http://www.w3.org/2000/svg" viewBox="3003.94 826.76 501.53 403.67" width="80" height="80" fill="none"><g><path style=" stroke:none;fill-rule:nonzero;fill:rgb(100%,100%,100%);fill-opacity:1;" d="M 3256.042969 1155.210938 L 3317.09375 1127.640625 C 3275.011719 1120.941406 3237.308594 1120.605469 3195.460938 1127.886719 C 3215.207031 1138.265625 3234.007812 1146.609375 3256.042969 1155.210938 M 3382.503906 1140.222656 L 3339.558594 1130.269531 L 3271.945312 1160.789062 C 3261.039062 1165.710938 3250.082031 1166.246094 3239.140625 1161.324219 L 3170.488281 1130.429688 L 3127.304688 1140.433594 L 3099.796875 1101.371094 C 3087.046875 1093.632812 3071.5 1088.296875 3055.492188 1081.585938 L 3055.082031 1112.195312 L 3245.222656 1195.519531 C 3250.921875 1198.019531 3258.886719 1198.128906 3264.652344 1195.585938 L 3453.050781 1112.480469 C 3454.535156 1102.214844 3454.601562 1093.46875 3453.753906 1081.085938 L 3410.648438 1099.953125 Z M 3373.757812 1069.160156 C 3345.683594 1088.386719 3311.445312 1092.167969 3280.214844 1077.765625 C 3276.445312 1076.027344 3269.484375 1077.554688 3265.710938 1080.75 C 3289.355469 1101.097656 3361.296875 1102.996094 3373.757812 1069.160156 M 3242.507812 1081.46875 C 3235.386719 1073.785156 3227.507812 1075.964844 3219.492188 1077.882812 C 3189.878906 1084.960938 3160.097656 1081.351562 3135.441406 1063.105469 C 3140.714844 1097.386719 3216.152344 1101.15625 3242.507812 1081.46875 M 3356.3125 1067.824219 L 3328.863281 1051.820312 L 3288.972656 1070.777344 C 3312.359375 1080.34375 3335.3125 1078.195312 3356.3125 1067.824219 M 3218.0625 1068.316406 L 3177.253906 1050.390625 L 3151.789062 1061.710938 C 3171.789062 1072.230469 3194.40625 1074.351562 3218.0625 1068.316406 M 3134.082031 1044.40625 C 3136.589844 1047.777344 3143.503906 1052.363281 3147.464844 1052.339844 C 3152.179688 1052.3125 3159.007812 1048.746094 3163.292969 1044.304688 L 3060.425781 998.171875 C 3051.761719 1003.117188 3044.09375 1008.269531 3036.03125 1015.386719 C 3045.65625 1033.109375 3071.179688 1004.566406 3087.460938 1034.796875 C 3099.1875 1056.574219 3115.695312 1019.703125 3134.082031 1044.40625 M 3422.089844 1045.101562 C 3431.476562 1040.035156 3432.523438 1016.25 3457.464844 1023.449219 C 3460.132812 1024.21875 3469.191406 1022.703125 3467.984375 1020.265625 L 3462.863281 1009.933594 L 3465.777344 991.320312 L 3379.929688 1029.148438 L 3340.851562 1047.402344 C 3349.539062 1053.171875 3357.1875 1056.808594 3365.953125 1058.082031 L 3380.542969 1042.039062 C 3390.492188 1031.101562 3411.664062 1050.726562 3422.089844 1045.101562 M 3453.175781 952.46875 L 3269.929688 1033.675781 C 3259.988281 1038.078125 3249.472656 1038.203125 3239.699219 1033.898438 L 3055.671875 952.878906 C 3055.039062 964.914062 3055.105469 973.796875 3055.867188 983.789062 L 3254.792969 1072.449219 L 3453.675781 983.5625 Z M 3413.027344 957.113281 C 3427.84375 951.019531 3439.65625 946.570312 3453.78125 938.242188 L 3269.460938 863.417969 C 3259.910156 858.863281 3249.542969 858.835938 3239.894531 863.292969 L 3054.933594 939.078125 L 3254.695312 1027.644531 Z M 3028.832031 1054.964844 L 3057.757812 1039.859375 C 3059.203125 1039.101562 3063.460938 1045.253906 3062.398438 1046.488281 C 3061.335938 1047.71875 3058.847656 1050.472656 3057.269531 1051.410156 L 3039.636719 1061.910156 L 3087.746094 1082.070312 L 3068.269531 1047.511719 C 3067.65625 1046.425781 3067.214844 1042.066406 3067.027344 1041.027344 C 3063.039062 1019.132812 3111.074219 1096.210938 3109.628906 1093.902344 L 3131.105469 1128.265625 C 3213.285156 1108.5 3296.839844 1107.191406 3378.980469 1128.652344 L 3422.132812 1058.832031 L 3388.222656 1049.40625 C 3389.519531 1070.1875 3378.359375 1088.070312 3359.074219 1096.855469 C 3324.78125 1112.472656 3285.914062 1107.183594 3253.96875 1085.742188 C 3219.316406 1109.652344 3171.765625 1110.496094 3137.605469 1085.90625 C 3124.132812 1076.207031 3120.839844 1060.839844 3122.117188 1045.148438 C 3112.640625 1048.191406 3102.898438 1052.535156 3093.777344 1051.601562 C 3076.132812 1049.792969 3084.761719 1025.527344 3053.15625 1031.769531 C 3040.695312 1034.230469 3024.824219 1028.261719 3026.738281 1013.296875 C 3027.6875 1005.875 3039.152344 998.777344 3046.617188 995.058594 C 3041.054688 981.839844 3040.359375 945.035156 3046.558594 929.117188 L 3239.34375 851.082031 C 3248.410156 847.414062 3259.65625 846.761719 3268.792969 850.453125 L 3455.785156 925.972656 C 3460.429688 927.847656 3465.542969 936.535156 3465.714844 940.851562 L 3467.261719 980.363281 C 3470.679688 983.5625 3475.949219 988.183594 3477.453125 991.125 C 3479.167969 994.484375 3473.457031 1002.808594 3474.589844 1006.632812 C 3476.15625 1011.90625 3479.988281 1022.125 3477.769531 1026.773438 C 3471.335938 1040.257812 3452.605469 1030.230469 3444.230469 1033.78125 C 3441.484375 1034.941406 3440.683594 1042.507812 3439.332031 1045.414062 L 3422.359375 1081.90625 L 3468.140625 1060.996094 L 3449.894531 1049.792969 C 3448.527344 1048.953125 3447.171875 1043.804688 3447.65625 1042.253906 C 3448.140625 1040.703125 3453.429688 1040.917969 3454.9375 1041.679688 L 3479.511719 1054.058594 C 3481.550781 1055.085938 3485.46875 1060.5625 3484.277344 1062.34375 C 3476.53125 1073.957031 3473.707031 1067.445312 3466.433594 1076.886719 L 3466.0625 1113.007812 C 3466.023438 1116.585938 3458.980469 1123.085938 3455.703125 1124.527344 L 3269.933594 1206.121094 C 3260.109375 1210.433594 3249.53125 1210.355469 3239.882812 1206.125 L 3054.035156 1124.628906 C 3046.671875 1121.398438 3042.609375 1114.015625 3042.667969 1106.347656 L 3042.878906 1077.140625 L 3031.226562 1069.042969 C 3029.554688 1067.882812 3026.621094 1065.261719 3025.429688 1064.042969 C 3023.941406 1062.519531 3026.941406 1055.949219 3028.832031 1054.964844 "></path><path style=" stroke:none;fill-rule:nonzero;fill:rgb(0%,0%,0%);fill-opacity:1;" d="M 3413.027344 957.113281 L 3254.695312 1027.644531 L 3054.933594 939.078125 L 3239.894531 863.292969 C 3249.542969 858.835938 3259.910156 858.863281 3269.460938 863.417969 L 3453.78125 938.242188 C 3439.65625 946.566406 3427.84375 951.019531 3413.027344 957.113281 "></path><path style=" stroke:none;fill-rule:nonzero;fill:rgb(0%,0%,0%);fill-opacity:1;" d="M 3453.175781 952.46875 L 3453.675781 983.5625 L 3254.792969 1072.449219 L 3055.867188 983.789062 C 3055.105469 973.796875 3055.039062 964.914062 3055.671875 952.878906 L 3239.699219 1033.898438 C 3249.472656 1038.199219 3259.988281 1038.078125 3269.929688 1033.675781 Z M 3453.175781 952.46875 "></path><path style=" stroke:none;fill-rule:nonzero;fill:rgb(0%,0%,0%);fill-opacity:1;" d="M 3422.085938 1045.101562 C 3411.660156 1050.726562 3390.488281 1031.101562 3380.542969 1042.039062 L 3365.953125 1058.082031 C 3357.1875 1056.808594 3349.539062 1053.171875 3340.851562 1047.402344 L 3379.929688 1029.148438 L 3465.777344 991.320312 L 3462.863281 1009.933594 L 3467.984375 1020.265625 C 3469.191406 1022.703125 3460.132812 1024.21875 3457.464844 1023.449219 C 3432.523438 1016.25 3431.476562 1040.035156 3422.085938 1045.101562 "></path><path style=" stroke:none;fill-rule:nonzero;fill:rgb(0%,0%,0%);fill-opacity:1;" d="M 3134.078125 1044.40625 C 3115.695312 1019.703125 3099.1875 1056.574219 3087.460938 1034.796875 C 3071.179688 1004.566406 3045.65625 1033.109375 3036.03125 1015.386719 C 3044.09375 1008.269531 3051.761719 1003.117188 3060.425781 998.171875 L 3163.292969 1044.304688 C 3159.007812 1048.746094 3152.179688 1052.3125 3147.464844 1052.339844 C 3143.507812 1052.363281 3136.589844 1047.777344 3134.078125 1044.40625 "></path><path style=" stroke:none;fill-rule:nonzero;fill:rgb(0%,0%,0%);fill-opacity:1;" d="M 3218.0625 1068.316406 C 3194.40625 1074.351562 3171.789062 1072.230469 3151.789062 1061.710938 L 3177.253906 1050.390625 Z M 3218.0625 1068.316406 "></path><path style=" stroke:none;fill-rule:nonzero;fill:rgb(0%,0%,0%);fill-opacity:1;" d="M 3356.3125 1067.824219 C 3335.3125 1078.195312 3312.359375 1080.34375 3288.972656 1070.777344 L 3328.863281 1051.820312 Z M 3356.3125 1067.824219 "></path><path style=" stroke:none;fill-rule:nonzero;fill:rgb(0%,0%,0%);fill-opacity:1;" d="M 3242.507812 1081.46875 C 3216.152344 1101.15625 3140.714844 1097.386719 3135.4375 1063.105469 C 3160.097656 1081.351562 3189.878906 1084.960938 3219.492188 1077.882812 C 3227.503906 1075.96875 3235.386719 1073.785156 3242.507812 1081.46875 "></path><path style=" stroke:none;fill-rule:nonzero;fill:rgb(0%,0%,0%);fill-opacity:1;" d="M 3373.757812 1069.160156 C 3361.296875 1102.992188 3289.355469 1101.097656 3265.710938 1080.75 C 3269.484375 1077.554688 3276.445312 1076.023438 3280.214844 1077.761719 C 3311.445312 1092.171875 3345.683594 1088.386719 3373.757812 1069.160156 "></path><path style=" stroke:none;fill-rule:nonzero;fill:rgb(0%,0%,0%);fill-opacity:1;" d="M 3382.503906 1140.222656 L 3410.648438 1099.953125 L 3453.753906 1081.085938 C 3454.601562 1093.46875 3454.535156 1102.214844 3453.050781 1112.480469 L 3264.652344 1195.585938 C 3258.890625 1198.128906 3250.921875 1198.019531 3245.222656 1195.519531 L 3055.082031 1112.195312 L 3055.492188 1081.585938 C 3071.496094 1088.296875 3087.046875 1093.632812 3099.796875 1101.371094 L 3127.304688 1140.433594 L 3170.488281 1130.429688 L 3239.144531 1161.324219 C 3250.082031 1166.246094 3261.039062 1165.710938 3271.945312 1160.789062 L 3339.558594 1130.269531 Z M 3382.503906 1140.222656 "></path><path style=" stroke:none;fill-rule:nonzero;fill:rgb(0%,0%,0%);fill-opacity:1;" d="M 3256.042969 1155.210938 C 3234.007812 1146.609375 3215.207031 1138.265625 3195.460938 1127.886719 C 3237.308594 1120.605469 3275.011719 1120.941406 3317.09375 1127.640625 Z M 3256.042969 1155.210938 "></path></g></svg>