<?xml version='1.0' encoding='utf-8'?>
<svg xmlns="http://www.w3.org/2000/svg" viewBox="2245.81 792.47 529.77 469.20" width="80" height="80" fill="none"><g><path style=" stroke:none;fill-rule:nonzero;fill:rgb(100%,100%,100%);fill-opacity:1;" d="M 2395.65625 1184.96875 C 2398.4375 1179.117188 2400.351562 1173.753906 2397.277344 1168.738281 C 2393.246094 1174.253906 2389.226562 1183.351562 2388.230469 1188.351562 C 2388.066406 1189.179688 2392.644531 1191.296875 2393.011719 1190.53125 Z M 2631.621094 1190.234375 C 2631.957031 1180.070312 2628.832031 1173.0625 2622.671875 1168.226562 C 2620.671875 1176.828125 2625.066406 1185.425781 2631.621094 1190.234375 M 2576.960938 1150.660156 C 2589.792969 1158.375 2602.488281 1168.796875 2617.988281 1159.179688 C 2611.683594 1153.851562 2577.335938 1139.199219 2576.960938 1150.660156 M 2445.097656 1148.566406 C 2436.824219 1145.285156 2429.382812 1146.515625 2423.019531 1149.574219 L 2403.128906 1159.136719 C 2419.085938 1168.558594 2432.539062 1158.449219 2445.097656 1148.566406 M 2686.632812 1161.914062 C 2681.152344 1150.121094 2674.660156 1143.140625 2665.875 1137.625 C 2667.324219 1149.535156 2674.65625 1162.71875 2686.632812 1161.914062 M 2334.472656 1162.039062 C 2350.292969 1159.132812 2353.699219 1148.464844 2354.742188 1137.578125 C 2345.566406 1143.988281 2337.453125 1153.066406 2334.472656 1162.039062 M 2650.933594 1137.007812 C 2652.609375 1137.402344 2656.71875 1129.914062 2655.1875 1129.414062 C 2654.164062 1129.078125 2650.488281 1127.496094 2649.269531 1127.269531 L 2611.1875 1120.238281 C 2608.945312 1119.820312 2603.914062 1124.363281 2605.066406 1126.179688 Z M 2417.777344 1122.980469 C 2415.417969 1116.445312 2356.585938 1127.792969 2364.949219 1133.890625 C 2373.839844 1140.371094 2410.050781 1129.105469 2417.777344 1122.980469 M 2629.605469 1096.476562 C 2641.429688 1102.136719 2664.855469 1101.667969 2676.992188 1100.960938 C 2709.757812 1099.054688 2631.382812 1082.082031 2629.605469 1096.476562 M 2389.929688 1098.726562 C 2394.570312 1082.621094 2325.136719 1094.929688 2341.351562 1099.203125 C 2342.367188 1099.46875 2346.957031 1102.132812 2348.113281 1102.039062 Z M 2719.480469 1082.011719 C 2707.527344 1078.34375 2695.621094 1086.09375 2688.445312 1097.363281 C 2699.394531 1095.453125 2709.03125 1090.699219 2719.480469 1082.011719 M 2331.304688 1096.515625 C 2332.082031 1089.632812 2299.882812 1075.480469 2303.261719 1081.773438 L 2306.046875 1086.964844 C 2312.273438 1090.074219 2324.484375 1095.285156 2331.304688 1096.515625 M 2293.890625 1074.613281 C 2298.738281 1070.75 2292.15625 1062.738281 2287.820312 1065.082031 Z M 2645.960938 1067.011719 L 2678.554688 1056.382812 C 2680.671875 1055.691406 2685.113281 1050.976562 2683.378906 1050.28125 C 2682.074219 1049.757812 2677.175781 1047.828125 2675.851562 1048.230469 L 2647.765625 1056.71875 C 2647.015625 1059.621094 2646.300781 1063.75 2645.960938 1067.011719 M 2374.128906 1066.683594 C 2374.710938 1064.589844 2375.324219 1058.890625 2375.289062 1057.347656 L 2345.238281 1048.070312 C 2343.277344 1047.464844 2336.589844 1050.164062 2337.558594 1051.449219 C 2338.273438 1052.394531 2340.921875 1055.757812 2342.265625 1056.199219 Z M 2714.058594 1020.457031 C 2710.324219 1008.410156 2689.125 1043.375 2692.539062 1044.847656 C 2701.546875 1037.0625 2706.085938 1031.199219 2714.058594 1020.457031 M 2327.59375 1044.632812 C 2325.773438 1032.015625 2320.570312 1021.914062 2307.601562 1018.40625 C 2312.339844 1027.949219 2319.679688 1036.9375 2327.59375 1044.632812 M 2639.84375 1025.257812 C 2649.3125 1020.90625 2658.703125 1016.007812 2661.625 1009.238281 C 2666.097656 998.875 2653.070312 984.875 2642.246094 987.085938 C 2633.546875 988.867188 2625.910156 998.972656 2623.242188 1006.507812 Z M 2381.832031 1025.78125 L 2398.792969 1004.996094 C 2392.453125 996.628906 2386.996094 991.085938 2379.109375 985.308594 C 2365.914062 989.171875 2359.75 996.148438 2358.265625 1009.476562 C 2365.480469 1016.101562 2371.996094 1020.429688 2381.832031 1025.78125 M 2566.773438 1142.589844 C 2584.976562 1127.273438 2602.488281 1111.597656 2618.714844 1094.355469 C 2630.433594 1081.910156 2636.441406 1066.214844 2635.410156 1049.609375 C 2634.523438 1035.359375 2624.847656 1021.070312 2611.863281 1010.988281 C 2583.136719 988.671875 2547.984375 982.695312 2511.644531 982.277344 C 2474.101562 981.847656 2438.5625 988.402344 2409.0625 1011.113281 C 2383.1875 1031.027344 2377.71875 1065.203125 2399.9375 1090.816406 C 2417.613281 1111.1875 2438.160156 1129.910156 2460.316406 1146.328125 C 2482.003906 1162.402344 2540.277344 1164.878906 2566.773438 1142.589844 M 2672.066406 995.699219 C 2682.214844 987.59375 2685.808594 970.933594 2683.339844 958.359375 C 2672.9375 965.710938 2661.375 969.917969 2648.746094 974.175781 Z M 2371.191406 974.871094 L 2366.226562 970.722656 C 2354.679688 969.753906 2347.417969 965.019531 2337.804688 957.277344 C 2335.464844 970.230469 2339.886719 985.628906 2348.195312 996.058594 Z M 2664.882812 900.941406 C 2651.21875 897.539062 2637.121094 902.378906 2628.816406 912.722656 C 2616.726562 927.78125 2622.628906 948.691406 2638.304688 957.328125 C 2651.996094 964.878906 2674.882812 960.335938 2679.6875 943.277344 C 2683.988281 928.015625 2676.050781 912.277344 2664.882812 900.941406 M 2394.308594 916.273438 C 2388.257812 905.328125 2371.472656 895.984375 2359.214844 901.113281 C 2345.503906 906.855469 2338.121094 927.195312 2341.441406 941.460938 C 2345.476562 958.820312 2367.054688 964.722656 2381.128906 958.339844 C 2395.464844 951.84375 2403.578125 933.042969 2394.308594 916.273438 M 2617.199219 910.921875 C 2598.65625 906.023438 2585.085938 897.339844 2570.019531 885.261719 C 2574.273438 908.726562 2590.941406 925.421875 2611.527344 934.503906 Z M 2409.375 935.378906 C 2431.414062 925.097656 2447.792969 906.046875 2451.875 883.925781 C 2437.472656 897.085938 2421.46875 906.34375 2403.683594 910.707031 Z M 2656.941406 886.566406 C 2641.84375 854.75 2614.84375 839.9375 2584.675781 842.234375 C 2606.15625 857.886719 2619.941406 873.03125 2628.804688 897.199219 Z M 2392.324219 897.445312 C 2400.757812 873.753906 2416.355469 856.433594 2436.433594 842.3125 C 2406.273438 838.457031 2375.203125 858.785156 2364.398438 887.996094 Z M 2651.070312 1118.574219 C 2679.152344 1125.425781 2712.992188 1162.921875 2698 1203.316406 C 2697.390625 1204.957031 2694.878906 1207.464844 2693.816406 1207.585938 C 2692.214844 1207.769531 2688.578125 1204.925781 2688.082031 1203.203125 L 2679.707031 1173.984375 L 2656.164062 1148.027344 L 2608.242188 1137.023438 C 2601.671875 1135.515625 2597.566406 1133.128906 2590.039062 1136.554688 L 2615.664062 1146.117188 C 2624.589844 1149.449219 2629.59375 1157.785156 2634.746094 1165.921875 C 2646.898438 1185.105469 2644.195312 1206.703125 2626.351562 1221.089844 C 2600.8125 1241.675781 2631.289062 1185.457031 2608.246094 1174.367188 C 2595.132812 1168.054688 2579.546875 1166.371094 2566.441406 1156.085938 C 2531.03125 1172.996094 2489.726562 1172.398438 2453.796875 1156.167969 C 2440.492188 1165.558594 2426.296875 1169.324219 2412.285156 1175.078125 C 2393.445312 1182.816406 2412.316406 1225.449219 2402.765625 1225.574219 C 2388.515625 1218.433594 2376.261719 1202.898438 2379.453125 1185.921875 C 2381.59375 1174.539062 2389.324219 1157.890625 2398.644531 1150.679688 C 2408.65625 1143.425781 2421.460938 1141.375 2432.238281 1135.859375 C 2423.511719 1134.636719 2416.160156 1136.25 2407.796875 1138.136719 L 2364.863281 1147.820312 L 2342.601562 1174.195312 C 2335.898438 1182.136719 2335.867188 1209.75 2329.59375 1207.621094 C 2316.078125 1203.035156 2317.992188 1168.257812 2324.300781 1157.695312 C 2333.824219 1141.742188 2347.828125 1125.007812 2365.609375 1120.171875 L 2403.425781 1109.882812 C 2364.464844 1106.480469 2356.230469 1120.324219 2313.222656 1100.492188 C 2280.445312 1085.378906 2265.8125 1048.984375 2274.519531 1041.066406 C 2280.316406 1035.792969 2295.683594 1062.570312 2304.945312 1067.585938 L 2337.9375 1085.449219 L 2382.917969 1080.203125 C 2365.839844 1072.066406 2350.4375 1071.257812 2336.40625 1062.957031 C 2305.007812 1044.375 2276.886719 1000.300781 2301.308594 967.144531 C 2309.636719 979.390625 2309.742188 995.472656 2316.433594 1006.496094 L 2338.632812 1037.003906 L 2374.820312 1047.210938 L 2377.796875 1033.9375 C 2361.410156 1029.699219 2354.402344 1017.246094 2345.230469 1007.363281 C 2328.511719 989.351562 2325.753906 972.34375 2328.550781 948.363281 C 2331.007812 927.320312 2331.535156 904.292969 2353.652344 891.476562 C 2370.417969 821.550781 2457.886719 826.484375 2457.390625 839.222656 C 2457.085938 847.011719 2411.804688 860.804688 2402.667969 900.214844 C 2434.539062 897.964844 2454.335938 858.570312 2459.84375 863.117188 C 2461.601562 864.570312 2463.46875 869.792969 2463.449219 872.5 C 2463.148438 908.621094 2436.785156 932.578125 2406.945312 948.5625 L 2380.011719 973.289062 C 2389.6875 980.410156 2399.5625 988.738281 2406.945312 998.511719 C 2421.652344 991.125 2439.894531 982.640625 2456.5625 976.941406 C 2459.371094 975.980469 2463.011719 970.519531 2463.984375 968.453125 L 2474.167969 973.933594 C 2476.800781 975.351562 2479.476562 968.539062 2481.953125 961.941406 L 2492.761719 971.984375 L 2529.308594 971.28125 C 2532.367188 968.265625 2538.914062 962.734375 2540.4375 962.625 L 2542.625 972.175781 C 2543.109375 974.28125 2549.839844 972.617188 2551.707031 971.597656 L 2557.265625 968.558594 C 2558.421875 967.929688 2560.261719 975.148438 2561.734375 975.675781 C 2575.675781 980.640625 2599.773438 990.699219 2614.300781 998.621094 C 2622.332031 989.242188 2630.664062 981.648438 2642.386719 972.589844 L 2614.003906 948.523438 C 2613.847656 948.394531 2542.234375 910.378906 2559.871094 863.84375 C 2560.484375 862.230469 2566.230469 863.480469 2567.332031 864.988281 C 2578.894531 880.800781 2596.878906 897.582031 2618.011719 899.480469 C 2605.714844 859.050781 2571.414062 849.78125 2563.800781 841.78125 C 2552.910156 830.335938 2638.734375 812.472656 2671.742188 890.292969 C 2680.203125 910.242188 2694.347656 921.761719 2693.394531 947.441406 C 2692.539062 970.496094 2696.121094 990.097656 2675.652344 1008.507812 C 2667.789062 1015.582031 2659.050781 1030.539062 2645.609375 1033.421875 C 2644.394531 1036.207031 2645.183594 1044.722656 2646.089844 1047.671875 L 2682.820312 1036.355469 L 2705.4375 1006.140625 C 2710.277344 993.976562 2712.566406 979.792969 2718.601562 966.648438 C 2749.816406 998.382812 2707.601562 1055.410156 2680.554688 1065.15625 L 2639.816406 1079.835938 L 2683.660156 1085.253906 L 2715.695312 1067.996094 C 2726.3125 1062.277344 2736.097656 1042.589844 2745.601562 1041.019531 C 2755.578125 1039.363281 2745.992188 1084.664062 2705.570312 1101.695312 C 2661.699219 1120.175781 2659.007812 1106.050781 2616.722656 1110.195312 Z M 2651.070312 1118.574219 "></path><path style=" stroke:none;fill-rule:nonzero;fill:rgb(0%,0%,0%);fill-opacity:1;" d="M 2392.324219 897.445312 L 2364.398438 887.996094 C 2375.203125 858.785156 2406.273438 838.457031 2436.433594 842.3125 C 2416.355469 856.433594 2400.757812 873.753906 2392.324219 897.445312 "></path><path style=" stroke:none;fill-rule:nonzero;fill:rgb(0%,0%,0%);fill-opacity:1;" d="M 2656.941406 886.566406 L 2628.804688 897.195312 C 2619.9375 873.03125 2606.15625 857.886719 2584.675781 842.234375 C 2614.84375 839.9375 2641.84375 854.75 2656.941406 886.566406 "></path><path style=" stroke:none;fill-rule:nonzero;fill:rgb(0%,0%,0%);fill-opacity:1;" d="M 2409.375 935.378906 L 2403.683594 910.707031 C 2421.46875 906.34375 2437.472656 897.085938 2451.875 883.925781 C 2447.796875 906.046875 2431.414062 925.097656 2409.375 935.378906 "></path><path style=" stroke:none;fill-rule:nonzero;fill:rgb(0%,0%,0%);fill-opacity:1;" d="M 2617.199219 910.921875 L 2611.527344 934.503906 C 2590.941406 925.421875 2574.273438 908.726562 2570.019531 885.261719 C 2585.085938 897.339844 2598.65625 906.023438 2617.199219 910.921875 "></path><path style=" stroke:none;fill-rule:nonzero;fill:rgb(0%,0%,0%);fill-opacity:1;" d="M 2394.308594 916.273438 C 2403.578125 933.042969 2395.464844 951.84375 2381.132812 958.339844 C 2367.054688 964.722656 2345.476562 958.820312 2341.441406 941.460938 C 2338.121094 927.195312 2345.503906 906.855469 2359.214844 901.113281 C 2371.472656 895.980469 2388.257812 905.328125 2394.308594 916.273438 "></path><path style=" stroke:none;fill-rule:nonzero;fill:rgb(0%,0%,0%);fill-opacity:1;" d="M 2664.882812 900.941406 C 2676.050781 912.277344 2683.988281 928.015625 2679.6875 943.277344 C 2674.882812 960.335938 2651.996094 964.878906 2638.304688 957.328125 C 2622.632812 948.691406 2616.726562 927.78125 2628.816406 912.726562 C 2637.121094 902.378906 2651.21875 897.539062 2664.882812 900.941406 "></path><path style=" stroke:none;fill-rule:nonzero;fill:rgb(100%,100%,100%);fill-opacity:1;" d="M 2454.078125 940.175781 C 2459.535156 936.710938 2469.472656 939.082031 2472.027344 944.195312 C 2474.089844 948.324219 2472.941406 957.746094 2468.992188 960.835938 C 2464.574219 964.292969 2455.484375 963.132812 2451.550781 958.757812 C 2447.667969 954.441406 2448.035156 944.015625 2454.078125 940.175781 "></path><path style=" stroke:none;fill-rule:nonzero;fill:rgb(100%,100%,100%);fill-opacity:1;" d="M 2554.097656 940.050781 C 2560.46875 936.804688 2568.890625 939.878906 2571.007812 944.835938 C 2573.15625 949.867188 2571.28125 958.878906 2567.027344 961.203125 C 2562.046875 963.925781 2553.410156 962.65625 2550.875 959.144531 C 2547.207031 954.0625 2546.945312 943.695312 2554.097656 940.050781 "></path><path style=" stroke:none;fill-rule:nonzero;fill:rgb(0%,0%,0%);fill-opacity:1;" d="M 2371.191406 974.871094 L 2348.195312 996.058594 C 2339.886719 985.628906 2335.464844 970.230469 2337.804688 957.28125 C 2347.417969 965.019531 2354.679688 969.753906 2366.226562 970.722656 Z M 2371.191406 974.871094 "></path><path style=" stroke:none;fill-rule:nonzero;fill:rgb(0%,0%,0%);fill-opacity:1;" d="M 2672.066406 995.699219 L 2648.746094 974.175781 C 2661.375 969.917969 2672.9375 965.710938 2683.339844 958.359375 C 2685.808594 970.933594 2682.214844 987.59375 2672.066406 995.699219 "></path><path style=" stroke:none;fill-rule:nonzero;fill:rgb(0%,0%,0%);fill-opacity:1;" d="M 2566.773438 1142.589844 C 2540.277344 1164.878906 2482.003906 1162.402344 2460.316406 1146.328125 C 2438.160156 1129.910156 2417.613281 1111.1875 2399.941406 1090.816406 C 2377.71875 1065.203125 2383.191406 1031.027344 2409.0625 1011.113281 C 2438.566406 988.402344 2474.101562 981.847656 2511.644531 982.277344 C 2547.984375 982.695312 2583.136719 988.671875 2611.867188 1010.988281 C 2624.847656 1021.070312 2634.523438 1035.359375 2635.410156 1049.609375 C 2636.441406 1066.214844 2630.433594 1081.910156 2618.714844 1094.355469 C 2602.488281 1111.597656 2584.976562 1127.273438 2566.773438 1142.589844 "></path><path style=" stroke:none;fill-rule:nonzero;fill:rgb(0%,0%,0%);fill-opacity:1;" d="M 2639.84375 1025.257812 L 2623.242188 1006.507812 C 2625.910156 998.972656 2633.546875 988.867188 2642.246094 987.085938 C 2653.070312 984.875 2666.097656 998.871094 2661.625 1009.238281 C 2658.703125 1016.007812 2649.3125 1020.90625 2639.84375 1025.257812 "></path><path style=" stroke:none;fill-rule:nonzero;fill:rgb(0%,0%,0%);fill-opacity:1;" d="M 2381.832031 1025.78125 C 2371.996094 1020.429688 2365.480469 1016.105469 2358.265625 1009.476562 C 2359.75 996.148438 2365.914062 989.171875 2379.109375 985.308594 C 2386.996094 991.085938 2392.453125 996.628906 2398.792969 1004.996094 Z M 2381.832031 1025.78125 "></path><path style=" stroke:none;fill-rule:nonzero;fill:rgb(0%,0%,0%);fill-opacity:1;" d="M 2714.058594 1020.457031 C 2706.085938 1031.199219 2701.546875 1037.0625 2692.539062 1044.847656 C 2689.125 1043.375 2710.324219 1008.410156 2714.058594 1020.457031 "></path><path style=" stroke:none;fill-rule:nonzero;fill:rgb(0%,0%,0%);fill-opacity:1;" d="M 2327.59375 1044.632812 C 2319.683594 1036.9375 2312.339844 1027.949219 2307.601562 1018.40625 C 2320.570312 1021.914062 2325.773438 1032.015625 2327.59375 1044.632812 "></path><path style=" stroke:none;fill-rule:nonzero;fill:rgb(0%,0%,0%);fill-opacity:1;" d="M 2374.128906 1066.683594 L 2342.265625 1056.199219 C 2340.921875 1055.753906 2338.273438 1052.394531 2337.558594 1051.449219 C 2336.589844 1050.164062 2343.28125 1047.464844 2345.238281 1048.066406 L 2375.289062 1057.347656 C 2375.324219 1058.890625 2374.710938 1064.589844 2374.128906 1066.683594 "></path><path style=" stroke:none;fill-rule:nonzero;fill:rgb(0%,0%,0%);fill-opacity:1;" d="M 2645.960938 1067.011719 C 2646.300781 1063.75 2647.015625 1059.621094 2647.765625 1056.71875 L 2675.851562 1048.230469 C 2677.175781 1047.832031 2682.074219 1049.753906 2683.378906 1050.28125 C 2685.113281 1050.976562 2680.667969 1055.691406 2678.554688 1056.378906 Z M 2645.960938 1067.011719 "></path><path style=" stroke:none;fill-rule:nonzero;fill:rgb(0%,0%,0%);fill-opacity:1;" d="M 2293.890625 1074.613281 L 2287.820312 1065.082031 C 2292.152344 1062.738281 2298.738281 1070.75 2293.890625 1074.613281 "></path><path style=" stroke:none;fill-rule:nonzero;fill:rgb(0%,0%,0%);fill-opacity:1;" d="M 2331.304688 1096.515625 C 2324.484375 1095.285156 2312.273438 1090.074219 2306.046875 1086.964844 L 2303.261719 1081.773438 C 2299.878906 1075.480469 2332.082031 1089.632812 2331.304688 1096.515625 "></path><path style=" stroke:none;fill-rule:nonzero;fill:rgb(0%,0%,0%);fill-opacity:1;" d="M 2719.480469 1082.011719 C 2709.03125 1090.699219 2699.398438 1095.449219 2688.445312 1097.363281 C 2695.621094 1086.09375 2707.527344 1078.34375 2719.480469 1082.011719 "></path><path style=" stroke:none;fill-rule:nonzero;fill:rgb(0%,0%,0%);fill-opacity:1;" d="M 2629.605469 1096.476562 C 2631.382812 1082.082031 2709.757812 1099.058594 2676.992188 1100.964844 C 2664.855469 1101.667969 2641.429688 1102.140625 2629.605469 1096.476562 "></path><path style=" stroke:none;fill-rule:nonzero;fill:rgb(0%,0%,0%);fill-opacity:1;" d="M 2389.929688 1098.726562 L 2348.113281 1102.039062 C 2346.957031 1102.132812 2342.367188 1099.46875 2341.351562 1099.203125 C 2325.136719 1094.925781 2394.570312 1082.621094 2389.929688 1098.726562 "></path><path style=" stroke:none;fill-rule:nonzero;fill:rgb(0%,0%,0%);fill-opacity:1;" d="M 2417.777344 1122.980469 C 2410.050781 1129.105469 2373.839844 1140.371094 2364.949219 1133.890625 C 2356.582031 1127.792969 2415.417969 1116.445312 2417.777344 1122.980469 "></path><path style=" stroke:none;fill-rule:nonzero;fill:rgb(0%,0%,0%);fill-opacity:1;" d="M 2650.933594 1137.007812 L 2605.066406 1126.179688 C 2603.914062 1124.363281 2608.945312 1119.820312 2611.1875 1120.238281 L 2649.269531 1127.269531 C 2650.488281 1127.496094 2654.164062 1129.082031 2655.1875 1129.414062 C 2656.71875 1129.914062 2652.609375 1137.402344 2650.933594 1137.007812 "></path><path style=" stroke:none;fill-rule:nonzero;fill:rgb(0%,0%,0%);fill-opacity:1;" d="M 2334.472656 1162.039062 C 2337.453125 1153.066406 2345.566406 1143.988281 2354.742188 1137.578125 C 2353.699219 1148.464844 2350.292969 1159.132812 2334.472656 1162.039062 "></path><path style=" stroke:none;fill-rule:nonzero;fill:rgb(0%,0%,0%);fill-opacity:1;" d="M 2686.632812 1161.910156 C 2674.65625 1162.71875 2667.324219 1149.535156 2665.875 1137.625 C 2674.660156 1143.140625 2681.152344 1150.121094 2686.632812 1161.910156 "></path><path style=" stroke:none;fill-rule:nonzero;fill:rgb(0%,0%,0%);fill-opacity:1;" d="M 2576.960938 1150.660156 C 2577.335938 1139.199219 2611.683594 1153.851562 2617.988281 1159.179688 C 2602.488281 1168.796875 2589.792969 1158.375 2576.960938 1150.660156 "></path><path style=" stroke:none;fill-rule:nonzero;fill:rgb(0%,0%,0%);fill-opacity:1;" d="M 2445.101562 1148.566406 C 2432.539062 1158.449219 2419.085938 1168.558594 2403.128906 1159.136719 L 2423.023438 1149.574219 C 2429.382812 1146.515625 2436.824219 1145.285156 2445.101562 1148.566406 "></path><path style=" stroke:none;fill-rule:nonzero;fill:rgb(0%,0%,0%);fill-opacity:1;" d="M 2631.621094 1190.234375 C 2625.066406 1185.425781 2620.671875 1176.828125 2622.671875 1168.226562 C 2628.832031 1173.0625 2631.957031 1180.070312 2631.621094 1190.234375 "></path><path style=" stroke:none;fill-rule:nonzero;fill:rgb(0%,0%,0%);fill-opacity:1;" d="M 2395.65625 1184.96875 L 2393.011719 1190.53125 C 2392.644531 1191.296875 2388.066406 1189.179688 2388.230469 1188.351562 C 2389.226562 1183.351562 2393.246094 1174.253906 2397.277344 1168.738281 C 2400.351562 1173.753906 2398.4375 1179.117188 2395.65625 1184.96875 "></path></g></svg>