<?xml version='1.0' encoding='utf-8'?>
<svg xmlns="http://www.w3.org/2000/svg" viewBox="4460.36 172.11 564.59 352.68" width="80" height="80" fill="none"><g><path style=" stroke:none;fill-rule:nonzero;fill:rgb(100%,100%,100%);fill-opacity:1;" d="M 4926.5 492.6875 L 4933.703125 460.695312 L 4875.929688 461.199219 L 4884.183594 493.566406 Z M 4601.042969 492.835938 L 4609.390625 460.949219 L 4552.09375 460.914062 L 4560.296875 493.039062 Z M 4985.0625 449.558594 C 4985.644531 438.402344 4985.628906 430.476562 4985 420.828125 L 4498.566406 420.789062 L 4499.109375 449.546875 Z M 4708.46875 376.476562 L 4707.371094 335.078125 L 4657.121094 363.953125 C 4650 368.042969 4634.753906 364.105469 4626.402344 363.09375 C 4632.242188 395.710938 4683.65625 393.101562 4708.46875 376.476562 M 4666.929688 347.609375 C 4652.660156 332.964844 4634.0625 329.636719 4617.777344 336.433594 C 4618.0625 340.414062 4620.984375 348.164062 4624.171875 350.441406 C 4636.835938 359.472656 4656.632812 359.597656 4666.929688 347.609375 M 4762.542969 323.527344 L 4739.605469 322.683594 L 4740.648438 359.792969 C 4747.496094 357.964844 4757.238281 353.363281 4761.300781 348.214844 C 4765.46875 342.933594 4767.457031 326.042969 4762.542969 323.527344 M 4672.421875 345.101562 L 4688.726562 335.015625 C 4683.882812 318.429688 4667.644531 313.898438 4651.558594 311.15625 C 4637.882812 308.828125 4624.527344 314.175781 4622.953125 328.269531 C 4643.585938 325.199219 4659.636719 330.394531 4672.421875 345.101562 M 4699.265625 330.785156 C 4701.648438 330.652344 4706.589844 325.546875 4705.519531 323.488281 C 4697.199219 307.5 4676.296875 295.933594 4658.785156 294.648438 L 4643.09375 303.414062 C 4691.886719 309.320312 4687.960938 331.410156 4699.265625 330.785156 M 4747.730469 288.386719 L 4761.523438 310.976562 C 4762.839844 313.136719 4768.265625 315.070312 4770.390625 314.277344 C 4779.589844 310.839844 4755.101562 287.105469 4747.730469 288.386719 M 4754.679688 311.402344 C 4744.792969 290.996094 4724.484375 276.230469 4701.40625 281.226562 C 4745.179688 299.125 4728.820312 323.027344 4754.679688 311.402344 M 4609.023438 325.980469 C 4620.378906 317.726562 4629.597656 300.90625 4643.003906 293.800781 C 4650.320312 289.921875 4653.171875 282.421875 4647.453125 274.378906 L 4604.992188 300.390625 C 4595.167969 306.414062 4581.429688 303.863281 4569.023438 302.070312 C 4568.011719 317.941406 4593.035156 333.625 4609.023438 325.980469 M 4608.890625 285.941406 C 4596.792969 272.71875 4577.148438 269.160156 4562.878906 274.886719 C 4559.550781 276.214844 4562.546875 286.917969 4565.703125 289.113281 C 4579.066406 298.414062 4599.023438 299.621094 4608.890625 285.941406 M 4705.765625 271.488281 C 4707.996094 271.082031 4707.476562 263.027344 4705.207031 262.707031 L 4696.085938 261.433594 C 4693.242188 261.035156 4685.957031 261.992188 4683.28125 262.964844 C 4680.605469 263.9375 4681.890625 271.402344 4682.617188 275.6875 Z M 4614.8125 283.152344 C 4621.007812 279.585938 4627.621094 275.414062 4632.566406 271.855469 C 4622.394531 255.480469 4608.878906 252.878906 4592.902344 250.269531 C 4579.105469 248.019531 4567.128906 253.675781 4564.820312 267.96875 C 4585.546875 265.265625 4601.386719 268.035156 4614.8125 283.152344 M 4631.921875 262.726562 C 4633.777344 265.101562 4636.964844 270.5625 4638.980469 269.582031 C 4641.003906 268.597656 4645.046875 266.234375 4646.929688 264.933594 C 4655.117188 259.261719 4604.089844 216.730469 4587.320312 243.96875 C 4604.273438 246.09375 4621.585938 249.472656 4631.921875 262.726562 M 4713.792969 251.578125 C 4710.535156 237.121094 4698.90625 231.792969 4689.253906 227.371094 L 4703.238281 250.488281 C 4704.769531 253.019531 4714.515625 254.78125 4713.792969 251.578125 M 4917.097656 250.011719 C 4915.027344 226.578125 4858.25 206.964844 4817.070312 233.597656 C 4810.949219 237.558594 4806.515625 246.515625 4806.980469 252.644531 C 4807.339844 257.347656 4812.234375 265.429688 4817.421875 268.777344 C 4862.304688 297.71875 4919.140625 273.089844 4917.097656 250.011719 M 4697.996094 251.328125 C 4685.832031 232.097656 4668.828125 216.402344 4645.257812 220.191406 C 4661.394531 229.933594 4674.175781 237.984375 4682.027344 254.152344 Z M 4738.296875 260.621094 C 4736.011719 260.628906 4731.035156 257.457031 4730.4375 255.472656 C 4729.84375 253.492188 4734.445312 248.851562 4736.535156 248.851562 L 4794.539062 248.910156 C 4810.011719 206.800781 4870.394531 201.519531 4908.597656 222.53125 C 4918.570312 228.019531 4923.011719 240.503906 4930.484375 247.773438 C 4934.972656 252.140625 4952.589844 245.644531 4956.117188 254.707031 L 4997.519531 416.25 C 4996.894531 413.816406 5004.949219 460.363281 4983.402344 460.691406 L 4945.558594 461.273438 L 4934.300781 503.183594 C 4913.746094 504.675781 4895.5625 504.78125 4875.984375 502.707031 L 4863.722656 460.644531 L 4620.996094 460.886719 L 4609.371094 503.101562 C 4587.886719 504.457031 4571.972656 504.476562 4551.570312 502.824219 L 4540.34375 461.28125 L 4499.546875 460.660156 C 4480.359375 460.367188 4487.195312 415.300781 4487.621094 413.65625 L 4527.402344 260.355469 C 4529.507812 252.238281 4537.03125 248.722656 4544.804688 248.570312 L 4565.539062 248.160156 C 4603.472656 211.460938 4678.988281 192.105469 4716.746094 235.984375 C 4725.515625 246.171875 4723.671875 256.347656 4713.601562 269.148438 C 4736.875 273.128906 4757.269531 279.011719 4772.367188 293.414062 C 4784.984375 305.449219 4777.398438 314.851562 4775.960938 325.632812 C 4773.019531 347.71875 4767.132812 359.066406 4746.324219 368.777344 L 4701.6875 389.601562 C 4681.542969 399.003906 4659.136719 400.414062 4639.3125 391.171875 C 4614.234375 379.480469 4623.101562 364.804688 4607.78125 337.980469 C 4561.988281 330.144531 4566.738281 319.609375 4558.722656 298.050781 C 4553.875 285.015625 4546.464844 277.144531 4556.734375 259.707031 C 4550.40625 260.136719 4544.570312 260.730469 4538.941406 261.789062 L 4500.710938 409.863281 L 4984.121094 409.664062 L 4946.605469 261.535156 L 4927.539062 259.816406 L 4925.90625 322.660156 C 4925.3125 345.550781 4868.804688 369.011719 4819.425781 346.351562 C 4810.390625 342.207031 4797.328125 331.179688 4797.144531 320.800781 L 4796.070312 260.464844 Z M 4738.296875 260.621094 "></path><path style=" stroke:none;fill-rule:nonzero;fill:rgb(0%,0%,0%);fill-opacity:1;" d="M 4890.171875 260.523438 C 4896.269531 255.511719 4895.414062 244.984375 4889.789062 241.261719 C 4862.179688 222.980469 4827.359375 237.089844 4829.207031 252.25 C 4831.113281 267.851562 4868.722656 278.175781 4890.171875 260.523438 M 4917.097656 250.015625 C 4919.140625 273.089844 4862.304688 297.71875 4817.421875 268.777344 C 4812.234375 265.429688 4807.339844 257.347656 4806.980469 252.644531 C 4806.515625 246.515625 4810.949219 237.558594 4817.070312 233.597656 C 4858.25 206.964844 4915.027344 226.574219 4917.097656 250.015625 "></path><path style=" stroke:none;fill-rule:nonzero;fill:rgb(0%,0%,0%);fill-opacity:1;" d="M 4697.996094 251.324219 L 4682.027344 254.152344 C 4674.175781 237.984375 4661.394531 229.933594 4645.257812 220.191406 C 4668.828125 216.40625 4685.832031 232.09375 4697.996094 251.324219 "></path><path style=" stroke:none;fill-rule:nonzero;fill:rgb(0%,0%,0%);fill-opacity:1;" d="M 4631.921875 262.722656 C 4621.585938 249.472656 4604.273438 246.09375 4587.320312 243.96875 C 4604.089844 216.734375 4655.117188 259.261719 4646.929688 264.933594 C 4645.046875 266.234375 4641.003906 268.601562 4638.980469 269.582031 C 4636.964844 270.566406 4633.777344 265.101562 4631.921875 262.722656 "></path><path style=" stroke:none;fill-rule:nonzero;fill:rgb(100%,100%,100%);fill-opacity:1;" d="M 4859.921875 261.269531 C 4859.296875 257.984375 4857.617188 252.824219 4855.628906 248.429688 C 4854.351562 245.605469 4847.386719 242.777344 4844.578125 243.492188 C 4841.769531 244.207031 4837.039062 250.382812 4838.640625 252.839844 C 4842.160156 258.246094 4850.890625 260.800781 4859.921875 261.269531 M 4884.605469 248.859375 C 4878.300781 241 4866.855469 240.535156 4859.566406 241.242188 L 4869.960938 259.773438 C 4874.089844 262.371094 4889.296875 254.707031 4884.605469 248.859375 M 4890.171875 260.523438 C 4868.722656 278.175781 4831.113281 267.851562 4829.207031 252.25 C 4827.359375 237.089844 4862.175781 222.980469 4889.789062 241.261719 C 4895.414062 244.984375 4896.265625 255.511719 4890.171875 260.523438 "></path><path style=" stroke:none;fill-rule:nonzero;fill:rgb(0%,0%,0%);fill-opacity:1;" d="M 4713.792969 251.578125 C 4714.515625 254.78125 4704.769531 253.019531 4703.238281 250.488281 L 4689.253906 227.371094 C 4698.90625 231.792969 4710.535156 237.121094 4713.792969 251.578125 "></path><path style=" stroke:none;fill-rule:nonzero;fill:rgb(0%,0%,0%);fill-opacity:1;" d="M 4884.605469 248.859375 C 4889.296875 254.707031 4874.089844 262.371094 4869.964844 259.773438 L 4859.566406 241.242188 C 4866.855469 240.535156 4878.300781 241 4884.605469 248.859375 "></path><path style=" stroke:none;fill-rule:nonzero;fill:rgb(0%,0%,0%);fill-opacity:1;" d="M 4859.921875 261.269531 C 4850.890625 260.800781 4842.160156 258.246094 4838.640625 252.839844 C 4837.039062 250.382812 4841.769531 244.207031 4844.578125 243.492188 C 4847.386719 242.777344 4854.351562 245.605469 4855.628906 248.429688 C 4857.617188 252.824219 4859.296875 257.984375 4859.921875 261.269531 "></path><path style=" stroke:none;fill-rule:nonzero;fill:rgb(0%,0%,0%);fill-opacity:1;" d="M 4614.8125 283.152344 C 4601.386719 268.035156 4585.546875 265.265625 4564.820312 267.96875 C 4567.128906 253.675781 4579.105469 248.019531 4592.902344 250.269531 C 4608.878906 252.878906 4622.394531 255.480469 4632.566406 271.855469 C 4627.621094 275.414062 4621.007812 279.585938 4614.8125 283.152344 "></path><path style=" stroke:none;fill-rule:nonzero;fill:rgb(0%,0%,0%);fill-opacity:1;" d="M 4705.761719 271.488281 L 4682.617188 275.6875 C 4681.890625 271.402344 4680.605469 263.9375 4683.28125 262.964844 C 4685.957031 261.992188 4693.242188 261.035156 4696.085938 261.433594 L 4705.207031 262.707031 C 4707.476562 263.027344 4707.996094 271.082031 4705.761719 271.488281 "></path><path style=" stroke:none;fill-rule:nonzero;fill:rgb(0%,0%,0%);fill-opacity:1;" d="M 4608.890625 285.941406 C 4599.023438 299.621094 4579.070312 298.414062 4565.703125 289.113281 C 4562.546875 286.917969 4559.550781 276.214844 4562.878906 274.886719 C 4577.148438 269.160156 4596.792969 272.71875 4608.890625 285.941406 "></path><path style=" stroke:none;fill-rule:nonzero;fill:rgb(0%,0%,0%);fill-opacity:1;" d="M 4609.023438 325.980469 C 4593.035156 333.625 4568.011719 317.9375 4569.023438 302.070312 C 4581.429688 303.863281 4595.164062 306.410156 4604.992188 300.390625 L 4647.449219 274.378906 C 4653.171875 282.421875 4650.320312 289.921875 4643.003906 293.796875 C 4629.597656 300.90625 4620.378906 317.726562 4609.023438 325.980469 "></path><path style=" stroke:none;fill-rule:nonzero;fill:rgb(0%,0%,0%);fill-opacity:1;" d="M 4754.679688 311.402344 C 4728.820312 323.027344 4745.179688 299.125 4701.40625 281.226562 C 4724.484375 276.230469 4744.792969 290.996094 4754.679688 311.402344 "></path><path style=" stroke:none;fill-rule:nonzero;fill:rgb(0%,0%,0%);fill-opacity:1;" d="M 4747.730469 288.382812 C 4755.101562 287.105469 4779.589844 310.839844 4770.390625 314.277344 C 4768.265625 315.070312 4762.839844 313.136719 4761.523438 310.976562 Z M 4747.730469 288.382812 "></path><path style=" stroke:none;fill-rule:nonzero;fill:rgb(0%,0%,0%);fill-opacity:1;" d="M 4699.265625 330.785156 C 4687.960938 331.410156 4691.886719 309.320312 4643.09375 303.414062 L 4658.789062 294.652344 C 4676.296875 295.933594 4697.199219 307.5 4705.519531 323.488281 C 4706.589844 325.546875 4701.648438 330.652344 4699.265625 330.785156 "></path><path style=" stroke:none;fill-rule:nonzero;fill:rgb(0%,0%,0%);fill-opacity:1;" d="M 4672.421875 345.101562 C 4659.636719 330.394531 4643.585938 325.199219 4622.953125 328.269531 C 4624.527344 314.175781 4637.882812 308.828125 4651.558594 311.160156 C 4667.644531 313.898438 4683.882812 318.425781 4688.722656 335.015625 Z M 4672.421875 345.101562 "></path><path style=" stroke:none;fill-rule:nonzero;fill:rgb(0%,0%,0%);fill-opacity:1;" d="M 4762.542969 323.527344 C 4767.457031 326.042969 4765.46875 342.933594 4761.300781 348.214844 C 4757.242188 353.363281 4747.496094 357.964844 4740.648438 359.792969 L 4739.605469 322.683594 Z M 4762.542969 323.527344 "></path><path style=" stroke:none;fill-rule:nonzero;fill:rgb(0%,0%,0%);fill-opacity:1;" d="M 4666.929688 347.609375 C 4656.632812 359.597656 4636.835938 359.472656 4624.171875 350.441406 C 4620.984375 348.164062 4618.0625 340.414062 4617.777344 336.4375 C 4634.0625 329.636719 4652.664062 332.964844 4666.929688 347.609375 "></path><path style=" stroke:none;fill-rule:nonzero;fill:rgb(0%,0%,0%);fill-opacity:1;" d="M 4708.46875 376.476562 C 4683.65625 393.101562 4632.242188 395.710938 4626.402344 363.09375 C 4634.75 364.105469 4650 368.042969 4657.121094 363.953125 L 4707.371094 335.078125 Z M 4708.46875 376.476562 "></path><path style=" stroke:none;fill-rule:nonzero;fill:rgb(0%,0%,0%);fill-opacity:1;" d="M 4985.0625 449.558594 L 4499.109375 449.546875 L 4498.566406 420.785156 L 4985 420.828125 C 4985.628906 430.476562 4985.644531 438.402344 4985.0625 449.558594 "></path><path style=" stroke:none;fill-rule:nonzero;fill:rgb(0%,0%,0%);fill-opacity:1;" d="M 4926.5 492.6875 L 4884.183594 493.566406 L 4875.929688 461.199219 L 4933.703125 460.695312 Z M 4926.5 492.6875 "></path><path style=" stroke:none;fill-rule:nonzero;fill:rgb(0%,0%,0%);fill-opacity:1;" d="M 4601.042969 492.835938 L 4560.296875 493.039062 L 4552.09375 460.914062 L 4609.390625 460.949219 Z M 4601.042969 492.835938 "></path></g></svg>