<?xml version='1.0' encoding='utf-8'?>
<svg xmlns="http://www.w3.org/2000/svg" viewBox="1560.21 219.77 507.45 405.68" width="80" height="80" fill="none"><g><path style=" stroke:none;fill-rule:nonzero;fill:rgb(100%,100%,100%);fill-opacity:1;" d="M 1626.070312 476.445312 C 1621.769531 478.460938 1617.5 483.238281 1617.304688 487.335938 C 1617.089844 491.796875 1619.828125 495.398438 1623.175781 499.472656 C 1628.886719 506.433594 1620.898438 519.3125 1627.265625 523.808594 C 1632.464844 527.476562 1640.96875 521.660156 1643.878906 526.574219 C 1645.949219 530.066406 1649.570312 534.5 1652.59375 534.910156 C 1668.535156 537.074219 1677.640625 506.074219 1680.996094 493.457031 C 1687.527344 468.902344 1695.492188 446.175781 1704.898438 422.804688 C 1698.511719 422.148438 1694.359375 425.121094 1689.710938 429.242188 L 1674.613281 431.40625 C 1667.609375 436.035156 1664.742188 448.609375 1670.226562 454.960938 C 1672.105469 457.132812 1675.980469 459.980469 1676.082031 462.109375 C 1676.183594 464.238281 1674.070312 468.292969 1672.773438 469.777344 C 1660.070312 463.871094 1654.203125 452.105469 1658.890625 438.351562 C 1645.652344 436.75 1652.875 445.675781 1638.867188 447.339844 C 1634.292969 447.882812 1629.226562 451.460938 1628.097656 454.765625 C 1624.632812 464.902344 1635.453125 472.046875 1631.675781 473.816406 Z M 1695.179688 413.585938 C 1698.148438 413.894531 1703.765625 412.535156 1703.265625 410.464844 L 1701.113281 401.582031 C 1697.582031 405.203125 1695.628906 408.945312 1695.179688 413.585938 M 1698.203125 388.554688 C 1697.398438 377.164062 1697.277344 368.003906 1700.09375 357.761719 C 1689.339844 359.394531 1681.144531 368.199219 1678.089844 376.144531 C 1673.738281 387.460938 1675.746094 398.785156 1684.949219 407.152344 Z M 1646.074219 429.429688 C 1677.550781 424.902344 1657.917969 422.835938 1684.03125 419.148438 C 1668.203125 408.8125 1662.238281 393.101562 1666.902344 376.511719 C 1672.484375 356.664062 1690.242188 344.167969 1711.804688 347.503906 C 1708.957031 335.507812 1708.757812 326.472656 1712.988281 315.488281 C 1681.9375 306.917969 1702.8125 343.09375 1672.0625 345.46875 C 1665.199219 346 1660.253906 351.933594 1661.785156 358.785156 C 1666.269531 378.859375 1645.160156 379.4375 1645.65625 386.71875 C 1646.101562 393.257812 1655.375 395.992188 1654.992188 407.167969 C 1654.613281 418.191406 1639.457031 422.910156 1646.074219 429.429688 M 1750.457031 326.0625 L 1758.835938 305.378906 C 1748.203125 300.785156 1736.699219 304.53125 1729.464844 311.300781 C 1720.804688 319.410156 1717.917969 329.824219 1721.410156 341.675781 C 1732.421875 341.511719 1745.660156 337.898438 1750.457031 326.0625 M 1708.140625 375.898438 C 1709.351562 386.824219 1711.460938 396.59375 1713.640625 406.707031 C 1731.722656 375.027344 1752.945312 348.769531 1781.929688 328.371094 C 1831.53125 293.464844 1901.207031 276.210938 1953.496094 314.511719 C 1955.152344 310.875 1955.363281 305.359375 1953.851562 302.289062 C 1948.722656 291.886719 1929.328125 307.136719 1917.585938 281.207031 C 1915.289062 276.132812 1911.152344 270.867188 1906.738281 269.527344 C 1892.539062 265.226562 1889.167969 279.0625 1871.484375 286.230469 C 1865.246094 288.757812 1856.375 287.359375 1850.527344 284.246094 C 1838.980469 278.105469 1827 281.882812 1820.183594 292.785156 C 1805.019531 317.042969 1787.28125 287.171875 1772.417969 304.933594 C 1768.429688 309.695312 1764.867188 316.742188 1762.988281 323.1875 C 1758.152344 339.804688 1744.445312 350.816406 1727.03125 351.820312 C 1715.191406 352.503906 1706.644531 362.410156 1708.140625 375.898438 M 1610.859375 500.191406 C 1602.953125 489.5 1609.222656 476.132812 1618.269531 468.582031 C 1617.132812 461.390625 1616.128906 453.554688 1620.222656 447.070312 C 1623.71875 441.535156 1629.90625 438.074219 1637.449219 436.839844 C 1626.546875 417.074219 1646.203125 411.070312 1644.460938 406.125 C 1641.917969 398.925781 1633.945312 396.484375 1635.695312 383.792969 C 1637.507812 370.675781 1654.164062 372.320312 1651.820312 361.0625 C 1649.046875 347.734375 1657.113281 337.144531 1670.136719 335.417969 C 1688.371094 332.996094 1675.722656 318.691406 1694.796875 306.160156 C 1702.660156 300.992188 1710.996094 305.371094 1718.640625 305.113281 C 1724.621094 301.816406 1732.378906 296.109375 1739.84375 293.507812 C 1743.410156 261.964844 1769.382812 276.945312 1772.242188 266.199219 C 1709.472656 277.695312 1657.210938 317.96875 1629.359375 375.242188 C 1608.914062 417.289062 1589.339844 495.285156 1614.617188 536.714844 C 1626.730469 556.570312 1646.875 560.328125 1666.777344 551.4375 L 1972.203125 415.003906 C 1983.320312 410.035156 1991.113281 400.566406 1988.300781 387.246094 C 1982.972656 362.007812 1968.070312 338.535156 1946.992188 322.898438 C 1925.011719 306.589844 1898.339844 301.085938 1870.90625 304.359375 C 1824.855469 309.855469 1784.488281 333.144531 1753.847656 367.617188 C 1732.082031 392.101562 1717.242188 420.179688 1705.535156 450.769531 C 1698.796875 468.382812 1694.234375 485.632812 1689.105469 503.828125 C 1685.347656 517.152344 1679.28125 530.761719 1669.152344 539.640625 C 1657.78125 549.605469 1644.425781 545.308594 1636.085938 535.238281 C 1630.042969 535.039062 1622.453125 533.992188 1618.953125 529.414062 C 1609.035156 516.453125 1620.199219 512.824219 1610.859375 500.191406 M 1812.644531 285.875 C 1822.289062 270.8125 1840.078125 266.808594 1855.007812 275.125 C 1858.027344 276.808594 1863.207031 277.019531 1866.558594 276.757812 C 1865.386719 269.566406 1862.496094 262.871094 1855.710938 259.84375 C 1845.097656 255.105469 1832.90625 276.457031 1810.671875 257.691406 C 1806.207031 253.921875 1799.175781 250.015625 1792.941406 253.171875 C 1789.269531 255.03125 1786.785156 261.792969 1785.523438 265.714844 C 1777.191406 291.652344 1751.96875 271.632812 1750.832031 292.496094 L 1766.765625 296.074219 C 1792.800781 275.847656 1800.941406 304.15625 1812.644531 285.875 M 1962.839844 321.457031 C 1980.414062 339.535156 1993.589844 360.648438 1998.894531 384.925781 C 2002.363281 400.792969 1993.671875 416.832031 1978.792969 423.492188 L 1672.757812 560.511719 C 1648.773438 571.25 1624.117188 567.945312 1607.617188 545.308594 C 1580.210938 507.699219 1594.277344 435.800781 1609.628906 394.179688 C 1638.054688 317.113281 1698.140625 267.5 1779.046875 253.566406 C 1783.800781 244.679688 1791.820312 239.769531 1802.015625 242.035156 C 1819.175781 245.839844 1820.636719 260.929688 1838.046875 252.480469 C 1844.265625 249.460938 1852.703125 247.15625 1859.28125 249.726562 C 1868.613281 253.375 1872.890625 262.21875 1876.355469 271.054688 C 1880.664062 267.851562 1885.597656 263.734375 1890.371094 261.121094 C 1904.949219 253.144531 1921.214844 262.128906 1926.933594 276.589844 C 1934.769531 296.410156 1952.328125 279.414062 1962.121094 296.183594 C 1966.488281 303.664062 1965.8125 311.667969 1962.839844 321.457031 "></path><path style=" stroke:none;fill-rule:nonzero;fill:rgb(100%,100%,100%);fill-opacity:1;" d="M 2015.757812 513.332031 C 2020.03125 506.421875 2021.113281 494.222656 2012.988281 490.523438 C 2009.296875 488.839844 2001.113281 492.785156 1998.109375 487.730469 C 1996.34375 484.757812 1996.730469 477.890625 1995.648438 473.96875 C 1994.613281 470.230469 1985.132812 467.082031 1981.121094 468.167969 C 1968.980469 471.445312 1959.09375 481.519531 1952.1875 491.835938 C 1931.894531 522.144531 1899.832031 537.601562 1863.152344 535.003906 L 1839.449219 533.324219 C 1850.054688 546.996094 1865.085938 553.289062 1881.265625 557.753906 C 1926.292969 570.191406 1990.25 554.574219 2015.757812 513.332031 M 2011.910156 479.976562 C 2014.433594 479.851562 2020.421875 480.1875 2021.589844 482.023438 L 2026.332031 489.464844 C 2026.902344 481.976562 2023.667969 474.480469 2021.347656 468.253906 C 2024.679688 463.890625 2040.878906 437.960938 2033.25 436.652344 C 2027.683594 435.695312 2030.234375 457.082031 2015.730469 464.570312 C 2009.429688 462.84375 2002.976562 460.738281 1996.363281 461.445312 C 2012.546875 468.484375 2003.964844 480.375 2006.953125 480.226562 Z M 2004.621094 541.535156 C 1921.535156 605.445312 1821.910156 554.339844 1830.644531 530.09375 C 1835.511719 516.566406 1856.644531 527.410156 1883.804688 524.347656 C 1909.054688 521.496094 1929.855469 506.496094 1943.792969 485.628906 C 1952.808594 472.128906 1964.265625 464.359375 1978.003906 456.683594 C 1989.457031 450.28125 2001.558594 448.988281 2014.820312 453.539062 C 2018.785156 445.953125 2019.878906 438.722656 2021.558594 430.863281 C 2025.953125 426.359375 2038.539062 426.078125 2043.933594 429.933594 C 2047.664062 443.65625 2041.191406 457.898438 2032.445312 469.214844 C 2038.371094 481.675781 2037.789062 494.125 2031.582031 505.382812 C 2024.035156 519.070312 2017.527344 531.609375 2004.621094 541.535156 "></path><path style=" stroke:none;fill-rule:nonzero;fill:rgb(0%,0%,0%);fill-opacity:1;" d="M 1717.460938 491.265625 C 1715.699219 491.980469 1715.007812 497.445312 1716.464844 498.671875 C 1717.925781 499.898438 1721.863281 500.460938 1723.339844 499.253906 C 1724.820312 498.050781 1725.589844 493.761719 1724.394531 492.277344 C 1723.398438 491.035156 1719.210938 490.554688 1717.460938 491.265625 M 1748.84375 476.042969 C 1746.9375 476.292969 1744.910156 480.9375 1745.984375 482.523438 C 1747.09375 484.164062 1751.082031 485.582031 1752.933594 485.082031 C 1754.78125 484.582031 1755.941406 480.039062 1755.15625 478.046875 C 1754.570312 476.558594 1751.257812 475.730469 1748.84375 476.042969 M 1736.421875 446.128906 C 1733.929688 445.9375 1731.523438 451.175781 1732.894531 453.480469 C 1733.800781 455.007812 1736.703125 455.824219 1739.035156 455.671875 C 1740.835938 455.558594 1742.144531 452.09375 1742.09375 449.847656 C 1742.054688 448.082031 1739.082031 446.328125 1736.421875 446.128906 M 1939.050781 396.121094 C 1936.902344 395.585938 1932.757812 398.738281 1932.753906 400.6875 C 1932.753906 402.632812 1935.503906 405.773438 1937.585938 406.179688 C 1939.503906 406.554688 1942.777344 403.316406 1942.863281 401.222656 C 1942.929688 399.546875 1940.789062 396.550781 1939.050781 396.121094 M 1963.929688 384.957031 C 1961.417969 385.535156 1959.632812 390.683594 1961.105469 392.25 C 1962.308594 393.53125 1965.472656 394.992188 1967.082031 394.300781 C 1968.6875 393.613281 1970.460938 389.941406 1970.328125 388.195312 C 1970.195312 386.449219 1966.1875 384.433594 1963.929688 384.957031 M 1943.601562 367.507812 C 1941.246094 369.078125 1941.789062 373.820312 1943.667969 375.28125 C 1945.054688 376.363281 1949.308594 376.496094 1950.28125 375.011719 C 1951.34375 373.394531 1951.96875 370.421875 1951.164062 368.855469 C 1950.355469 367.285156 1945.214844 366.4375 1943.601562 367.507812 M 1610.859375 500.191406 C 1620.199219 512.824219 1609.035156 516.457031 1618.953125 529.414062 C 1622.453125 533.992188 1630.042969 535.039062 1636.089844 535.238281 C 1644.425781 545.308594 1657.78125 549.605469 1669.152344 539.640625 C 1679.28125 530.765625 1685.351562 517.152344 1689.105469 503.828125 C 1694.234375 485.632812 1698.796875 468.382812 1705.535156 450.769531 C 1717.242188 420.175781 1732.085938 392.101562 1753.847656 367.617188 C 1784.488281 333.144531 1824.855469 309.855469 1870.90625 304.359375 C 1898.339844 301.085938 1925.007812 306.589844 1946.992188 322.898438 C 1968.070312 338.535156 1982.972656 362.007812 1988.300781 387.246094 C 1991.113281 400.566406 1983.320312 410.039062 1972.203125 415.003906 L 1666.777344 551.4375 C 1646.875 560.328125 1626.730469 556.570312 1614.617188 536.714844 C 1589.339844 495.285156 1608.914062 417.289062 1629.359375 375.242188 C 1657.207031 317.96875 1709.472656 277.695312 1772.242188 266.199219 C 1769.382812 276.945312 1743.410156 261.964844 1739.84375 293.507812 C 1732.378906 296.109375 1724.621094 301.816406 1718.640625 305.113281 C 1710.996094 305.367188 1702.660156 300.992188 1694.796875 306.160156 C 1675.722656 318.691406 1688.371094 332.996094 1670.136719 335.417969 C 1657.113281 337.144531 1649.046875 347.734375 1651.820312 361.0625 C 1654.164062 372.320312 1637.507812 370.675781 1635.695312 383.792969 C 1633.945312 396.484375 1641.917969 398.925781 1644.460938 406.125 C 1646.203125 411.070312 1626.546875 417.074219 1637.449219 436.839844 C 1629.90625 438.074219 1623.71875 441.535156 1620.222656 447.070312 C 1616.128906 453.554688 1617.132812 461.390625 1618.269531 468.578125 C 1609.222656 476.132812 1602.953125 489.5 1610.859375 500.191406 "></path><path style=" stroke:none;fill-rule:nonzero;fill:rgb(0%,0%,0%);fill-opacity:1;" d="M 1662.710938 488.824219 C 1665.179688 486.1875 1663.988281 480.90625 1661.628906 480.304688 C 1659.832031 479.851562 1655.597656 481.742188 1654.820312 483.445312 C 1653.679688 485.957031 1653.691406 489.082031 1654.851562 490.40625 C 1656.066406 491.792969 1660.820312 490.839844 1662.710938 488.824219 M 1626.070312 476.445312 L 1631.675781 473.816406 C 1635.453125 472.046875 1624.632812 464.90625 1628.097656 454.765625 C 1629.226562 451.460938 1634.292969 447.882812 1638.867188 447.339844 C 1652.875 445.675781 1645.652344 436.75 1658.890625 438.351562 C 1654.203125 452.105469 1660.074219 463.871094 1672.773438 469.777344 C 1674.070312 468.292969 1676.183594 464.238281 1676.082031 462.109375 C 1675.980469 459.980469 1672.105469 457.132812 1670.226562 454.960938 C 1664.742188 448.609375 1667.609375 436.039062 1674.613281 431.40625 L 1689.710938 429.242188 C 1694.359375 425.121094 1698.511719 422.152344 1704.898438 422.804688 C 1695.492188 446.175781 1687.527344 468.902344 1680.996094 493.457031 C 1677.640625 506.074219 1668.535156 537.070312 1652.59375 534.910156 C 1649.570312 534.5 1645.949219 530.066406 1643.878906 526.574219 C 1640.96875 521.660156 1632.464844 527.476562 1627.265625 523.808594 C 1620.898438 519.3125 1628.886719 506.433594 1623.175781 499.472656 C 1619.828125 495.398438 1617.089844 491.796875 1617.304688 487.335938 C 1617.5 483.238281 1621.769531 478.460938 1626.070312 476.445312 "></path><path style=" stroke:none;fill-rule:nonzero;fill:rgb(0%,0%,0%);fill-opacity:1;" d="M 1708.140625 375.898438 C 1706.644531 362.410156 1715.191406 352.503906 1727.03125 351.820312 C 1744.445312 350.816406 1758.152344 339.804688 1762.988281 323.1875 C 1764.867188 316.742188 1768.429688 309.695312 1772.417969 304.933594 C 1787.28125 287.171875 1805.019531 317.042969 1820.183594 292.785156 C 1827 281.882812 1838.980469 278.105469 1850.527344 284.246094 C 1856.375 287.359375 1865.246094 288.757812 1871.484375 286.230469 C 1889.167969 279.0625 1892.539062 265.226562 1906.738281 269.527344 C 1911.152344 270.867188 1915.289062 276.132812 1917.589844 281.207031 C 1929.328125 307.136719 1948.71875 291.886719 1953.851562 302.289062 C 1955.363281 305.359375 1955.152344 310.875 1953.496094 314.511719 C 1901.203125 276.210938 1831.53125 293.464844 1781.929688 328.371094 C 1752.945312 348.769531 1731.722656 375.027344 1713.640625 406.707031 C 1711.460938 396.59375 1709.351562 386.824219 1708.140625 375.898438 "></path><path style=" stroke:none;fill-rule:nonzero;fill:rgb(0%,0%,0%);fill-opacity:1;" d="M 1646.070312 429.429688 C 1639.460938 422.910156 1654.613281 418.191406 1654.992188 407.167969 C 1655.378906 395.996094 1646.101562 393.257812 1645.65625 386.714844 C 1645.160156 379.4375 1666.269531 378.863281 1661.785156 358.785156 C 1660.253906 351.9375 1665.199219 346 1672.0625 345.46875 C 1702.8125 343.09375 1681.9375 306.917969 1712.988281 315.488281 C 1708.761719 326.472656 1708.953125 335.507812 1711.804688 347.503906 C 1690.242188 344.167969 1672.484375 356.664062 1666.902344 376.511719 C 1662.238281 393.101562 1668.203125 408.8125 1684.03125 419.148438 C 1657.917969 422.835938 1677.550781 424.902344 1646.070312 429.429688 "></path><path style=" stroke:none;fill-rule:nonzero;fill:rgb(0%,0%,0%);fill-opacity:1;" d="M 1812.644531 285.875 C 1800.941406 304.15625 1792.800781 275.847656 1766.765625 296.074219 L 1750.828125 292.496094 C 1751.96875 271.632812 1777.191406 291.652344 1785.523438 265.714844 C 1786.785156 261.792969 1789.269531 255.03125 1792.941406 253.171875 C 1799.175781 250.015625 1806.207031 253.921875 1810.671875 257.691406 C 1832.90625 276.457031 1845.097656 255.105469 1855.710938 259.84375 C 1862.496094 262.871094 1865.386719 269.566406 1866.558594 276.757812 C 1863.203125 277.019531 1858.027344 276.808594 1855.007812 275.128906 C 1840.078125 266.808594 1822.289062 270.8125 1812.644531 285.875 "></path><path style=" stroke:none;fill-rule:nonzero;fill:rgb(0%,0%,0%);fill-opacity:1;" d="M 1750.457031 326.0625 C 1745.660156 337.898438 1732.421875 341.511719 1721.410156 341.675781 C 1717.917969 329.824219 1720.804688 319.410156 1729.464844 311.300781 C 1736.699219 304.53125 1748.203125 300.785156 1758.835938 305.378906 Z M 1750.457031 326.0625 "></path><path style=" stroke:none;fill-rule:nonzero;fill:rgb(0%,0%,0%);fill-opacity:1;" d="M 1698.203125 388.554688 L 1684.949219 407.152344 C 1675.746094 398.785156 1673.742188 387.460938 1678.089844 376.144531 C 1681.144531 368.199219 1689.339844 359.394531 1700.09375 357.761719 C 1697.277344 368.003906 1697.398438 377.167969 1698.203125 388.554688 "></path><path style=" stroke:none;fill-rule:nonzero;fill:rgb(0%,0%,0%);fill-opacity:1;" d="M 1695.179688 413.585938 C 1695.628906 408.945312 1697.582031 405.203125 1701.113281 401.582031 L 1703.265625 410.464844 C 1703.765625 412.539062 1698.148438 413.894531 1695.179688 413.585938 "></path><path style=" stroke:none;fill-rule:nonzero;fill:rgb(0%,0%,0%);fill-opacity:1;" d="M 1937.949219 527.851562 C 1966.6875 508.382812 1962.011719 496.101562 1982.953125 483.882812 C 1984.226562 483.140625 1985.457031 479.511719 1984.496094 478.617188 C 1978.683594 473.195312 1965.140625 486.515625 1960.882812 493.15625 C 1946.902344 514.988281 1929.378906 521.632812 1932.46875 527.242188 C 1933.0625 528.316406 1936.871094 528.582031 1937.949219 527.851562 M 2015.757812 513.332031 C 1990.25 554.574219 1926.292969 570.191406 1881.265625 557.757812 C 1865.085938 553.289062 1850.054688 547 1839.449219 533.324219 L 1863.152344 535.003906 C 1899.835938 537.601562 1931.894531 522.144531 1952.1875 491.835938 C 1959.09375 481.515625 1968.980469 471.445312 1981.121094 468.167969 C 1985.132812 467.082031 1994.613281 470.230469 1995.648438 473.96875 C 1996.730469 477.890625 1996.34375 484.753906 1998.113281 487.730469 C 2001.113281 492.785156 2009.296875 488.839844 2012.988281 490.523438 C 2021.113281 494.222656 2020.03125 506.421875 2015.757812 513.332031 "></path><path style=" stroke:none;fill-rule:nonzero;fill:rgb(0%,0%,0%);fill-opacity:1;" d="M 2011.910156 479.976562 L 2006.953125 480.226562 C 2003.964844 480.375 2012.546875 468.484375 1996.363281 461.445312 C 2002.976562 460.738281 2009.429688 462.84375 2015.730469 464.570312 C 2030.234375 457.082031 2027.683594 435.695312 2033.25 436.652344 C 2040.878906 437.960938 2024.679688 463.890625 2021.347656 468.253906 C 2023.667969 474.480469 2026.902344 481.976562 2026.332031 489.464844 L 2021.589844 482.023438 C 2020.421875 480.1875 2014.433594 479.851562 2011.910156 479.976562 "></path><path style=" stroke:none;fill-rule:nonzero;fill:rgb(100%,100%,100%);fill-opacity:1;" d="M 1939.050781 396.121094 C 1940.789062 396.550781 1942.929688 399.546875 1942.863281 401.222656 C 1942.777344 403.316406 1939.503906 406.554688 1937.589844 406.183594 C 1935.503906 405.773438 1932.753906 402.632812 1932.757812 400.6875 C 1932.757812 398.738281 1936.90625 395.585938 1939.050781 396.121094 "></path><path style=" stroke:none;fill-rule:nonzero;fill:rgb(100%,100%,100%);fill-opacity:1;" d="M 1736.421875 446.128906 C 1739.082031 446.328125 1742.054688 448.082031 1742.09375 449.847656 C 1742.144531 452.09375 1740.835938 455.558594 1739.035156 455.675781 C 1736.703125 455.824219 1733.800781 455.007812 1732.894531 453.484375 C 1731.523438 451.175781 1733.929688 445.9375 1736.421875 446.128906 "></path><path style=" stroke:none;fill-rule:nonzero;fill:rgb(100%,100%,100%);fill-opacity:1;" d="M 1963.929688 384.957031 C 1966.1875 384.433594 1970.195312 386.449219 1970.328125 388.195312 C 1970.460938 389.941406 1968.691406 393.609375 1967.082031 394.300781 C 1965.472656 394.996094 1962.308594 393.53125 1961.105469 392.25 C 1959.632812 390.683594 1961.417969 385.535156 1963.929688 384.957031 "></path><path style=" stroke:none;fill-rule:nonzero;fill:rgb(100%,100%,100%);fill-opacity:1;" d="M 1943.601562 367.507812 C 1945.214844 366.4375 1950.355469 367.285156 1951.164062 368.855469 C 1951.96875 370.421875 1951.34375 373.394531 1950.28125 375.011719 C 1949.3125 376.496094 1945.058594 376.363281 1943.667969 375.28125 C 1941.789062 373.820312 1941.246094 369.078125 1943.601562 367.507812 "></path><path style=" stroke:none;fill-rule:nonzero;fill:rgb(100%,100%,100%);fill-opacity:1;" d="M 1748.84375 476.042969 C 1751.257812 475.730469 1754.570312 476.558594 1755.15625 478.046875 C 1755.941406 480.039062 1754.78125 484.582031 1752.933594 485.082031 C 1751.082031 485.582031 1747.09375 484.164062 1745.984375 482.523438 C 1744.910156 480.9375 1746.941406 476.292969 1748.84375 476.042969 "></path><path style=" stroke:none;fill-rule:nonzero;fill:rgb(100%,100%,100%);fill-opacity:1;" d="M 1717.460938 491.265625 C 1719.210938 490.554688 1723.398438 491.035156 1724.394531 492.277344 C 1725.589844 493.761719 1724.820312 498.050781 1723.339844 499.253906 C 1721.863281 500.460938 1717.925781 499.898438 1716.464844 498.671875 C 1715.007812 497.445312 1715.699219 491.980469 1717.460938 491.265625 "></path><path style=" stroke:none;fill-rule:nonzero;fill:rgb(100%,100%,100%);fill-opacity:1;" d="M 1662.710938 488.824219 C 1660.820312 490.839844 1656.066406 491.792969 1654.851562 490.40625 C 1653.691406 489.082031 1653.679688 485.957031 1654.820312 483.445312 C 1655.597656 481.742188 1659.832031 479.851562 1661.628906 480.304688 C 1663.988281 480.90625 1665.179688 486.1875 1662.710938 488.824219 "></path><path style=" stroke:none;fill-rule:nonzero;fill:rgb(100%,100%,100%);fill-opacity:1;" d="M 1937.949219 527.851562 C 1936.871094 528.582031 1933.0625 528.316406 1932.46875 527.242188 C 1929.378906 521.632812 1946.902344 514.988281 1960.882812 493.15625 C 1965.140625 486.515625 1978.683594 473.195312 1984.496094 478.617188 C 1985.457031 479.511719 1984.226562 483.140625 1982.953125 483.882812 C 1962.011719 496.101562 1966.6875 508.382812 1937.949219 527.851562 "></path></g></svg>