<?xml version='1.0' encoding='utf-8'?>
<svg xmlns="http://www.w3.org/2000/svg" viewBox="3764.89 792.60 462.44 469.14" width="80" height="80" fill="none"><g><path style=" stroke:none;fill-rule:nonzero;fill:rgb(100%,100%,100%);fill-opacity:1;" d="M 4060.097656 1214.746094 C 4070.710938 1211.007812 4074.488281 1201.347656 4070.238281 1193.640625 C 4017.539062 1211.03125 3962.988281 1211.472656 3909.753906 1193.394531 C 3905.632812 1203.308594 3912.179688 1212.214844 3923.121094 1215.777344 C 3966.886719 1230.03125 4015.574219 1230.433594 4060.097656 1214.746094 M 4178.4375 1043.125 C 4153.488281 1060.867188 4128.390625 1072.960938 4098.355469 1079.5 C 4028.480469 1095.242188 3956.796875 1094.996094 3886.617188 1080.164062 C 3855.003906 1073.371094 3827.714844 1061.945312 3801.882812 1043.429688 C 3821.300781 1169.414062 3948.203125 1220.523438 4058.945312 1185.34375 C 4122.597656 1165.125 4168.433594 1111.539062 4178.4375 1043.125 M 4106.019531 963.96875 C 4106.859375 962.117188 4101.707031 956.230469 4100.910156 955.929688 C 4094.949219 964.550781 4088.8125 971.707031 4090.792969 982.980469 C 4096.289062 978.824219 4103.894531 968.660156 4106.019531 963.96875 M 3851.878906 1055.285156 C 3872.054688 1073.796875 3958.632812 1080.566406 3987.882812 1080.191406 C 4002.460938 1054.46875 4015.324219 1064.234375 4035.664062 1055.796875 L 4049.398438 1029.945312 C 4040.1875 1024.054688 4027.820312 1023.355469 4014.121094 1019.863281 C 4028.515625 1007.398438 4044.25 1015.992188 4058.050781 1022.570312 C 4079.605469 1007.21875 4110.136719 1001.132812 4130.335938 1023.449219 C 4118.390625 1034.480469 4103.414062 1003.613281 4066.574219 1029.628906 C 4053.699219 1038.71875 4046.554688 1053.132812 4045.082031 1071.445312 C 4029.507812 1064.792969 4010.953125 1066.433594 3998.242188 1079.835938 C 4047.296875 1079.925781 4106.855469 1073.429688 4148.304688 1048.832031 C 4153.726562 1045.613281 4154.652344 1031.339844 4153.09375 1024.453125 C 4149.640625 1009.195312 4128.367188 1004.351562 4116.871094 992.53125 C 4113.605469 995.585938 4109.316406 1007.335938 4100.246094 1000.316406 L 4194.480469 860.519531 C 4196.054688 858.183594 4195.53125 853.667969 4194.445312 852.121094 C 4193.351562 850.558594 4187.648438 852.34375 4186.078125 854.824219 L 4103.566406 985.191406 C 4098.144531 993.761719 4094.960938 1002.835938 4083.519531 1002.710938 L 4087.851562 994.449219 C 4088.683594 992.863281 4087.097656 988.90625 4085.835938 987.039062 C 4078.101562 994.132812 4082.230469 1006.414062 4067.007812 1005.632812 L 4145.421875 831.050781 C 4146.28125 829.136719 4143.804688 823.101562 4141.75 823.261719 C 4139.699219 823.417969 4136.121094 826.570312 4135.117188 828.976562 L 4059.371094 1010.066406 C 4048.621094 1003.347656 4056.878906 996.660156 4058.890625 990.425781 C 4042.277344 962.910156 4014.5625 971.15625 4005.898438 968.574219 C 3991.230469 964.203125 4028.644531 944.847656 4061.996094 977.449219 C 4066.964844 968.339844 4069.023438 963.835938 4073.554688 952.628906 C 4050.261719 948.195312 4030.195312 946.5625 4006.347656 945.792969 C 4000.765625 945.613281 3994.253906 940.914062 3996.5625 934.769531 C 4024.136719 934.578125 4050.441406 937.753906 4077.851562 942.402344 L 4127.234375 823.683594 C 4130.453125 815.949219 4137.859375 812.601562 4144.789062 815.078125 C 4152.648438 817.882812 4157.824219 825.375 4153.679688 834.605469 L 4102.324219 949 C 4103.980469 951.679688 4110.417969 953.441406 4113.28125 952.519531 L 4181.410156 844.976562 C 4185.710938 838.183594 4197.722656 842.003906 4201.667969 846.242188 C 4207.328125 852.328125 4205.359375 860.898438 4200.539062 868.058594 L 4120.507812 986.960938 C 4142.84375 994.128906 4166.25 1008.582031 4164.792969 1038.375 C 4170.6875 1035.035156 4177.410156 1027.796875 4179.285156 1022.082031 C 4189.042969 992.382812 4141.515625 977.949219 4136.992188 969.578125 C 4127.144531 951.34375 4165.660156 974.382812 4176.878906 984.84375 C 4192.1875 999.121094 4192.996094 1014.660156 4190.992188 1033.375 C 4183.710938 1101.296875 4145.511719 1160.386719 4081.609375 1187.710938 C 4084.972656 1205.886719 4077.863281 1219.605469 4061.507812 1225.375 C 4015.101562 1241.742188 3963.851562 1241.4375 3918.050781 1224.734375 C 3901.101562 1218.554688 3896.191406 1205.207031 3898.230469 1188.140625 C 3829.800781 1155.644531 3795.054688 1098.542969 3788.324219 1024.136719 C 3784.886719 986.140625 3827.453125 963.324219 3853.386719 956.988281 C 3854.691406 956.667969 3858.234375 963.238281 3857.105469 964.167969 C 3847.167969 972.332031 3795.605469 987.148438 3800.078125 1018.9375 C 3801.09375 1026.144531 3809.644531 1035.140625 3816.375 1039.917969 C 3814.472656 1010.296875 3837.007812 991.585938 3858.195312 987.339844 C 3859.5625 987.066406 3863.570312 992.683594 3862.453125 993.519531 C 3847.898438 1004.429688 3852.96875 996.761719 3837.660156 1009.371094 C 3825.296875 1019.558594 3820.203125 1042.769531 3837.835938 1052.328125 C 3833.085938 1030.859375 3844.089844 1009.699219 3861.660156 1004.605469 C 3864.25 1003.855469 3868.894531 1005.078125 3870.007812 1006.265625 C 3875.613281 1012.25 3855.371094 1013.972656 3849.390625 1028.394531 C 3846.542969 1035.261719 3846.398438 1050.253906 3851.878906 1055.285156 "></path><path style=" stroke:none;fill-rule:nonzero;fill:rgb(100%,100%,100%);fill-opacity:1;" d="M 3947.28125 1017.261719 C 3933.765625 1007.179688 3927.597656 997.125 3923.925781 982.945312 C 3909.386719 984.996094 3902.144531 1007.101562 3912.789062 1016.324219 C 3921.570312 1023.933594 3938.746094 1021.265625 3947.28125 1017.261719 M 3981.703125 983.003906 C 3948.835938 994.003906 3941.265625 969.828125 3937.320312 977.375 C 3936.65625 978.640625 3934.992188 982.867188 3934.945312 984.425781 C 3934.578125 997.019531 3948.582031 1012.933594 3962.953125 1008.472656 C 3971.375 1005.859375 3978.167969 992.605469 3981.703125 983.003906 M 3897.273438 1009.433594 L 3907.394531 978.992188 C 3905.289062 973.878906 3894.90625 972.148438 3890.46875 975.402344 C 3887.253906 977.761719 3880.097656 984.855469 3881.058594 988.832031 C 3883.316406 998.148438 3892.550781 1006.410156 3897.273438 1009.433594 M 3983.609375 955.007812 C 3975.460938 949.703125 3960.507812 944.566406 3951.695312 947.917969 C 3944.011719 950.835938 3943.925781 965.195312 3947.847656 970.023438 C 3957.914062 982.40625 3980.449219 976.15625 3985.414062 969.996094 C 3987.648438 967.226562 3987 957.214844 3983.609375 955.007812 M 3898.976562 962.992188 L 3893.609375 937.355469 C 3893.007812 934.480469 3881.066406 935.359375 3879.660156 938.300781 C 3875.570312 946.867188 3874.210938 964.523438 3876.109375 974.390625 Z M 3898.691406 924.273438 C 3912.027344 914.992188 3921.445312 901.792969 3922.453125 886.238281 C 3905.140625 892.253906 3900.882812 909.257812 3898.691406 924.273438 M 3893.9375 901.378906 C 3895.796875 895.28125 3895.945312 889.125 3893.359375 883.832031 C 3883.523438 894.554688 3879.460938 909.503906 3886.96875 924.195312 Z M 3924.675781 975.285156 C 3943.078125 970.867188 3932.054688 942.355469 3949.121094 937.738281 C 3963.402344 933.871094 3983.195312 940.558594 3993.761719 951.152344 C 4000.5625 980.226562 3983.496094 1011.957031 3957.320312 1023.910156 C 3936.550781 1033.398438 3917.328125 1032.054688 3897.09375 1021.359375 C 3880.976562 1012.839844 3870.878906 995.582031 3866.238281 974.429688 C 3862.273438 956.355469 3869.445312 942.339844 3872.945312 925.914062 C 3876.417969 909.605469 3872.03125 886.742188 3888.875 874.5 C 3890.953125 872.988281 3897.78125 871.949219 3899.050781 874.148438 L 3905.570312 885.433594 L 3919.535156 878.804688 C 3921.632812 877.808594 3927.371094 877.332031 3929.144531 878.660156 C 3941.078125 887.605469 3917.832031 923.902344 3904.320312 933.789062 C 3904.175781 946.742188 3906.472656 979.65625 3924.675781 975.285156 "></path><path style=" stroke:none;fill-rule:nonzero;fill:rgb(0%,0%,0%);fill-opacity:1;" d="M 3893.933594 901.378906 L 3886.96875 924.195312 C 3879.460938 909.507812 3883.523438 894.554688 3893.359375 883.832031 C 3895.945312 889.128906 3895.796875 895.28125 3893.933594 901.378906 "></path><path style=" stroke:none;fill-rule:nonzero;fill:rgb(0%,0%,0%);fill-opacity:1;" d="M 3898.691406 924.273438 C 3900.882812 909.257812 3905.140625 892.253906 3922.453125 886.238281 C 3921.445312 901.792969 3912.027344 914.992188 3898.691406 924.273438 "></path><path style=" stroke:none;fill-rule:nonzero;fill:rgb(0%,0%,0%);fill-opacity:1;" d="M 3898.976562 962.992188 L 3876.109375 974.390625 C 3874.210938 964.523438 3875.570312 946.867188 3879.660156 938.300781 C 3881.066406 935.359375 3893.007812 934.480469 3893.609375 937.355469 Z M 3898.976562 962.992188 "></path><path style=" stroke:none;fill-rule:nonzero;fill:rgb(100%,100%,100%);fill-opacity:1;" d="M 3926.359375 950.039062 L 3917.769531 950.574219 C 3915.792969 950.695312 3914.515625 944.148438 3915.636719 942.511719 C 3916.753906 940.875 3921.398438 939.132812 3923.722656 939.5625 C 3926.230469 940.023438 3930.246094 941.082031 3930.046875 942.714844 C 3929.847656 944.347656 3928.046875 949.933594 3926.359375 950.039062 "></path><path style=" stroke:none;fill-rule:nonzero;fill:rgb(0%,0%,0%);fill-opacity:1;" d="M 3983.609375 955.003906 C 3987 957.210938 3987.648438 967.226562 3985.414062 969.996094 C 3980.449219 976.15625 3957.914062 982.40625 3947.847656 970.023438 C 3943.925781 965.195312 3944.011719 950.835938 3951.695312 947.917969 C 3960.507812 944.566406 3975.460938 949.703125 3983.609375 955.003906 "></path><path style=" stroke:none;fill-rule:nonzero;fill:rgb(0%,0%,0%);fill-opacity:1;" d="M 4106.019531 963.96875 C 4103.894531 968.660156 4096.289062 978.824219 4090.792969 982.980469 C 4088.8125 971.707031 4094.949219 964.550781 4100.910156 955.929688 C 4101.703125 956.230469 4106.859375 962.117188 4106.019531 963.96875 "></path><path style=" stroke:none;fill-rule:nonzero;fill:rgb(0%,0%,0%);fill-opacity:1;" d="M 3981.703125 983.003906 C 3978.167969 992.605469 3971.375 1005.859375 3962.953125 1008.472656 C 3948.582031 1012.933594 3934.578125 997.019531 3934.945312 984.425781 C 3934.992188 982.867188 3936.65625 978.640625 3937.320312 977.375 C 3941.265625 969.828125 3948.832031 994.003906 3981.703125 983.003906 "></path><path style=" stroke:none;fill-rule:nonzero;fill:rgb(0%,0%,0%);fill-opacity:1;" d="M 3897.269531 1009.433594 C 3892.550781 1006.40625 3883.316406 998.148438 3881.058594 988.828125 C 3880.097656 984.855469 3887.253906 977.761719 3890.472656 975.402344 C 3894.90625 972.148438 3905.289062 973.878906 3907.394531 978.988281 Z M 3897.269531 1009.433594 "></path><path style=" stroke:none;fill-rule:nonzero;fill:rgb(100%,100%,100%);fill-opacity:1;" d="M 4032.121094 990.0625 C 4026.941406 983.402344 4013.390625 989.363281 4011.609375 997.300781 C 4017.820312 1003.394531 4033.882812 998.1875 4032.121094 990.0625 M 4042.171875 994.113281 C 4039.152344 1008.515625 4012.476562 1016.257812 4003.957031 1002.34375 C 3996.324219 989.875 4014.679688 976.9375 4027.332031 978.277344 C 4034.800781 979.066406 4044.351562 983.746094 4042.171875 994.113281 "></path><path style=" stroke:none;fill-rule:nonzero;fill:rgb(0%,0%,0%);fill-opacity:1;" d="M 3947.28125 1017.261719 C 3938.746094 1021.265625 3921.570312 1023.933594 3912.789062 1016.324219 C 3902.144531 1007.101562 3909.386719 984.996094 3923.925781 982.945312 C 3927.597656 997.125 3933.765625 1007.179688 3947.28125 1017.261719 "></path><path style=" stroke:none;fill-rule:nonzero;fill:rgb(0%,0%,0%);fill-opacity:1;" d="M 4032.121094 990.0625 C 4033.882812 998.1875 4017.820312 1003.394531 4011.609375 997.300781 C 4013.390625 989.363281 4026.941406 983.402344 4032.121094 990.0625 "></path><path style=" stroke:none;fill-rule:nonzero;fill:rgb(100%,100%,100%);fill-opacity:1;" d="M 4033.554688 1043.773438 C 4028.910156 1048.605469 4010.910156 1025.421875 3983.507812 1030.398438 C 3981.5 1030.761719 3977.824219 1028.6875 3976.683594 1027.785156 C 3969.347656 1021.957031 4005.460938 1011.386719 4030.460938 1033.625 L 4035.621094 1038.214844 C 4036.671875 1039.148438 4034.53125 1042.757812 4033.554688 1043.773438 "></path><path style=" stroke:none;fill-rule:nonzero;fill:rgb(100%,100%,100%);fill-opacity:1;" d="M 3920.058594 1070.847656 C 3903.851562 1065.011719 3903.628906 1048.035156 3892.4375 1039.726562 L 3874.613281 1026.496094 C 3892.796875 1015.78125 3921.03125 1055.441406 3920.058594 1070.847656 "></path><path style=" stroke:none;fill-rule:nonzero;fill:rgb(100%,100%,100%);fill-opacity:1;" d="M 4142.953125 1039.183594 C 4142.777344 1040.863281 4135.878906 1043.085938 4135.070312 1041.808594 C 4129.472656 1032.980469 4129.777344 1024.621094 4138.300781 1016.605469 C 4141.261719 1022.222656 4143.527344 1033.707031 4142.953125 1039.183594 "></path><path style=" stroke:none;fill-rule:nonzero;fill:rgb(100%,100%,100%);fill-opacity:1;" d="M 3863.65625 1041.511719 C 3856.640625 1043.453125 3854.15625 1028.507812 3860 1027.128906 C 3867.261719 1025.414062 3869.628906 1039.859375 3863.65625 1041.511719 "></path><path style=" stroke:none;fill-rule:nonzero;fill:rgb(100%,100%,100%);fill-opacity:1;" d="M 4091.671875 1030.625 C 4093.097656 1029.921875 4098.375 1030.304688 4098.460938 1031.894531 C 4098.582031 1034.027344 4097.945312 1037.90625 4096.703125 1039.621094 C 4095.460938 1041.339844 4089.804688 1039.941406 4088.441406 1038.320312 C 4087.082031 1036.695312 4089.773438 1031.5625 4091.671875 1030.625 "></path><path style=" stroke:none;fill-rule:nonzero;fill:rgb(100%,100%,100%);fill-opacity:1;" d="M 4115.488281 1047.605469 L 4111.242188 1054.839844 C 4110.09375 1056.796875 4101.789062 1055.386719 4102.171875 1054.296875 L 4112.382812 1033.332031 C 4117.425781 1034.167969 4117.878906 1043.53125 4115.488281 1047.605469 "></path><path style=" stroke:none;fill-rule:nonzero;fill:rgb(100%,100%,100%);fill-opacity:1;" d="M 4075.527344 1036.070312 C 4077.007812 1036.203125 4079.292969 1039.75 4078.839844 1041.15625 C 4078.238281 1043.03125 4075.339844 1047.960938 4073.855469 1046.605469 L 4069.539062 1042.664062 C 4068.082031 1041.335938 4073.472656 1035.890625 4075.527344 1036.070312 "></path><path style=" stroke:none;fill-rule:nonzero;fill:rgb(100%,100%,100%);fill-opacity:1;" d="M 3958.941406 1052.65625 C 3958.011719 1044.105469 3938.734375 1045.558594 3939.175781 1053.664062 C 3939.585938 1061.226562 3959.882812 1061.316406 3958.941406 1052.65625 M 3968.742188 1057.464844 C 3967.226562 1064.210938 3955.25 1069.304688 3949.296875 1068.839844 C 3943.128906 1068.355469 3932.054688 1064.273438 3930.085938 1058.75 C 3925.539062 1045.996094 3936.308594 1039.703125 3946.21875 1038.089844 C 3956.914062 1036.347656 3972.3125 1041.554688 3968.742188 1057.464844 "></path><path style=" stroke:none;fill-rule:nonzero;fill:rgb(100%,100%,100%);fill-opacity:1;" d="M 3896.695312 1061.160156 C 3896.179688 1063.132812 3887.691406 1062.371094 3885.667969 1060.074219 L 3871.289062 1043.730469 C 3882.914062 1039.546875 3893.371094 1048.742188 3896.695312 1061.160156 "></path><path style=" stroke:none;fill-rule:nonzero;fill:rgb(100%,100%,100%);fill-opacity:1;" d="M 4018.425781 1047.339844 C 4023.96875 1053.933594 3994.910156 1046.476562 3983.394531 1069.136719 C 3981.980469 1071.914062 3975.308594 1074.503906 3973.082031 1074.078125 C 3973.617188 1053.632812 3996.539062 1040.886719 4012.703125 1043.328125 C 4014.480469 1043.597656 4017.652344 1046.421875 4018.425781 1047.339844 "></path><path style=" stroke:none;fill-rule:nonzero;fill:rgb(0%,0%,0%);fill-opacity:1;" d="M 4178.441406 1043.125 C 4168.433594 1111.539062 4122.597656 1165.125 4058.945312 1185.34375 C 3948.203125 1220.523438 3821.300781 1169.414062 3801.882812 1043.429688 C 3827.714844 1061.945312 3855.003906 1073.371094 3886.617188 1080.164062 C 3956.796875 1094.996094 4028.480469 1095.242188 4098.351562 1079.5 C 4128.390625 1072.960938 4153.488281 1060.871094 4178.441406 1043.125 "></path><path style=" stroke:none;fill-rule:nonzero;fill:rgb(0%,0%,0%);fill-opacity:1;" d="M 3958.941406 1052.65625 C 3959.882812 1061.316406 3939.585938 1061.226562 3939.175781 1053.664062 C 3938.734375 1045.558594 3958.011719 1044.105469 3958.941406 1052.65625 "></path><path style=" stroke:none;fill-rule:nonzero;fill:rgb(100%,100%,100%);fill-opacity:1;" d="M 4088.195312 1059.164062 C 4084.109375 1059.488281 4079.085938 1059.546875 4079.328125 1058 C 4079.632812 1056.070312 4081.976562 1051.285156 4083.738281 1050.433594 C 4085.539062 1049.5625 4090.84375 1051.1875 4092.554688 1052.21875 C 4094.265625 1053.25 4090.179688 1059.003906 4088.195312 1059.164062 "></path><path style=" stroke:none;fill-rule:nonzero;fill:rgb(100%,100%,100%);fill-opacity:1;" d="M 4062.089844 1056.230469 C 4063.242188 1055.21875 4070.09375 1055.21875 4069.902344 1056.738281 L 4068.789062 1065.546875 C 4068.523438 1067.625 4063.410156 1064.417969 4061.316406 1063.011719 C 4059.582031 1061.847656 4060.558594 1057.582031 4062.089844 1056.230469 "></path></g></svg>