<?xml version='1.0' encoding='utf-8'?>
<svg xmlns="http://www.w3.org/2000/svg" viewBox="3734.75 133.32 485.44 451.07" width="80" height="80" fill="none"><g><path style=" stroke:none;fill-rule:nonzero;fill:rgb(100%,100%,100%);fill-opacity:1;" d="M 4057.847656 305.992188 L 4021.328125 342.777344 L 4054.269531 343.914062 C 4056.769531 344 4062.175781 348.175781 4061.300781 350.511719 C 4060.601562 352.378906 4055.972656 355.5625 4053.683594 355.582031 L 4008.414062 355.921875 L 3970.429688 394.886719 L 4028.023438 395.570312 C 4030.632812 395.601562 4035.761719 398.53125 4035.894531 401.015625 C 4036 402.996094 4031.210938 407.019531 4028.796875 407.046875 L 3956.804688 407.984375 L 3927.390625 443.253906 C 3959.617188 455.367188 3993.902344 458.019531 4024.601562 442.761719 C 4086.15625 412.167969 4100.363281 322.714844 4093.753906 258.777344 C 4044.710938 261.199219 3993.976562 267.566406 3953.570312 294.214844 C 3904.785156 326.390625 3895.109375 379.90625 3918.292969 433.738281 L 3949.246094 398.582031 L 3948.660156 333.578125 C 3948.640625 331.226562 3952.238281 326.335938 3954.488281 326.320312 C 3956.730469 326.304688 3960.640625 331.347656 3960.699219 333.902344 L 3961.796875 384.71875 L 3997.515625 348.59375 L 3997.734375 300.410156 C 3997.742188 298.5 4003.761719 293.902344 4004.964844 295.097656 C 4006.148438 296.28125 4008.550781 299.753906 4008.691406 301.859375 L 4010.902344 334.886719 L 4051.148438 296.011719 L 4058.890625 295.699219 C 4060.496094 295.632812 4059.453125 304.378906 4057.847656 305.992188 M 4030.390625 453.886719 C 3994.34375 471.980469 3956.417969 468.050781 3919.902344 453.800781 C 3901.082031 476.449219 3896.179688 507.742188 3923.257812 528.359375 C 3937.292969 539.042969 3954.566406 544.957031 3972.699219 547.511719 C 4042.457031 557.339844 4109.613281 526.480469 4149.773438 472.035156 C 4192.375 414.285156 4199.28125 338.160156 4167.035156 274.109375 C 4133.289062 207.089844 4065.691406 166.941406 3991.988281 169.175781 C 3918.09375 171.421875 3854.257812 215.296875 3823.269531 284.390625 C 3792.609375 352.746094 3810.136719 435.265625 3859.003906 489.207031 C 3861.535156 492 3862.25 496.550781 3861.949219 498.558594 C 3858.359375 522.621094 3754.753906 402.714844 3812.949219 276.5 C 3844.652344 207.742188 3912.054688 157.46875 3993.1875 155.746094 C 4107.292969 153.324219 4199.632812 246.515625 4199.914062 358.847656 C 4200.195312 471.503906 4107.523438 564.394531 3992.90625 562.445312 C 3967 562.003906 3943.1875 555.671875 3921.738281 542.625 C 3891.523438 524.242188 3883.011719 487.136719 3902.765625 457.300781 C 3908.875 448.074219 3908.320312 441.164062 3904.058594 430.820312 C 3888.757812 393.683594 3889.671875 352.5 3911.417969 318.769531 C 3949.214844 260.144531 4039.890625 244.828125 4105.167969 247.394531 C 4114.414062 317.40625 4100.53125 418.679688 4030.390625 453.886719 "></path><path style=" stroke:none;fill-rule:nonzero;fill:rgb(0%,0%,0%);fill-opacity:1;" d="M 4057.847656 305.992188 C 4059.453125 304.378906 4060.496094 295.632812 4058.890625 295.699219 L 4051.148438 296.011719 L 4010.902344 334.886719 L 4008.691406 301.859375 C 4008.550781 299.753906 4006.148438 296.28125 4004.964844 295.097656 C 4003.761719 293.902344 3997.742188 298.5 3997.734375 300.410156 L 3997.515625 348.59375 L 3961.796875 384.71875 L 3960.699219 333.902344 C 3960.640625 331.347656 3956.730469 326.304688 3954.488281 326.320312 C 3952.238281 326.335938 3948.640625 331.226562 3948.660156 333.578125 L 3949.246094 398.582031 L 3918.292969 433.738281 C 3895.109375 379.90625 3904.785156 326.390625 3953.570312 294.214844 C 3993.976562 267.566406 4044.710938 261.199219 4093.753906 258.777344 C 4100.363281 322.714844 4086.15625 412.167969 4024.601562 442.761719 C 3993.902344 458.019531 3959.617188 455.367188 3927.390625 443.253906 L 3956.804688 407.984375 L 4028.796875 407.046875 C 4031.210938 407.019531 4036 402.996094 4035.894531 401.015625 C 4035.761719 398.53125 4030.632812 395.601562 4028.023438 395.570312 L 3970.429688 394.886719 L 4008.414062 355.921875 L 4053.683594 355.582031 C 4055.972656 355.5625 4060.601562 352.378906 4061.300781 350.511719 C 4062.175781 348.175781 4056.769531 344 4054.269531 343.914062 L 4021.328125 342.777344 Z M 4057.847656 305.992188 "></path></g></svg>