<?xml version='1.0' encoding='utf-8'?>
<svg xmlns="http://www.w3.org/2000/svg" viewBox="3010.36 104.96 485.20 481.90" width="80" height="80" fill="none"><g><path style=" stroke:none;fill-rule:nonzero;fill:rgb(100%,100%,100%);fill-opacity:1;" d="M 3316.246094 540.125 C 3326.796875 536.492188 3331.371094 526.480469 3327.046875 517.925781 C 3271.707031 536.71875 3215.605469 535.710938 3161.699219 518.019531 C 3159.511719 528.144531 3164.027344 537.214844 3173.136719 540.191406 C 3219.167969 555.238281 3269.460938 556.226562 3316.246094 540.125 M 3204.570312 400.195312 C 3213.492188 401.570312 3223.523438 399.339844 3231.488281 395.753906 L 3200.117188 390.808594 C 3190.082031 389.230469 3179.789062 390.816406 3170.175781 394.902344 Z M 3352.324219 389.609375 C 3339.5 383.203125 3326.582031 387.027344 3313.636719 397.035156 C 3325.910156 395.898438 3338.179688 393.628906 3352.324219 389.609375 M 3250.445312 383.980469 C 3202.511719 371.402344 3181.886719 366.828125 3137.609375 387.886719 C 3145.898438 393.714844 3153.710938 392.214844 3161.234375 388.527344 C 3197.679688 370.652344 3227.859375 395.859375 3250.445312 383.980469 M 3360.804688 382.238281 C 3366.925781 385.609375 3373.496094 385.65625 3378.464844 381.386719 C 3355.699219 364.546875 3326.371094 363.726562 3303.660156 379.636719 L 3275.578125 399.308594 C 3297.449219 409.96875 3322.109375 360.929688 3360.804688 382.238281 M 3440.246094 363.351562 C 3416.84375 381.183594 3393.832031 390.554688 3366.871094 398.09375 C 3288.40625 417.242188 3207.417969 417.929688 3128.765625 399.179688 C 3099.546875 391.96875 3074.742188 380.625 3050.03125 363.710938 C 3061.976562 438.257812 3113.351562 494.675781 3184.46875 513.027344 C 3229.875 524.742188 3275.949219 523.699219 3320.324219 508.105469 C 3384.46875 485.785156 3429.535156 430.429688 3440.246094 363.351562 M 3296.203125 373.21875 C 3322.0625 353.871094 3357.664062 354.175781 3382.667969 373.265625 C 3388.121094 377.429688 3393.160156 379 3398.8125 373.148438 C 3362.699219 341.148438 3314.105469 343.707031 3278.832031 373.738281 C 3266.332031 384.378906 3253.128906 392.402344 3238.867188 399.539062 C 3248.984375 403.300781 3259.59375 400.613281 3267.65625 394.582031 Z M 3253.023438 365.25 C 3242.160156 371.96875 3235.089844 366.445312 3227.371094 360.75 L 3220.234375 368.078125 C 3234.796875 370.738281 3263.308594 379.734375 3271.785156 367.988281 C 3279.605469 357.15625 3247.582031 332.984375 3235.914062 340.792969 L 3261.308594 355.191406 C 3263.160156 356.242188 3266.898438 362.351562 3265.523438 363.761719 L 3260.976562 368.4375 C 3253.820312 355.832031 3235.238281 350.015625 3232.691406 354.273438 L 3229.867188 359 C 3239.78125 360.046875 3245.730469 360.316406 3253.023438 365.25 M 3157.828125 363.015625 L 3163.136719 368.042969 C 3163.839844 368.703125 3167.128906 367.285156 3166.773438 366.386719 L 3164.703125 361.160156 C 3162.675781 356.035156 3161.074219 344.953125 3159.878906 338.246094 C 3148.4375 328.636719 3129.398438 330.554688 3116.902344 338.867188 C 3111.453125 342.492188 3105.46875 352.617188 3107.667969 357.785156 C 3118.488281 383.21875 3154.078125 373.234375 3155.09375 370.460938 Z M 3237.984375 328.789062 C 3270.335938 331.226562 3282.441406 361.472656 3285.539062 357.765625 L 3289.207031 353.378906 C 3293.953125 347.703125 3255.324219 317.480469 3237.984375 328.789062 M 3096.4375 375.367188 C 3104.828125 382.304688 3118.121094 385.773438 3127.738281 383.121094 C 3113.597656 378.449219 3100.078125 372.429688 3098.664062 356.5 C 3097.855469 347.410156 3103.699219 339.871094 3111.320312 332.03125 L 3100.726562 321.839844 C 3087.085938 327.203125 3074.777344 336.21875 3069.84375 349.675781 C 3066.738281 358.140625 3072.0625 368.667969 3080.242188 366.804688 C 3078.484375 354.40625 3083.855469 338.0625 3090.84375 333.476562 C 3092.007812 332.714844 3099.136719 333.816406 3098.527344 334.75 L 3095.574219 339.28125 C 3088.320312 350.40625 3084.578125 365.554688 3096.4375 375.367188 M 3419.765625 347.953125 C 3415.683594 337.5 3407.878906 329.601562 3398.605469 325.605469 L 3377.777344 316.636719 L 3361.171875 342.976562 C 3381.398438 348.949219 3395.566406 357.585938 3410.402344 369.324219 C 3418.371094 367.40625 3423.515625 357.550781 3419.765625 347.953125 M 3290.359375 331.132812 C 3287.242188 311.058594 3271.839844 315.941406 3262.507812 319.234375 C 3272.828125 324.304688 3282.144531 328.4375 3290.359375 331.132812 M 3205 364.035156 C 3213.496094 363.945312 3228.222656 350.261719 3228.421875 341.847656 C 3228.8125 325.0625 3210.796875 316.777344 3196.738281 317.921875 C 3185.207031 318.855469 3175.609375 326.097656 3171.601562 334.765625 C 3167.53125 343.570312 3168.980469 359.285156 3177.632812 364.324219 Z M 3353.117188 312.195312 C 3353.785156 311.167969 3349.4375 306.121094 3349.011719 306.964844 L 3346.746094 311.480469 C 3342.167969 320.601562 3337.738281 329.164062 3334.789062 340.511719 Z M 3058.988281 353.601562 C 3062.371094 332.921875 3077.570312 322.484375 3092.917969 314.648438 L 3082.519531 297.226562 C 3070.511719 300.976562 3057.648438 309.378906 3050.863281 320.8125 C 3043.53125 333.160156 3047.671875 348.4375 3058.988281 353.601562 M 3431.371094 354.449219 C 3444.660156 345.980469 3446.402344 328.105469 3436.230469 316.480469 C 3425.4375 304.148438 3411.941406 295.785156 3396.105469 289.34375 L 3384.894531 307.632812 C 3409.585938 321.316406 3425.472656 325.761719 3431.371094 354.449219 M 3310.941406 325.308594 C 3301.003906 333.714844 3293.6875 336.824219 3298.601562 348.589844 C 3303.765625 344.746094 3308.738281 338.636719 3311.53125 332.207031 L 3324.316406 302.777344 C 3312.832031 297.945312 3305.636719 293.710938 3295.46875 290.253906 C 3268.796875 281.183594 3229.53125 287.765625 3213.703125 313.855469 C 3238.351562 302.644531 3257.585938 287.871094 3284.300781 292.960938 C 3296.789062 295.339844 3307.164062 300.019531 3315.980469 310.742188 L 3305.871094 318.449219 C 3293.410156 292.851562 3248.957031 300.335938 3233.867188 316.839844 C 3270.484375 306.980469 3277.71875 298.125 3310.941406 325.308594 M 3371.433594 279.640625 C 3369.96875 279.054688 3364.089844 277.011719 3363 278.144531 C 3359.03125 282.28125 3354.148438 293.4375 3353.796875 299.84375 C 3360.550781 306.496094 3373.417969 280.433594 3371.433594 279.640625 M 3096.015625 266.191406 C 3107.082031 263.875 3109.730469 270.460938 3117.480469 275.417969 L 3122.3125 262.515625 L 3128.894531 282.640625 C 3130.558594 287.71875 3138.691406 294.53125 3144.457031 298.734375 L 3144.109375 275.792969 C 3159.433594 284.8125 3145.175781 299.949219 3165.457031 316.742188 C 3167.066406 318.074219 3168.71875 319.070312 3169.839844 319.179688 C 3170.964844 319.289062 3174.15625 317.171875 3173.582031 316.191406 C 3161.316406 295.203125 3160.660156 303.519531 3151.679688 274.378906 C 3147.738281 261.574219 3131.554688 255.613281 3119.410156 253.957031 L 3080.4375 248.640625 C 3083.871094 270.695312 3088.023438 290.429688 3099.832031 307.78125 C 3121.65625 339.839844 3126.734375 316.074219 3165.015625 328.070312 C 3154.824219 302.605469 3122.613281 320.039062 3113.464844 308.042969 L 3137.367188 303.453125 C 3126.03125 286.492188 3114.761719 296.863281 3100.019531 288.453125 C 3105.308594 284.6875 3110.761719 283.890625 3116.53125 284.796875 Z M 3200.359375 223.957031 L 3200.539062 248.558594 C 3206.320312 245.246094 3210.089844 243.53125 3213.277344 245.011719 C 3202.148438 257.046875 3195.59375 266.238281 3198.203125 279.800781 L 3217.738281 266.984375 C 3216.878906 286.21875 3186.976562 285.398438 3197.234375 308.746094 C 3221.007812 298.851562 3233.71875 272.089844 3224.125 246.53125 C 3218.386719 231.230469 3209.558594 216.917969 3199.972656 201.851562 C 3188.753906 214.871094 3179.707031 224.367188 3171.167969 235.578125 C 3152.429688 260.1875 3159.183594 292.128906 3183.992188 310.589844 C 3198.382812 286.019531 3165.898438 280.644531 3171.878906 264.042969 L 3187.941406 280.25 C 3198.703125 255.945312 3174.902344 252.683594 3179.300781 238.210938 L 3191.566406 247.753906 C 3192.996094 236.277344 3189.492188 228.871094 3200.359375 223.957031 M 3461.636719 175.734375 C 3463.574219 173.109375 3460.867188 164.121094 3458.597656 165.019531 C 3456.898438 165.695312 3453.058594 168.082031 3451.929688 169.9375 L 3346.625 343.128906 C 3391.332031 290.421875 3420.875 230.996094 3461.636719 175.734375 M 3413.183594 145.398438 C 3414.871094 142.152344 3411.859375 135.097656 3410.300781 135.609375 C 3408.695312 136.144531 3404.375 137.863281 3403.085938 140.960938 L 3318.132812 344.847656 C 3355.402344 282.535156 3380.632812 207.925781 3413.183594 145.398438 M 3038.066406 324.753906 C 3040.101562 303.363281 3065.335938 294.609375 3077.890625 286.046875 L 3070.945312 240.101562 L 3111.246094 243.191406 C 3125.859375 244.3125 3139.863281 250.566406 3152.929688 257.128906 C 3156.273438 229.183594 3181.105469 209.46875 3201.710938 190.515625 C 3221.117188 220.097656 3248.269531 248.574219 3231.183594 286.101562 C 3264.304688 274.695312 3294.761719 273.933594 3326.925781 293.578125 C 3331.757812 285.804688 3334.257812 280.363281 3337.300781 271.261719 C 3308.367188 266.167969 3279.519531 263.582031 3249.738281 262.460938 C 3247.789062 262.386719 3243.691406 259.675781 3242.53125 258.34375 C 3229.863281 243.769531 3337.011719 258.648438 3342.023438 260.195312 L 3397.730469 130.761719 C 3400.226562 124.960938 3411.835938 126.515625 3415.746094 129.136719 C 3421.839844 133.226562 3424.695312 141.0625 3420.648438 149.90625 L 3368.371094 264.082031 C 3367.378906 266.25 3373.660156 271.183594 3375.539062 270.390625 C 3377.425781 269.59375 3381.492188 267.0625 3383.015625 264.609375 L 3448.808594 158.683594 C 3451.28125 154.699219 3462.503906 155.84375 3466.03125 158.195312 C 3469.554688 160.550781 3475.554688 169.929688 3472.859375 174.039062 L 3403.40625 279.835938 C 3431.113281 293.902344 3456.132812 306.707031 3454.152344 341.433594 C 3449.871094 416.402344 3407.761719 482.300781 3339.058594 513.371094 C 3341.78125 532.554688 3333.089844 545.6875 3315.726562 551.445312 C 3269.246094 566.859375 3217.5625 566.460938 3171.191406 550.359375 C 3154.523438 544.574219 3147.710938 531.511719 3149.414062 513.132812 C 3078.230469 479.910156 3030.355469 405.792969 3038.066406 324.753906 "></path><path style=" stroke:none;fill-rule:nonzero;fill:rgb(0%,0%,0%);fill-opacity:1;" d="M 3413.183594 145.398438 C 3380.632812 207.925781 3355.402344 282.535156 3318.132812 344.847656 L 3403.085938 140.960938 C 3404.375 137.863281 3408.695312 136.144531 3410.300781 135.609375 C 3411.859375 135.09375 3414.871094 142.152344 3413.183594 145.398438 "></path><path style=" stroke:none;fill-rule:nonzero;fill:rgb(0%,0%,0%);fill-opacity:1;" d="M 3461.636719 175.734375 C 3420.875 230.996094 3391.332031 290.421875 3346.625 343.132812 L 3451.929688 169.9375 C 3453.058594 168.082031 3456.898438 165.691406 3458.597656 165.019531 C 3460.867188 164.121094 3463.574219 173.109375 3461.636719 175.734375 "></path><path style=" stroke:none;fill-rule:nonzero;fill:rgb(0%,0%,0%);fill-opacity:1;" d="M 3200.359375 223.957031 C 3189.492188 228.871094 3192.996094 236.277344 3191.566406 247.753906 L 3179.300781 238.210938 C 3174.902344 252.683594 3198.703125 255.945312 3187.941406 280.25 L 3171.878906 264.042969 C 3165.898438 280.644531 3198.382812 286.019531 3183.992188 310.589844 C 3159.183594 292.128906 3152.429688 260.1875 3171.167969 235.578125 C 3179.707031 224.367188 3188.753906 214.871094 3199.972656 201.851562 C 3209.558594 216.917969 3218.386719 231.230469 3224.125 246.53125 C 3233.71875 272.089844 3221.007812 298.851562 3197.234375 308.746094 C 3186.976562 285.402344 3216.878906 286.21875 3217.738281 266.984375 L 3198.203125 279.796875 C 3195.59375 266.238281 3202.148438 257.046875 3213.277344 245.011719 C 3210.089844 243.53125 3206.320312 245.246094 3200.539062 248.558594 Z M 3200.359375 223.957031 "></path><path style=" stroke:none;fill-rule:nonzero;fill:rgb(0%,0%,0%);fill-opacity:1;" d="M 3096.015625 266.191406 L 3116.53125 284.796875 C 3110.761719 283.890625 3105.308594 284.6875 3100.019531 288.453125 C 3114.761719 296.863281 3126.03125 286.492188 3137.367188 303.453125 L 3113.464844 308.042969 C 3122.613281 320.039062 3154.824219 302.605469 3165.019531 328.070312 C 3126.734375 316.074219 3121.65625 339.839844 3099.832031 307.78125 C 3088.023438 290.429688 3083.871094 270.695312 3080.4375 248.640625 L 3119.410156 253.957031 C 3131.554688 255.613281 3147.738281 261.574219 3151.683594 274.378906 C 3160.660156 303.519531 3161.316406 295.203125 3173.582031 316.191406 C 3174.15625 317.171875 3170.964844 319.289062 3169.839844 319.179688 C 3168.71875 319.070312 3167.066406 318.078125 3165.457031 316.742188 C 3145.175781 299.949219 3159.433594 284.8125 3144.109375 275.792969 L 3144.457031 298.734375 C 3138.691406 294.53125 3130.554688 287.71875 3128.894531 282.640625 L 3122.3125 262.515625 L 3117.480469 275.417969 C 3109.730469 270.460938 3107.082031 263.875 3096.015625 266.191406 "></path><path style=" stroke:none;fill-rule:nonzero;fill:rgb(0%,0%,0%);fill-opacity:1;" d="M 3371.433594 279.636719 C 3373.417969 280.433594 3360.550781 306.496094 3353.796875 299.84375 C 3354.148438 293.4375 3359.03125 282.28125 3363 278.144531 C 3364.089844 277.011719 3369.96875 279.054688 3371.433594 279.636719 "></path><path style=" stroke:none;fill-rule:nonzero;fill:rgb(0%,0%,0%);fill-opacity:1;" d="M 3310.941406 325.308594 C 3277.71875 298.125 3270.484375 306.980469 3233.867188 316.839844 C 3248.957031 300.335938 3293.410156 292.851562 3305.871094 318.449219 L 3315.980469 310.742188 C 3307.164062 300.019531 3296.789062 295.339844 3284.300781 292.960938 C 3257.585938 287.871094 3238.351562 302.644531 3213.703125 313.855469 C 3229.53125 287.765625 3268.796875 281.183594 3295.464844 290.253906 C 3305.636719 293.714844 3312.832031 297.945312 3324.316406 302.777344 L 3311.53125 332.207031 C 3308.738281 338.636719 3303.765625 344.746094 3298.601562 348.589844 C 3293.6875 336.824219 3301.003906 333.714844 3310.941406 325.308594 "></path><path style=" stroke:none;fill-rule:nonzero;fill:rgb(0%,0%,0%);fill-opacity:1;" d="M 3431.371094 354.449219 C 3425.472656 325.761719 3409.585938 321.316406 3384.894531 307.632812 L 3396.105469 289.34375 C 3411.9375 295.785156 3425.4375 304.148438 3436.230469 316.480469 C 3446.402344 328.105469 3444.660156 345.980469 3431.371094 354.449219 "></path><path style=" stroke:none;fill-rule:nonzero;fill:rgb(0%,0%,0%);fill-opacity:1;" d="M 3058.988281 353.601562 C 3047.671875 348.4375 3043.53125 333.160156 3050.863281 320.8125 C 3057.648438 309.378906 3070.511719 300.976562 3082.519531 297.226562 L 3092.917969 314.648438 C 3077.570312 322.484375 3062.371094 332.921875 3058.988281 353.601562 "></path><path style=" stroke:none;fill-rule:nonzero;fill:rgb(0%,0%,0%);fill-opacity:1;" d="M 3353.117188 312.195312 L 3334.789062 340.511719 C 3337.738281 329.164062 3342.167969 320.601562 3346.746094 311.480469 L 3349.011719 306.964844 C 3349.4375 306.121094 3353.785156 311.167969 3353.117188 312.195312 "></path><path style=" stroke:none;fill-rule:nonzero;fill:rgb(0%,0%,0%);fill-opacity:1;" d="M 3290.359375 331.132812 C 3282.144531 328.4375 3272.828125 324.304688 3262.507812 319.234375 C 3271.839844 315.941406 3287.242188 311.058594 3290.359375 331.132812 "></path><path style=" stroke:none;fill-rule:nonzero;fill:rgb(0%,0%,0%);fill-opacity:1;" d="M 3392.816406 349.402344 C 3392.695312 349.335938 3395.070312 350.59375 3398.953125 352.648438 C 3401.625 346.765625 3403.097656 340.542969 3400.601562 337.347656 C 3397.855469 333.835938 3388.671875 331.886719 3385.234375 333.191406 C 3383.84375 333.71875 3380.675781 340.15625 3382.175781 340.253906 L 3388.652344 340.679688 L 3394.535156 341.125 C 3395.421875 341.191406 3394.363281 343.785156 3392.816406 349.402344 M 3419.765625 347.953125 C 3423.515625 357.550781 3418.371094 367.40625 3410.402344 369.324219 C 3395.566406 357.585938 3381.398438 348.949219 3361.167969 342.976562 L 3377.777344 316.636719 L 3398.605469 325.605469 C 3407.878906 329.601562 3415.683594 337.5 3419.765625 347.953125 "></path><path style=" stroke:none;fill-rule:nonzero;fill:rgb(0%,0%,0%);fill-opacity:1;" d="M 3209.667969 354.394531 C 3215.957031 349.660156 3219.183594 340.765625 3217.199219 336.359375 C 3212.253906 325.367188 3195.921875 323.65625 3185.371094 332.019531 C 3181.636719 334.972656 3178.863281 347.476562 3181.984375 351.09375 C 3187.066406 356.984375 3203.3125 359.179688 3209.667969 354.394531 M 3205 364.035156 L 3177.632812 364.324219 C 3168.980469 359.285156 3167.535156 343.570312 3171.601562 334.765625 C 3175.609375 326.097656 3185.207031 318.855469 3196.738281 317.921875 C 3210.796875 316.777344 3228.8125 325.0625 3228.421875 341.847656 C 3228.222656 350.261719 3213.5 363.945312 3205 364.035156 "></path><path style=" stroke:none;fill-rule:nonzero;fill:rgb(0%,0%,0%);fill-opacity:1;" d="M 3237.984375 328.785156 C 3255.324219 317.480469 3293.953125 347.703125 3289.207031 353.378906 L 3285.539062 357.765625 C 3282.441406 361.472656 3270.335938 331.226562 3237.984375 328.785156 "></path><path style=" stroke:none;fill-rule:nonzero;fill:rgb(0%,0%,0%);fill-opacity:1;" d="M 3096.4375 375.367188 C 3084.578125 365.554688 3088.320312 350.40625 3095.574219 339.28125 L 3098.527344 334.75 C 3099.140625 333.8125 3092.007812 332.714844 3090.84375 333.476562 C 3083.851562 338.0625 3078.480469 354.40625 3080.242188 366.808594 C 3072.0625 368.664062 3066.738281 358.140625 3069.84375 349.675781 C 3074.777344 336.21875 3087.085938 327.203125 3100.726562 321.839844 L 3111.320312 332.03125 C 3103.699219 339.867188 3097.855469 347.410156 3098.664062 356.5 C 3100.078125 372.429688 3113.597656 378.449219 3127.738281 383.121094 C 3118.117188 385.773438 3104.828125 382.304688 3096.4375 375.367188 "></path><path style=" stroke:none;fill-rule:nonzero;fill:rgb(100%,100%,100%);fill-opacity:1;" d="M 3201.726562 350.113281 C 3205.539062 350.191406 3211.832031 340.6875 3209.414062 338.0625 C 3204.238281 332.445312 3191.890625 333.15625 3188.230469 340.144531 C 3187.066406 342.371094 3186.691406 347.582031 3188.96875 348.691406 C 3190.789062 349.578125 3196.46875 350.007812 3201.726562 350.113281 M 3209.667969 354.394531 C 3203.3125 359.179688 3187.066406 356.984375 3181.980469 351.09375 C 3178.859375 347.476562 3181.636719 334.976562 3185.371094 332.019531 C 3195.921875 323.65625 3212.257812 325.367188 3217.199219 336.359375 C 3219.183594 340.765625 3215.957031 349.660156 3209.667969 354.394531 "></path><path style=" stroke:none;fill-rule:nonzero;fill:rgb(0%,0%,0%);fill-opacity:1;" d="M 3143.378906 350.617188 C 3141.667969 357.472656 3139.511719 362.40625 3141.625 363.132812 L 3150.496094 366.183594 L 3152.058594 345.941406 C 3145.070312 337.160156 3128.820312 339.429688 3121.542969 349.191406 C 3118.925781 352.707031 3120.214844 362.347656 3123.175781 365.304688 C 3127.347656 369.472656 3133.566406 371.332031 3139.402344 369.261719 L 3126.554688 356.871094 C 3129.515625 350.511719 3138.796875 347.953125 3143.378906 350.617188 M 3157.828125 363.015625 L 3155.09375 370.460938 C 3154.078125 373.234375 3118.488281 383.21875 3107.667969 357.785156 C 3105.46875 352.617188 3111.453125 342.492188 3116.902344 338.867188 C 3129.398438 330.554688 3148.4375 328.636719 3159.878906 338.246094 C 3161.074219 344.953125 3162.675781 356.035156 3164.707031 361.15625 L 3166.773438 366.386719 C 3167.128906 367.285156 3163.839844 368.707031 3163.136719 368.042969 Z M 3157.828125 363.015625 "></path><path style=" stroke:none;fill-rule:nonzero;fill:rgb(100%,100%,100%);fill-opacity:1;" d="M 3392.816406 349.402344 C 3394.363281 343.785156 3395.421875 341.191406 3394.535156 341.125 L 3388.652344 340.679688 L 3382.175781 340.253906 C 3380.675781 340.15625 3383.84375 333.71875 3385.234375 333.191406 C 3388.671875 331.886719 3397.855469 333.835938 3400.601562 337.347656 C 3403.097656 340.542969 3401.625 346.765625 3398.953125 352.648438 C 3395.070312 350.59375 3392.695312 349.335938 3392.816406 349.402344 "></path><path style=" stroke:none;fill-rule:nonzero;fill:rgb(0%,0%,0%);fill-opacity:1;" d="M 3201.726562 350.113281 C 3196.46875 350.007812 3190.789062 349.578125 3188.96875 348.691406 C 3186.691406 347.582031 3187.066406 342.371094 3188.230469 340.144531 C 3191.890625 333.15625 3204.238281 332.445312 3209.414062 338.0625 C 3211.832031 340.6875 3205.539062 350.191406 3201.726562 350.113281 "></path><path style=" stroke:none;fill-rule:nonzero;fill:rgb(0%,0%,0%);fill-opacity:1;" d="M 3253.023438 365.25 C 3245.730469 360.316406 3239.78125 360.046875 3229.867188 359 L 3232.691406 354.273438 C 3235.238281 350.015625 3253.820312 355.832031 3260.976562 368.4375 L 3265.523438 363.761719 C 3266.898438 362.351562 3263.160156 356.242188 3261.308594 355.191406 L 3235.914062 340.792969 C 3247.582031 332.984375 3279.605469 357.15625 3271.785156 367.988281 C 3263.308594 379.734375 3234.796875 370.738281 3220.230469 368.078125 L 3227.371094 360.75 C 3235.089844 366.445312 3242.160156 371.96875 3253.023438 365.25 "></path><path style=" stroke:none;fill-rule:nonzero;fill:rgb(100%,100%,100%);fill-opacity:1;" d="M 3143.378906 350.617188 C 3138.796875 347.953125 3129.515625 350.511719 3126.554688 356.871094 L 3139.402344 369.261719 C 3133.566406 371.332031 3127.347656 369.472656 3123.175781 365.304688 C 3120.214844 362.347656 3118.925781 352.707031 3121.542969 349.191406 C 3128.820312 339.429688 3145.070312 337.160156 3152.058594 345.941406 L 3150.496094 366.183594 L 3141.625 363.132812 C 3139.511719 362.40625 3141.667969 357.472656 3143.378906 350.617188 "></path><path style=" stroke:none;fill-rule:nonzero;fill:rgb(0%,0%,0%);fill-opacity:1;" d="M 3296.203125 373.21875 L 3267.652344 394.582031 C 3259.59375 400.613281 3248.984375 403.300781 3238.867188 399.539062 C 3253.128906 392.402344 3266.332031 384.378906 3278.832031 373.734375 C 3314.105469 343.710938 3362.699219 341.152344 3398.808594 373.148438 C 3393.15625 379 3388.121094 377.429688 3382.667969 373.265625 C 3357.664062 354.175781 3322.0625 353.871094 3296.203125 373.21875 "></path><path style=" stroke:none;fill-rule:nonzero;fill:rgb(0%,0%,0%);fill-opacity:1;" d="M 3360.804688 382.238281 C 3322.109375 360.929688 3297.449219 409.96875 3275.578125 399.308594 L 3303.660156 379.636719 C 3326.371094 363.726562 3355.699219 364.546875 3378.464844 381.386719 C 3373.496094 385.65625 3366.925781 385.609375 3360.804688 382.238281 "></path><path style=" stroke:none;fill-rule:nonzero;fill:rgb(0%,0%,0%);fill-opacity:1;" d="M 3440.25 363.351562 C 3429.535156 430.429688 3384.46875 485.785156 3320.324219 508.105469 C 3275.949219 523.699219 3229.875 524.742188 3184.46875 513.027344 C 3113.351562 494.675781 3061.976562 438.257812 3050.03125 363.710938 C 3074.742188 380.625 3099.546875 391.96875 3128.765625 399.179688 C 3207.417969 417.929688 3288.40625 417.242188 3366.871094 398.097656 C 3393.832031 390.554688 3416.84375 381.183594 3440.25 363.351562 "></path><path style=" stroke:none;fill-rule:nonzero;fill:rgb(0%,0%,0%);fill-opacity:1;" d="M 3250.445312 383.980469 C 3227.859375 395.859375 3197.679688 370.652344 3161.234375 388.527344 C 3153.710938 392.214844 3145.898438 393.714844 3137.609375 387.886719 C 3181.886719 366.832031 3202.511719 371.402344 3250.445312 383.980469 "></path><path style=" stroke:none;fill-rule:nonzero;fill:rgb(0%,0%,0%);fill-opacity:1;" d="M 3352.324219 389.609375 C 3338.179688 393.628906 3325.910156 395.898438 3313.636719 397.035156 C 3326.578125 387.027344 3339.5 383.203125 3352.324219 389.609375 "></path><path style=" stroke:none;fill-rule:nonzero;fill:rgb(0%,0%,0%);fill-opacity:1;" d="M 3204.570312 400.195312 L 3170.175781 394.898438 C 3179.789062 390.816406 3190.082031 389.230469 3200.117188 390.808594 L 3231.488281 395.753906 C 3223.523438 399.34375 3213.492188 401.570312 3204.570312 400.195312 "></path></g></svg>