<?xml version='1.0' encoding='utf-8'?>
<svg xmlns="http://www.w3.org/2000/svg" viewBox="736.20 695.23 799.68 724.46" width="80" height="80" fill="none"><g><path style=" stroke:none;fill-rule:nonzero;fill:rgb(0%,0%,0%);fill-opacity:1;" d="M 825.746094 717.925781 C 809.933594 769.925781 802.050781 822.507812 783.140625 876.105469 C 788.386719 820.652344 805.21875 769.371094 812.871094 715.226562 C 817.675781 715.894531 819.199219 716.21875 825.746094 717.925781 "></path><path style=" stroke:none;fill-rule:nonzero;fill:rgb(0%,0%,0%);fill-opacity:1;" d="M 823.839844 863.847656 C 821.796875 867.738281 819.363281 869.546875 816.226562 868.402344 L 881.53125 727.890625 C 885.78125 727.800781 889.261719 729.628906 892.625 732.800781 Z M 823.839844 863.847656 "></path><path style=" stroke:none;fill-rule:nonzero;fill:rgb(0%,0%,0%);fill-opacity:1;" d="M 1353.554688 1374.855469 C 1353.210938 1362.609375 1344.972656 1354.234375 1333.824219 1354.519531 C 1322.554688 1354.8125 1315.234375 1363.761719 1315.070312 1375.382812 C 1314.898438 1387.828125 1322.710938 1397.308594 1334.863281 1397 C 1346.332031 1396.710938 1353.910156 1387.503906 1353.554688 1374.855469 M 1393.339844 1391.113281 C 1400.632812 1382.835938 1400.347656 1370.632812 1394.875 1362.214844 C 1391.210938 1356.585938 1385.085938 1354.308594 1379.082031 1354.472656 C 1373.183594 1354.632812 1367.015625 1357.285156 1363.734375 1363.011719 C 1359.046875 1371.1875 1358.820312 1382.273438 1364.730469 1390.15625 C 1371.285156 1398.890625 1385.789062 1399.6875 1393.339844 1391.113281 M 1175.816406 1384.5 C 1173.316406 1379.386719 1173.515625 1373.292969 1175.230469 1368.347656 C 1176.964844 1363.34375 1181.273438 1360.921875 1186.070312 1360.996094 C 1190.324219 1361.0625 1193.492188 1364.042969 1195.679688 1368.4375 L 1202.636719 1368.398438 C 1201.429688 1360.683594 1196.46875 1356.277344 1189.734375 1354.902344 C 1183.160156 1353.558594 1176.582031 1355.335938 1172.261719 1359.515625 C 1167.769531 1363.871094 1166.292969 1370.109375 1166.222656 1376.378906 C 1166.085938 1388.660156 1174.210938 1397.917969 1186.710938 1396.949219 C 1194.28125 1396.367188 1200.933594 1391.996094 1202.433594 1383.632812 C 1200.488281 1383.242188 1196.933594 1383.191406 1195.382812 1383.949219 C 1193.535156 1387.914062 1190.035156 1390.714844 1186.011719 1390.65625 C 1182.230469 1390.601562 1177.929688 1388.824219 1175.816406 1384.5 M 1131.042969 1370 C 1131.082031 1365.273438 1135.527344 1362.148438 1139.214844 1361.496094 C 1142.925781 1360.84375 1149.417969 1362.421875 1149.519531 1367.425781 L 1150.09375 1395.882812 L 1157.484375 1395.824219 C 1155.824219 1380.636719 1163.679688 1355.460938 1144.832031 1354.539062 C 1139.234375 1354.265625 1134.367188 1356.375 1131.234375 1361.574219 L 1130.414062 1355.007812 L 1123.335938 1355.257812 L 1123.453125 1395.679688 C 1125.742188 1396.113281 1128.84375 1396.253906 1130.835938 1395.949219 Z M 1091.300781 1389.734375 C 1087.722656 1388.199219 1084.613281 1383.816406 1084.652344 1378.503906 L 1113.617188 1378.414062 C 1114.359375 1371.4375 1113.195312 1364.542969 1108.277344 1359.4375 C 1103.773438 1354.765625 1097.171875 1353.5 1091.019531 1355.097656 C 1079.578125 1358.070312 1075.460938 1369.988281 1077.363281 1381.71875 C 1078.953125 1391.503906 1086.964844 1397.511719 1096.742188 1396.96875 C 1103.898438 1396.570312 1110.648438 1393.511719 1112.8125 1385.78125 C 1103.480469 1381.179688 1104.128906 1395.246094 1091.300781 1389.734375 M 1058.597656 1395.632812 L 1058.972656 1368.996094 C 1059.058594 1363.125 1066.332031 1361.386719 1071.199219 1362.109375 C 1072.511719 1361.199219 1072.796875 1355.9375 1071.234375 1354.90625 C 1067.105469 1353.230469 1061.003906 1356.214844 1059.175781 1360.332031 C 1058.601562 1358.421875 1058.476562 1355.640625 1057.339844 1355.296875 C 1056.203125 1354.949219 1053.457031 1355.269531 1051.386719 1355.605469 L 1051.363281 1395.789062 C 1053.703125 1396.382812 1057.285156 1396.398438 1058.597656 1395.632812 M 1306.289062 1365.796875 L 1282.421875 1365.613281 L 1282.445312 1347.96875 L 1309.191406 1347.746094 L 1309.125 1341.019531 L 1274.671875 1341.101562 L 1274.71875 1396.132812 L 1282.410156 1395.992188 L 1282.511719 1372.542969 L 1306.414062 1372.152344 Z M 1039.042969 1365.894531 L 1015.878906 1365.410156 L 1015.839844 1348.136719 L 1041.292969 1347.765625 C 1043.082031 1347.738281 1043.074219 1340.96875 1041.289062 1340.976562 L 1008 1341.113281 L 1008.058594 1395.859375 L 1015.59375 1396.4375 L 1015.894531 1372.582031 L 1038.84375 1372.335938 C 1040.347656 1372.324219 1040.667969 1365.929688 1039.042969 1365.894531 M 1435.691406 1389.316406 C 1435.515625 1391.394531 1435.546875 1395.222656 1437.148438 1396.0625 C 1438.550781 1396.796875 1441.796875 1396.324219 1443.160156 1395.039062 L 1443.339844 1339.703125 L 1435.917969 1339.566406 L 1435.722656 1361.488281 C 1431.652344 1356.945312 1427.324219 1354.308594 1421.617188 1354.753906 C 1416.523438 1355.152344 1411.464844 1358.191406 1408.820312 1363.25 C 1404.914062 1370.71875 1404.777344 1379.515625 1408.003906 1387.261719 C 1410.480469 1393.203125 1416.011719 1396.632812 1421.628906 1396.894531 C 1427.554688 1397.167969 1432.769531 1394.339844 1435.691406 1389.316406 M 1238.566406 1396.117188 L 1245.914062 1396.417969 L 1245.84375 1366.835938 C 1245.828125 1360.175781 1240.277344 1355.632812 1234.566406 1354.683594 C 1229.015625 1353.761719 1224.257812 1355.519531 1219.5 1360.625 L 1219.199219 1339.488281 L 1211.613281 1339.859375 L 1211.8125 1396.0625 L 1219.152344 1395.882812 L 1219.394531 1371.027344 C 1219.441406 1366.164062 1222.914062 1362.480469 1226.953125 1361.613281 C 1230.640625 1360.820312 1237.296875 1361.738281 1237.777344 1367.046875 C 1238.648438 1376.746094 1238.363281 1386.292969 1238.566406 1396.117188 M 1464.269531 1162.40625 C 1484.613281 1142.628906 1515.878906 1102.605469 1490.640625 1075.535156 C 1493.761719 1065.832031 1500.046875 1058.472656 1509.253906 1054.28125 C 1510.707031 1053.621094 1512.933594 1051.566406 1512.933594 1050.199219 C 1512.925781 1046.691406 1509.960938 1041.183594 1506.65625 1039.621094 C 1505.15625 1038.914062 1500.929688 1039.640625 1499.414062 1040.695312 L 1491.257812 1046.359375 C 1491.382812 1026.957031 1479.132812 1017.839844 1462.371094 1011.699219 C 1460.761719 1011.109375 1457.382812 1013.734375 1457.304688 1015.398438 C 1456.320312 1036.21875 1459.464844 1050.851562 1480.71875 1059.03125 L 1475.628906 1067.808594 C 1448.507812 1062.800781 1438.96875 1084.484375 1428.449219 1104.453125 C 1423.027344 1113.917969 1417.371094 1123.058594 1409.65625 1130.875 C 1392.566406 1124.972656 1376.726562 1120.433594 1359.359375 1116.511719 L 1358.960938 965.402344 C 1358.910156 945.574219 1347.835938 928.839844 1332.484375 918.074219 C 1324.183594 912.253906 1320.113281 904.542969 1319.738281 894.535156 L 1317.019531 822.546875 C 1326.359375 822.601562 1324.214844 808.289062 1323.28125 801.726562 C 1323.03125 799.972656 1318.578125 798.078125 1316.933594 797.132812 L 1317.964844 786.089844 C 1318.242188 783.140625 1316.128906 779.371094 1312.601562 779.382812 L 1277.339844 779.46875 C 1273.351562 779.480469 1270.566406 782.484375 1270.894531 786.359375 L 1271.820312 797.386719 C 1269.660156 798.203125 1265.632812 800.164062 1265.453125 801.964844 C 1264.6875 809.675781 1262.617188 821.363281 1271.355469 822.472656 L 1268.882812 893.523438 C 1268.523438 903.851562 1264.625 911.925781 1255.9375 918.085938 C 1240.625 928.941406 1229.425781 945.503906 1229.375 965.417969 L 1229.019531 1099.117188 C 1224.191406 1099.132812 1219.421875 1099.039062 1216.488281 1101.015625 C 1202.683594 1110.304688 1193.773438 1099.542969 1189.339844 1099.535156 C 1176.375 1099.511719 1162.492188 1100.6875 1149.578125 1102.4375 C 1141.644531 1110.316406 1131.59375 1111.945312 1121.917969 1106.480469 C 1107.289062 1107.09375 1092.714844 1109.664062 1078.867188 1114.0625 C 1072.011719 1122.191406 1062.679688 1124.648438 1052.664062 1120.867188 C 1020.636719 1127.929688 959.980469 1146.011719 948.851562 1180.234375 C 940.503906 1205.90625 967.734375 1218.5625 987.847656 1223.910156 C 1043.144531 1238.609375 1133.394531 1241.226562 1191.972656 1241.769531 C 1251.738281 1242.320312 1310.1875 1240.933594 1369.578125 1235.027344 C 1392.121094 1232.785156 1413.144531 1229.667969 1434.78125 1224.226562 C 1455.746094 1218.953125 1483.855469 1206.84375 1475.152344 1179.789062 C 1473.074219 1173.328125 1468.894531 1167.742188 1464.269531 1162.40625 "></path><path style=" stroke:none;fill-rule:nonzero;fill:rgb(100%,100%,100%);fill-opacity:1;" d="M 1051.335938 1161.203125 C 1060.445312 1150.527344 1067.507812 1139.710938 1073.019531 1128.363281 C 1067.105469 1129.503906 1063.386719 1129.925781 1058.046875 1130.132812 C 1054.273438 1139.980469 1050.832031 1150.664062 1051.335938 1161.203125 M 1350.261719 1126.445312 C 1343.503906 1125.398438 1339.542969 1123.96875 1334.714844 1120.902344 C 1329.476562 1134.042969 1324.308594 1147.292969 1323.863281 1161.566406 C 1334.558594 1150.375 1342.414062 1138.503906 1350.261719 1126.445312 M 1113.894531 1161.546875 C 1126.292969 1147.011719 1135.691406 1132.109375 1143.59375 1115.429688 C 1137.324219 1117.058594 1131.933594 1117.328125 1125.355469 1115.953125 C 1119.390625 1130.429688 1114.417969 1145.332031 1113.894531 1161.546875 M 1285.273438 1115.933594 C 1278.085938 1115.730469 1274.054688 1114.8125 1268.5 1111.976562 C 1260.824219 1127.730469 1254.730469 1144.367188 1253.183594 1162.234375 C 1266.570312 1147.890625 1276.453125 1132.074219 1285.273438 1115.933594 M 1212.457031 1111.351562 C 1205.074219 1112.363281 1200.226562 1111.84375 1194.417969 1109.800781 C 1186.382812 1126.269531 1181.039062 1143.175781 1179.617188 1161.933594 C 1193.25 1146.9375 1203.980469 1129.75 1212.457031 1111.351562 M 1459.898438 1205.917969 C 1468.582031 1200.023438 1471.558594 1190.148438 1467.863281 1180.84375 C 1455.855469 1150.601562 1390.484375 1130.460938 1360.007812 1124.476562 C 1348.027344 1143.160156 1339.097656 1157.972656 1322.222656 1172.589844 L 1317.453125 1172.191406 C 1316.371094 1172.097656 1315.703125 1168.878906 1315.765625 1167.675781 C 1316.71875 1149.863281 1321.203125 1133.082031 1328.734375 1116.78125 C 1317.675781 1113.777344 1307.03125 1112.203125 1295.628906 1111.5625 C 1285.460938 1132.054688 1269.789062 1158.160156 1252.535156 1172.179688 C 1251.351562 1173.144531 1247.714844 1173.148438 1246.84375 1172.195312 C 1246.117188 1171.398438 1245.40625 1169.074219 1245.476562 1167.71875 C 1246.578125 1146.726562 1252.484375 1127.796875 1261.898438 1108.582031 C 1248.308594 1106.96875 1235.585938 1106.332031 1222.683594 1106.785156 C 1214.484375 1125.726562 1204.941406 1142.035156 1192.898438 1157.902344 C 1188.769531 1161.835938 1179.425781 1176.519531 1173.75 1172.527344 C 1172.6875 1171.777344 1171.84375 1169.414062 1171.921875 1167.625 C 1172.839844 1146.03125 1178.40625 1126.363281 1187.445312 1106.851562 C 1175.25 1107.164062 1164.933594 1107.851562 1154.046875 1109.234375 C 1144.617188 1132.582031 1132.09375 1153.078125 1114.949219 1170.867188 C 1113.6875 1172.175781 1110.597656 1173.269531 1109.136719 1173.019531 C 1100.203125 1171.492188 1113.566406 1122.496094 1118.203125 1113.898438 C 1106.234375 1115.214844 1095.589844 1116.902344 1084.316406 1119.871094 C 1077.140625 1139.878906 1065.839844 1157.429688 1050.78125 1171.847656 C 1049.761719 1172.824219 1046.355469 1173.039062 1045.476562 1172.117188 C 1040.398438 1166.804688 1046.816406 1138.289062 1050.339844 1128.871094 C 1022.699219 1135.050781 967.5625 1152.285156 956.261719 1180.257812 C 952.398438 1189.816406 955.230469 1199.683594 963.539062 1205.492188 C 971.359375 1210.957031 980.121094 1214.558594 989.609375 1216.976562 C 1038.5625 1229.460938 1125.605469 1234.371094 1176.890625 1234.433594 L 1244.472656 1234.511719 C 1296.9375 1234.570312 1386.320312 1229.269531 1436.445312 1216.269531 C 1444.75 1214.117188 1452.695312 1210.804688 1459.898438 1205.917969 M 1491.527344 1106.167969 L 1481.242188 1096.675781 C 1477.144531 1097.773438 1471.882812 1099.253906 1468.480469 1096.386719 C 1466.203125 1094.464844 1464.710938 1089.597656 1463.617188 1086.042969 L 1450.976562 1082.359375 C 1446.992188 1086.972656 1443.367188 1092.328125 1440.488281 1098.054688 C 1434.019531 1110.921875 1426.660156 1122.667969 1417.816406 1134.199219 C 1432.765625 1140.539062 1445.953125 1147.335938 1458.675781 1156.949219 C 1471.21875 1145.253906 1489.835938 1122.800781 1491.527344 1106.167969 M 1483.542969 1087.289062 C 1487.597656 1089.566406 1488.066406 1094.519531 1492.078125 1096.34375 C 1491.914062 1087.816406 1486.777344 1081.488281 1480.941406 1078.144531 C 1473.886719 1074.105469 1465.886719 1072.898438 1458.757812 1076.777344 L 1470.707031 1079.097656 L 1472.253906 1089.847656 C 1476.707031 1092.976562 1481.332031 1086.046875 1483.542969 1087.289062 M 1476.28125 1030.792969 L 1483.261719 1041.476562 C 1482.0625 1030.941406 1473.53125 1023.753906 1464.554688 1021.066406 C 1463.859375 1033.3125 1467.410156 1044.835938 1478.265625 1049.21875 L 1470.171875 1035.359375 C 1469.378906 1034 1470.113281 1030.441406 1471.441406 1030 C 1472.585938 1029.617188 1475.015625 1030.199219 1476.28125 1030.792969 M 1332 1109.875 C 1336.953125 1111.039062 1340.660156 1120.46875 1351.855469 1118.191406 L 1351.722656 966.480469 C 1351.710938 948.675781 1342.390625 933.792969 1328.421875 924.101562 C 1319.0625 917.605469 1313.132812 908.347656 1312.601562 896.820312 L 1311.609375 875.242188 L 1276.894531 875.175781 L 1276.027344 896.335938 C 1275.550781 908.042969 1269.542969 917.417969 1259.992188 924.132812 C 1245.628906 934.234375 1236.585938 949.402344 1236.59375 967.542969 L 1236.648438 1098.9375 C 1246.988281 1099.820312 1256.878906 1099.339844 1266.269531 1102.371094 C 1270.558594 1103.753906 1274.464844 1107.621094 1279.015625 1108.453125 C 1292.375 1110.894531 1278.621094 1097.34375 1332 1109.875 M 1311.5 867.886719 L 1309.742188 822.417969 L 1278.640625 822.496094 L 1277.132812 867.96875 Z M 1316.71875 815.105469 L 1316.230469 804.90625 L 1272.1875 804.90625 L 1272.101562 815.09375 Z M 1309.871094 797.542969 L 1310.664062 786.496094 L 1278.324219 786.515625 L 1279.558594 797.742188 Z M 1464.269531 1162.40625 C 1468.894531 1167.742188 1473.074219 1173.328125 1475.152344 1179.789062 C 1483.855469 1206.84375 1455.75 1218.953125 1434.78125 1224.226562 C 1413.144531 1229.671875 1392.121094 1232.785156 1369.578125 1235.027344 C 1310.1875 1240.9375 1251.738281 1242.320312 1191.972656 1241.769531 C 1133.390625 1241.226562 1043.144531 1238.613281 987.847656 1223.910156 C 967.734375 1218.5625 940.503906 1205.90625 948.851562 1180.234375 C 959.980469 1146.007812 1020.632812 1127.929688 1052.664062 1120.867188 C 1062.679688 1124.648438 1072.011719 1122.191406 1078.867188 1114.0625 C 1092.714844 1109.664062 1107.289062 1107.09375 1121.914062 1106.484375 C 1131.59375 1111.945312 1141.644531 1110.316406 1149.578125 1102.4375 C 1162.492188 1100.6875 1176.375 1099.511719 1189.339844 1099.535156 C 1193.773438 1099.542969 1202.683594 1110.300781 1216.488281 1101.015625 C 1219.425781 1099.039062 1224.191406 1099.132812 1229.019531 1099.121094 L 1229.375 965.417969 C 1229.425781 945.503906 1240.625 928.9375 1255.9375 918.085938 C 1264.625 911.925781 1268.523438 903.851562 1268.882812 893.523438 L 1271.355469 822.46875 C 1262.617188 821.363281 1264.6875 809.675781 1265.453125 801.964844 C 1265.632812 800.164062 1269.660156 798.203125 1271.820312 797.386719 L 1270.890625 786.359375 C 1270.566406 782.484375 1273.351562 779.480469 1277.339844 779.46875 L 1312.601562 779.382812 C 1316.128906 779.371094 1318.242188 783.140625 1317.964844 786.089844 L 1316.933594 797.132812 C 1318.578125 798.078125 1323.03125 799.972656 1323.28125 801.726562 C 1324.214844 808.289062 1326.359375 822.597656 1317.015625 822.546875 L 1319.738281 894.535156 C 1320.113281 904.539062 1324.183594 912.253906 1332.484375 918.074219 C 1347.835938 928.839844 1358.910156 945.574219 1358.960938 965.402344 L 1359.359375 1116.511719 C 1376.726562 1120.433594 1392.566406 1124.972656 1409.65625 1130.878906 C 1417.371094 1123.058594 1423.027344 1113.917969 1428.449219 1104.453125 C 1438.964844 1084.484375 1448.507812 1062.800781 1475.628906 1067.808594 L 1480.71875 1059.03125 C 1459.464844 1050.851562 1456.324219 1036.21875 1457.304688 1015.398438 C 1457.382812 1013.734375 1460.761719 1011.109375 1462.371094 1011.699219 C 1479.132812 1017.839844 1491.382812 1026.957031 1491.257812 1046.359375 L 1499.414062 1040.695312 C 1500.929688 1039.640625 1505.15625 1038.914062 1506.65625 1039.621094 C 1509.960938 1041.179688 1512.925781 1046.691406 1512.933594 1050.199219 C 1512.933594 1051.566406 1510.703125 1053.621094 1509.253906 1054.28125 C 1500.046875 1058.472656 1493.761719 1065.832031 1490.640625 1075.535156 C 1515.878906 1102.605469 1484.613281 1142.628906 1464.269531 1162.40625 "></path><path style=" stroke:none;fill-rule:nonzero;fill:rgb(0%,0%,0%);fill-opacity:1;" d="M 1309.871094 797.542969 L 1279.558594 797.746094 L 1278.324219 786.515625 L 1310.664062 786.496094 Z M 1309.871094 797.542969 "></path><path style=" stroke:none;fill-rule:nonzero;fill:rgb(0%,0%,0%);fill-opacity:1;" d="M 1316.722656 815.105469 L 1272.097656 815.09375 L 1272.1875 804.90625 L 1316.230469 804.90625 Z M 1316.722656 815.105469 "></path><path style=" stroke:none;fill-rule:nonzero;fill:rgb(0%,0%,0%);fill-opacity:1;" d="M 1311.5 867.886719 L 1277.132812 867.96875 L 1278.636719 822.496094 L 1309.746094 822.417969 Z M 1311.5 867.886719 "></path><path style=" stroke:none;fill-rule:nonzero;fill:rgb(0%,0%,0%);fill-opacity:1;" d="M 804.632812 869.273438 C 803.972656 870.980469 797.527344 872.832031 797.945312 871.054688 L 802.347656 852.394531 C 804.367188 852.078125 808.664062 852.644531 810.84375 853.214844 Z M 804.632812 869.273438 "></path><path style=" stroke:none;fill-rule:nonzero;fill:rgb(0%,0%,0%);fill-opacity:1;" d="M 859.324219 861.765625 L 836.503906 865.679688 C 836.085938 864.320312 838.539062 857.960938 840.613281 857.996094 C 845.816406 858.125 853.667969 859.867188 859.324219 861.765625 "></path><path style=" stroke:none;fill-rule:nonzero;fill:rgb(0%,0%,0%);fill-opacity:1;" d="M 926.292969 924.566406 L 811.628906 950.945312 L 760.3125 889.625 L 893.300781 866.835938 Z M 926.292969 924.566406 "></path><path style=" stroke:none;fill-rule:nonzero;fill:rgb(0%,0%,0%);fill-opacity:1;" d="M 1256.558594 1086.726562 L 1257.027344 970.75 C 1257.117188 948.664062 1271.707031 942.878906 1267.953125 937.054688 C 1262.898438 929.203125 1249.242188 953.617188 1249.195312 972.597656 L 1248.925781 1087.332031 C 1248.921875 1089.484375 1251.015625 1091.488281 1252.457031 1091.527344 C 1254.664062 1091.589844 1256.546875 1089.921875 1256.558594 1086.726562 M 1332 1109.875 C 1278.621094 1097.34375 1292.375 1110.894531 1279.015625 1108.453125 C 1274.464844 1107.621094 1270.558594 1103.753906 1266.269531 1102.371094 C 1256.878906 1099.339844 1246.984375 1099.820312 1236.648438 1098.9375 L 1236.59375 967.542969 C 1236.585938 949.402344 1245.628906 934.234375 1259.992188 924.132812 C 1269.542969 917.417969 1275.550781 908.042969 1276.027344 896.335938 L 1276.894531 875.175781 L 1311.609375 875.242188 L 1312.601562 896.820312 C 1313.132812 908.347656 1319.0625 917.605469 1328.421875 924.101562 C 1342.386719 933.792969 1351.707031 948.675781 1351.722656 966.480469 L 1351.855469 1118.191406 C 1340.660156 1120.46875 1336.953125 1111.039062 1332 1109.875 "></path><path style=" stroke:none;fill-rule:nonzero;fill:rgb(0%,0%,0%);fill-opacity:1;" d="M 812.34375 1009.199219 L 828.703125 1035.9375 L 756.78125 1124.089844 L 756.199219 902.492188 L 807.542969 962.300781 L 846.273438 954.175781 Z M 812.34375 1009.199219 "></path><path style=" stroke:none;fill-rule:nonzero;fill:rgb(100%,100%,100%);fill-opacity:1;" d="M 1256.558594 1086.726562 C 1256.546875 1089.921875 1254.664062 1091.589844 1252.457031 1091.527344 C 1251.015625 1091.488281 1248.921875 1089.484375 1248.925781 1087.332031 L 1249.195312 972.597656 C 1249.242188 953.617188 1262.898438 929.203125 1267.953125 937.054688 C 1271.707031 942.878906 1257.117188 948.664062 1257.027344 970.75 Z M 1256.558594 1086.726562 "></path><path style=" stroke:none;fill-rule:nonzero;fill:rgb(0%,0%,0%);fill-opacity:1;" d="M 866.8125 1074.746094 L 824.496094 1009.34375 L 860.996094 950.671875 L 882.488281 945.796875 Z M 866.8125 1074.746094 "></path><path style=" stroke:none;fill-rule:nonzero;fill:rgb(0%,0%,0%);fill-opacity:1;" d="M 1476.277344 1030.792969 C 1475.011719 1030.199219 1472.585938 1029.617188 1471.441406 1030 C 1470.117188 1030.441406 1469.378906 1034 1470.171875 1035.359375 L 1478.265625 1049.21875 C 1467.410156 1044.835938 1463.863281 1033.3125 1464.550781 1021.066406 C 1473.53125 1023.753906 1482.0625 1030.941406 1483.261719 1041.476562 Z M 1476.277344 1030.792969 "></path><path style=" stroke:none;fill-rule:nonzero;fill:rgb(0%,0%,0%);fill-opacity:1;" d="M 862.15625 1087.730469 L 771.089844 1124.828125 L 834.734375 1045.40625 Z M 862.15625 1087.730469 "></path><path style=" stroke:none;fill-rule:nonzero;fill:rgb(0%,0%,0%);fill-opacity:1;" d="M 1483.542969 1087.289062 C 1481.335938 1086.046875 1476.707031 1092.976562 1472.253906 1089.847656 L 1470.707031 1079.09375 L 1458.757812 1076.773438 C 1465.886719 1072.898438 1473.886719 1074.105469 1480.941406 1078.144531 C 1486.78125 1081.488281 1491.910156 1087.816406 1492.078125 1096.34375 C 1488.066406 1094.519531 1487.597656 1089.566406 1483.542969 1087.289062 "></path><path style=" stroke:none;fill-rule:nonzero;fill:rgb(0%,0%,0%);fill-opacity:1;" d="M 1491.527344 1106.167969 C 1489.835938 1122.800781 1471.21875 1145.253906 1458.675781 1156.949219 C 1445.953125 1147.335938 1432.765625 1140.539062 1417.816406 1134.199219 C 1426.660156 1122.667969 1434.019531 1110.921875 1440.488281 1098.054688 C 1443.367188 1092.328125 1446.992188 1086.972656 1450.976562 1082.359375 L 1463.617188 1086.042969 C 1464.710938 1089.597656 1466.203125 1094.464844 1468.480469 1096.386719 C 1471.882812 1099.253906 1477.144531 1097.773438 1481.242188 1096.675781 Z M 1491.527344 1106.167969 "></path><path style=" stroke:none;fill-rule:nonzero;fill:rgb(0%,0%,0%);fill-opacity:1;" d="M 1334.222656 1217.199219 C 1336.746094 1217.027344 1338.769531 1215.15625 1338.683594 1213.304688 C 1338.597656 1211.4375 1336.628906 1209.539062 1334.304688 1209.710938 C 1288.742188 1213.09375 1244.261719 1215.15625 1198.367188 1214.640625 C 1148.304688 1214.074219 1099.570312 1211.558594 1050.011719 1206.804688 C 1047.753906 1206.589844 1045.644531 1208.332031 1045.554688 1210.226562 C 1045.484375 1211.71875 1047.65625 1213.753906 1049.636719 1213.960938 C 1096.035156 1218.757812 1141.601562 1220.832031 1188.335938 1221.738281 C 1237.332031 1222.6875 1285.351562 1220.496094 1334.222656 1217.199219 M 1365.101562 1214.566406 L 1411.429688 1208.324219 C 1413.125 1208.097656 1414.777344 1205.167969 1414.402344 1203.683594 C 1413.996094 1202.082031 1411.542969 1200.964844 1409.644531 1201.21875 L 1364.289062 1207.265625 C 1362.390625 1207.519531 1360.492188 1210.355469 1360.851562 1211.917969 C 1361.136719 1213.15625 1363.722656 1214.753906 1365.101562 1214.566406 M 1435.535156 1186.097656 C 1439.613281 1182.589844 1440.519531 1177.144531 1439.558594 1172.992188 C 1439.300781 1171.878906 1436.5625 1170.320312 1435.59375 1170.683594 C 1434.625 1171.050781 1433.589844 1172.726562 1433.496094 1173.898438 C 1432.84375 1181.960938 1427.457031 1181.023438 1430.429688 1185.539062 C 1431.105469 1186.566406 1434.550781 1186.941406 1435.535156 1186.097656 M 986.851562 1174.664062 C 986.800781 1172.71875 985.226562 1170.65625 983.589844 1170.457031 C 981.582031 1170.214844 979.292969 1172.3125 979.289062 1174.34375 C 979.273438 1179.191406 981.5625 1184.40625 985.214844 1186.816406 C 986.328125 1187.550781 990.144531 1186.242188 990.210938 1185.042969 C 990.496094 1179.671875 987.054688 1182.304688 986.851562 1174.664062 M 1459.898438 1205.917969 C 1452.695312 1210.804688 1444.75 1214.117188 1436.445312 1216.269531 C 1386.316406 1229.269531 1296.9375 1234.574219 1244.472656 1234.511719 L 1176.890625 1234.433594 C 1125.601562 1234.375 1038.5625 1229.457031 989.609375 1216.976562 C 980.121094 1214.558594 971.363281 1210.957031 963.542969 1205.492188 C 955.230469 1199.683594 952.398438 1189.816406 956.257812 1180.257812 C 967.5625 1152.285156 1022.699219 1135.050781 1050.339844 1128.871094 C 1046.816406 1138.289062 1040.402344 1166.804688 1045.472656 1172.117188 C 1046.355469 1173.039062 1049.761719 1172.824219 1050.78125 1171.847656 C 1065.839844 1157.425781 1077.140625 1139.878906 1084.316406 1119.871094 C 1095.589844 1116.902344 1106.234375 1115.214844 1118.203125 1113.898438 C 1113.566406 1122.496094 1100.203125 1171.492188 1109.136719 1173.019531 C 1110.597656 1173.269531 1113.691406 1172.175781 1114.949219 1170.871094 C 1132.097656 1153.078125 1144.617188 1132.582031 1154.046875 1109.234375 C 1164.933594 1107.851562 1175.25 1107.160156 1187.445312 1106.851562 C 1178.40625 1126.363281 1172.839844 1146.03125 1171.921875 1167.625 C 1171.84375 1169.414062 1172.6875 1171.777344 1173.753906 1172.527344 C 1179.425781 1176.519531 1188.769531 1161.839844 1192.898438 1157.902344 C 1204.941406 1142.039062 1214.484375 1125.722656 1222.6875 1106.785156 C 1235.582031 1106.332031 1248.308594 1106.972656 1261.898438 1108.582031 C 1252.484375 1127.792969 1246.578125 1146.726562 1245.476562 1167.71875 C 1245.40625 1169.074219 1246.117188 1171.398438 1246.84375 1172.195312 C 1247.714844 1173.148438 1251.351562 1173.144531 1252.539062 1172.179688 C 1269.789062 1158.160156 1285.460938 1132.054688 1295.628906 1111.5625 C 1307.03125 1112.207031 1317.675781 1113.777344 1328.734375 1116.78125 C 1321.203125 1133.082031 1316.71875 1149.863281 1315.765625 1167.675781 C 1315.703125 1168.878906 1316.375 1172.097656 1317.453125 1172.191406 L 1322.21875 1172.589844 C 1339.097656 1157.972656 1348.027344 1143.160156 1360.011719 1124.476562 C 1390.488281 1130.460938 1455.855469 1150.601562 1467.863281 1180.839844 C 1471.558594 1190.148438 1468.582031 1200.023438 1459.898438 1205.917969 "></path><path style=" stroke:none;fill-rule:nonzero;fill:rgb(0%,0%,0%);fill-opacity:1;" d="M 1212.457031 1111.351562 C 1203.980469 1129.746094 1193.25 1146.9375 1179.617188 1161.933594 C 1181.039062 1143.175781 1186.382812 1126.269531 1194.417969 1109.800781 C 1200.226562 1111.84375 1205.074219 1112.363281 1212.457031 1111.351562 "></path><path style=" stroke:none;fill-rule:nonzero;fill:rgb(0%,0%,0%);fill-opacity:1;" d="M 1285.273438 1115.933594 C 1276.453125 1132.074219 1266.570312 1147.890625 1253.183594 1162.234375 C 1254.730469 1144.367188 1260.824219 1127.726562 1268.5 1111.976562 C 1274.054688 1114.8125 1278.085938 1115.730469 1285.273438 1115.933594 "></path><path style=" stroke:none;fill-rule:nonzero;fill:rgb(0%,0%,0%);fill-opacity:1;" d="M 1113.894531 1161.546875 C 1114.417969 1145.332031 1119.390625 1130.429688 1125.355469 1115.953125 C 1131.933594 1117.328125 1137.324219 1117.058594 1143.59375 1115.429688 C 1135.691406 1132.109375 1126.292969 1147.011719 1113.894531 1161.546875 "></path><path style=" stroke:none;fill-rule:nonzero;fill:rgb(0%,0%,0%);fill-opacity:1;" d="M 1350.261719 1126.445312 C 1342.417969 1138.503906 1334.558594 1150.375 1323.863281 1161.566406 C 1324.308594 1147.292969 1329.476562 1134.042969 1334.714844 1120.902344 C 1339.542969 1123.96875 1343.503906 1125.398438 1350.261719 1126.445312 "></path><path style=" stroke:none;fill-rule:nonzero;fill:rgb(0%,0%,0%);fill-opacity:1;" d="M 1051.335938 1161.203125 C 1050.832031 1150.664062 1054.273438 1139.980469 1058.046875 1130.132812 C 1063.386719 1129.925781 1067.105469 1129.503906 1073.019531 1128.363281 C 1067.507812 1139.710938 1060.445312 1150.527344 1051.335938 1161.203125 "></path><path style=" stroke:none;fill-rule:nonzero;fill:rgb(100%,100%,100%);fill-opacity:1;" d="M 986.851562 1174.664062 C 987.054688 1182.304688 990.496094 1179.671875 990.207031 1185.042969 C 990.144531 1186.242188 986.328125 1187.550781 985.214844 1186.820312 C 981.5625 1184.40625 979.273438 1179.191406 979.289062 1174.34375 C 979.292969 1172.3125 981.582031 1170.214844 983.589844 1170.457031 C 985.226562 1170.65625 986.800781 1172.71875 986.851562 1174.664062 "></path><path style=" stroke:none;fill-rule:nonzero;fill:rgb(100%,100%,100%);fill-opacity:1;" d="M 1435.535156 1186.097656 C 1434.550781 1186.941406 1431.105469 1186.566406 1430.429688 1185.539062 C 1427.457031 1181.023438 1432.84375 1181.960938 1433.496094 1173.898438 C 1433.589844 1172.726562 1434.625 1171.050781 1435.59375 1170.683594 C 1436.5625 1170.320312 1439.300781 1171.878906 1439.558594 1172.992188 C 1440.519531 1177.144531 1439.613281 1182.589844 1435.535156 1186.097656 "></path><path style=" stroke:none;fill-rule:nonzero;fill:rgb(100%,100%,100%);fill-opacity:1;" d="M 1365.101562 1214.566406 C 1363.722656 1214.753906 1361.136719 1213.15625 1360.855469 1211.917969 C 1360.492188 1210.355469 1362.390625 1207.519531 1364.289062 1207.265625 L 1409.648438 1201.21875 C 1411.542969 1200.964844 1413.996094 1202.082031 1414.402344 1203.683594 C 1414.777344 1205.167969 1413.125 1208.097656 1411.429688 1208.324219 Z M 1365.101562 1214.566406 "></path><path style=" stroke:none;fill-rule:nonzero;fill:rgb(100%,100%,100%);fill-opacity:1;" d="M 1334.222656 1217.199219 C 1285.351562 1220.496094 1237.332031 1222.6875 1188.335938 1221.738281 C 1141.601562 1220.832031 1096.035156 1218.757812 1049.636719 1213.960938 C 1047.65625 1213.753906 1045.484375 1211.71875 1045.554688 1210.226562 C 1045.644531 1208.332031 1047.753906 1206.589844 1050.011719 1206.804688 C 1099.570312 1211.558594 1148.304688 1214.074219 1198.367188 1214.640625 C 1244.261719 1215.15625 1288.742188 1213.09375 1334.304688 1209.710938 C 1336.628906 1209.539062 1338.597656 1211.4375 1338.683594 1213.304688 C 1338.769531 1215.15625 1336.746094 1217.027344 1334.222656 1217.199219 "></path></g></svg>